<svg width="100" height="100" viewBox="0 0 100 100" fill="none" xmlns="http://www.w3.org/2000/svg">
<circle cx="50" cy="50" r="48" fill="#FAD1D1" stroke="#EB5757" stroke-width="4"/>
<g clip-path="url(#clip0)">
<path d="M61.4254 65.1041C61.3096 62.5904 60.0076 60.3543 58.0933 58.7211C56.926 57.7252 55.7603 57.1251 54.7658 56.6636C54.6551 56.6123 54.7548 56.3764 54.6501 56.3306C53.9745 56.0356 53.4291 55.8546 53.1149 55.7603C52.9766 55.7188 52.8355 55.6893 52.6945 55.6582C51.6075 55.4183 51.7871 53.6123 51.7871 53.6123H49.9998H48.2125C48.2125 53.6123 48.3922 55.4183 47.3051 55.6582C47.1641 55.6894 47.0228 55.7189 46.8844 55.7604C46.5701 55.8547 46.0249 56.0357 45.3495 56.3307C45.2398 56.3786 45.2549 56.5334 45.1389 56.5874C44.1444 57.0502 42.9501 57.8022 41.786 58.7973C39.912 60.3992 38.7893 62.5089 38.6389 64.9697C38.6186 65.3018 38.616 65.4036 38.6363 65.7571H61.4208C61.4383 65.4511 61.4388 65.3944 61.4254 65.1041Z" fill="#FFA78F"/>
<path d="M61.5801 65.9997H38.42C38.402 65.6879 38.402 65.3845 38.4162 65.0894C38.5357 62.5798 39.7385 60.2527 41.6503 58.6225C42.9462 57.5175 44.3039 56.7872 45.3498 56.3308C46.6824 57.0244 48.175 57.2847 50 57.2847C51.825 57.2847 53.3177 57.0244 54.6503 56.3308C55.6962 56.7872 57.0538 57.5175 58.3498 58.6225C60.2616 60.2527 61.4643 62.5798 61.5839 65.0894C61.598 65.3845 61.598 65.6879 61.5801 65.9997Z" fill="#2D9CDB"/>
<path d="M61.5802 65.9997H60.2148C60.2135 65.8962 60.2059 65.7941 60.2058 65.6931C60.2048 62.6651 58.8841 60.7079 56.9724 59.0275C55.7889 57.9874 54.5541 57.2694 53.5525 56.7943C53.9317 56.6683 54.2969 56.5153 54.6504 56.3308C55.6963 56.7872 57.054 57.5175 58.3499 58.6225C60.2617 60.2527 61.4645 62.5798 61.5841 65.0894C61.5981 65.3845 61.5981 65.6879 61.5802 65.9997Z" fill="#1F80B7"/>
<path d="M42.8126 46.7773H42.4915C41.5172 46.7773 40.7273 45.9875 40.7273 45.0131V45.0098C40.7273 44.0355 41.5171 43.2456 42.4915 43.2456H42.8126V46.7773Z" fill="#FFA78F"/>
<path d="M57.1875 46.7773H57.5086C58.4829 46.7773 59.2728 45.9875 59.2728 45.0131V45.0098C59.2728 44.0355 58.483 43.2456 57.5086 43.2456H57.1875V46.7773Z" fill="#FFA78F"/>
<path d="M42.6638 44.1223L42.6639 45.2915L42.7779 45.7589L42.794 46.6422C42.794 46.8926 42.8066 47.1405 42.8311 47.3843C43.2021 51.0946 46.198 53.839 49.9999 53.839C52.0262 53.839 53.6839 53.0341 55.0112 51.7044C56.1751 50.5383 56.9956 49.2525 57.1688 47.5192C57.1933 47.2754 57.2059 47.0276 57.2059 46.7771L57.1874 45.823V45.2915V43.1086L54.4814 36.5947L49.9999 35.6555L45.0469 36.9789L42.8496 42.2162L42.6638 44.1223Z" fill="#FFCEBF"/>
<path d="M57.336 43.2456V45.356L57.206 45.8957L57.1875 46.7124C57.1875 46.9633 57.177 47.2129 57.1526 47.4562C56.9792 49.19 56.3541 50.7123 55.0815 51.7587C53.722 52.8767 52.5142 53.7392 50.6478 53.8391C50.5253 53.8457 50.1249 53.9655 50.0001 53.9655C49.7697 53.9655 49.5412 53.9549 49.3164 53.9342C50.7682 53.802 52.092 53.2459 53.1744 52.3909C53.4018 52.2112 53.6235 52.0183 53.828 51.8134C54.9919 50.6474 55.7664 49.0917 55.9392 47.358C55.9637 47.1146 55.9762 46.8669 55.9762 46.6159L55.9768 43.2457L57.336 43.2456Z" fill="#FFB09E"/>
<path d="M57.3361 45.2913V45.8224L57.1963 46.5954C57.1963 46.8458 57.177 47.2121 57.1526 47.4559C56.9793 49.1891 56.2455 50.5923 55.0815 51.7584C53.8522 52.99 52.3664 53.7209 50.5311 53.8387C50.3848 53.8481 49.8069 53.9636 49.7111 53.9599C46.0408 53.8174 43.0627 50.9736 42.7011 47.3578C42.6767 47.1139 42.6641 46.8661 42.6641 46.6157V45.2913C42.6641 45.2913 44.1803 47.6051 48.1609 48.2371C49.3789 48.4305 50.6213 48.4305 51.8392 48.2371C55.8199 47.6051 57.3361 45.2913 57.3361 45.2913Z" fill="#F5F8F9"/>
<path d="M57.3359 45.2913V46.6154C57.3359 46.8663 57.3234 47.1141 57.299 47.3574C57.1256 49.0912 56.3511 50.6468 55.1872 51.8129C53.8599 53.1427 52.0261 53.965 50.0001 53.965C49.8215 53.965 49.6484 53.9593 49.4704 53.9462C49.4191 53.9424 49.3683 53.9381 49.3176 53.9336C50.7689 53.8006 52.0918 53.2455 53.1743 52.3906C53.4016 52.2106 53.6232 52.018 53.8279 51.8129C54.9918 50.6468 55.7663 49.0912 55.9391 47.3574C55.9636 47.1141 55.9761 46.8663 55.9761 46.6154V46.6034C56.9271 45.9154 57.3359 45.2913 57.3359 45.2913Z" fill="#D9E7EC"/>
<path d="M57.3361 44.2008C56.3078 44.2008 55.4539 43.4096 55.3758 42.3845C55.2433 40.6522 54.8128 38.1373 53.4619 36.9493C53.2583 36.7709 52.9493 36.7961 52.7651 36.9939C52.4471 37.3365 51.7064 37.7786 50 37.7903C48.2936 37.7786 47.5529 37.3365 47.2349 36.9939C47.0507 36.7961 46.7417 36.7709 46.5381 36.9493C45.1873 38.1373 44.7568 40.6522 44.6243 42.3845C44.5848 42.8971 44.3521 43.3514 44.0005 43.6772C43.6489 44.0029 43.1783 44.2008 42.6638 44.2008L42.669 40.0124C42.669 40.0104 42.6696 40.0085 42.669 40.0072C42.7239 38.8017 43.1758 37.6428 43.9688 36.7347C44.7011 35.8964 45.6041 35.2125 46.6221 34.7387C47.6402 34.2644 48.7733 34 49.9683 34C52.4658 34 54.6958 35.1557 56.1617 36.9655C56.545 37.4386 56.8391 37.9738 57.0369 38.5426C57.2075 39.0364 57.3071 39.5554 57.3309 40.0835L57.3361 44.2008Z" fill="#4F4F4F"/>
<path d="M57.336 44.2005C56.8121 44.2005 56.3339 43.9954 55.9803 43.6586L55.9758 40.0838C55.952 39.5554 55.8524 39.0366 55.682 38.5423C55.484 37.9741 55.1903 37.4386 54.8065 36.9654C53.4745 35.3211 51.5113 34.2167 49.2903 34.0289C49.514 34.0096 49.7403 34 49.9685 34C52.4659 34 54.6959 35.1558 56.1615 36.9654C56.5447 37.4385 56.8391 37.974 57.0371 38.5423C57.2075 39.0366 57.3071 39.5554 57.3309 40.0837L57.336 44.2005Z" fill="#333333"/>
</g>
<defs>
<clipPath id="clip0">
<rect width="32" height="32" fill="white" transform="translate(34 34)"/>
</clipPath>
</defs>
</svg>
