<svg width="50" height="50" viewBox="0 0 50 50" fill="none" xmlns="http://www.w3.org/2000/svg">
<circle cx="25" cy="25" r="24.5" fill="#F5F5F5" stroke="#E0E0E0"/>
<g clip-path="url(#clip0)">
<path d="M32.8973 12.8008C31.018 10.4809 28.1601 9 24.9594 9C21.897 9 19.1482 10.3558 17.2703 12.5051C16.184 13.7485 15.5981 15.3576 15.5981 17.0154V17.1092V26.2484C15.5981 26.7754 16.0254 27.2026 16.5523 27.2026H33.4478C33.9748 27.2026 34.402 26.7753 34.402 26.2484V17.1092C34.402 15.542 33.8802 14.0142 32.8973 12.8008Z" fill="#AC5E2E"/>
<path d="M34.4021 17.1089V26.2483C34.4021 26.7754 33.9747 27.2028 33.4476 27.2028H32.1146C32.6418 27.2028 33.0691 26.7754 33.0691 26.2483V17.1089C33.0691 16.3257 32.9385 15.552 32.6855 14.8221C32.432 14.093 32.0554 13.4075 31.5643 12.8005C29.8156 10.6424 27.2206 9.21044 24.2896 9.02188C24.5109 9.00706 24.7343 9 24.9596 9C28.1603 9 31.0179 10.4809 32.8973 12.8006C33.389 13.4075 33.7648 14.093 34.0185 14.8222C34.2714 15.552 34.4021 16.3257 34.4021 17.1089Z" fill="#9E5528"/>
<path d="M35.9553 40.6917H14.1394C14.1219 40.3916 14.1219 40.4062 14.1356 40.1217C14.2511 37.6984 15.3334 35.777 17.1795 34.2029C18.8951 32.7395 20.5286 31.9221 21.5383 31.5675C21.7164 31.505 21.8211 31.1651 21.9433 31.1278C22.0949 31.0815 22.2495 31.0483 22.404 31.0131C22.5262 30.9853 22.6317 30.937 22.7224 30.8729C23.4093 30.3931 23.2746 29.0386 23.2746 29.0386H26.726C26.726 29.0386 26.5913 30.3931 27.2782 30.8729C27.369 30.937 27.4745 30.9853 27.5966 31.0131C27.7512 31.0483 27.9057 31.0815 28.0574 31.1278C28.1913 31.1688 28.4068 31.4943 28.6075 31.5657C29.6271 31.9286 31.1493 32.4387 32.8356 33.877C34.6818 35.4512 35.8435 37.6985 35.959 40.1217C35.9728 40.4062 35.9728 40.3916 35.9553 40.6917Z" fill="#FFA78F"/>
<path d="M36.1824 41.0004H13.818C13.8006 40.7005 13.8006 40.4064 13.8141 40.1219C13.9293 37.6987 15.0911 35.4511 16.9376 33.8775C19.0692 32.0593 21.3734 31.2927 22.0672 31.0913C22.0672 31.0913 22.1155 34.1539 24.6358 35.5848C24.861 35.7126 25.1393 35.7126 25.3645 35.5848C27.8849 34.1539 27.9331 31.0913 27.9331 31.0913C28.6269 31.2927 30.9311 32.0593 33.0628 33.8775C34.9093 35.4511 36.071 37.6987 36.1862 40.1219C36.1998 40.4064 36.1998 40.7005 36.1824 41.0004Z" fill="#EB809A"/>
<path d="M36.1823 41.0004H35.0238L34.8477 40.9939C34.7325 38.5707 33.7469 36.3232 31.9004 34.7496C30.3911 33.4623 28.7955 32.7022 27.7458 32.2961C27.9248 31.5978 27.9332 31.0913 27.9332 31.0913C28.627 31.2927 30.9311 32.0593 33.0628 33.8775C34.9093 35.4511 36.071 37.6986 36.1862 40.1218C36.1997 40.4064 36.1997 40.7005 36.1823 41.0004Z" fill="#E45376"/>
<path d="M31.2846 16.1901L32.0455 18.8271V21.2005V21.8222L31.8734 22.6065C31.8734 22.8466 31.8613 23.0841 31.8378 23.3178C31.6715 24.9793 30.9501 26.2006 29.8323 27.3184C28.5576 28.5931 26.9462 29.3974 25.0002 29.3974C22.9643 29.3974 21.3211 28.6274 20.061 27.3184C19.0611 26.2796 18.2427 24.8966 18.0851 23.323C18.0616 23.0892 18.0495 22.8517 18.0495 22.6117V21.7387L17.9548 21.2004V17.8239L18.6301 16.1899H31.2846V16.1901Z" fill="#FFCEBF"/>
<path d="M31.2848 16.1897L32.046 17.9485V21.2004L31.9266 21.597L31.8947 22.6659C31.8947 22.9059 31.8825 23.1434 31.8586 23.3771C31.6926 25.0389 31.0183 26.2308 29.9003 27.3481C28.6259 28.6231 26.9466 29.5151 25.0003 29.5151C24.7834 29.5151 24.5684 29.5054 24.3567 29.4854C26.0462 29.3336 27.5625 28.5844 28.6946 27.4516C29.8126 26.3343 30.5566 24.8431 30.7226 23.1813C30.7465 22.9476 30.7587 22.7101 30.7587 22.4701V16.1897H31.2848Z" fill="#FFB09E"/>
<path d="M32.0453 21.2007V22.4703C32.0453 22.7104 32.0333 22.9479 32.0098 23.1816C31.8434 24.8431 31.0996 26.3344 29.9818 27.4522C28.7071 28.7269 26.946 29.5157 25 29.5157C21.3486 29.5157 18.3465 26.7383 17.9902 23.1817C17.9667 22.9479 17.9546 22.7104 17.9546 22.4704V21.2007C17.9546 21.2007 19.4108 23.4187 23.2337 24.0246C24.4034 24.2099 25.5965 24.2099 26.7663 24.0246C30.5891 23.4187 32.0453 21.2007 32.0453 21.2007Z" fill="#F5F8F9"/>
<path d="M32.0459 21.2002V22.4701C32.0459 22.7101 32.0337 22.9476 32.0099 23.1813C31.8438 24.8431 31.0998 26.3343 29.9819 27.4516C28.7075 28.7266 26.9466 29.5151 25.0003 29.5151C24.8386 29.5151 24.6774 29.508 24.5163 29.4983C24.4629 29.4951 24.4095 29.4906 24.3567 29.4854C26.0462 29.3336 27.5625 28.5844 28.6946 27.4516C29.8126 26.3343 30.5566 24.8431 30.7226 23.1813C30.7464 22.9476 30.7587 22.7101 30.7587 22.4701V22.4449C31.6585 21.7904 32.0459 21.2002 32.0459 21.2002Z" fill="#D9E7EC"/>
<path d="M30.7877 13.8708C29.8311 12.6788 28.4505 11.9122 26.9723 11.5736C25.6721 11.2758 24.33 11.2754 23.028 11.5736C21.5498 11.9122 20.1693 12.6788 19.2126 13.8708C18.3889 14.8973 17.9548 16.1824 17.9548 17.4985V17.9487C17.9548 17.9487 20.0075 18.5664 20.1661 18.6045C20.6367 18.7175 21.1108 18.8164 21.5878 18.8994C22.139 18.9954 23.0753 19.0674 23.631 19.1157C23.631 19.1157 24.2048 17.7601 25.0002 17.1518C25.7956 17.7601 26.3694 19.1157 26.3694 19.1157C26.9251 19.0674 27.8614 18.9954 28.4126 18.8994C28.8896 18.8164 29.3637 18.7175 29.8343 18.6045C29.9929 18.5664 32.0456 17.9487 32.0456 17.9487V17.4985C32.0455 16.1824 31.6114 14.8973 30.7877 13.8708Z" fill="#AC5E2E"/>
</g>
<defs>
<clipPath id="clip0">
<rect width="32" height="32" fill="white" transform="translate(9 9)"/>
</clipPath>
</defs>
</svg>
