<svg width="100" height="100" viewBox="0 0 100 100" fill="none" xmlns="http://www.w3.org/2000/svg">
<circle cx="50" cy="50" r="48" fill="#FAD1D1" stroke="#EB5757" stroke-width="4"/>
<g clip-path="url(#clip0)">
<path d="M57.8973 37.8008C56.018 35.4809 53.1601 34 49.9594 34C46.897 34 44.1482 35.3558 42.2703 37.5051C41.184 38.7485 40.5981 40.3576 40.5981 42.0154V42.1092V51.2484C40.5981 51.7754 41.0254 52.2026 41.5523 52.2026H58.4478C58.9748 52.2026 59.402 51.7753 59.402 51.2484V42.1092C59.402 40.542 58.8802 39.0142 57.8973 37.8008Z" fill="#AC5E2E"/>
<path d="M59.4021 42.1089V51.2483C59.4021 51.7754 58.9747 52.2028 58.4476 52.2028H57.1146C57.6418 52.2028 58.0691 51.7754 58.0691 51.2483V42.1089C58.0691 41.3257 57.9385 40.552 57.6855 39.8221C57.432 39.093 57.0554 38.4075 56.5643 37.8005C54.8156 35.6424 52.2206 34.2104 49.2896 34.0219C49.5109 34.0071 49.7343 34 49.9596 34C53.1603 34 56.0179 35.4809 57.8973 37.8006C58.389 38.4075 58.7648 39.093 59.0185 39.8222C59.2714 40.552 59.4021 41.3257 59.4021 42.1089Z" fill="#9E5528"/>
<path d="M60.9553 65.6917H39.1394C39.1219 65.3916 39.1219 65.4062 39.1356 65.1217C39.2511 62.6984 40.3334 60.777 42.1795 59.2029C43.8951 57.7395 45.5286 56.9221 46.5383 56.5675C46.7164 56.505 46.8211 56.1651 46.9433 56.1278C47.0949 56.0815 47.2495 56.0483 47.404 56.0131C47.5262 55.9853 47.6317 55.937 47.7224 55.8729C48.4093 55.3931 48.2746 54.0386 48.2746 54.0386H51.726C51.726 54.0386 51.5913 55.3931 52.2782 55.8729C52.369 55.937 52.4745 55.9853 52.5966 56.0131C52.7512 56.0483 52.9057 56.0815 53.0574 56.1278C53.1913 56.1688 53.4068 56.4943 53.6075 56.5657C54.6271 56.9286 56.1493 57.4387 57.8356 58.877C59.6818 60.4512 60.8435 62.6985 60.959 65.1217C60.9728 65.4062 60.9728 65.3916 60.9553 65.6917Z" fill="#FFA78F"/>
<path d="M61.1824 66.0004H38.818C38.8006 65.7005 38.8006 65.4064 38.8141 65.1219C38.9293 62.6987 40.0911 60.4511 41.9376 58.8775C44.0692 57.0593 46.3734 56.2927 47.0672 56.0913C47.0672 56.0913 47.1155 59.1539 49.6358 60.5848C49.861 60.7126 50.1393 60.7126 50.3645 60.5848C52.8849 59.1539 52.9331 56.0913 52.9331 56.0913C53.6269 56.2927 55.9311 57.0593 58.0628 58.8775C59.9093 60.4511 61.071 62.6987 61.1862 65.1219C61.1998 65.4064 61.1998 65.7005 61.1824 66.0004Z" fill="#EB809A"/>
<path d="M61.1823 66.0004H60.0238L59.8477 65.9939C59.7325 63.5707 58.7469 61.3232 56.9004 59.7496C55.3911 58.4623 53.7955 57.7022 52.7458 57.2961C52.9248 56.5978 52.9332 56.0913 52.9332 56.0913C53.627 56.2927 55.9311 57.0593 58.0628 58.8775C59.9093 60.4511 61.071 62.6986 61.1862 65.1218C61.1997 65.4064 61.1997 65.7005 61.1823 66.0004Z" fill="#E45376"/>
<path d="M56.2846 41.1901L57.0455 43.8271V46.2005V46.8222L56.8734 47.6065C56.8734 47.8466 56.8613 48.0841 56.8378 48.3178C56.6715 49.9793 55.9501 51.2006 54.8323 52.3184C53.5576 53.5931 51.9462 54.3974 50.0002 54.3974C47.9643 54.3974 46.3211 53.6274 45.061 52.3184C44.0611 51.2796 43.2427 49.8966 43.0851 48.323C43.0616 48.0892 43.0495 47.8517 43.0495 47.6117V46.7387L42.9548 46.2004V42.8239L43.6301 41.1899H56.2846V41.1901Z" fill="#FFCEBF"/>
<path d="M56.2848 41.1897L57.046 42.9485V46.2004L56.9266 46.597L56.8947 47.6659C56.8947 47.9059 56.8825 48.1434 56.8586 48.3771C56.6926 50.0389 56.0183 51.2308 54.9003 52.3481C53.6259 53.6231 51.9466 54.5151 50.0003 54.5151C49.7834 54.5151 49.5684 54.5054 49.3567 54.4854C51.0462 54.3336 52.5625 53.5844 53.6946 52.4516C54.8126 51.3343 55.5566 49.8431 55.7226 48.1813C55.7465 47.9476 55.7587 47.7101 55.7587 47.4701V41.1897H56.2848Z" fill="#FFB09E"/>
<path d="M57.0453 46.2007V47.4703C57.0453 47.7104 57.0333 47.9479 57.0098 48.1816C56.8434 49.8431 56.0996 51.3344 54.9818 52.4522C53.7071 53.7269 51.946 54.5157 50 54.5157C46.3486 54.5157 43.3465 51.7383 42.9902 48.1817C42.9667 47.9479 42.9546 47.7104 42.9546 47.4704V46.2007C42.9546 46.2007 44.4108 48.4187 48.2337 49.0246C49.4034 49.2099 50.5965 49.2099 51.7663 49.0246C55.5891 48.4187 57.0453 46.2007 57.0453 46.2007Z" fill="#F5F8F9"/>
<path d="M57.0459 46.2002V47.4701C57.0459 47.7101 57.0337 47.9476 57.0099 48.1813C56.8438 49.8431 56.0998 51.3343 54.9819 52.4516C53.7075 53.7266 51.9466 54.5151 50.0003 54.5151C49.8386 54.5151 49.6774 54.508 49.5163 54.4983C49.4629 54.4951 49.4095 54.4906 49.3567 54.4854C51.0462 54.3336 52.5625 53.5844 53.6946 52.4516C54.8126 51.3343 55.5566 49.8431 55.7226 48.1813C55.7464 47.9476 55.7587 47.7101 55.7587 47.4701V47.4449C56.6585 46.7904 57.0459 46.2002 57.0459 46.2002Z" fill="#D9E7EC"/>
<path d="M55.7877 38.8708C54.8311 37.6788 53.4505 36.9122 51.9723 36.5736C50.6721 36.2758 49.33 36.2754 48.028 36.5736C46.5498 36.9122 45.1693 37.6788 44.2126 38.8708C43.3889 39.8973 42.9548 41.1824 42.9548 42.4985V42.9487C42.9548 42.9487 45.0075 43.5664 45.1661 43.6045C45.6367 43.7175 46.1108 43.8164 46.5878 43.8994C47.139 43.9954 48.0753 44.0674 48.631 44.1157C48.631 44.1157 49.2048 42.7601 50.0002 42.1518C50.7956 42.7601 51.3694 44.1157 51.3694 44.1157C51.9251 44.0674 52.8614 43.9954 53.4126 43.8994C53.8896 43.8164 54.3637 43.7175 54.8343 43.6045C54.9929 43.5664 57.0456 42.9487 57.0456 42.9487V42.4985C57.0455 41.1824 56.6114 39.8973 55.7877 38.8708Z" fill="#AC5E2E"/>
</g>
<defs>
<clipPath id="clip0">
<rect width="32" height="32" fill="white" transform="translate(34 34)"/>
</clipPath>
</defs>
</svg>
