<svg width="50" height="50" viewBox="0 0 50 50" fill="none" xmlns="http://www.w3.org/2000/svg">
<circle cx="25" cy="25" r="24.5" fill="#F5F5F5" stroke="#E0E0E0"/>
<g clip-path="url(#clip0)">
<path d="M36.4254 40.1041C36.3096 37.5904 35.0076 35.3543 33.0933 33.7211C31.926 32.7252 30.7603 32.1251 29.7658 31.6636C29.6551 31.6123 29.7548 31.3764 29.6501 31.3306C28.9745 31.0356 28.4291 30.8546 28.1149 30.7603C27.9766 30.7188 27.8355 30.6893 27.6945 30.6582C26.6075 30.4183 26.7871 28.6123 26.7871 28.6123H24.9998H23.2125C23.2125 28.6123 23.3922 30.4183 22.3051 30.6582C22.1641 30.6894 22.0228 30.7189 21.8844 30.7604C21.5701 30.8547 21.0249 31.0357 20.3495 31.3307C20.2398 31.3786 20.2549 31.5334 20.1389 31.5874C19.1444 32.0502 17.9501 32.8022 16.786 33.7973C14.912 35.3992 13.7893 37.5089 13.6389 39.9697C13.6186 40.3018 13.616 40.4036 13.6363 40.7571H36.4208C36.4383 40.4511 36.4388 40.3944 36.4254 40.1041Z" fill="#FFA78F"/>
<path d="M36.5801 40.9997H13.42C13.402 40.6879 13.402 40.3845 13.4162 40.0894C13.5357 37.5798 14.7385 35.2527 16.6503 33.6225C17.9462 32.5175 19.3039 31.7872 20.3498 31.3308C21.6824 32.0244 23.175 32.2847 25 32.2847C26.825 32.2847 28.3177 32.0244 29.6503 31.3308C30.6962 31.7872 32.0538 32.5175 33.3498 33.6225C35.2616 35.2527 36.4643 37.5798 36.5839 40.0894C36.598 40.3845 36.598 40.6879 36.5801 40.9997Z" fill="#2D9CDB"/>
<path d="M36.5802 40.9997H35.2148C35.2135 40.8962 35.2059 40.7941 35.2058 40.6931C35.2048 37.6651 33.8841 35.7079 31.9724 34.0275C30.7889 32.9874 29.5541 32.2694 28.5525 31.7943C28.9317 31.6683 29.2969 31.5153 29.6504 31.3308C30.6963 31.7872 32.054 32.5175 33.3499 33.6225C35.2617 35.2527 36.4645 37.5798 36.5841 40.0894C36.5981 40.3845 36.5981 40.6879 36.5802 40.9997Z" fill="#1F80B7"/>
<path d="M17.8126 21.7773H17.4915C16.5172 21.7773 15.7273 20.9875 15.7273 20.0131V20.0098C15.7273 19.0355 16.5171 18.2456 17.4915 18.2456H17.8126V21.7773Z" fill="#FFA78F"/>
<path d="M32.1875 21.7773H32.5086C33.4829 21.7773 34.2728 20.9875 34.2728 20.0131V20.0098C34.2728 19.0355 33.483 18.2456 32.5086 18.2456H32.1875V21.7773Z" fill="#FFA78F"/>
<path d="M17.6638 19.1223L17.6639 20.2915L17.7779 20.7589L17.794 21.6422C17.794 21.8926 17.8066 22.1405 17.8311 22.3843C18.2021 26.0946 21.198 28.839 24.9999 28.839C27.0262 28.839 28.6839 28.0341 30.0112 26.7044C31.1751 25.5383 31.9956 24.2525 32.1688 22.5192C32.1933 22.2754 32.2059 22.0276 32.2059 21.7771L32.1874 20.823V20.2915V18.1086L29.4814 11.5947L24.9999 10.6555L20.0469 11.9789L17.8496 17.2162L17.6638 19.1223Z" fill="#FFCEBF"/>
<path d="M32.336 18.2456V20.356L32.206 20.8957L32.1875 21.7124C32.1875 21.9633 32.177 22.2129 32.1526 22.4562C31.9792 24.19 31.3541 25.7123 30.0815 26.7587C28.722 27.8767 27.5142 28.7392 25.6478 28.8391C25.5253 28.8457 25.1249 28.9655 25.0001 28.9655C24.7697 28.9655 24.5412 28.9549 24.3164 28.9342C25.7682 28.802 27.092 28.2459 28.1744 27.3909C28.4018 27.2112 28.6235 27.0183 28.828 26.8134C29.9919 25.6474 30.7664 24.0917 30.9392 22.358C30.9637 22.1146 30.9762 21.8669 30.9762 21.6159L30.9768 18.2457L32.336 18.2456Z" fill="#FFB09E"/>
<path d="M32.3361 20.2913V20.8224L32.1963 21.5954C32.1963 21.8458 32.177 22.2121 32.1526 22.4559C31.9793 24.1891 31.2455 25.5923 30.0815 26.7584C28.8522 27.99 27.3664 28.7209 25.5311 28.8387C25.3848 28.8481 24.8069 28.9636 24.7111 28.9599C21.0408 28.8174 18.0627 25.9736 17.7011 22.3578C17.6767 22.1139 17.6641 21.8661 17.6641 21.6157V20.2913C17.6641 20.2913 19.1803 22.6051 23.1609 23.2371C24.3789 23.4305 25.6213 23.4305 26.8392 23.2371C30.8199 22.6051 32.3361 20.2913 32.3361 20.2913Z" fill="#F5F8F9"/>
<path d="M32.3359 20.2913V21.6154C32.3359 21.8663 32.3234 22.1141 32.299 22.3574C32.1256 24.0912 31.3511 25.6468 30.1872 26.8129C28.8599 28.1427 27.0261 28.965 25.0001 28.965C24.8215 28.965 24.6484 28.9593 24.4704 28.9462C24.4191 28.9424 24.3683 28.9381 24.3176 28.9336C25.7689 28.8006 27.0918 28.2455 28.1743 27.3906C28.4016 27.2106 28.6232 27.018 28.8279 26.8129C29.9918 25.6468 30.7663 24.0912 30.9391 22.3574C30.9636 22.1141 30.9761 21.8663 30.9761 21.6154V21.6034C31.9271 20.9154 32.3359 20.2913 32.3359 20.2913Z" fill="#D9E7EC"/>
<path d="M32.3361 19.2008C31.3078 19.2008 30.4539 18.4096 30.3758 17.3845C30.2433 15.6522 29.8128 13.1373 28.4619 11.9493C28.2583 11.7709 27.9493 11.7961 27.7651 11.9939C27.4471 12.3365 26.7064 12.7786 25 12.7903C23.2936 12.7786 22.5529 12.3365 22.2349 11.9939C22.0507 11.7961 21.7417 11.7709 21.5381 11.9493C20.1873 13.1373 19.7568 15.6522 19.6243 17.3845C19.5848 17.8971 19.3521 18.3514 19.0005 18.6772C18.6489 19.0029 18.1783 19.2008 17.6638 19.2008L17.669 15.0124C17.669 15.0104 17.6696 15.0085 17.669 15.0072C17.7239 13.8017 18.1758 12.6428 18.9688 11.7347C19.7011 10.8964 20.6041 10.2125 21.6221 9.73875C22.6402 9.26437 23.7733 9 24.9683 9C27.4658 9 29.6958 10.1557 31.1617 11.9655C31.545 12.4386 31.8391 12.9738 32.0369 13.5426C32.2075 14.0364 32.3071 14.5554 32.3309 15.0835L32.3361 19.2008Z" fill="#4F4F4F"/>
<path d="M32.336 19.2005C31.8121 19.2005 31.3339 18.9954 30.9803 18.6586L30.9758 15.0838C30.952 14.5554 30.8524 14.0366 30.682 13.5423C30.484 12.9741 30.1903 12.4386 29.8065 11.9654C28.4745 10.3211 26.5113 9.21669 24.2903 9.02894C24.514 9.00963 24.7403 9 24.9685 9C27.4659 9 29.6959 10.1558 31.1615 11.9654C31.5447 12.4385 31.8391 12.974 32.0371 13.5423C32.2075 14.0366 32.3071 14.5554 32.3309 15.0837L32.336 19.2005Z" fill="#333333"/>
</g>
<defs>
<clipPath id="clip0">
<rect width="32" height="32" fill="white" transform="translate(9 9)"/>
</clipPath>
</defs>
</svg>
