<svg width="100" height="100" viewBox="0 0 100 100" fill="none" xmlns="http://www.w3.org/2000/svg">
<circle cx="50" cy="50" r="48" fill="#999999" stroke="#333333" stroke-width="4"/>
<g clip-path="url(#clip0)">
<path d="M50.0003 66C43.7774 66 38.7327 60.9553 38.7327 54.7324V45.2676C38.7327 39.0447 43.7774 34 50.0003 34C56.2232 34 61.2679 39.0447 61.2679 45.2676V54.7324C61.2679 60.9553 56.2232 66 50.0003 66Z" fill="#EB809A"/>
<path d="M38.8217 43.8459C38.763 44.3116 38.7327 44.7859 38.7327 45.2675V54.7323C38.7327 60.9552 43.7774 65.9999 50.0003 65.9999C53.7856 65.9999 57.1348 64.1331 59.178 61.2702L38.8217 43.8459Z" fill="#E45376"/>
<path d="M50.0003 36.4145C49.3335 36.4145 48.793 35.874 48.793 35.2072C48.793 34.5405 49.3335 34 50.0003 34C43.7774 34 38.7327 39.0447 38.7327 45.2676V54.7324C38.7327 60.9553 43.7774 66 50.0003 66C52.8538 66 55.459 64.9387 57.4442 63.1901L57.4454 63.1841L43.7372 51.5306L50.0003 36.4145Z" fill="#EB809A"/>
<path d="M50.0003 54.1249C54.892 54.1249 58.8576 50.1594 58.8576 45.2677C58.8576 40.3759 54.892 36.4104 50.0003 36.4104C45.1086 36.4104 41.1431 40.3759 41.1431 45.2677C41.1431 50.1594 45.1086 54.1249 50.0003 54.1249Z" fill="#FFDFCF"/>
<path d="M46.3127 51.5308C42.8593 48.0774 42.8593 42.4582 46.3127 39.0047C47.7117 37.6057 49.4662 36.7736 51.2881 36.5081C48.6126 36.1182 45.7917 36.9503 43.7373 39.0047C40.2839 42.4582 40.2839 48.0774 43.7373 51.5308C45.7917 53.5852 48.6126 54.4174 51.2881 54.0274C49.4662 53.7619 47.7117 52.9298 46.3127 51.5308Z" fill="#FFCEBF"/>
<path d="M44.8779 49.2268C45.9217 49.2268 46.7679 48.5529 46.7679 47.7217C46.7679 46.8904 45.9217 46.2166 44.8779 46.2166C43.834 46.2166 42.9878 46.8904 42.9878 47.7217C42.9878 48.5529 43.834 49.2268 44.8779 49.2268Z" fill="#FDA0C1"/>
<path d="M55.1225 49.2268C56.1663 49.2268 57.0125 48.5529 57.0125 47.7217C57.0125 46.8904 56.1663 46.2166 55.1225 46.2166C54.0786 46.2166 53.2324 46.8904 53.2324 47.7217C53.2324 48.5529 54.0786 49.2268 55.1225 49.2268Z" fill="#FDA0C1"/>
<path d="M53.3973 40.8388C52.8551 42.1656 51.3346 42.804 50.0078 42.2619C48.9941 41.8478 48.5065 40.6862 48.9206 39.6726C49.2323 38.9095 50.107 38.5426 50.8698 38.8541C51.4323 39.084 51.703 39.7287 51.4732 40.2912C51.3936 40.4861 51.2428 40.6383 51.0488 40.7197C50.8101 40.8199 50.6978 41.0946 50.798 41.3333C50.8983 41.5721 51.173 41.6844 51.4116 41.5841C51.8366 41.4057 52.1666 41.0724 52.341 40.6458C52.7663 39.6047 52.2654 38.4116 51.2243 37.9861C49.9828 37.4791 48.56 38.0764 48.0526 39.3179C47.443 40.81 48.1609 42.5199 49.6531 43.1297C50.0896 43.3081 50.5415 43.3925 50.9863 43.3925C52.381 43.3924 53.7057 42.562 54.265 41.1933C54.6998 40.1291 54.6941 38.9592 54.2491 37.8992C54.1693 37.709 54.0765 37.5268 53.9726 37.3526C53.3245 37.026 52.6311 36.7768 51.9045 36.6169C53.3813 37.4291 54.0498 39.2419 53.3973 40.8388Z" fill="#C4715A"/>
<g clip-path="url(#clip1)">
<path d="M46.2082 34.7997C46.2093 34.8041 46.2103 34.8078 46.2109 34.8102C46.2104 34.8082 46.2095 34.8049 46.2082 34.7997Z" fill="#E45376"/>
<path d="M41.6661 37.2972C41.7663 37.6599 42.1417 37.8726 42.5044 37.7724L42.8196 37.6852C43.1823 37.5849 43.3951 37.2096 43.2948 36.8469L43.1968 36.4923C43.0965 36.1296 42.7211 35.9169 42.3585 36.0172L42.0432 36.1043C41.6805 36.2046 41.4678 36.5799 41.568 36.9426L41.6661 37.2972Z" fill="#E45376"/>
<path d="M45.8869 35.1284C45.8869 35.1284 45.8869 35.1284 45.8869 35.1285C45.8875 35.131 45.8881 35.1332 45.8886 35.1352C45.888 35.1328 45.8874 35.1304 45.8869 35.1284Z" fill="#E45376"/>
<path d="M42.9683 35.7824C43.1813 35.8918 43.352 36.0819 43.4309 36.3247C43.4366 36.3416 43.442 36.3586 43.4468 36.3761L43.5526 36.7589C43.557 36.7748 43.561 36.7908 43.5645 36.8068C43.6095 36.999 43.5912 37.1927 43.5225 37.3649C44.2957 37.71 45.9041 38.1748 46.3101 37.4181C46.5331 37.0023 46.1104 36.4831 46.0162 36.0873C45.941 35.7708 45.9668 35.4433 45.8867 35.1283C45.8867 35.1283 45.8867 35.1282 45.8867 35.1281C45.8867 35.1281 45.8867 35.1281 45.8867 35.1281C45.8866 35.128 45.8866 35.128 45.8866 35.128C45.884 35.1178 45.8848 35.1209 45.8866 35.1278C45.4701 33.4929 43.6126 34.9297 42.9683 35.7824Z" fill="#E45376"/>
<path d="M41.4029 37.4048C41.3978 37.3893 41.3929 37.3735 41.3885 37.3575L41.2827 36.9746C41.2778 36.9572 41.2737 36.9398 41.2699 36.9223C41.2127 36.6729 41.2619 36.4214 41.3892 36.2178C40.1275 35.6859 37.7603 35.7575 38.749 37.6188C39.0232 38.1352 38.9094 39.6063 39.8079 39.3805C40.5759 39.1877 41.2839 38.5352 41.7302 37.8652C41.5807 37.7526 41.4637 37.5947 41.4029 37.4048Z" fill="#E45376"/>
<path d="M43.518 37.3892C43.4099 37.6485 43.1883 37.8577 42.897 37.9382L42.5567 38.0323C42.2697 38.1116 41.9766 38.0491 41.7519 37.8875C41.6972 38.3707 41.48 39.3839 40.6213 40.5065L41.5867 40.1123L41.6117 41.264C42.4015 40.2314 42.7473 39.2659 42.8987 38.5851C43.3784 39.0914 44.1709 39.7422 45.379 40.2224L44.8089 39.2214L45.8396 39.0637C44.5167 38.5379 43.8092 37.773 43.518 37.3892Z" fill="#E45376"/>
</g>
</g>
<defs>
<clipPath id="clip0">
<rect width="32" height="32" fill="white" transform="translate(34 34)"/>
</clipPath>
<clipPath id="clip1">
<rect width="8" height="8" fill="white" transform="translate(38 35.1318) rotate(-15.4546)"/>
</clipPath>
</defs>
</svg>
