<svg width="100" height="100" viewBox="0 0 100 100" fill="none" xmlns="http://www.w3.org/2000/svg">
<circle cx="50" cy="50" r="48" fill="#ACECC7" stroke="#27AE60" stroke-width="4"/>
<g clip-path="url(#clip0)">
<path d="M50.0003 66C43.7774 66 38.7327 60.9553 38.7327 54.7324V45.2676C38.7327 39.0447 43.7774 34 50.0003 34C56.2232 34 61.2679 39.0447 61.2679 45.2676V54.7324C61.2679 60.9553 56.2232 66 50.0003 66Z" fill="#2D9CDB"/>
<path d="M38.8217 43.8459C38.763 44.3116 38.7327 44.7859 38.7327 45.2675V54.7323C38.7327 60.9552 43.7774 65.9999 50.0003 65.9999C53.7856 65.9999 57.1348 64.1331 59.178 61.2702L38.8217 43.8459Z" fill="#1F80B7"/>
<path d="M50.0003 36.4145C49.3335 36.4145 48.793 35.874 48.793 35.2072C48.793 34.5405 49.3335 34 50.0003 34C43.7774 34 38.7327 39.0447 38.7327 45.2676V54.7324C38.7327 60.9553 43.7774 66 50.0003 66C52.8538 66 55.459 64.9387 57.4442 63.1901L57.4454 63.1841L43.7372 51.5306L50.0003 36.4145Z" fill="#2D9CDB"/>
<path d="M50.0003 54.1249C54.892 54.1249 58.8576 50.1594 58.8576 45.2677C58.8576 40.3759 54.892 36.4104 50.0003 36.4104C45.1086 36.4104 41.1431 40.3759 41.1431 45.2677C41.1431 50.1594 45.1086 54.1249 50.0003 54.1249Z" fill="#FFDFCF"/>
<path d="M46.3127 51.5308C42.8593 48.0774 42.8593 42.4582 46.3127 39.0047C47.7117 37.6057 49.4662 36.7736 51.2881 36.5081C48.6126 36.1182 45.7917 36.9503 43.7373 39.0047C40.2839 42.4582 40.2839 48.0774 43.7373 51.5308C45.7917 53.5852 48.6126 54.4174 51.2881 54.0274C49.4662 53.7619 47.7117 52.9298 46.3127 51.5308Z" fill="#FFCEBF"/>
<path d="M44.8779 49.2268C45.9217 49.2268 46.7679 48.5529 46.7679 47.7217C46.7679 46.8904 45.9217 46.2166 44.8779 46.2166C43.834 46.2166 42.9878 46.8904 42.9878 47.7217C42.9878 48.5529 43.834 49.2268 44.8779 49.2268Z" fill="#FDA0C1"/>
<path d="M55.1225 49.2268C56.1663 49.2268 57.0125 48.5529 57.0125 47.7217C57.0125 46.8904 56.1663 46.2166 55.1225 46.2166C54.0786 46.2166 53.2324 46.8904 53.2324 47.7217C53.2324 48.5529 54.0786 49.2268 55.1225 49.2268Z" fill="#FDA0C1"/>
<path d="M53.3973 40.8388C52.8551 42.1656 51.3346 42.804 50.0078 42.2619C48.9941 41.8478 48.5065 40.6862 48.9206 39.6726C49.2323 38.9095 50.107 38.5426 50.8698 38.8541C51.4323 39.084 51.703 39.7287 51.4732 40.2912C51.3936 40.4861 51.2428 40.6383 51.0488 40.7197C50.8101 40.8199 50.6978 41.0946 50.798 41.3333C50.8983 41.5721 51.173 41.6844 51.4116 41.5841C51.8366 41.4057 52.1666 41.0724 52.341 40.6458C52.7663 39.6047 52.2654 38.4116 51.2243 37.9861C49.9828 37.4791 48.56 38.0764 48.0526 39.3179C47.443 40.81 48.1609 42.5199 49.6531 43.1297C50.0896 43.3081 50.5415 43.3925 50.9863 43.3925C52.381 43.3924 53.7057 42.562 54.265 41.1933C54.6998 40.1291 54.6941 38.9592 54.2491 37.8992C54.1693 37.709 54.0765 37.5268 53.9726 37.3526C53.3245 37.026 52.6311 36.7768 51.9045 36.6169C53.3813 37.4291 54.0498 39.2419 53.3973 40.8388Z" fill="#C4715A"/>
</g>
<defs>
<clipPath id="clip0">
<rect width="32" height="32" fill="white" transform="translate(34 34)"/>
</clipPath>
</defs>
</svg>
