<svg width="50" height="50" viewBox="0 0 50 50" fill="none" xmlns="http://www.w3.org/2000/svg">
<circle cx="25" cy="25" r="24.5" fill="#F5F5F5" stroke="#E0E0E0"/>
<g clip-path="url(#clip0)">
<path d="M25.0003 41C18.7774 41 13.7327 35.9553 13.7327 29.7324V20.2676C13.7327 14.0447 18.7774 9 25.0003 9C31.2232 9 36.2679 14.0447 36.2679 20.2676V29.7324C36.2679 35.9553 31.2232 41 25.0003 41Z" fill="#2D9CDB"/>
<path d="M13.8217 18.8459C13.763 19.3116 13.7327 19.7859 13.7327 20.2675V29.7323C13.7327 35.9552 18.7774 40.9999 25.0003 40.9999C28.7856 40.9999 32.1348 39.1331 34.178 36.2702L13.8217 18.8459Z" fill="#1F80B7"/>
<path d="M25.0003 11.4145C24.3335 11.4145 23.793 10.874 23.793 10.2072C23.793 9.5405 24.3335 9 25.0003 9C18.7774 9 13.7327 14.0447 13.7327 20.2676V29.7324C13.7327 35.9553 18.7774 41 25.0003 41C27.8538 41 30.459 39.9387 32.4442 38.1901L32.4454 38.1841L18.7372 26.5306L25.0003 11.4145Z" fill="#2D9CDB"/>
<path d="M25.0003 29.1249C29.892 29.1249 33.8576 25.1594 33.8576 20.2677C33.8576 15.3759 29.892 11.4104 25.0003 11.4104C20.1086 11.4104 16.1431 15.3759 16.1431 20.2677C16.1431 25.1594 20.1086 29.1249 25.0003 29.1249Z" fill="#FFDFCF"/>
<path d="M21.3127 26.5308C17.8593 23.0774 17.8593 17.4582 21.3127 14.0047C22.7117 12.6057 24.4662 11.7736 26.2881 11.5081C23.6126 11.1182 20.7917 11.9503 18.7373 14.0047C15.2839 17.4582 15.2839 23.0774 18.7373 26.5308C20.7917 28.5852 23.6126 29.4174 26.2881 29.0274C24.4662 28.7619 22.7117 27.9298 21.3127 26.5308Z" fill="#FFCEBF"/>
<path d="M19.8779 24.2268C20.9217 24.2268 21.7679 23.5529 21.7679 22.7217C21.7679 21.8904 20.9217 21.2166 19.8779 21.2166C18.834 21.2166 17.9878 21.8904 17.9878 22.7217C17.9878 23.5529 18.834 24.2268 19.8779 24.2268Z" fill="#FDA0C1"/>
<path d="M30.1225 24.2268C31.1663 24.2268 32.0125 23.5529 32.0125 22.7217C32.0125 21.8904 31.1663 21.2166 30.1225 21.2166C29.0786 21.2166 28.2324 21.8904 28.2324 22.7217C28.2324 23.5529 29.0786 24.2268 30.1225 24.2268Z" fill="#FDA0C1"/>
<path d="M28.3973 15.8388C27.8551 17.1656 26.3346 17.804 25.0078 17.2619C23.9941 16.8478 23.5065 15.6862 23.9206 14.6726C24.2323 13.9095 25.107 13.5426 25.8698 13.8541C26.4323 14.084 26.703 14.7287 26.4732 15.2912C26.3936 15.4861 26.2428 15.6383 26.0488 15.7197C25.8101 15.8199 25.6978 16.0946 25.798 16.3333C25.8983 16.5721 26.173 16.6844 26.4116 16.5841C26.8366 16.4057 27.1666 16.0724 27.341 15.6458C27.7663 14.6047 27.2654 13.4116 26.2243 12.9861C24.9828 12.4791 23.56 13.0764 23.0526 14.3179C22.443 15.81 23.1609 17.5199 24.6531 18.1297C25.0896 18.3081 25.5415 18.3925 25.9863 18.3925C27.381 18.3924 28.7057 17.562 29.265 16.1933C29.6998 15.1291 29.6941 13.9592 29.2491 12.8992C29.1693 12.709 29.0765 12.5268 28.9726 12.3526C28.3245 12.026 27.6311 11.7768 26.9045 11.6169C28.3813 12.4291 29.0498 14.2419 28.3973 15.8388Z" fill="#C4715A"/>
</g>
<defs>
<clipPath id="clip0">
<rect width="32" height="32" fill="white" transform="translate(9 9)"/>
</clipPath>
</defs>
</svg>
