<svg width="50" height="50" viewBox="0 0 50 50" fill="none" xmlns="http://www.w3.org/2000/svg">
<circle cx="25" cy="25" r="24.5" fill="#F5F5F5" stroke="#E0E0E0"/>
<path d="M22 29H28C30.1217 29 32.1566 30.0114 33.6569 31.8118C35.1571 33.6121 36 36.0539 36 38.6V41H14V38.6C14 36.0539 14.8429 33.6121 16.3431 31.8118C17.8434 30.0114 19.8783 29 22 29Z" fill="#2D9CDB"/>
<path d="M19 29.5H24V31.5C24 32.0304 23.7893 32.5391 23.4142 32.9142C23.0391 33.2893 22.5304 33.5 22 33.5H21C20.4696 33.5 19.9609 33.2893 19.5858 32.9142C19.2107 32.5391 19 32.0304 19 31.5V29.5Z" fill="#1F80B7"/>
<path d="M26 29.5H31V31.5C31 32.0304 30.7893 32.5391 30.4142 32.9142C30.0391 33.2893 29.5304 33.5 29 33.5H28C27.4696 33.5 26.9609 33.2893 26.5858 32.9142C26.2107 32.5391 26 32.0304 26 31.5V29.5Z" fill="#1F80B7"/>
<path d="M25 36C25.5523 36 26 35.5523 26 35C26 34.4477 25.5523 34 25 34C24.4477 34 24 34.4477 24 35C24 35.5523 24.4477 36 25 36Z" fill="#E9EEF2"/>
<path d="M14.7002 23.5C15.8048 23.5 16.7002 22.6046 16.7002 21.5C16.7002 20.3954 15.8048 19.5 14.7002 19.5C13.5956 19.5 12.7002 20.3954 12.7002 21.5C12.7002 22.6046 13.5956 23.5 14.7002 23.5Z" fill="#F0C6A4"/>
<path d="M35 23.5C36.1046 23.5 37 22.6046 37 21.5C37 20.3954 36.1046 19.5 35 19.5C33.8954 19.5 33 20.3954 33 21.5C33 22.6046 33.8954 23.5 35 23.5Z" fill="#F0C6A4"/>
<path d="M25 32C30.799 32 35.5 27.299 35.5 21.5C35.5 15.701 30.799 11 25 11C19.201 11 14.5 15.701 14.5 21.5C14.5 27.299 19.201 32 25 32Z" fill="#F7CCA9"/>
<path d="M22 12C21.8674 12 21.7402 11.9473 21.6464 11.8536C21.5527 11.7598 21.5 11.6326 21.5 11.5V9.5C21.5 9.36739 21.5527 9.24021 21.6464 9.14645C21.7402 9.05268 21.8674 9 22 9C22.1326 9 22.2598 9.05268 22.3536 9.14645C22.4473 9.24021 22.5 9.36739 22.5 9.5V11.5C22.5 11.6326 22.4473 11.7598 22.3536 11.8536C22.2598 11.9473 22.1326 12 22 12Z" fill="#FFB632"/>
<path d="M23 14C22.8674 14 22.7402 13.9473 22.6464 13.8536C22.5527 13.7598 22.5 13.6326 22.5 13.5V11.5C22.5 11.3674 22.5527 11.2402 22.6464 11.1464C22.7402 11.0527 22.8674 11 23 11C23.1326 11 23.2598 11.0527 23.3536 11.1464C23.4473 11.2402 23.5 11.3674 23.5 11.5V13.5C23.5 13.6326 23.4473 13.7598 23.3536 13.8536C23.2598 13.9473 23.1326 14 23 14Z" fill="#FFB632"/>
<path d="M25 14C24.8674 14 24.7402 13.9473 24.6464 13.8536C24.5527 13.7598 24.5 13.6326 24.5 13.5V11.5C24.5 11.3674 24.5527 11.2402 24.6464 11.1464C24.7402 11.0527 24.8674 11 25 11C25.1326 11 25.2598 11.0527 25.3536 11.1464C25.4473 11.2402 25.5 11.3674 25.5 11.5V13.5C25.5 13.6326 25.4473 13.7598 25.3536 13.8536C25.2598 13.9473 25.1326 14 25 14Z" fill="#FFB632"/>
<path d="M27 14C26.8674 14 26.7402 13.9473 26.6464 13.8536C26.5527 13.7598 26.5 13.6326 26.5 13.5V11.5C26.5 11.3674 26.5527 11.2402 26.6464 11.1464C26.7402 11.0527 26.8674 11 27 11C27.1326 11 27.2598 11.0527 27.3536 11.1464C27.4473 11.2402 27.5 11.3674 27.5 11.5V13.5C27.5 13.6326 27.4473 13.7598 27.3536 13.8536C27.2598 13.9473 27.1326 14 27 14Z" fill="#FFB632"/>
<path d="M24 12C23.8674 12 23.7402 11.9473 23.6464 11.8536C23.5527 11.7598 23.5 11.6326 23.5 11.5V9.5C23.5 9.36739 23.5527 9.24021 23.6464 9.14645C23.7402 9.05268 23.8674 9 24 9C24.1326 9 24.2598 9.05268 24.3536 9.14645C24.4473 9.24021 24.5 9.36739 24.5 9.5V11.5C24.5 11.6326 24.4473 11.7598 24.3536 11.8536C24.2598 11.9473 24.1326 12 24 12Z" fill="#FFB632"/>
<path d="M26 12C25.8674 12 25.7402 11.9473 25.6464 11.8536C25.5527 11.7598 25.5 11.6326 25.5 11.5V9.5C25.5 9.36739 25.5527 9.24021 25.6464 9.14645C25.7402 9.05268 25.8674 9 26 9C26.1326 9 26.2598 9.05268 26.3536 9.14645C26.4473 9.24021 26.5 9.36739 26.5 9.5V11.5C26.5 11.6326 26.4473 11.7598 26.3536 11.8536C26.2598 11.9473 26.1326 12 26 12Z" fill="#FFB632"/>
<path d="M28 12C27.8674 12 27.7402 11.9473 27.6464 11.8536C27.5527 11.7598 27.5 11.6326 27.5 11.5V9.5C27.5 9.36739 27.5527 9.24021 27.6464 9.14645C27.7402 9.05268 27.8674 9 28 9C28.1326 9 28.2598 9.05268 28.3536 9.14645C28.4473 9.24021 28.5 9.36739 28.5 9.5V11.5C28.5 11.6326 28.4473 11.7598 28.3536 11.8536C28.2598 11.9473 28.1326 12 28 12Z" fill="#FFB632"/>
<path d="M18 26C19.1046 26 20 25.1046 20 24C20 22.8954 19.1046 22 18 22C16.8954 22 16 22.8954 16 24C16 25.1046 16.8954 26 18 26Z" fill="#FF9494"/>
<path d="M32 26C33.1046 26 34 25.1046 34 24C34 22.8954 33.1046 22 32 22C30.8954 22 30 22.8954 30 24C30 25.1046 30.8954 26 32 26Z" fill="#FF9494"/>
</svg>
