<svg width="50" height="50" viewBox="0 0 50 50" fill="none" xmlns="http://www.w3.org/2000/svg">
<circle cx="25" cy="25" r="24.5" fill="#F5F5F5" stroke="#E0E0E0"/>
<g clip-path="url(#clip0)">
<path d="M25.0003 41C18.7774 41 13.7327 35.9553 13.7327 29.7324V20.2676C13.7327 14.0447 18.7774 9 25.0003 9C31.2232 9 36.2679 14.0447 36.2679 20.2676V29.7324C36.2679 35.9553 31.2232 41 25.0003 41Z" fill="#EB809A"/>
<path d="M13.8217 18.8459C13.763 19.3116 13.7327 19.7859 13.7327 20.2675V29.7323C13.7327 35.9552 18.7774 40.9999 25.0003 40.9999C28.7856 40.9999 32.1348 39.1331 34.178 36.2702L13.8217 18.8459Z" fill="#E45376"/>
<path d="M25.0003 11.4145C24.3335 11.4145 23.793 10.874 23.793 10.2072C23.793 9.5405 24.3335 9 25.0003 9C18.7774 9 13.7327 14.0447 13.7327 20.2676V29.7324C13.7327 35.9553 18.7774 41 25.0003 41C27.8538 41 30.459 39.9387 32.4442 38.1901L32.4454 38.1841L18.7372 26.5306L25.0003 11.4145Z" fill="#EB809A"/>
<path d="M25.0003 29.1249C29.892 29.1249 33.8576 25.1594 33.8576 20.2677C33.8576 15.3759 29.892 11.4104 25.0003 11.4104C20.1086 11.4104 16.1431 15.3759 16.1431 20.2677C16.1431 25.1594 20.1086 29.1249 25.0003 29.1249Z" fill="#FFDFCF"/>
<path d="M21.3127 26.5308C17.8593 23.0774 17.8593 17.4582 21.3127 14.0047C22.7117 12.6057 24.4662 11.7736 26.2881 11.5081C23.6126 11.1182 20.7917 11.9503 18.7373 14.0047C15.2839 17.4582 15.2839 23.0774 18.7373 26.5308C20.7917 28.5852 23.6126 29.4174 26.2881 29.0274C24.4662 28.7619 22.7117 27.9298 21.3127 26.5308Z" fill="#FFCEBF"/>
<path d="M19.8779 24.2268C20.9217 24.2268 21.7679 23.5529 21.7679 22.7217C21.7679 21.8904 20.9217 21.2166 19.8779 21.2166C18.834 21.2166 17.9878 21.8904 17.9878 22.7217C17.9878 23.5529 18.834 24.2268 19.8779 24.2268Z" fill="#FDA0C1"/>
<path d="M30.1225 24.2268C31.1663 24.2268 32.0125 23.5529 32.0125 22.7217C32.0125 21.8904 31.1663 21.2166 30.1225 21.2166C29.0786 21.2166 28.2324 21.8904 28.2324 22.7217C28.2324 23.5529 29.0786 24.2268 30.1225 24.2268Z" fill="#FDA0C1"/>
<path d="M28.3973 15.8388C27.8551 17.1656 26.3346 17.804 25.0078 17.2619C23.9941 16.8478 23.5065 15.6862 23.9206 14.6726C24.2323 13.9095 25.107 13.5426 25.8698 13.8541C26.4323 14.084 26.703 14.7287 26.4732 15.2912C26.3936 15.4861 26.2428 15.6383 26.0488 15.7197C25.8101 15.8199 25.6978 16.0946 25.798 16.3333C25.8983 16.5721 26.173 16.6844 26.4116 16.5841C26.8366 16.4057 27.1666 16.0724 27.341 15.6458C27.7663 14.6047 27.2654 13.4116 26.2243 12.9861C24.9828 12.4791 23.56 13.0764 23.0526 14.3179C22.443 15.81 23.1609 17.5199 24.6531 18.1297C25.0896 18.3081 25.5415 18.3925 25.9863 18.3925C27.381 18.3924 28.7057 17.562 29.265 16.1933C29.6998 15.1291 29.6941 13.9592 29.2491 12.8992C29.1693 12.709 29.0765 12.5268 28.9726 12.3526C28.3245 12.026 27.6311 11.7768 26.9045 11.6169C28.3813 12.4291 29.0498 14.2419 28.3973 15.8388Z" fill="#C4715A"/>
<g clip-path="url(#clip1)">
<path d="M21.2082 9.79975C21.2093 9.80405 21.2103 9.80784 21.2109 9.81018C21.2104 9.80822 21.2095 9.80489 21.2082 9.79975Z" fill="#E45376"/>
<path d="M16.6661 12.2972C16.7663 12.6599 17.1417 12.8726 17.5044 12.7724L17.8196 12.6852C18.1823 12.5849 18.3951 12.2096 18.2948 11.8469L18.1968 11.4923C18.0965 11.1296 17.7211 10.9169 17.3585 11.0172L17.0432 11.1043C16.6805 11.2046 16.4678 11.5799 16.568 11.9426L16.6661 12.2972Z" fill="#E45376"/>
<path d="M20.8869 10.1284C20.8869 10.1284 20.8869 10.1284 20.8869 10.1285C20.8875 10.131 20.8881 10.1332 20.8886 10.1352C20.888 10.1328 20.8874 10.1304 20.8869 10.1284Z" fill="#E45376"/>
<path d="M17.9683 10.7824C18.1813 10.8918 18.352 11.0819 18.4309 11.3247C18.4366 11.3416 18.442 11.3586 18.4468 11.3761L18.5526 11.7589C18.557 11.7748 18.561 11.7908 18.5645 11.8068C18.6095 11.999 18.5912 12.1927 18.5225 12.3649C19.2957 12.71 20.9041 13.1748 21.3101 12.4181C21.5331 12.0023 21.1104 11.4831 21.0162 11.0873C20.941 10.7708 20.9668 10.4433 20.8867 10.1283C20.8867 10.1283 20.8867 10.1282 20.8867 10.1281C20.8867 10.1281 20.8867 10.1281 20.8867 10.1281C20.8866 10.128 20.8866 10.128 20.8866 10.128C20.884 10.1178 20.8848 10.1209 20.8866 10.1278C20.4701 8.49288 18.6126 9.92974 17.9683 10.7824Z" fill="#E45376"/>
<path d="M16.4029 12.4048C16.3978 12.3893 16.3929 12.3735 16.3885 12.3575L16.2827 11.9746C16.2778 11.9572 16.2737 11.9398 16.2699 11.9223C16.2127 11.6729 16.2619 11.4214 16.3892 11.2178C15.1275 10.6859 12.7603 10.7575 13.749 12.6188C14.0232 13.1352 13.9094 14.6063 14.8079 14.3805C15.5759 14.1877 16.2839 13.5352 16.7302 12.8652C16.5807 12.7526 16.4637 12.5947 16.4029 12.4048Z" fill="#E45376"/>
<path d="M18.518 12.3892C18.4099 12.6485 18.1883 12.8577 17.897 12.9382L17.5567 13.0323C17.2697 13.1116 16.9766 13.0491 16.7519 12.8875C16.6972 13.3707 16.48 14.3839 15.6213 15.5065L16.5867 15.1123L16.6117 16.264C17.4015 15.2314 17.7473 14.2659 17.8987 13.5851C18.3784 14.0914 19.1709 14.7422 20.379 15.2224L19.8089 14.2214L20.8396 14.0637C19.5167 13.5379 18.8092 12.773 18.518 12.3892Z" fill="#E45376"/>
</g>
</g>
<defs>
<clipPath id="clip0">
<rect width="32" height="32" fill="white" transform="translate(9 9)"/>
</clipPath>
<clipPath id="clip1">
<rect width="8" height="8" fill="white" transform="translate(13 10.1318) rotate(-15.4546)"/>
</clipPath>
</defs>
</svg>
