<svg width="50" height="50" viewBox="0 0 50 50" fill="none" xmlns="http://www.w3.org/2000/svg">
<circle cx="25" cy="25" r="24.5" fill="#F5F5F5" stroke="#E0E0E0"/>
<g clip-path="url(#clip0)">
<path d="M36.1646 40.9999H13.8359C13.8184 40.7003 13.8184 40.4069 13.8321 40.1228C13.9474 37.7035 15.1072 35.4598 16.9504 33.8882C19.4924 31.7199 22.2805 31.0496 22.2805 31.0496C22.458 31.0316 22.6051 30.9742 22.7259 30.8889C23.4117 30.4099 23.2772 29.0576 23.2772 29.0576H26.7231C26.7231 29.0576 26.5885 30.4099 27.2744 30.8889C27.3952 30.9742 27.5422 31.0316 27.7197 31.0496C27.7197 31.0496 30.5079 31.7199 33.0499 33.8882C34.8931 35.4597 36.0529 37.7035 36.1682 40.1228C36.182 40.4069 36.182 40.7003 36.1646 40.9999Z" fill="#2D9CDB"/>
<path d="M36.1643 40.9999H34.7378C34.7378 40.8579 34.7347 40.7178 34.7282 40.5797C34.6125 38.1597 33.4527 35.9165 31.6098 34.3447C29.8652 32.8572 28.0049 32.0745 27.0095 31.73C27.1464 31.4486 27.2273 31.1575 27.2743 30.8889C27.3951 30.9744 27.5422 31.0315 27.7196 31.0495C27.7196 31.0495 30.5078 31.7198 33.0498 33.8885C34.8933 35.4602 36.0532 37.7035 36.1682 40.1228C36.1817 40.4068 36.1817 40.7004 36.1643 40.9999Z" fill="#1F80B7"/>
<path d="M31.8782 31.045C31.8827 30.4229 31.7391 29.6994 31.4341 29.1488C30.9712 28.3132 30.1447 27.8037 29.2289 27.5918H20.7717C19.5604 27.872 18.6229 28.7257 18.2973 29.9336C17.962 31.1775 18.1219 32.5579 19.1292 33.4454C20.0159 34.2265 21.1593 34.6519 22.341 34.6582C22.9819 34.6617 23.7281 34.5637 24.3117 34.2212C24.7358 33.9722 25.2647 33.9722 25.6888 34.2212C26.2725 34.5638 27.0186 34.6617 27.6595 34.6582C28.8412 34.6519 29.9846 34.2265 30.8714 33.4454C31.5741 32.8262 31.8716 31.9454 31.8782 31.045Z" fill="#1F80B7"/>
<path d="M31.8779 31.0441C31.8714 31.945 31.5739 32.826 30.8716 33.4448C29.9848 34.2262 28.841 34.6516 27.6593 34.658C27.0418 34.6612 26.3266 34.5706 25.7534 34.2564C25.9982 34.2879 26.2418 34.3001 26.4718 34.2988C27.6535 34.2924 28.7967 33.867 29.6834 33.0856C30.3864 32.4668 30.6839 31.5858 30.6904 30.6856C30.6949 30.0636 30.5509 29.34 30.2464 28.7893C29.9546 28.2631 29.519 27.8659 29.0081 27.5916H29.2292C30.1449 27.8029 30.9712 28.3126 31.4339 29.1486C31.7391 29.6986 31.883 30.4221 31.8779 31.0441Z" fill="#18628B"/>
<path d="M18.1088 23.7368H17.7993C16.866 23.7368 16.1094 22.9802 16.1094 22.0469C16.1094 21.1136 16.866 20.3569 17.7993 20.3569H18.1088V23.7368Z" fill="#FFCEBF"/>
<path d="M31.8918 23.7368H32.2013C33.1347 23.7368 33.8913 22.9802 33.8913 22.0469C33.8913 21.1136 33.1347 20.3569 32.2013 20.3569H31.8918V23.7368Z" fill="#FFCEBF"/>
<path d="M31.2747 15.9885L32.0344 18.6214V21.2187L31.7843 22.1371C31.7843 22.3768 31.7853 22.7786 31.7619 23.0119C31.5957 24.6707 31.0902 26.1164 29.9742 27.2324C28.7016 28.505 26.9432 29.2926 25.0004 29.2926C21.3549 29.2926 18.5917 26.7165 18.2359 23.1655C18.2125 22.9321 18.1387 22.2089 18.1387 21.9692V21.5953L17.9663 21.2187V18.6214L18.6406 15.9885H31.2747Z" fill="#FFCEBF"/>
<path d="M31.2745 16.2163L32.0345 19.0944V21.219L31.9249 21.6205L31.9326 22.5133C31.9326 22.753 31.9224 22.9493 31.8986 23.1826C31.7328 24.8417 31.0297 26.2867 29.9135 27.4023C28.6412 28.6752 26.9434 29.5203 25.0002 29.5203C24.7837 29.5203 24.569 29.5107 24.3577 29.4907C26.0444 29.3391 27.5584 28.5911 28.6887 27.4602C29.8049 26.3447 30.5477 24.8558 30.7134 23.1967C30.7372 22.9634 30.7494 22.7263 30.7494 22.4866V16.2163H31.2745Z" fill="#FFB09E"/>
<path d="M32.0344 21.219V22.4866C32.0344 22.7262 32.0224 22.9634 31.9989 23.1967C31.8328 24.8556 31.0902 26.3444 29.9742 27.4604C28.7016 28.7331 26.9432 29.5206 25.0004 29.5206C21.3549 29.5206 18.3576 26.7477 18.0018 23.1967C17.9784 22.9634 17.9663 22.7262 17.9663 22.4866V21.219C17.9663 21.219 19.4201 23.4334 23.2369 24.0383C24.4047 24.2234 25.596 24.2234 26.7638 24.0383C30.5806 23.4334 32.0344 21.219 32.0344 21.219Z" fill="#F5F8F9"/>
<path d="M32.0346 21.2188V22.4866C32.0346 22.7263 32.0224 22.9634 31.9986 23.1966C31.8328 24.8558 31.09 26.3446 29.9739 27.4601C28.7015 28.7331 26.9434 29.5203 25.0003 29.5203C24.8397 29.5203 24.6769 29.5165 24.517 29.5035C24.4637 29.5003 24.4104 29.4958 24.3577 29.4906C26.0444 29.339 27.5584 28.591 28.6887 27.4601C29.8049 26.3446 30.5477 24.8557 30.7134 23.1966C30.7372 22.9633 30.7494 22.7262 30.7494 22.4865V22.4614C31.6478 21.808 32.0346 21.2188 32.0346 21.2188Z" fill="#D9E7EC"/>
<path d="M34.0372 16.4212C34.0372 15.7901 33.8914 15.2046 33.6889 14.6349C33.4091 13.8478 33.0209 13.0909 32.7597 12.2857C32.6667 11.9992 32.5924 11.7069 32.5321 11.4119C32.4131 10.8306 32.3486 10.2396 32.3023 9.64851C32.3021 9.64576 32.3019 9.64301 32.3017 9.64026C32.2705 9.21951 31.8793 8.92301 31.4682 9.01769C28.9893 9.58863 25.5439 9.30288 24.9614 9.30294C22.0179 9.30294 19.3759 10.0838 17.571 12.1007C16.2769 13.5468 15.5758 15.7473 16.0974 17.6619C16.3266 18.5033 16.9705 19.2476 17.8815 19.3213C17.8915 19.3221 17.9167 19.3284 17.9263 19.3238C18.6053 18.9948 18.8592 18.509 18.9499 18.1367C18.9906 17.9699 19.1866 17.8979 19.3271 17.9966C20.3982 18.7485 22.1553 19.4284 25.0004 19.4017C27.8448 19.4284 29.6017 18.7489 30.673 17.9972C30.8134 17.8987 31.0094 17.9706 31.0501 18.1372C31.1409 18.5094 31.3949 18.9949 32.0736 19.3239C32.0736 19.3238 34.089 19.3031 34.0372 16.4212Z" fill="#596C76"/>
<path d="M32.0732 19.3237C31.919 19.2491 31.7867 19.1663 31.6735 19.0783C32.2274 18.7647 32.8585 18.0495 32.8289 16.4212C32.8289 15.7902 32.683 15.2048 32.4806 14.6348C32.2011 13.8476 31.813 13.0907 31.5514 12.2856C31.4582 11.999 31.3844 11.7073 31.3239 11.4117C31.205 10.8308 31.1402 10.2396 31.0939 9.64844C31.0939 9.64588 31.0939 9.64332 31.0932 9.64007C31.0778 9.43444 30.9769 9.25838 30.8291 9.14401C31.0476 9.10738 31.2609 9.06563 31.4679 9.01807C31.8791 8.92294 32.2704 9.21982 32.3013 9.64007C32.3019 9.64326 32.3019 9.64582 32.3019 9.64844C32.3482 10.2396 32.4131 10.8308 32.532 11.4117C32.5924 11.7073 32.6663 11.999 32.7595 12.2856C33.021 13.0907 33.4091 13.8477 33.6887 14.6348C33.8911 15.2048 34.0369 15.7902 34.0369 16.4212C34.089 19.3031 32.0732 19.3237 32.0732 19.3237Z" fill="#465A61"/>
</g>
<defs>
<clipPath id="clip0">
<rect width="32" height="32" fill="white" transform="translate(9 9)"/>
</clipPath>
</defs>
</svg>
