<svg width="50" height="50" viewBox="0 0 50 50" fill="none" xmlns="http://www.w3.org/2000/svg">
<circle cx="25" cy="25" r="24.5" fill="#F5F5F5" stroke="#E0E0E0"/>
<g clip-path="url(#clip0)">
<path d="M36.6186 40.0886C36.4972 37.5746 35.3625 35.3968 33.4249 33.7637C33.3356 33.6885 33.2192 33.5549 33.1296 33.4831C33.085 33.4475 33.1049 33.3184 33.0603 33.2836C31.0307 31.7 28.945 30.9772 28.1717 30.7466C28.0266 30.7033 27.879 30.6723 27.7311 30.64C26.6293 30.3996 26.8115 28.5903 26.8115 28.5903H25H23.1885C23.1885 28.5903 23.3706 30.3996 22.2688 30.64C22.121 30.6722 21.9733 30.7033 21.8282 30.7466C21.055 30.9771 18.9693 31.7 16.9396 33.2835C16.895 33.3183 16.9009 33.4475 16.8563 33.4831C16.7666 33.555 16.6355 33.6885 16.5462 33.7637C14.6086 35.3968 13.592 37.5743 13.4706 40.0883C13.4564 40.3836 13.4565 40.3143 13.4746 40.6261L36.6145 40.6264C36.6326 40.3147 36.6328 40.384 36.6186 40.0886Z" fill="#FFCEBF"/>
<path d="M36.736 40.9999H35.3751C35.3732 40.8964 35.37 40.7942 35.3655 40.6933C35.244 38.1792 34.0252 35.8475 32.0876 34.2147C31.358 33.5995 30.5602 33.0666 29.7175 32.6198C28.8522 32.1602 27.9619 31.8683 27.0426 31.5617C26.6112 31.4177 26.1568 31.3913 25.8778 30.9902C25.6901 30.7196 25.5956 30.3885 25.5326 30.069C25.5217 30.0144 25.4548 29.151 25.4304 28.5898H26.8112C26.8112 28.5898 26.6289 30.3998 27.7312 30.6398C27.8789 30.672 28.0263 30.7031 28.1711 30.7462C28.9954 30.992 31.3126 31.7973 33.4621 33.6092C35.4003 35.2426 36.6191 37.5742 36.7406 40.0883C36.7547 40.3834 36.7547 40.6882 36.736 40.9999Z" fill="#FFB09E"/>
<path d="M36.7364 40.9992H13.2632C13.245 40.6881 13.245 40.3829 13.2593 40.0879C13.3805 37.5738 14.5995 35.2425 16.5371 33.6093C16.6707 33.4966 16.8049 33.3878 16.9397 33.2834C18.2721 34.0434 20.6938 34.8683 24.9997 35.0081C29.3057 34.8683 31.7274 34.0434 33.0597 33.2834C33.1946 33.3878 33.3288 33.4966 33.4624 33.6093C35.4 35.2425 36.619 37.5738 36.7402 40.0879C36.7547 40.3829 36.7547 40.6881 36.7364 40.9992Z" fill="#EB809A"/>
<path d="M36.7361 40.9999C36.7361 40.9999 35.3752 40.9999 35.3752 40.9992C35.3733 40.8957 35.3701 40.7942 35.3656 40.6932C35.2441 38.1791 34.0253 35.8475 32.0877 34.2147C31.9624 34.1093 31.8357 34.0065 31.7065 33.9061C32.2497 33.7036 32.6959 33.4909 33.0597 33.2832C33.0777 33.2973 33.0951 33.3108 33.1131 33.325C33.2319 33.4183 33.3469 33.512 33.4622 33.6091C34.7948 34.7322 35.7874 36.185 36.3164 37.7999C36.5909 38.6375 36.7286 39.4142 36.7484 40.2959C36.7535 40.5254 36.7503 40.7607 36.7361 40.9999Z" fill="#E45376"/>
<path d="M15.3287 23.7614C14.8562 24.5462 14.7295 25.484 14.4411 26.3535C14.2969 26.7883 14.0698 27.1997 13.777 27.5458C13.3998 27.9918 13.5865 28.6732 14.1441 28.8471C14.1584 28.8515 14.1721 28.8557 14.1854 28.8596C15.8723 29.3625 17.5927 29.1743 19.0223 28.2598C20.2385 27.4817 21.0098 25.9658 20.6518 24.5258C20.3065 23.1363 18.9176 21.904 17.4203 22.2526C16.5737 22.4497 15.778 23.0151 15.3287 23.7614Z" fill="#596C76"/>
<path d="M34.6714 23.7614C35.1439 24.5462 35.2707 25.484 35.5591 26.3535C35.7032 26.7883 35.9303 27.1997 36.2231 27.5458C36.6004 27.9918 36.4136 28.6732 35.856 28.8471C35.8417 28.8515 35.828 28.8557 35.8147 28.8596C34.1278 29.3625 32.4074 29.1743 30.9779 28.2598C29.7616 27.4817 28.9903 25.9658 29.3483 24.5258C29.6937 23.1363 31.0825 21.904 32.5798 22.2526C33.4264 22.4497 34.2222 23.0151 34.6714 23.7614Z" fill="#596C76"/>
<path d="M35.8557 28.8471C35.8416 28.851 35.8281 28.8555 35.8146 28.8593C35.589 28.9268 35.3627 28.9814 35.1364 29.0239C35.3306 28.7372 35.3299 28.3341 35.0779 28.0365C34.7854 27.69 34.5585 27.2786 34.4139 26.844C34.1259 25.9742 33.9992 25.0363 33.5267 24.2521C33.0774 23.5057 32.2815 22.94 31.4349 22.7427C31.1392 22.6739 30.848 22.6668 30.5684 22.7099C31.1392 22.2901 31.847 22.0818 32.5798 22.2522C33.4264 22.4496 34.2222 23.0146 34.6716 23.7609C35.1441 24.5458 35.2707 25.4837 35.5587 26.3529C35.7034 26.7881 35.9303 27.1995 36.2228 27.5453C36.6002 27.9916 36.4137 28.6729 35.8557 28.8471Z" fill="#465A61"/>
<path d="M17.8531 23.4708H17.5322C16.5642 23.4708 15.7795 22.6861 15.7795 21.7182C15.7795 20.7503 16.5642 19.9656 17.5322 19.9656H17.8531V23.4708Z" fill="#FFCEBF"/>
<path d="M32.1475 23.4708H32.4684C33.4363 23.4708 34.221 22.6861 34.221 21.7182C34.221 20.7503 33.4363 19.9656 32.4684 19.9656H32.1475V23.4708Z" fill="#FFCEBF"/>
<path d="M32.3018 15.6746L32.3025 15.9147L32.2953 18.4037L32.2954 18.6959L32.2905 20.8591L32.0071 21.6239C32.0071 21.6239 31.9614 23.2287 31.9371 23.4707C31.7648 25.191 31.0131 26.0823 29.8557 27.2397C28.5359 28.5595 27.0151 29.1491 25.0002 29.1321C21.4741 29.1025 18.566 26.6591 17.8715 23.0144C17.826 22.7755 17.8347 22.5265 17.8347 22.2779V21.3707L17.6975 20.8591V18.405V15.6746H32.3018Z" fill="#FFCEBF"/>
<path d="M31.5068 15.6711L32.2949 18.656C32.2949 18.656 32.2823 22.6684 32.2576 22.9103C32.0857 24.6309 31.3153 26.1749 30.1578 27.3318C28.8383 28.6519 27.0151 29.4683 24.9999 29.4683C24.7753 29.4683 24.5527 29.4583 24.3335 29.4376C26.0828 29.2804 27.6529 28.5047 28.8251 27.3318C29.9826 26.1749 30.7529 24.6309 30.9249 22.9103C30.9496 22.6684 30.9622 22.4224 30.9622 22.1739V15.6711H31.5068Z" fill="#FFC4B3"/>
<path d="M32.2949 20.8591V22.1737C32.2949 22.4223 32.2824 22.6682 32.2581 22.9102C32.0858 24.6305 31.3157 26.1746 30.1584 27.3319C28.8386 28.6518 27.015 29.4685 25.0001 29.4685C21.2196 29.4685 18.1111 26.5928 17.7421 22.9102C17.7178 22.6682 17.7053 22.4223 17.7053 22.1737V20.8591C17.7053 20.8591 19.2131 23.1556 23.1713 23.783C24.3824 23.9749 25.6178 23.9749 26.8289 23.783C30.7872 23.1556 32.2949 20.8591 32.2949 20.8591Z" fill="#F5F8F9"/>
<path d="M32.2949 20.8586V22.1735C32.2949 22.422 32.2823 22.668 32.2576 22.9098C32.0857 24.6305 31.3153 26.1745 30.1578 27.3314C28.8383 28.6515 27.0151 29.4679 24.9999 29.4679C24.8322 29.4679 24.6658 29.4641 24.4987 29.4506C24.4434 29.4473 24.3881 29.4426 24.3335 29.4373C26.0828 29.28 27.6529 28.5043 28.8251 27.3315C29.9826 26.1746 30.7529 24.6305 30.9249 22.9099C30.9496 22.668 30.9622 22.4221 30.9622 22.1735V22.1475C31.8938 21.4698 32.2949 20.8586 32.2949 20.8586Z" fill="#D9E7EC"/>
<path d="M32.3017 15.2929C32.3017 14.0766 31.8964 12.8911 31.133 11.9495C29.6734 10.1492 27.4538 9 24.9679 9C22.5894 9 20.4545 10.0521 18.996 11.7201C18.1523 12.6849 17.6973 13.9336 17.6973 15.2201V18.4005C17.6973 18.4005 20.9696 18.6516 22.3296 17.0644C22.4335 16.9432 22.6255 16.9571 22.7102 17.0923C23.059 17.649 23.9651 18.758 25.654 18.7691C25.844 18.7703 25.9551 18.5559 25.8491 18.3984C25.6505 18.1029 25.4253 17.6503 25.4769 17.1669C25.4966 16.9823 25.7076 16.8877 25.8564 16.9988C26.6661 17.6038 29.1786 19.2365 32.302 18.8812L32.3017 15.2929Z" fill="#596C76"/>
<path d="M32.3027 18.8811C31.8411 18.9338 31.3924 18.9428 30.961 18.9184V15.2928C30.961 14.0766 30.5554 12.8912 29.7924 11.9494C28.4649 10.3127 26.51 9.21406 24.2974 9.02831C24.5186 9.00969 24.7422 9 24.9685 9C27.4544 9 29.6735 10.1494 31.1334 11.9494C31.897 12.8911 32.302 14.0766 32.302 15.2928L32.3027 18.8811Z" fill="#465A61"/>
</g>
<defs>
<clipPath id="clip0">
<rect width="32" height="32" fill="white" transform="translate(9 9)"/>
</clipPath>
</defs>
</svg>
