<svg width="100" height="100" viewBox="0 0 100 100" fill="none" xmlns="http://www.w3.org/2000/svg">
<circle cx="50" cy="50" r="48" fill="#ACECC7" stroke="#27AE60" stroke-width="4"/>
<path d="M47 54H53C55.1217 54 57.1566 55.0114 58.6569 56.8118C60.1571 58.6121 61 61.0539 61 63.6V66H39V63.6C39 61.0539 39.8429 58.6121 41.3431 56.8118C42.8434 55.0114 44.8783 54 47 54Z" fill="#2D9CDB"/>
<path d="M44 54.5H49V56.5C49 57.0304 48.7893 57.5391 48.4142 57.9142C48.0391 58.2893 47.5304 58.5 47 58.5H46C45.4696 58.5 44.9609 58.2893 44.5858 57.9142C44.2107 57.5391 44 57.0304 44 56.5V54.5Z" fill="#1F80B7"/>
<path d="M51 54.5H56V56.5C56 57.0304 55.7893 57.5391 55.4142 57.9142C55.0391 58.2893 54.5304 58.5 54 58.5H53C52.4696 58.5 51.9609 58.2893 51.5858 57.9142C51.2107 57.5391 51 57.0304 51 56.5V54.5Z" fill="#1F80B7"/>
<path d="M50 61C50.5523 61 51 60.5523 51 60C51 59.4477 50.5523 59 50 59C49.4477 59 49 59.4477 49 60C49 60.5523 49.4477 61 50 61Z" fill="#E9EEF2"/>
<path d="M39.7002 48.5C40.8048 48.5 41.7002 47.6046 41.7002 46.5C41.7002 45.3954 40.8048 44.5 39.7002 44.5C38.5956 44.5 37.7002 45.3954 37.7002 46.5C37.7002 47.6046 38.5956 48.5 39.7002 48.5Z" fill="#F0C6A4"/>
<path d="M60 48.5C61.1046 48.5 62 47.6046 62 46.5C62 45.3954 61.1046 44.5 60 44.5C58.8954 44.5 58 45.3954 58 46.5C58 47.6046 58.8954 48.5 60 48.5Z" fill="#F0C6A4"/>
<path d="M50 57C55.799 57 60.5 52.299 60.5 46.5C60.5 40.701 55.799 36 50 36C44.201 36 39.5 40.701 39.5 46.5C39.5 52.299 44.201 57 50 57Z" fill="#F7CCA9"/>
<path d="M47 37C46.8674 37 46.7402 36.9473 46.6464 36.8536C46.5527 36.7598 46.5 36.6326 46.5 36.5V34.5C46.5 34.3674 46.5527 34.2402 46.6464 34.1464C46.7402 34.0527 46.8674 34 47 34C47.1326 34 47.2598 34.0527 47.3536 34.1464C47.4473 34.2402 47.5 34.3674 47.5 34.5V36.5C47.5 36.6326 47.4473 36.7598 47.3536 36.8536C47.2598 36.9473 47.1326 37 47 37Z" fill="#FFB632"/>
<path d="M48 39C47.8674 39 47.7402 38.9473 47.6464 38.8536C47.5527 38.7598 47.5 38.6326 47.5 38.5V36.5C47.5 36.3674 47.5527 36.2402 47.6464 36.1464C47.7402 36.0527 47.8674 36 48 36C48.1326 36 48.2598 36.0527 48.3536 36.1464C48.4473 36.2402 48.5 36.3674 48.5 36.5V38.5C48.5 38.6326 48.4473 38.7598 48.3536 38.8536C48.2598 38.9473 48.1326 39 48 39Z" fill="#FFB632"/>
<path d="M50 39C49.8674 39 49.7402 38.9473 49.6464 38.8536C49.5527 38.7598 49.5 38.6326 49.5 38.5V36.5C49.5 36.3674 49.5527 36.2402 49.6464 36.1464C49.7402 36.0527 49.8674 36 50 36C50.1326 36 50.2598 36.0527 50.3536 36.1464C50.4473 36.2402 50.5 36.3674 50.5 36.5V38.5C50.5 38.6326 50.4473 38.7598 50.3536 38.8536C50.2598 38.9473 50.1326 39 50 39Z" fill="#FFB632"/>
<path d="M52 39C51.8674 39 51.7402 38.9473 51.6464 38.8536C51.5527 38.7598 51.5 38.6326 51.5 38.5V36.5C51.5 36.3674 51.5527 36.2402 51.6464 36.1464C51.7402 36.0527 51.8674 36 52 36C52.1326 36 52.2598 36.0527 52.3536 36.1464C52.4473 36.2402 52.5 36.3674 52.5 36.5V38.5C52.5 38.6326 52.4473 38.7598 52.3536 38.8536C52.2598 38.9473 52.1326 39 52 39Z" fill="#FFB632"/>
<path d="M49 37C48.8674 37 48.7402 36.9473 48.6464 36.8536C48.5527 36.7598 48.5 36.6326 48.5 36.5V34.5C48.5 34.3674 48.5527 34.2402 48.6464 34.1464C48.7402 34.0527 48.8674 34 49 34C49.1326 34 49.2598 34.0527 49.3536 34.1464C49.4473 34.2402 49.5 34.3674 49.5 34.5V36.5C49.5 36.6326 49.4473 36.7598 49.3536 36.8536C49.2598 36.9473 49.1326 37 49 37Z" fill="#FFB632"/>
<path d="M51 37C50.8674 37 50.7402 36.9473 50.6464 36.8536C50.5527 36.7598 50.5 36.6326 50.5 36.5V34.5C50.5 34.3674 50.5527 34.2402 50.6464 34.1464C50.7402 34.0527 50.8674 34 51 34C51.1326 34 51.2598 34.0527 51.3536 34.1464C51.4473 34.2402 51.5 34.3674 51.5 34.5V36.5C51.5 36.6326 51.4473 36.7598 51.3536 36.8536C51.2598 36.9473 51.1326 37 51 37Z" fill="#FFB632"/>
<path d="M53 37C52.8674 37 52.7402 36.9473 52.6464 36.8536C52.5527 36.7598 52.5 36.6326 52.5 36.5V34.5C52.5 34.3674 52.5527 34.2402 52.6464 34.1464C52.7402 34.0527 52.8674 34 53 34C53.1326 34 53.2598 34.0527 53.3536 34.1464C53.4473 34.2402 53.5 34.3674 53.5 34.5V36.5C53.5 36.6326 53.4473 36.7598 53.3536 36.8536C53.2598 36.9473 53.1326 37 53 37Z" fill="#FFB632"/>
<path d="M43 51C44.1046 51 45 50.1046 45 49C45 47.8954 44.1046 47 43 47C41.8954 47 41 47.8954 41 49C41 50.1046 41.8954 51 43 51Z" fill="#FF9494"/>
<path d="M57 51C58.1046 51 59 50.1046 59 49C59 47.8954 58.1046 47 57 47C55.8954 47 55 47.8954 55 49C55 50.1046 55.8954 51 57 51Z" fill="#FF9494"/>
</svg>
