<svg width="100" height="100" viewBox="0 0 100 100" fill="none" xmlns="http://www.w3.org/2000/svg">
<circle cx="50" cy="50" r="48" fill="#FAD1D1" stroke="#EB5757" stroke-width="4"/>
<g clip-path="url(#clip0)">
<path d="M61.6186 65.0886C61.4972 62.5746 60.3625 60.3968 58.4249 58.7637C58.3356 58.6885 58.2192 58.5549 58.1296 58.4831C58.085 58.4475 58.1049 58.3184 58.0603 58.2836C56.0307 56.7 53.945 55.9772 53.1717 55.7466C53.0266 55.7033 52.879 55.6723 52.7311 55.64C51.6293 55.3996 51.8115 53.5903 51.8115 53.5903H50H48.1885C48.1885 53.5903 48.3706 55.3996 47.2688 55.64C47.121 55.6722 46.9733 55.7033 46.8282 55.7466C46.055 55.9771 43.9693 56.7 41.9396 58.2835C41.895 58.3183 41.9009 58.4475 41.8563 58.4831C41.7666 58.555 41.6355 58.6885 41.5462 58.7637C39.6086 60.3968 38.592 62.5743 38.4706 65.0883C38.4564 65.3836 38.4565 65.3143 38.4746 65.6261L61.6145 65.6264C61.6326 65.3147 61.6328 65.384 61.6186 65.0886Z" fill="#FFCEBF"/>
<path d="M61.736 65.9999H60.3751C60.3732 65.8964 60.37 65.7942 60.3655 65.6933C60.244 63.1792 59.0252 60.8475 57.0876 59.2147C56.358 58.5995 55.5602 58.0666 54.7175 57.6198C53.8522 57.1602 52.9619 56.8683 52.0426 56.5617C51.6112 56.4177 51.1568 56.3913 50.8778 55.9902C50.6901 55.7196 50.5956 55.3885 50.5326 55.069C50.5217 55.0144 50.4548 54.151 50.4304 53.5898H51.8112C51.8112 53.5898 51.6289 55.3998 52.7312 55.6398C52.8789 55.672 53.0263 55.7031 53.1711 55.7462C53.9954 55.992 56.3126 56.7973 58.4621 58.6092C60.4003 60.2426 61.6191 62.5742 61.7406 65.0883C61.7547 65.3834 61.7547 65.6882 61.736 65.9999Z" fill="#FFB09E"/>
<path d="M61.7364 65.9992H38.2632C38.245 65.6881 38.245 65.3829 38.2593 65.0879C38.3805 62.5738 39.5995 60.2425 41.5371 58.6093C41.6707 58.4966 41.8049 58.3878 41.9397 58.2834C43.2721 59.0434 45.6938 59.8683 49.9997 60.0081C54.3057 59.8683 56.7274 59.0434 58.0597 58.2834C58.1946 58.3878 58.3288 58.4966 58.4624 58.6093C60.4 60.2425 61.619 62.5738 61.7402 65.0879C61.7547 65.3829 61.7547 65.6881 61.7364 65.9992Z" fill="#EB809A"/>
<path d="M61.7361 65.9999C61.7361 65.9999 60.3752 65.9999 60.3752 65.9992C60.3733 65.8957 60.3701 65.7942 60.3656 65.6932C60.2441 63.1791 59.0253 60.8475 57.0877 59.2147C56.9624 59.1093 56.8357 59.0065 56.7065 58.9061C57.2497 58.7036 57.6959 58.4909 58.0597 58.2832C58.0777 58.2973 58.0951 58.3108 58.1131 58.325C58.2319 58.4183 58.3469 58.512 58.4622 58.6091C59.7948 59.7322 60.7874 61.185 61.3164 62.7999C61.5909 63.6375 61.7286 64.4142 61.7484 65.2959C61.7535 65.5254 61.7503 65.7607 61.7361 65.9999Z" fill="#E45376"/>
<path d="M40.3287 48.7614C39.8562 49.5462 39.7295 50.484 39.4411 51.3535C39.2969 51.7883 39.0698 52.1997 38.777 52.5458C38.3998 52.9918 38.5865 53.6732 39.1441 53.8471C39.1584 53.8515 39.1721 53.8557 39.1854 53.8596C40.8723 54.3625 42.5927 54.1743 44.0223 53.2598C45.2385 52.4817 46.0098 50.9658 45.6518 49.5258C45.3065 48.1363 43.9176 46.904 42.4203 47.2526C41.5737 47.4497 40.778 48.0151 40.3287 48.7614Z" fill="#596C76"/>
<path d="M59.6714 48.7614C60.1439 49.5462 60.2707 50.484 60.5591 51.3535C60.7032 51.7883 60.9303 52.1997 61.2231 52.5458C61.6004 52.9918 61.4136 53.6732 60.856 53.8471C60.8417 53.8515 60.828 53.8557 60.8147 53.8596C59.1278 54.3625 57.4074 54.1743 55.9779 53.2598C54.7616 52.4817 53.9903 50.9658 54.3483 49.5258C54.6937 48.1363 56.0825 46.904 57.5798 47.2526C58.4264 47.4497 59.2222 48.0151 59.6714 48.7614Z" fill="#596C76"/>
<path d="M60.8557 53.8471C60.8416 53.851 60.8281 53.8555 60.8146 53.8593C60.589 53.9268 60.3627 53.9814 60.1364 54.0239C60.3306 53.7372 60.3299 53.3341 60.0779 53.0365C59.7854 52.69 59.5585 52.2786 59.4139 51.844C59.1259 50.9742 58.9992 50.0363 58.5267 49.2521C58.0774 48.5057 57.2815 47.94 56.4349 47.7427C56.1392 47.6739 55.848 47.6668 55.5684 47.7099C56.1392 47.2901 56.847 47.0818 57.5798 47.2522C58.4264 47.4496 59.2222 48.0146 59.6716 48.7609C60.1441 49.5458 60.2707 50.4837 60.5587 51.3529C60.7034 51.7881 60.9303 52.1995 61.2228 52.5453C61.6002 52.9916 61.4137 53.6729 60.8557 53.8471Z" fill="#465A61"/>
<path d="M42.8531 48.4708H42.5322C41.5642 48.4708 40.7795 47.6861 40.7795 46.7182C40.7795 45.7503 41.5642 44.9656 42.5322 44.9656H42.8531V48.4708Z" fill="#FFCEBF"/>
<path d="M57.1475 48.4708H57.4684C58.4363 48.4708 59.221 47.6861 59.221 46.7182C59.221 45.7503 58.4363 44.9656 57.4684 44.9656H57.1475V48.4708Z" fill="#FFCEBF"/>
<path d="M57.3018 40.6746L57.3025 40.9147L57.2953 43.4037L57.2954 43.6959L57.2905 45.8591L57.0071 46.6239C57.0071 46.6239 56.9614 48.2287 56.9371 48.4707C56.7648 50.191 56.0131 51.0823 54.8557 52.2397C53.5359 53.5595 52.0151 54.1491 50.0002 54.1321C46.4741 54.1025 43.566 51.6591 42.8715 48.0144C42.826 47.7755 42.8347 47.5265 42.8347 47.2779V46.3707L42.6975 45.8591V43.405V40.6746H57.3018Z" fill="#FFCEBF"/>
<path d="M56.5068 40.6711L57.2949 43.656C57.2949 43.656 57.2823 47.6684 57.2576 47.9103C57.0857 49.6309 56.3153 51.1749 55.1578 52.3318C53.8383 53.6519 52.0151 54.4683 49.9999 54.4683C49.7753 54.4683 49.5527 54.4583 49.3335 54.4376C51.0828 54.2804 52.6529 53.5047 53.8251 52.3318C54.9826 51.1749 55.7529 49.6309 55.9249 47.9103C55.9496 47.6684 55.9622 47.4224 55.9622 47.1739V40.6711H56.5068Z" fill="#FFC4B3"/>
<path d="M57.2949 45.8591V47.1737C57.2949 47.4223 57.2824 47.6682 57.2581 47.9102C57.0858 49.6305 56.3157 51.1746 55.1584 52.3319C53.8386 53.6518 52.015 54.4685 50.0001 54.4685C46.2196 54.4685 43.1111 51.5928 42.7421 47.9102C42.7178 47.6682 42.7053 47.4223 42.7053 47.1737V45.8591C42.7053 45.8591 44.2131 48.1556 48.1713 48.783C49.3824 48.9749 50.6178 48.9749 51.8289 48.783C55.7872 48.1556 57.2949 45.8591 57.2949 45.8591Z" fill="#F5F8F9"/>
<path d="M57.2949 45.8586V47.1735C57.2949 47.422 57.2823 47.668 57.2576 47.9098C57.0857 49.6305 56.3153 51.1745 55.1578 52.3314C53.8383 53.6515 52.0151 54.4679 49.9999 54.4679C49.8322 54.4679 49.6658 54.4641 49.4987 54.4506C49.4434 54.4473 49.3881 54.4426 49.3335 54.4373C51.0828 54.28 52.6529 53.5043 53.8251 52.3315C54.9826 51.1746 55.7529 49.6305 55.9249 47.9099C55.9496 47.668 55.9622 47.4221 55.9622 47.1735V47.1475C56.8938 46.4698 57.2949 45.8586 57.2949 45.8586Z" fill="#D9E7EC"/>
<path d="M57.3017 40.2929C57.3017 39.0766 56.8964 37.8911 56.133 36.9495C54.6734 35.1492 52.4538 34 49.9679 34C47.5894 34 45.4545 35.0521 43.996 36.7201C43.1523 37.6849 42.6973 38.9336 42.6973 40.2201V43.4005C42.6973 43.4005 45.9696 43.6516 47.3296 42.0644C47.4335 41.9432 47.6255 41.9571 47.7102 42.0923C48.059 42.649 48.9651 43.758 50.654 43.7691C50.844 43.7703 50.9551 43.5559 50.8491 43.3984C50.6505 43.1029 50.4253 42.6503 50.4769 42.1669C50.4966 41.9823 50.7076 41.8877 50.8564 41.9988C51.6661 42.6038 54.1786 44.2365 57.302 43.8812L57.3017 40.2929Z" fill="#596C76"/>
<path d="M57.3027 43.8811C56.8411 43.9338 56.3924 43.9428 55.961 43.9184V40.2928C55.961 39.0766 55.5554 37.8912 54.7924 36.9494C53.4649 35.3127 51.51 34.2141 49.2974 34.0283C49.5186 34.0097 49.7422 34 49.9685 34C52.4544 34 54.6735 35.1494 56.1334 36.9494C56.897 37.8911 57.302 39.0766 57.302 40.2928L57.3027 43.8811Z" fill="#465A61"/>
</g>
<defs>
<clipPath id="clip0">
<rect width="32" height="32" fill="white" transform="translate(34 34)"/>
</clipPath>
</defs>
</svg>
