<svg width="100" height="100" viewBox="0 0 100 100" fill="none" xmlns="http://www.w3.org/2000/svg">
<circle cx="50" cy="50" r="48" fill="#ACECC7" stroke="#27AE60" stroke-width="4"/>
<g clip-path="url(#clip0)">
<path d="M61.1646 65.9999H38.8359C38.8184 65.7003 38.8184 65.4069 38.8321 65.1228C38.9474 62.7035 40.1072 60.4598 41.9504 58.8882C44.4924 56.7199 47.2805 56.0496 47.2805 56.0496C47.458 56.0316 47.6051 55.9742 47.7259 55.8889C48.4117 55.4099 48.2772 54.0576 48.2772 54.0576H51.7231C51.7231 54.0576 51.5885 55.4099 52.2744 55.8889C52.3952 55.9742 52.5422 56.0316 52.7197 56.0496C52.7197 56.0496 55.5079 56.7199 58.0499 58.8882C59.8931 60.4597 61.0529 62.7035 61.1682 65.1228C61.182 65.4069 61.182 65.7003 61.1646 65.9999Z" fill="#2D9CDB"/>
<path d="M61.1643 65.9999H59.7378C59.7378 65.8579 59.7347 65.7178 59.7282 65.5797C59.6125 63.1597 58.4527 60.9165 56.6098 59.3447C54.8652 57.8572 53.0049 57.0745 52.0095 56.73C52.1464 56.4486 52.2273 56.1575 52.2743 55.8889C52.3951 55.9744 52.5422 56.0315 52.7196 56.0495C52.7196 56.0495 55.5078 56.7198 58.0498 58.8885C59.8933 60.4602 61.0532 62.7035 61.1682 65.1228C61.1817 65.4068 61.1817 65.7004 61.1643 65.9999Z" fill="#1F80B7"/>
<path d="M56.8782 56.045C56.8827 55.4229 56.7391 54.6994 56.4341 54.1488C55.9712 53.3132 55.1447 52.8037 54.2289 52.5918H45.7717C44.5604 52.872 43.6229 53.7257 43.2973 54.9336C42.962 56.1775 43.1219 57.5579 44.1292 58.4454C45.0159 59.2265 46.1593 59.6519 47.341 59.6582C47.9819 59.6617 48.7281 59.5637 49.3117 59.2212C49.7358 58.9722 50.2647 58.9722 50.6888 59.2212C51.2725 59.5638 52.0186 59.6617 52.6595 59.6582C53.8412 59.6519 54.9846 59.2265 55.8714 58.4454C56.5741 57.8262 56.8716 56.9454 56.8782 56.045Z" fill="#1F80B7"/>
<path d="M56.8779 56.0441C56.8714 56.945 56.5739 57.826 55.8716 58.4448C54.9848 59.2262 53.841 59.6516 52.6593 59.658C52.0418 59.6612 51.3266 59.5706 50.7534 59.2564C50.9982 59.2879 51.2418 59.3001 51.4718 59.2988C52.6535 59.2924 53.7967 58.867 54.6834 58.0856C55.3864 57.4668 55.6839 56.5858 55.6904 55.6856C55.6949 55.0636 55.5509 54.34 55.2464 53.7893C54.9546 53.2631 54.519 52.8659 54.0081 52.5916H54.2292C55.1449 52.8029 55.9712 53.3126 56.4339 54.1486C56.7391 54.6986 56.883 55.4221 56.8779 56.0441Z" fill="#18628B"/>
<path d="M43.1088 48.7368H42.7993C41.866 48.7368 41.1094 47.9802 41.1094 47.0469C41.1094 46.1136 41.866 45.3569 42.7993 45.3569H43.1088V48.7368Z" fill="#FFCEBF"/>
<path d="M56.8918 48.7368H57.2013C58.1347 48.7368 58.8913 47.9802 58.8913 47.0469C58.8913 46.1136 58.1347 45.3569 57.2013 45.3569H56.8918V48.7368Z" fill="#FFCEBF"/>
<path d="M56.2747 40.9885L57.0344 43.6214V46.2187L56.7843 47.1371C56.7843 47.3768 56.7853 47.7786 56.7619 48.0119C56.5957 49.6707 56.0902 51.1164 54.9742 52.2324C53.7016 53.505 51.9432 54.2926 50.0004 54.2926C46.3549 54.2926 43.5917 51.7165 43.2359 48.1655C43.2125 47.9321 43.1387 47.2089 43.1387 46.9692V46.5953L42.9663 46.2187V43.6214L43.6406 40.9885H56.2747Z" fill="#FFCEBF"/>
<path d="M56.2745 41.2163L57.0345 44.0944V46.219L56.9249 46.6205L56.9326 47.5133C56.9326 47.753 56.9224 47.9493 56.8986 48.1826C56.7328 49.8417 56.0297 51.2867 54.9135 52.4023C53.6412 53.6752 51.9434 54.5203 50.0002 54.5203C49.7837 54.5203 49.569 54.5107 49.3577 54.4907C51.0444 54.3391 52.5584 53.5911 53.6887 52.4602C54.8049 51.3447 55.5477 49.8558 55.7134 48.1967C55.7372 47.9634 55.7494 47.7263 55.7494 47.4866V41.2163H56.2745Z" fill="#FFB09E"/>
<path d="M57.0344 46.219V47.4866C57.0344 47.7262 57.0224 47.9634 56.9989 48.1967C56.8328 49.8556 56.0902 51.3444 54.9742 52.4604C53.7016 53.7331 51.9432 54.5206 50.0004 54.5206C46.3549 54.5206 43.3576 51.7477 43.0018 48.1967C42.9784 47.9634 42.9663 47.7262 42.9663 47.4866V46.219C42.9663 46.219 44.4201 48.4334 48.2369 49.0383C49.4047 49.2234 50.596 49.2234 51.7638 49.0383C55.5806 48.4334 57.0344 46.219 57.0344 46.219Z" fill="#F5F8F9"/>
<path d="M57.0346 46.2188V47.4866C57.0346 47.7263 57.0224 47.9634 56.9986 48.1966C56.8328 49.8558 56.09 51.3446 54.9739 52.4601C53.7015 53.7331 51.9434 54.5203 50.0003 54.5203C49.8397 54.5203 49.6769 54.5165 49.517 54.5035C49.4637 54.5003 49.4104 54.4958 49.3577 54.4906C51.0444 54.339 52.5584 53.591 53.6887 52.4601C54.8049 51.3446 55.5477 49.8557 55.7134 48.1966C55.7372 47.9633 55.7494 47.7262 55.7494 47.4865V47.4614C56.6478 46.808 57.0346 46.2188 57.0346 46.2188Z" fill="#D9E7EC"/>
<path d="M59.0372 41.4212C59.0372 40.7901 58.8914 40.2046 58.6889 39.6349C58.4091 38.8478 58.0209 38.0909 57.7597 37.2857C57.6667 36.9992 57.5924 36.7069 57.5321 36.4119C57.4131 35.8306 57.3486 35.2396 57.3023 34.6485C57.3021 34.6458 57.3019 34.643 57.3017 34.6403C57.2705 34.2195 56.8793 33.923 56.4682 34.0177C53.9893 34.5886 50.5439 34.3029 49.9614 34.3029C47.0179 34.3029 44.3759 35.0838 42.571 37.1007C41.2769 38.5468 40.5758 40.7473 41.0974 42.6619C41.3266 43.5033 41.9705 44.2476 42.8815 44.3213C42.8915 44.3221 42.9167 44.3284 42.9263 44.3238C43.6053 43.9948 43.8592 43.509 43.9499 43.1367C43.9906 42.9699 44.1866 42.8979 44.3271 42.9966C45.3982 43.7485 47.1553 44.4284 50.0004 44.4017C52.8448 44.4284 54.6017 43.7489 55.673 42.9972C55.8134 42.8987 56.0094 42.9706 56.0501 43.1372C56.1409 43.5094 56.3949 43.9949 57.0736 44.3239C57.0736 44.3238 59.089 44.3031 59.0372 41.4212Z" fill="#596C76"/>
<path d="M57.0732 44.3237C56.919 44.2491 56.7867 44.1663 56.6735 44.0783C57.2274 43.7647 57.8585 43.0495 57.8289 41.4212C57.8289 40.7902 57.683 40.2048 57.4806 39.6348C57.2011 38.8476 56.813 38.0907 56.5514 37.2856C56.4582 36.999 56.3844 36.7073 56.3239 36.4117C56.205 35.8308 56.1402 35.2396 56.0939 34.6484C56.0939 34.6459 56.0939 34.6433 56.0932 34.6401C56.0778 34.4344 55.9769 34.2584 55.8291 34.144C56.0476 34.1074 56.2609 34.0656 56.4679 34.0181C56.8791 33.9229 57.2704 34.2198 57.3013 34.6401C57.3019 34.6433 57.3019 34.6458 57.3019 34.6484C57.3482 35.2396 57.4131 35.8308 57.532 36.4117C57.5924 36.7073 57.6663 36.999 57.7595 37.2856C58.021 38.0907 58.4091 38.8477 58.6887 39.6348C58.8911 40.2048 59.0369 40.7902 59.0369 41.4212C59.089 44.3031 57.0732 44.3237 57.0732 44.3237Z" fill="#465A61"/>
</g>
<defs>
<clipPath id="clip0">
<rect width="32" height="32" fill="white" transform="translate(34 34)"/>
</clipPath>
</defs>
</svg>
