<svg width="100" height="100" viewBox="0 0 100 100" fill="none" xmlns="http://www.w3.org/2000/svg">
<circle cx="50" cy="50" r="48" fill="#ACECC7" stroke="#27AE60" stroke-width="4"/>
<g clip-path="url(#clip0)">
<path d="M61.9927 44.0631C61.8725 43.3816 61.4856 42.8143 60.9583 42.4491C60.811 42.347 60.744 42.1629 60.7912 41.99C60.9603 41.3714 60.8922 40.6881 60.5462 40.0888C60.2001 39.4895 59.6426 39.0888 59.0223 38.926C58.8461 38.8797 58.723 38.7253 58.7075 38.5438C58.653 37.9075 58.3556 37.292 57.8276 36.849C57.2996 36.406 56.6419 36.2199 56.0057 36.2768C55.8243 36.293 55.6508 36.1986 55.5747 36.0331C55.3066 35.4506 54.8152 34.971 54.1649 34.7343C53.5146 34.4976 52.8299 34.5491 52.25 34.8231C52.088 34.8997 51.895 34.8657 51.7689 34.7383C51.3178 34.2826 50.6921 34 50 34C49.308 34 48.6822 34.2826 48.231 34.7384C48.105 34.8658 47.9119 34.8998 47.7499 34.8232C47.17 34.5492 46.4853 34.4977 45.835 34.7344C45.1848 34.9711 44.6934 35.4506 44.4252 36.0332C44.3491 36.1986 44.1756 36.2931 43.9942 36.2768C43.3581 36.22 42.7003 36.406 42.1724 36.849C41.6444 37.292 41.3469 37.9075 41.2925 38.5439C41.277 38.7253 41.1539 38.8798 40.9777 38.926C40.3573 39.0889 39.7998 39.4895 39.4538 40.0888C39.1078 40.6882 39.0396 41.3714 39.2087 41.99C39.256 42.1629 39.189 42.3471 39.0416 42.4492C38.5143 42.8144 38.1274 43.3816 38.0072 44.0631C37.887 44.7446 38.0566 45.41 38.4272 45.9334C38.5308 46.0798 38.5308 46.2758 38.4272 46.422C38.0566 46.9455 37.8871 47.6108 38.0072 48.2923C38.1274 48.9738 38.5143 49.5411 39.0416 49.9063C39.1889 50.0083 39.256 50.1925 39.2087 50.3654C39.0396 50.984 39.1077 51.6673 39.4538 52.2666C39.7998 52.8659 40.3573 53.2666 40.9777 53.4294C41.1539 53.4757 41.2769 53.6301 41.2925 53.8116C41.3469 54.4479 41.6444 55.0634 42.1724 55.5064C42.7003 55.9494 43.3581 56.1355 43.9942 56.0786C44.1756 56.0624 44.3491 56.1568 44.4252 56.3223C44.6933 56.9048 45.1847 57.3844 45.835 57.6211C46.4853 57.8578 47.17 57.8063 47.7499 57.5323C47.912 57.4557 48.105 57.4897 48.231 57.6171C48.6822 58.0729 49.308 58.3555 50 58.3555C50.6921 58.3555 51.3178 58.0729 51.769 57.6171C51.8951 57.4897 52.0882 57.4556 52.2502 57.5323C52.83 57.8063 53.5147 57.8578 54.1651 57.6211C54.8153 57.3844 55.3067 56.9049 55.5748 56.3223C55.6509 56.1568 55.8244 56.0624 56.0058 56.0786C56.642 56.1355 57.2998 55.9494 57.8277 55.5064C58.3556 55.0634 58.6531 54.448 58.7076 53.8116C58.7231 53.6301 58.8462 53.4757 59.0224 53.4294C59.6427 53.2666 60.2003 52.8659 60.5463 52.2666C60.8923 51.6673 60.9605 50.9841 60.7913 50.3654C60.7441 50.1925 60.8111 50.0083 60.9585 49.9063C61.4857 49.5411 61.8727 48.9739 61.9928 48.2923C62.113 47.6108 61.9434 46.9455 61.5728 46.422C61.4693 46.2757 61.4693 46.0797 61.5728 45.9334C61.9433 45.4099 62.1129 44.7446 61.9927 44.0631Z" fill="#C5D3DD"/>
<path d="M61.5728 45.933C61.9431 45.41 62.1132 44.7447 61.9927 44.0633C61.8729 43.3812 61.4859 42.8144 60.9584 42.4492C60.8109 42.3468 60.7439 42.1626 60.7915 41.99C60.9603 41.3711 60.892 40.6883 60.5462 40.0887C60.2003 39.4897 59.6425 39.089 59.0223 38.9261C58.8465 38.8797 58.7234 38.7252 58.7073 38.5435C58.6532 37.9072 58.3557 37.2921 57.8275 36.849C57.3747 36.469 56.8267 36.2776 56.2785 36.2673C56.3687 36.3246 56.4461 36.4034 56.54 36.4593C57.7958 37.207 57.9193 38.5645 57.908 39.305C57.9053 39.4866 58.0465 39.6405 58.2224 39.6869C58.8113 39.8424 59.3449 40.008 59.6929 40.5962C60.0443 41.19 59.9139 41.684 59.6663 42.2746C59.5969 42.4402 59.6862 42.6321 59.8331 42.7338C59.9599 42.8217 60.0992 42.8924 60.2157 42.9947C60.9944 43.6793 60.827 44.9971 60.2764 45.7743C60.1727 45.9205 60.1727 46.1163 60.2764 46.2625C60.6474 46.7861 60.825 47.221 60.7046 47.9025C60.5848 48.5839 60.1977 49.1513 59.6702 49.5165C59.5234 49.6189 59.4564 49.8025 59.5034 49.9757C59.6728 50.594 59.7565 51.2235 59.41 51.8232C59.0641 52.4222 58.6877 52.6273 58.0668 52.7902C57.891 52.8366 57.768 52.9912 57.7525 53.1722C57.6978 53.8092 57.4352 54.382 56.9077 54.8251C56.3795 55.2683 55.9831 55.2249 55.3467 55.1676C55.1651 55.1515 54.9918 55.2462 54.9158 55.4118C54.6473 55.994 54.2334 56.539 53.8465 56.7683C53.2509 57.1213 52.3739 56.7315 51.7942 56.4571C51.6319 56.3805 51.4394 56.4146 51.3131 56.5421C50.8616 56.9981 49.4044 57.9654 48.712 57.9654C48.6952 57.9654 48.6785 57.9654 48.6624 57.9648C49.0488 58.2121 49.508 58.3551 50.0001 58.3551C50.6919 58.3551 51.3179 58.0723 51.7694 57.617C51.8949 57.4894 52.0882 57.4553 52.2505 57.532C52.8302 57.8057 53.5148 57.8572 54.1653 57.6208C54.8152 57.3838 55.3066 56.9046 55.5746 56.3218C55.6512 56.1563 55.8245 56.0622 56.0061 56.0783C56.6418 56.135 57.3 55.9489 57.8275 55.5064C58.3557 55.0633 58.6532 54.4475 58.7073 53.8112C58.7235 53.6296 58.8465 53.4756 59.0223 53.4292C59.6425 53.2663 60.2003 52.8657 60.5462 52.2661C60.892 51.667 60.9603 50.9837 60.7915 50.3654C60.7439 50.1922 60.8109 50.008 60.9584 49.9062C61.4859 49.541 61.8729 48.9735 61.9927 48.2921C62.1132 47.6107 61.9432 46.9453 61.5728 46.4217C61.4691 46.2757 61.4691 46.0799 61.5728 45.933Z" fill="#B6C4CF"/>
<path d="M61.005 65.1348C60.8939 62.7229 59.7744 60.5971 57.9436 59.0229C57.192 58.3767 55.7738 57.3551 55.7502 57.3419C54.5161 56.6554 53.5146 56.3262 53.0277 56.18C52.8942 56.14 52.7438 56.098 52.6078 56.068C52.5117 56.0469 52.4254 56.014 52.3488 55.97C52.3259 55.9569 52.3004 55.8806 52.2791 55.8657C51.5921 55.3852 51.727 54.0298 51.727 54.0298H49.9999H48.2727C48.2727 54.0298 48.4076 55.3852 47.7207 55.8657C47.7053 55.8764 47.6832 55.9341 47.667 55.9439C47.5856 55.9934 47.4823 56.0218 47.3783 56.0447C47.2405 56.0751 47.1283 56.1141 46.9933 56.1547C46.5004 56.3029 45.3591 56.8029 44.116 57.4982C44.1025 57.5057 42.93 58.2412 42.1908 58.8715C40.3434 60.4468 39.1811 62.6957 39.0654 65.1207C39.0518 65.4056 39.0519 65.3476 39.0692 65.6483H61.0006C61.0175 65.3526 61.0179 65.4153 61.005 65.1348Z" fill="#F6A96C"/>
<path d="M61.1902 65.9999H38.8097C38.7922 65.6996 38.7922 65.4056 38.8059 65.1209C38.9214 62.6959 40.084 60.447 41.9314 58.8717C42.6705 58.2413 43.4304 57.7372 44.1367 57.3392C44.1521 57.3305 44.1865 57.3415 44.2019 57.3329C45.4447 56.6385 46.5023 56.3023 46.9933 56.1549C47.1214 56.1165 47.2473 56.0713 47.3783 56.0449C47.4861 56.0232 47.5832 55.994 47.6671 55.9441C47.6865 55.9325 47.7021 55.8784 47.7204 55.8655C47.8273 56.4734 48.108 57.2006 48.8091 57.656C49.5287 58.1234 50.4711 58.1234 51.1907 57.656C51.8919 57.2007 52.1723 56.4739 52.2792 55.866C52.2915 55.8747 52.3182 55.9319 52.331 55.9399C52.4194 55.9956 52.5155 56.0207 52.6314 56.044C52.7625 56.0704 52.8917 56.1217 53.0198 56.1602C53.5127 56.3081 54.5421 56.638 55.7908 57.3374C55.8016 57.3435 55.8525 57.3332 55.8634 57.3394C56.5697 57.7374 57.3295 58.2414 58.0685 58.8718C59.916 60.4471 61.0785 62.6959 61.194 65.1209C61.2077 65.4056 61.2077 65.6996 61.1902 65.9999Z" fill="#EB809A"/>
<path d="M61.19 65.9998H59.7602C59.7602 65.8575 59.7569 65.7171 59.7505 65.5786C59.6346 63.153 58.472 60.9046 56.6248 59.3292C54.8762 57.8382 53.0115 57.0537 52.0139 56.7085C52.1511 56.4263 52.2322 56.1352 52.2792 55.866C52.286 55.8708 52.2937 55.8822 52.3017 55.8965C52.3174 55.9247 52.3558 55.9381 52.3704 55.9465C52.4522 55.9942 52.5351 56.029 52.6394 56.0501C52.771 56.0767 52.8991 56.1417 53.0277 56.1802C53.246 56.2457 53.5556 56.3303 53.9587 56.5028C54.4456 56.711 55.0461 56.9578 55.7094 57.3237C55.7484 57.3452 55.8241 57.3172 55.8634 57.3394C56.5697 57.7374 57.3293 58.2415 58.0682 58.8718C59.916 60.4472 61.0786 62.6957 61.1939 65.1206C61.2074 65.4053 61.2074 65.6997 61.19 65.9998Z" fill="#E45376"/>
<path d="M55.9032 57.9116C55.8767 59.8114 54.2434 61.3308 52.3464 61.2259C51.4115 61.1742 50.579 60.7406 50 60.0788C49.421 60.7405 48.5885 61.1741 47.6536 61.2259C45.7565 61.3308 44.1233 59.8114 44.0968 57.9116C44.0941 57.7171 44.1075 57.5252 44.137 57.3396C45.4 56.6276 46.4921 56.255 46.9888 56.1059C47.1172 56.0674 47.2477 56.0371 47.379 56.0105C47.5109 55.9837 47.6242 55.9335 47.7207 55.8652C47.8263 56.4655 48.1007 57.1817 48.7821 57.6377C49.5144 58.1286 50.4857 58.1286 51.218 57.6377C51.8994 57.1817 52.1737 56.4661 52.2793 55.8659C52.2863 55.8708 52.2934 55.8754 52.3004 55.8806C52.3905 55.9487 52.4856 56.0434 52.6079 56.0682C52.7393 56.0948 52.8639 56.1311 52.9923 56.1697C53.4788 56.3157 54.52 56.6611 55.7503 57.3419C55.7764 57.3564 55.8368 57.3247 55.863 57.3396C55.8925 57.5252 55.906 57.717 55.9032 57.9116Z" fill="#F5F8F9"/>
<path d="M55.9035 57.8627C55.9035 58.1454 55.8687 58.4204 55.8024 58.6825C54.3159 57.6043 52.8564 56.9996 52.0139 56.7085C52.0252 56.6855 52.0359 56.6626 52.0463 56.6397C52.1444 56.4223 52.2135 56.1932 52.2611 55.9595C52.2676 55.9277 52.274 55.8972 52.2792 55.866C52.2853 55.87 52.3112 55.8888 52.3209 55.8959C52.3793 55.9387 52.4511 55.9628 52.5203 55.9846C52.7224 56.0482 52.9255 56.1048 53.1293 56.1652C53.351 56.2307 53.5747 56.2896 53.7912 56.3713C54.0793 56.4799 54.3624 56.5961 54.6437 56.7233C54.925 56.8504 55.2028 56.9863 55.4765 57.129C55.5505 57.1677 55.6246 57.2076 55.7 57.2488C55.7006 57.2495 55.7013 57.2502 55.7019 57.2502C55.7554 57.2792 55.8089 57.3094 55.8629 57.3397C55.8899 57.5097 55.9035 57.6849 55.9035 57.8627Z" fill="#D9E7EC"/>
<path d="M43.0924 48.6968H42.7822C41.8468 48.6968 41.0884 47.9385 41.0884 47.003C41.0884 46.0675 41.8468 45.3091 42.7822 45.3091H43.0924V48.6968Z" fill="#F6A96C"/>
<path d="M56.9076 48.6968H57.2178C58.1533 48.6968 58.9117 47.9385 58.9117 47.003C58.9117 46.0675 58.1533 45.3091 57.2178 45.3091H56.9076V48.6968Z" fill="#F6A96C"/>
<path d="M56.289 41.1587L57.0505 43.7976V46.1727L56.9659 46.4633V47.4724C56.9659 47.7126 56.9709 47.9605 56.9474 48.1944C56.7809 49.8571 56.0293 51.2601 54.9107 52.3788C53.6351 53.6543 51.8716 54.3892 49.9242 54.3892C47.0654 54.3892 44.7585 52.7503 43.6723 50.3329C43.3701 49.6607 43.1203 48.9562 43.0428 48.1818C43.0193 47.9479 43.0072 47.7102 43.0072 47.47L43.0058 46.4448L42.9497 46.1728V43.7977L43.6255 41.1588H56.289V41.1587Z" fill="#FED2A4"/>
<path d="M56.2889 41.1587L57.0507 44.0435V47.4436C57.0507 47.6838 57.0385 47.9215 57.0146 48.1553C56.8485 49.8183 56.1039 51.3106 54.9852 52.4287C53.7099 53.7047 51.9477 54.4936 50 54.4936C49.783 54.4936 49.5678 54.4839 49.356 54.464C51.0467 54.312 52.5641 53.5623 53.6971 52.4287C54.8158 51.3106 55.5604 49.8183 55.7265 48.1553C55.7503 47.9215 55.7626 47.6838 55.7626 47.4436V41.1587H56.2889Z" fill="#FFBD86"/>
<path d="M57.0504 46.1729V47.4434C57.0504 47.6836 57.0384 47.9213 57.0149 48.1552C56.8483 49.8178 56.1041 51.3101 54.9855 52.4288C53.7099 53.7043 51.9474 54.4937 50.0001 54.4937C46.3462 54.4937 43.3418 51.7144 42.9853 48.1552C42.9618 47.9213 42.9497 47.6836 42.9497 47.4434V46.1729C42.9497 46.1729 44.4069 48.3924 48.2326 48.9987C49.4031 49.1842 50.5971 49.1842 51.7676 48.9987C55.5932 48.3924 57.0504 46.1729 57.0504 46.1729Z" fill="#F5F8F9"/>
<path d="M57.0506 46.1726V47.4434C57.0506 47.6836 57.0384 47.9213 57.0146 48.155C56.8484 49.818 56.1039 51.3104 54.9851 52.4285C53.7099 53.7044 51.9477 54.4934 50 54.4934C49.8383 54.4934 49.677 54.4863 49.5157 54.4766C49.4623 54.4734 49.4088 54.4689 49.356 54.4637C51.0466 54.3117 52.5641 53.562 53.697 52.4285C54.8158 51.3104 55.5603 49.818 55.7265 48.155C55.7503 47.9212 55.7625 47.6836 55.7625 47.4434V47.4182C56.663 46.7632 57.0506 46.1726 57.0506 46.1726Z" fill="#D9E7EC"/>
<path d="M50.6766 40.9656H49.3231H42.6156V44.0436C45.1794 43.9668 48.0618 43.4308 49.4426 42.0441C49.6659 41.8199 49.849 41.6121 49.9999 41.4228C50.1508 41.6121 50.3339 41.8199 50.5571 42.0441C51.938 43.4308 54.812 43.9668 57.3758 44.0436V40.9656H50.6766Z" fill="#C5D3DD"/>
</g>
<defs>
<clipPath id="clip0">
<rect width="32" height="32" fill="white" transform="translate(34 34)"/>
</clipPath>
</defs>
</svg>
