<svg width="100" height="100" viewBox="0 0 100 100" fill="none" xmlns="http://www.w3.org/2000/svg">
<circle cx="50" cy="50" r="48" fill="#ACECC7" stroke="#27AE60" stroke-width="4"/>
<g clip-path="url(#clip0)">
<path d="M42.6192 47.1462H42.2877C41.2882 47.1462 40.4778 46.3359 40.4778 45.3363C40.4778 44.3367 41.2881 43.5264 42.2877 43.5264H42.6192V47.1462Z" fill="#F6A96C"/>
<path d="M57.3809 47.1462H57.7123C58.7119 47.1462 59.5222 46.3359 59.5222 45.3363C59.5222 44.3367 58.7119 43.5264 57.7123 43.5264H57.3809V47.1462Z" fill="#F6A96C"/>
<path d="M60.949 65.6278H39.0863C39.0689 65.328 39.0689 65.4068 39.0826 65.1225C39.1979 62.7018 40.269 60.645 42.1132 59.0725C44.1691 57.3189 46.2304 56.5686 47.0047 56.3362C47.1328 56.2978 47.251 56.0553 47.3821 56.0288C47.5144 56.0021 47.6278 55.9518 47.7244 55.8836C48.4106 55.4043 48.276 54.0513 48.276 54.0513H51.7238C51.7238 54.0513 51.5892 55.4043 52.2753 55.8836C52.372 55.9518 52.4399 56.1658 52.5722 56.1925C52.7033 56.219 52.8335 56.2493 52.9617 56.2878C53.736 56.5203 55.8457 57.1979 57.9015 58.9515C59.7457 60.524 60.8373 62.702 60.9527 65.1226C60.9664 65.4068 60.9664 65.3281 60.949 65.6278Z" fill="#F6A96C"/>
<path d="M61.1703 66.0004H38.8295C38.8121 65.7005 38.8121 65.407 38.8258 65.1228C38.9411 62.7021 40.1015 60.4572 41.9457 58.8847C44.0016 57.1311 46.2183 56.3568 46.9926 56.1244C47.1208 56.0859 47.2509 56.0555 47.3821 56.029C47.5144 56.0024 47.6278 55.952 47.7244 55.8838C47.8311 56.4907 48.1113 57.2165 48.8111 57.6712C49.5294 58.1377 50.4702 58.1377 51.1885 57.6712C51.8884 57.2166 52.1686 56.4907 52.2753 55.8838C52.3719 55.952 52.4853 56.0024 52.6176 56.029C52.7487 56.0555 52.8789 56.0859 53.007 56.1244C53.7813 56.3568 55.9981 57.1311 58.0539 58.8847C59.8981 60.4572 61.0586 62.7021 61.1739 65.1228C61.1878 65.407 61.1878 65.7005 61.1703 66.0004Z" fill="#528FD8"/>
<path d="M61.1701 66H59.7428C59.7428 65.858 59.7396 65.7178 59.7331 65.5795C59.6174 63.1583 58.457 60.9138 56.613 59.3412C54.8674 57.8529 53.0062 57.0698 52.0103 56.7252C52.1472 56.4435 52.2282 56.1524 52.2751 55.8835C52.3714 55.9517 52.4844 56.0019 52.6161 56.0285C52.7478 56.0552 52.8785 56.0855 53.0072 56.1242C53.7818 56.3567 55.9983 57.1311 58.0538 58.8848C59.8984 60.4574 61.0589 62.7019 61.174 65.1225C61.1875 65.4066 61.1875 65.7004 61.1701 66Z" fill="#1F80B7"/>
<path d="M50 34.0002C45.8393 34.0002 42.4664 37.3732 42.4666 41.5338L42.4666 45.6232L42.7533 46.2613V47.2702C42.7533 47.5269 42.7662 47.7809 42.7913 48.0308C42.9927 50.0418 44.0384 51.547 45.4307 52.6311C46.6715 53.5972 48.1602 54.2536 49.9999 54.2536C52.0807 54.2536 53.7781 53.6067 55.1411 52.2437C56.3363 51.0484 57.1837 49.6832 57.3616 47.9067C57.3867 47.6568 57.3997 47.4028 57.3997 47.1461L57.3807 46.2147L57.5334 45.6233L57.5334 41.5338C57.5336 37.3732 54.1607 34.0002 50 34.0002Z" fill="#FED2A4"/>
<path d="M55.7911 43.7911H54.8719C54.7619 42.6298 53.7314 41.7775 52.5701 41.8875C51.5609 41.983 50.762 42.782 50.6664 43.7911H49.3336C49.2236 42.6298 48.1931 41.7775 47.0318 41.8875C46.0226 41.983 45.2237 42.782 45.1281 43.7911H44.2089C44.0935 43.7911 44 43.8847 44 44C44 44.1154 44.0935 44.209 44.2089 44.209H45.1281C45.2381 45.3702 46.2686 46.2225 47.4299 46.1126C48.4391 46.0171 49.238 45.2181 49.3336 44.209H50.6685C50.7785 45.3702 51.809 46.2225 52.9703 46.1126C53.9795 46.0171 54.7784 45.2181 54.874 44.209H55.7911C55.9065 44.209 56 44.1154 56 44C56 43.8847 55.9065 43.7911 55.7911 43.7911ZM47.2298 45.6964H47.2256C46.2888 45.6941 45.5311 44.9328 45.5334 43.9959C45.5357 43.059 46.2971 42.3014 47.234 42.3037C48.1692 42.306 48.9262 43.0648 48.9262 44C48.9262 44.9369 48.1667 45.6964 47.2298 45.6964ZM52.7702 45.6964H52.766C51.8291 45.6941 51.0715 44.9328 51.0738 43.9959C51.0761 43.059 51.8375 42.3014 52.7744 42.3037C53.7096 42.306 54.4666 43.0648 54.4666 44C54.4666 44.9369 53.7071 45.6964 52.7702 45.6964Z" fill="#4F4F4F"/>
<path d="M57.5331 41.5338V46.9807C57.5331 47.2379 57.5203 47.4918 57.4952 47.7413C57.3172 49.5183 56.5218 51.1128 55.3266 52.308C53.9636 53.671 52.0805 54.5139 49.9999 54.5139C49.7633 54.5139 49.5287 54.5029 49.2979 54.4818C50.7887 54.3463 52.1482 53.7762 53.2596 52.8999C53.4932 52.7157 53.7208 52.518 53.9308 52.308C55.126 51.1128 55.9213 49.5183 56.0987 47.7413C56.1238 47.4918 56.1367 47.2378 56.1367 46.9807L56.1373 41.5338C56.1373 37.6081 53.1342 34.3832 49.2997 34.0321C49.53 34.0109 49.764 34 50 34C54.1603 34 57.5338 37.3734 57.5331 41.5338Z" fill="#FFBD86"/>
<path d="M57.5332 45.6233V46.9809C57.5332 47.2375 57.5203 47.4915 57.4952 47.7415C57.3173 49.518 56.522 51.1126 55.3268 52.3078C53.9638 53.6708 52.0807 54.5142 49.9999 54.5142C46.0957 54.5142 42.8855 51.5445 42.5046 47.7415C42.4794 47.4915 42.4666 47.2376 42.4666 46.9809V45.6233C42.4666 45.6233 44.0236 47.9949 48.1113 48.6427C49.3621 48.841 50.6378 48.841 51.8886 48.6427C55.9761 47.9949 57.5332 45.6233 57.5332 45.6233Z" fill="#F5F8F9"/>
<path d="M57.5331 45.6235V46.9808C57.5331 47.238 57.5202 47.4919 57.4951 47.7413C57.3171 49.5184 56.5217 51.1128 55.3265 52.3081C53.9635 53.6711 52.0804 54.514 49.9998 54.514C49.9388 54.514 49.8776 54.5133 49.8173 54.512C49.7214 54.5095 49.6263 54.5056 49.5318 54.4991C49.5061 54.4978 49.481 54.4966 49.4559 54.4946C49.4032 54.4908 49.3511 54.4863 49.2991 54.4818C50.7894 54.3455 52.1479 53.7765 53.2595 52.9001C53.4929 52.7156 53.7205 52.5183 53.9308 52.308C55.1259 51.1128 55.9212 49.5183 56.0987 47.7413C56.1237 47.4918 56.1366 47.2378 56.1366 46.9807V46.9685C57.1132 46.2633 57.5331 45.6235 57.5331 45.6235Z" fill="#D9E7EC"/>
<path d="M45.9601 36.5791C45.9601 35.4893 45.0429 34.6138 43.9383 34.6825C42.9609 34.7432 42.1793 35.5612 42.1598 36.5403C42.1569 36.685 42.1702 36.8261 42.1979 36.9619C42.2684 37.3066 42.1302 37.6621 41.8545 37.8806C41.384 38.2533 41.0942 38.8439 41.1379 39.5002C41.2006 40.4416 41.9642 41.2045 42.9056 41.2663C44.0132 41.3391 44.9343 40.4622 44.9343 39.3702C44.9343 39.2447 44.9221 39.1221 44.8989 39.0034C44.8293 38.6477 44.9639 38.2891 45.2468 38.0626C45.6816 37.7144 45.9601 37.1794 45.9601 36.5791Z" fill="#C5D3DD"/>
<path d="M54.0396 36.5791C54.0396 35.4893 54.9568 34.6138 56.0614 34.6825C57.0387 34.7432 57.8204 35.5612 57.8399 36.5403C57.8428 36.685 57.8295 36.8261 57.8017 36.9619C57.7312 37.3066 57.8695 37.6621 58.1452 37.8806C58.6157 38.2533 58.9055 38.8439 58.8618 39.5002C58.7991 40.4416 58.0355 41.2045 57.0941 41.2663C55.9865 41.3391 55.0654 40.4622 55.0654 39.3702C55.0654 39.2447 55.0776 39.1221 55.1008 39.0034C55.1704 38.6477 55.0357 38.2891 54.7529 38.0626C54.318 37.7144 54.0396 37.1794 54.0396 36.5791Z" fill="#C5D3DD"/>
<path d="M58.8622 39.5002C58.7992 40.4415 58.0361 41.2046 57.0942 41.2663C56.7959 41.2857 56.5111 41.2368 56.2539 41.132C56.9109 40.8645 57.3893 40.237 57.4381 39.5002C57.4819 38.8438 57.1919 38.2529 56.7212 37.88C56.4461 37.6621 56.3078 37.3065 56.3779 36.9619C56.4062 36.8256 56.4191 36.6848 56.4165 36.5402C56.4011 35.768 55.9118 35.0968 55.2271 34.8171C55.4823 34.7136 55.7652 34.6641 56.0616 34.6821C57.0388 34.7432 57.8206 35.561 57.8399 36.5402C57.8431 36.6848 57.8296 36.8256 57.8019 36.9619C57.7312 37.3065 57.8694 37.662 58.1452 37.88C58.616 38.2529 58.906 38.8438 58.8622 39.5002Z" fill="#B6C4CF"/>
</g>
<defs>
<clipPath id="clip0">
<rect width="32" height="32" fill="white" transform="translate(34 34)"/>
</clipPath>
</defs>
</svg>
