<svg width="50" height="50" viewBox="0 0 50 50" fill="none" xmlns="http://www.w3.org/2000/svg">
<circle cx="25" cy="25" r="24.5" fill="#F5F5F5" stroke="#E0E0E0"/>
<g clip-path="url(#clip0)">
<path d="M36.9927 19.0631C36.8725 18.3816 36.4856 17.8143 35.9583 17.4491C35.811 17.347 35.744 17.1629 35.7912 16.99C35.9603 16.3714 35.8922 15.6881 35.5462 15.0888C35.2001 14.4895 34.6426 14.0888 34.0223 13.926C33.8461 13.8797 33.723 13.7253 33.7075 13.5438C33.653 12.9075 33.3556 12.292 32.8276 11.849C32.2996 11.406 31.6419 11.2199 31.0057 11.2768C30.8243 11.293 30.6508 11.1986 30.5747 11.0331C30.3066 10.4506 29.8152 9.97101 29.1649 9.73432C28.5146 9.49763 27.8299 9.54913 27.25 9.82313C27.088 9.89969 26.895 9.86569 26.7689 9.73832C26.3178 9.28256 25.6921 9 25 9C24.308 9 23.6822 9.28256 23.231 9.73838C23.105 9.86576 22.9119 9.89982 22.7499 9.82319C22.17 9.54919 21.4853 9.49769 20.835 9.73438C20.1848 9.97107 19.6934 10.4506 19.4252 11.0332C19.3491 11.1986 19.1756 11.2931 18.9942 11.2768C18.3581 11.22 17.7003 11.406 17.1724 11.849C16.6444 12.292 16.3469 12.9075 16.2925 13.5439C16.277 13.7253 16.1539 13.8798 15.9777 13.926C15.3573 14.0889 14.7998 14.4895 14.4538 15.0888C14.1078 15.6882 14.0396 16.3714 14.2087 16.99C14.256 17.1629 14.189 17.3471 14.0416 17.4492C13.5143 17.8144 13.1274 18.3816 13.0072 19.0631C12.887 19.7446 13.0566 20.41 13.4272 20.9334C13.5308 21.0798 13.5308 21.2758 13.4272 21.422C13.0566 21.9455 12.8871 22.6108 13.0072 23.2923C13.1274 23.9738 13.5143 24.5411 14.0416 24.9063C14.1889 25.0083 14.256 25.1925 14.2087 25.3654C14.0396 25.984 14.1077 26.6673 14.4538 27.2666C14.7998 27.8659 15.3573 28.2666 15.9777 28.4294C16.1539 28.4757 16.2769 28.6301 16.2925 28.8116C16.3469 29.4479 16.6444 30.0634 17.1724 30.5064C17.7003 30.9494 18.3581 31.1355 18.9942 31.0786C19.1756 31.0624 19.3491 31.1568 19.4252 31.3223C19.6933 31.9048 20.1847 32.3844 20.835 32.6211C21.4853 32.8578 22.17 32.8063 22.7499 32.5323C22.912 32.4557 23.105 32.4897 23.231 32.6171C23.6822 33.0729 24.308 33.3555 25 33.3555C25.6921 33.3555 26.3178 33.0729 26.769 32.6171C26.8951 32.4897 27.0882 32.4556 27.2502 32.5323C27.83 32.8063 28.5147 32.8578 29.1651 32.6211C29.8153 32.3844 30.3067 31.9049 30.5748 31.3223C30.6509 31.1568 30.8244 31.0624 31.0058 31.0786C31.642 31.1355 32.2998 30.9494 32.8277 30.5064C33.3556 30.0634 33.6531 29.448 33.7076 28.8116C33.7231 28.6301 33.8462 28.4757 34.0224 28.4294C34.6427 28.2666 35.2003 27.8659 35.5463 27.2666C35.8923 26.6673 35.9605 25.9841 35.7913 25.3654C35.7441 25.1925 35.8111 25.0083 35.9585 24.9063C36.4857 24.5411 36.8727 23.9739 36.9928 23.2923C37.113 22.6108 36.9434 21.9455 36.5728 21.422C36.4693 21.2757 36.4693 21.0797 36.5728 20.9334C36.9433 20.4099 37.1129 19.7446 36.9927 19.0631Z" fill="#C5D3DD"/>
<path d="M36.5728 20.933C36.9431 20.41 37.1132 19.7447 36.9927 19.0633C36.8729 18.3812 36.4859 17.8144 35.9584 17.4492C35.8109 17.3468 35.7439 17.1626 35.7915 16.99C35.9603 16.3711 35.892 15.6883 35.5462 15.0887C35.2003 14.4897 34.6425 14.089 34.0223 13.9261C33.8465 13.8797 33.7234 13.7252 33.7073 13.5435C33.6532 12.9072 33.3557 12.2921 32.8275 11.849C32.3747 11.469 31.8267 11.2776 31.2785 11.2673C31.3687 11.3246 31.4461 11.4034 31.54 11.4593C32.7958 12.207 32.9193 13.5645 32.908 14.305C32.9053 14.4866 33.0465 14.6405 33.2224 14.6869C33.8113 14.8424 34.3449 15.008 34.6929 15.5962C35.0443 16.19 34.9139 16.684 34.6663 17.2746C34.5969 17.4402 34.6862 17.6321 34.8331 17.7338C34.9599 17.8217 35.0992 17.8924 35.2157 17.9947C35.9944 18.6793 35.827 19.9971 35.2764 20.7743C35.1727 20.9205 35.1727 21.1163 35.2764 21.2625C35.6474 21.7861 35.825 22.221 35.7046 22.9025C35.5848 23.5839 35.1977 24.1513 34.6702 24.5165C34.5234 24.6189 34.4564 24.8025 34.5034 24.9757C34.6728 25.594 34.7565 26.2235 34.41 26.8232C34.0641 27.4222 33.6877 27.6273 33.0668 27.7902C32.891 27.8366 32.768 27.9912 32.7525 28.1722C32.6978 28.8092 32.4352 29.382 31.9077 29.8251C31.3795 30.2683 30.9831 30.2249 30.3467 30.1676C30.1651 30.1515 29.9918 30.2462 29.9158 30.4118C29.6473 30.994 29.2334 31.539 28.8465 31.7683C28.2509 32.1213 27.3739 31.7315 26.7942 31.4571C26.6319 31.3805 26.4394 31.4146 26.3131 31.5421C25.8616 31.9981 24.4044 32.9654 23.712 32.9654C23.6952 32.9654 23.6785 32.9654 23.6624 32.9648C24.0488 33.2121 24.508 33.3551 25.0001 33.3551C25.6919 33.3551 26.3179 33.0723 26.7694 32.617C26.8949 32.4894 27.0882 32.4553 27.2505 32.532C27.8302 32.8057 28.5148 32.8572 29.1653 32.6208C29.8152 32.3838 30.3066 31.9046 30.5746 31.3218C30.6512 31.1563 30.8245 31.0622 31.0061 31.0783C31.6418 31.135 32.3 30.9489 32.8275 30.5064C33.3557 30.0633 33.6532 29.4475 33.7073 28.8112C33.7235 28.6296 33.8465 28.4756 34.0223 28.4292C34.6425 28.2663 35.2003 27.8657 35.5462 27.2661C35.892 26.667 35.9603 25.9837 35.7915 25.3654C35.7439 25.1922 35.8109 25.008 35.9584 24.9062C36.4859 24.541 36.8729 23.9735 36.9927 23.2921C37.1132 22.6107 36.9432 21.9453 36.5728 21.4217C36.4691 21.2757 36.4691 21.0799 36.5728 20.933Z" fill="#B6C4CF"/>
<path d="M36.0047 40.1348C35.8936 37.7229 34.7742 35.5971 32.9434 34.0229C32.1917 33.3767 30.7736 32.3551 30.75 32.3419C29.5159 31.6554 28.5144 31.3262 28.0274 31.18C27.8939 31.14 27.7436 31.098 27.6075 31.068C27.5114 31.0469 27.4252 31.014 27.3486 30.97C27.3256 30.9569 27.3002 30.8806 27.2789 30.8657C26.5919 30.3852 26.7268 29.0298 26.7268 29.0298H24.9996H23.2725C23.2725 29.0298 23.4074 30.3852 22.7204 30.8657C22.7051 30.8764 22.683 30.9341 22.6668 30.9439C22.5854 30.9934 22.4821 31.0218 22.378 31.0447C22.2403 31.0751 22.1281 31.1141 21.993 31.1547C21.5002 31.3029 20.3588 31.8029 19.1158 32.4982C19.1022 32.5057 17.9298 33.2412 17.1906 33.8715C15.3432 35.4468 14.1809 37.6957 14.0651 40.1207C14.0516 40.4056 14.0517 40.3476 14.0689 40.6483H36.0004C36.0172 40.3526 36.0177 40.4153 36.0047 40.1348Z" fill="#F6A96C"/>
<path d="M36.1901 40.9999H13.8095C13.792 40.6996 13.792 40.4056 13.8058 40.1209C13.9213 37.6959 15.0839 35.447 16.9313 33.8717C17.6704 33.2413 18.4302 32.7372 19.1366 32.3392C19.1519 32.3305 19.1864 32.3415 19.2018 32.3329C20.4446 31.6385 21.5021 31.3023 21.9932 31.1549C22.1213 31.1165 22.2471 31.0713 22.3782 31.0449C22.486 31.0232 22.5831 30.994 22.667 30.9441C22.6864 30.9325 22.702 30.8784 22.7203 30.8655C22.8272 31.4734 23.1078 32.2006 23.809 32.656C24.5286 33.1234 25.471 33.1234 26.1906 32.656C26.8918 32.2007 27.1722 31.4739 27.2791 30.866C27.2914 30.8747 27.3181 30.9319 27.3309 30.9399C27.4193 30.9956 27.5154 31.0207 27.6312 31.044C27.7624 31.0704 27.8916 31.1217 28.0197 31.1602C28.5126 31.3081 29.542 31.638 30.7906 32.3374C30.8014 32.3435 30.8524 32.3332 30.8633 32.3394C31.5696 32.7374 32.3294 33.2414 33.0684 33.8718C34.9158 35.4471 36.0784 37.6959 36.1939 40.1209C36.2076 40.4056 36.2076 40.6996 36.1901 40.9999Z" fill="#EB809A"/>
<path d="M36.19 40.9998H34.7602C34.7602 40.8575 34.7569 40.7171 34.7505 40.5786C34.6346 38.153 33.472 35.9046 31.6248 34.3292C29.8762 32.8382 28.0115 32.0537 27.0139 31.7085C27.1511 31.4263 27.2322 31.1352 27.2792 30.866C27.286 30.8708 27.2937 30.8822 27.3017 30.8965C27.3174 30.9247 27.3558 30.9381 27.3704 30.9465C27.4522 30.9942 27.5351 31.029 27.6394 31.0501C27.771 31.0767 27.8991 31.1417 28.0277 31.1802C28.246 31.2457 28.5556 31.3303 28.9587 31.5028C29.4456 31.711 30.0461 31.9578 30.7094 32.3237C30.7484 32.3452 30.8241 32.3172 30.8634 32.3394C31.5697 32.7374 32.3293 33.2415 33.0682 33.8718C34.916 35.4472 36.0786 37.6957 36.1939 40.1206C36.2074 40.4053 36.2074 40.6997 36.19 40.9998Z" fill="#E45376"/>
<path d="M30.903 32.9116C30.8765 34.8114 29.2432 36.3308 27.3461 36.2259C26.4113 36.1742 25.5787 35.7406 24.9997 35.0788C24.4207 35.7405 23.5882 36.1741 22.6534 36.2259C20.7563 36.3308 19.123 34.8114 19.0965 32.9116C19.0938 32.7171 19.1072 32.5252 19.1368 32.3396C20.3997 31.6276 21.4919 31.255 21.9886 31.1059C22.117 31.0674 22.2474 31.0371 22.3787 31.0105C22.5107 30.9837 22.6239 30.9335 22.7204 30.8652C22.826 31.4655 23.1004 32.1817 23.7819 32.6377C24.5142 33.1286 25.4854 33.1286 26.2177 32.6377C26.8992 32.1817 27.1734 31.4661 27.2791 30.8659C27.2861 30.8708 27.2931 30.8754 27.3001 30.8806C27.3903 30.9487 27.4853 31.0434 27.6077 31.0682C27.739 31.0948 27.8637 31.1311 27.992 31.1697C28.4785 31.3157 29.5198 31.6611 30.7501 32.3419C30.7761 32.3564 30.8365 32.3247 30.8627 32.3396C30.8923 32.5252 30.9057 32.717 30.903 32.9116Z" fill="#F5F8F9"/>
<path d="M30.9035 32.8627C30.9035 33.1454 30.8687 33.4204 30.8024 33.6825C29.3159 32.6043 27.8564 31.9996 27.0139 31.7085C27.0252 31.6855 27.0359 31.6626 27.0463 31.6397C27.1444 31.4223 27.2135 31.1932 27.2611 30.9595C27.2676 30.9277 27.274 30.8972 27.2792 30.866C27.2853 30.87 27.3112 30.8888 27.3209 30.8959C27.3793 30.9387 27.4511 30.9628 27.5203 30.9846C27.7224 31.0482 27.9255 31.1048 28.1293 31.1652C28.351 31.2307 28.5747 31.2896 28.7912 31.3713C29.0793 31.4799 29.3624 31.5961 29.6437 31.7233C29.925 31.8504 30.2028 31.9863 30.4765 32.129C30.5505 32.1677 30.6246 32.2076 30.7 32.2488C30.7006 32.2495 30.7013 32.2502 30.7019 32.2502C30.7554 32.2792 30.8089 32.3094 30.8629 32.3397C30.8899 32.5097 30.9035 32.6849 30.9035 32.8627Z" fill="#D9E7EC"/>
<path d="M18.0924 23.6968H17.7822C16.8468 23.6968 16.0884 22.9385 16.0884 22.003C16.0884 21.0675 16.8468 20.3091 17.7822 20.3091H18.0924V23.6968Z" fill="#F6A96C"/>
<path d="M31.9075 23.6968H32.2177C33.1532 23.6968 33.9115 22.9385 33.9115 22.003C33.9115 21.0675 33.1532 20.3091 32.2177 20.3091H31.9075V23.6968Z" fill="#F6A96C"/>
<path d="M31.289 16.1587L32.0505 18.7976V21.1727L31.9659 21.4633V22.4724C31.9659 22.7126 31.9709 22.9605 31.9474 23.1944C31.7809 24.8571 31.0293 26.2601 29.9107 27.3788C28.6351 28.6543 26.8716 29.3892 24.9242 29.3892C22.0654 29.3892 19.7585 27.7503 18.6723 25.3329C18.3701 24.6607 18.1203 23.9562 18.0428 23.1818C18.0193 22.9479 18.0072 22.7102 18.0072 22.47L18.0058 21.4448L17.9497 21.1728V18.7977L18.6255 16.1588H31.289V16.1587Z" fill="#FED2A4"/>
<path d="M31.2889 16.1587L32.0507 19.0435V22.4436C32.0507 22.6838 32.0385 22.9215 32.0146 23.1553C31.8485 24.8183 31.1039 26.3106 29.9852 27.4287C28.7099 28.7047 26.9477 29.4936 25 29.4936C24.783 29.4936 24.5678 29.4839 24.356 29.464C26.0467 29.312 27.5641 28.5623 28.6971 27.4287C29.8158 26.3106 30.5604 24.8183 30.7265 23.1553C30.7503 22.9215 30.7626 22.6838 30.7626 22.4436V16.1587H31.2889Z" fill="#FFBD86"/>
<path d="M32.0504 21.1729V22.4434C32.0504 22.6836 32.0384 22.9213 32.0149 23.1552C31.8483 24.8178 31.1041 26.3101 29.9855 27.4288C28.7099 28.7043 26.9474 29.4937 25.0001 29.4937C21.3462 29.4937 18.3418 26.7144 17.9853 23.1552C17.9618 22.9213 17.9497 22.6836 17.9497 22.4434V21.1729C17.9497 21.1729 19.4069 23.3924 23.2326 23.9987C24.4031 24.1842 25.5971 24.1842 26.7676 23.9987C30.5932 23.3924 32.0504 21.1729 32.0504 21.1729Z" fill="#F5F8F9"/>
<path d="M32.0506 21.1726V22.4434C32.0506 22.6836 32.0384 22.9213 32.0146 23.155C31.8484 24.818 31.1039 26.3104 29.9851 27.4285C28.7099 28.7044 26.9477 29.4934 25 29.4934C24.8383 29.4934 24.677 29.4863 24.5157 29.4766C24.4623 29.4734 24.4088 29.4689 24.356 29.4637C26.0466 29.3117 27.5641 28.562 28.697 27.4285C29.8158 26.3104 30.5603 24.818 30.7265 23.155C30.7503 22.9212 30.7625 22.6836 30.7625 22.4434V22.4182C31.663 21.7632 32.0506 21.1726 32.0506 21.1726Z" fill="#D9E7EC"/>
<path d="M25.6765 15.9656H24.3229H17.6155V19.0436C20.1792 18.9668 23.0617 18.4308 24.4425 17.0441C24.6658 16.8199 24.8489 16.6121 24.9998 16.4228C25.1506 16.6121 25.3338 16.8199 25.557 17.0441C26.9378 18.4308 29.8119 18.9668 32.3757 19.0436V15.9656H25.6765Z" fill="#C5D3DD"/>
</g>
<defs>
<clipPath id="clip0">
<rect width="32" height="32" fill="white" transform="translate(9 9)"/>
</clipPath>
</defs>
</svg>
