<svg width="50" height="50" viewBox="0 0 50 50" fill="none" xmlns="http://www.w3.org/2000/svg">
<circle cx="25" cy="25" r="24.5" fill="#F5F5F5" stroke="#E0E0E0"/>
<g clip-path="url(#clip0)">
<path d="M17.6192 22.1462H17.2877C16.2882 22.1462 15.4778 21.3359 15.4778 20.3363C15.4778 19.3367 16.2881 18.5264 17.2877 18.5264H17.6192V22.1462Z" fill="#F6A96C"/>
<path d="M32.3809 22.1462H32.7123C33.7119 22.1462 34.5222 21.3359 34.5222 20.3363C34.5222 19.3367 33.7119 18.5264 32.7123 18.5264H32.3809V22.1462Z" fill="#F6A96C"/>
<path d="M35.949 40.6278H14.0863C14.0689 40.328 14.0689 40.4068 14.0826 40.1225C14.1979 37.7018 15.269 35.645 17.1132 34.0725C19.1691 32.3189 21.2304 31.5686 22.0047 31.3362C22.1328 31.2978 22.251 31.0553 22.3821 31.0288C22.5144 31.0021 22.6278 30.9518 22.7244 30.8836C23.4106 30.4043 23.276 29.0513 23.276 29.0513H26.7238C26.7238 29.0513 26.5892 30.4043 27.2753 30.8836C27.372 30.9518 27.4399 31.1658 27.5722 31.1925C27.7033 31.219 27.8335 31.2493 27.9617 31.2878C28.736 31.5203 30.8457 32.1979 32.9015 33.9515C34.7457 35.524 35.8373 37.702 35.9527 40.1226C35.9664 40.4068 35.9664 40.3281 35.949 40.6278Z" fill="#F6A96C"/>
<path d="M36.1703 41.0004H13.8295C13.8121 40.7005 13.8121 40.407 13.8258 40.1228C13.9411 37.7021 15.1015 35.4572 16.9457 33.8847C19.0016 32.1311 21.2183 31.3568 21.9926 31.1244C22.1208 31.0859 22.2509 31.0555 22.3821 31.029C22.5144 31.0024 22.6278 30.952 22.7244 30.8838C22.8311 31.4907 23.1113 32.2165 23.8111 32.6712C24.5294 33.1377 25.4702 33.1377 26.1885 32.6712C26.8884 32.2166 27.1686 31.4907 27.2753 30.8838C27.3719 30.952 27.4853 31.0024 27.6176 31.029C27.7487 31.0555 27.8789 31.0859 28.007 31.1244C28.7813 31.3568 30.9981 32.1311 33.0539 33.8847C34.8981 35.4572 36.0586 37.7021 36.1739 40.1228C36.1878 40.407 36.1878 40.7005 36.1703 41.0004Z" fill="#528FD8"/>
<path d="M36.1701 41H34.7428C34.7428 40.858 34.7396 40.7178 34.7331 40.5795C34.6174 38.1583 33.457 35.9138 31.613 34.3412C29.8674 32.8529 28.0062 32.0698 27.0103 31.7252C27.1472 31.4435 27.2282 31.1524 27.2751 30.8835C27.3714 30.9517 27.4844 31.0019 27.6161 31.0285C27.7478 31.0552 27.8785 31.0855 28.0072 31.1242C28.7818 31.3567 30.9983 32.1311 33.0538 33.8848C34.8984 35.4574 36.0589 37.7019 36.174 40.1225C36.1875 40.4066 36.1875 40.7004 36.1701 41Z" fill="#1F80B7"/>
<path d="M25 9.00024C20.8393 9.00024 17.4664 12.3732 17.4666 16.5338L17.4666 20.6232L17.7533 21.2613V22.2702C17.7533 22.5269 17.7662 22.7809 17.7913 23.0308C17.9927 25.0418 19.0384 26.547 20.4307 27.6311C21.6715 28.5972 23.1602 29.2536 24.9999 29.2536C27.0807 29.2536 28.7781 28.6067 30.1411 27.2437C31.3363 26.0484 32.1837 24.6832 32.3616 22.9067C32.3867 22.6568 32.3997 22.4028 32.3997 22.1461L32.3807 21.2147L32.5334 20.6233L32.5334 16.5338C32.5336 12.3732 29.1607 9.00024 25 9.00024Z" fill="#FED2A4"/>
<path d="M30.7911 18.7911H29.8719C29.7619 17.6298 28.7314 16.7775 27.5701 16.8875C26.5609 16.983 25.762 17.782 25.6664 18.7911H24.3336C24.2236 17.6298 23.1931 16.7775 22.0318 16.8875C21.0226 16.983 20.2237 17.782 20.1281 18.7911H19.2089C19.0935 18.7911 19 18.8847 19 19C19 19.1154 19.0935 19.209 19.2089 19.209H20.1281C20.2381 20.3702 21.2686 21.2225 22.4299 21.1126C23.4391 21.0171 24.238 20.2181 24.3336 19.209H25.6685C25.7785 20.3702 26.809 21.2225 27.9703 21.1126C28.9795 21.0171 29.7784 20.2181 29.874 19.209H30.7911C30.9065 19.209 31 19.1154 31 19C31 18.8847 30.9065 18.7911 30.7911 18.7911ZM22.2298 20.6964H22.2256C21.2888 20.6941 20.5311 19.9328 20.5334 18.9959C20.5357 18.059 21.2971 17.3014 22.234 17.3037C23.1692 17.306 23.9262 18.0648 23.9262 19C23.9262 19.9369 23.1667 20.6964 22.2298 20.6964ZM27.7702 20.6964H27.766C26.8291 20.6941 26.0715 19.9328 26.0738 18.9959C26.0761 18.059 26.8375 17.3014 27.7744 17.3037C28.7096 17.306 29.4666 18.0648 29.4666 19C29.4666 19.9369 28.7071 20.6964 27.7702 20.6964Z" fill="#4F4F4F"/>
<path d="M32.5331 16.5338V21.9807C32.5331 22.2379 32.5203 22.4918 32.4952 22.7413C32.3172 24.5183 31.5218 26.1128 30.3266 27.308C28.9636 28.671 27.0805 29.5139 24.9999 29.5139C24.7633 29.5139 24.5287 29.5029 24.2979 29.4818C25.7887 29.3463 27.1482 28.7762 28.2596 27.8999C28.4932 27.7157 28.7208 27.518 28.9308 27.308C30.126 26.1128 30.9213 24.5183 31.0987 22.7413C31.1238 22.4918 31.1367 22.2378 31.1367 21.9807L31.1373 16.5338C31.1373 12.6081 28.1342 9.38319 24.2997 9.03212C24.53 9.01094 24.764 9 25 9C29.1603 9 32.5338 12.3734 32.5331 16.5338Z" fill="#FFBD86"/>
<path d="M32.5332 20.6233V21.9809C32.5332 22.2375 32.5203 22.4915 32.4952 22.7415C32.3173 24.518 31.522 26.1126 30.3268 27.3078C28.9638 28.6708 27.0807 29.5142 24.9999 29.5142C21.0957 29.5142 17.8855 26.5445 17.5046 22.7415C17.4794 22.4915 17.4666 22.2376 17.4666 21.9809V20.6233C17.4666 20.6233 19.0236 22.9949 23.1113 23.6427C24.3621 23.841 25.6378 23.841 26.8886 23.6427C30.9761 22.9949 32.5332 20.6233 32.5332 20.6233Z" fill="#F5F8F9"/>
<path d="M32.5331 20.6235V21.9808C32.5331 22.238 32.5202 22.4919 32.4951 22.7413C32.3171 24.5184 31.5217 26.1128 30.3265 27.3081C28.9635 28.6711 27.0804 29.514 24.9998 29.514C24.9388 29.514 24.8776 29.5133 24.8173 29.512C24.7214 29.5095 24.6263 29.5056 24.5318 29.4991C24.5061 29.4978 24.481 29.4966 24.4559 29.4946C24.4032 29.4908 24.3511 29.4863 24.2991 29.4818C25.7894 29.3455 27.1479 28.7765 28.2595 27.9001C28.4929 27.7156 28.7205 27.5183 28.9308 27.308C30.1259 26.1128 30.9212 24.5183 31.0987 22.7413C31.1237 22.4918 31.1366 22.2378 31.1366 21.9807V21.9685C32.1132 21.2633 32.5331 20.6235 32.5331 20.6235Z" fill="#D9E7EC"/>
<path d="M20.9601 11.5791C20.9601 10.4893 20.0429 9.61381 18.9383 9.68249C17.9609 9.74324 17.1793 10.5612 17.1598 11.5403C17.1569 11.685 17.1702 11.8261 17.1979 11.9619C17.2684 12.3066 17.1302 12.6621 16.8545 12.8806C16.384 13.2533 16.0942 13.8439 16.1379 14.5002C16.2006 15.4416 16.9642 16.2045 17.9056 16.2663C19.0132 16.3391 19.9343 15.4622 19.9343 14.3702C19.9343 14.2447 19.9221 14.1221 19.8989 14.0034C19.8293 13.6477 19.9639 13.2891 20.2468 13.0626C20.6816 12.7144 20.9601 12.1794 20.9601 11.5791Z" fill="#C5D3DD"/>
<path d="M29.0396 11.5791C29.0396 10.4893 29.9568 9.61381 31.0614 9.68249C32.0387 9.74324 32.8204 10.5612 32.8399 11.5403C32.8428 11.685 32.8295 11.8261 32.8017 11.9619C32.7312 12.3066 32.8695 12.6621 33.1452 12.8806C33.6157 13.2533 33.9055 13.8439 33.8618 14.5002C33.7991 15.4416 33.0355 16.2045 32.0941 16.2663C30.9865 16.3391 30.0654 15.4622 30.0654 14.3702C30.0654 14.2447 30.0776 14.1221 30.1008 14.0034C30.1704 13.6477 30.0357 13.2891 29.7529 13.0626C29.318 12.7144 29.0396 12.1794 29.0396 11.5791Z" fill="#C5D3DD"/>
<path d="M33.8622 14.5002C33.7992 15.4415 33.0361 16.2046 32.0942 16.2663C31.7959 16.2857 31.5111 16.2368 31.2539 16.132C31.9109 15.8645 32.3893 15.237 32.4381 14.5002C32.4819 13.8438 32.1919 13.2529 31.7212 12.88C31.4461 12.6621 31.3078 12.3065 31.3779 11.9619C31.4062 11.8256 31.4191 11.6848 31.4165 11.5402C31.4011 10.768 30.9118 10.0968 30.2271 9.8171C30.4823 9.7136 30.7652 9.6641 31.0616 9.6821C32.0388 9.74316 32.8206 10.561 32.8399 11.5402C32.8431 11.6848 32.8296 11.8256 32.8019 11.9619C32.7312 12.3065 32.8694 12.662 33.1452 12.88C33.616 13.2529 33.906 13.8438 33.8622 14.5002Z" fill="#B6C4CF"/>
</g>
<defs>
<clipPath id="clip0">
<rect width="32" height="32" fill="white" transform="translate(9 9)"/>
</clipPath>
</defs>
</svg>
