<svg width="200" height="120" viewBox="0 0 200 120" fill="none" xmlns="http://www.w3.org/2000/svg">
<path d="M73.3314 116.659C22.3866 113.703 -18.4693 59.9702 8.63973 28.7863C29.6644 4.60094 57.6977 39.804 83.844 22.0681C124.069 -5.21781 189.238 -10.1789 197.864 24.2179C206.489 58.6147 177.917 112.359 156.623 115.584C135.328 118.809 73.3314 116.659 73.3314 116.659Z" fill="#D9F2E3"/>
<path d="M79.9123 43.7645C80.4514 56.6634 80.3166 63.6502 75.5994 69.0247C70.8825 74.3992 57.6746 73.0554 57.6746 73.0554C57.6746 73.0554 56.3717 92.0455 37.9077 92.8515C19.4436 93.6576 16.793 69.2039 31.2588 62.9336C45.0292 56.9648 49.4083 55.2301 54.1703 40.4503C58.5207 26.9483 72.0955 29.5222 75.33 35.1654C78.5646 40.8086 79.9123 43.7645 79.9123 43.7645Z" fill="#333333"/>
<path d="M73.8821 109.684C73.8821 109.684 82.5974 111.386 83.0467 111.297C83.496 111.207 93.0201 106.997 94.0084 107.624C94.9968 108.251 100.747 110.67 102.005 111.207C103.263 111.745 101.286 111.924 100.298 111.924C99.3095 111.924 93.6491 109.595 93.0201 110.043C92.3911 110.491 97.9618 111.386 97.9618 111.745C97.9618 112.103 83.0467 115.507 82.1483 115.507C81.2497 115.507 74.3314 114.88 74.3314 114.88L73.8821 109.684Z" fill="#F5B88A"/>
<path d="M66.6501 62.1602C71.3449 63.0784 74.1078 68.0314 75.0062 72.3697C75.9047 76.7078 66.6501 62.1602 66.6501 62.1602Z" fill="#EEBA1B"/>
<path d="M58.7788 58.8249C58.7788 58.8249 49.749 64.8713 44.897 67.8272C40.0452 70.7831 46.6492 102.627 48.2664 114.451C49.8837 126.275 77.9168 115.526 77.9168 115.526C77.9168 115.526 76.03 105.583 78.4558 89.594C80.1936 78.1408 73.8285 70.9622 70.1897 65.9908C61.0055 53.4438 58.7788 58.8249 58.7788 58.8249Z" fill="#F2C94C"/>
<path d="M49.8769 68.0059C60.2546 80.6359 63.7625 82.9971 61.198 91.5193C59.1765 98.2373 58.5025 100.656 58.0982 102.94C57.6939 105.224 77.3709 101.462 77.3709 101.462L77.2362 108.852C77.2362 108.852 61.7372 116.242 54.1896 117.72C46.6424 119.198 41.9253 117.451 41.9253 117.451L49.8769 68.0059Z" fill="#EEBA1B"/>
<path d="M179.85 118.556H57.0654C56.1791 118.556 55.4604 117.839 55.4604 116.956C55.4604 116.072 56.1791 115.355 57.0654 115.355H179.85C180.737 115.355 181.455 116.072 181.455 116.956C181.455 117.839 180.737 118.556 179.85 118.556Z" fill="#333333"/>
<path d="M62.0871 46.1816L57.415 59.976C57.415 59.976 62.5364 73.8155 66.8493 70.7252C68.3216 69.67 66.3101 61.3198 66.3101 61.3198L69.4548 50.1229L62.0871 46.1816Z" fill="#F7C6A1"/>
<path d="M47.1788 67.4315C40.7271 68.1461 40.1706 76.8367 37.2056 91.3479C34.2405 105.859 35.1316 115.437 36.5318 117.28C39.901 121.714 77.7726 106.262 82.4899 106.396C85.7454 106.489 83.0289 101.022 83.0289 101.022L46.9093 106.531C46.9093 106.531 52.0308 89.7355 52.0308 81.1365C52.0308 72.5372 49.6048 67.1626 47.1788 67.4315Z" fill="#F7C6A1"/>
<path d="M80.7249 101.369C84.4986 100.429 90.0243 98.2787 91.1024 99.2193C92.1807 100.16 96.6282 106.878 98.1108 108.759C99.5932 110.64 97.4369 109.162 95.8197 107.684C94.2024 106.206 92.8545 105.4 92.8545 105.4C92.8545 105.4 90.833 107.281 88.9461 108.356C87.0593 109.431 86.3854 107.281 83.1509 106.744C79.9162 106.206 71.8298 109.028 71.8298 109.028L80.7249 101.369Z" fill="#F7C6A1"/>
<path d="M47.8985 66.3726C43.9451 66.5518 40.8903 69.866 39.8122 74.9717C38.7339 80.0774 35.589 96.2905 35.589 96.2905C35.589 96.2905 34.9602 96.7385 41.5191 97.9029C48.0783 99.0674 53.4692 97.7237 53.4692 97.7237C53.4692 97.7237 54.8169 88.4975 54.4575 82.1378C54.0982 75.7779 52.6603 69.7764 50.3245 67.7162C47.9884 65.6559 47.8985 66.3726 47.8985 66.3726Z" fill="#F2C94C"/>
<path d="M66.345 61.3198L69.4897 50.1229L62.1221 46.1816L60.9967 49.5043C60.7519 60.6282 63.61 64.3485 65.5363 65.7088C66.138 66.1336 66.6553 65.8053 67.089 65.1116C66.7725 63.0949 66.345 61.3198 66.345 61.3198Z" fill="#F5B88A"/>
<path d="M81.267 47.4303C81.267 53.4231 77.2126 62.1741 72 62.001C63.9135 61.7322 62.1548 54.0624 62.1548 48.0697C62.1548 42.0769 66.3828 37.2188 71.5984 37.2188C76.8138 37.2188 81.267 41.4376 81.267 47.4303Z" fill="#F7C6A1"/>
<path d="M141.626 115.369H111.312L123.781 88.0214C124.145 87.2232 124.943 86.7109 125.822 86.7109H153.333C153.97 86.7109 154.393 87.367 154.13 87.9449L141.626 115.369Z" fill="#BDBDBD"/>
<path d="M141.582 115.365H85.6582C85.6582 113.422 87.2377 111.848 89.186 111.848H141.582V115.365Z" fill="#BDBDBD"/>
<path d="M153.34 86.7109H129.096C128.217 86.7109 127.419 87.2232 127.055 88.0214L114.586 115.369H141.633L154.137 87.9449C154.4 87.367 153.978 86.7109 153.34 86.7109Z" fill="#828282"/>
<path d="M72.4097 35.0962C78.1378 34.693 81.5295 39.9107 82.5179 44.4791C83.2309 47.7752 82.8772 48.4204 82.8772 48.4204C82.8772 48.4204 82.2482 49.3161 77.7558 49.5848C73.2633 49.8536 72.7243 49.764 72.7243 49.764L72.4547 44.5687L71.1068 49.5848C71.1068 49.5848 70.3882 50.5703 67.6029 49.2265C64.8175 47.8829 61 44 61 44C61 44 62.9306 40.4482 65.087 38.4776C67.2433 36.5071 72.4097 35.0962 72.4097 35.0962Z" fill="#333333"/>
<path d="M63.9676 48.3748C63.7706 50.0185 62.73 51.1832 61.6433 50.9762C60.5566 50.7691 59.8354 49.2688 60.0324 47.6251C60.2295 45.9814 61.2701 44.8168 62.3567 45.0238C63.4434 45.2308 64.1646 46.7312 63.9676 48.3748Z" fill="#F5B88A"/>
<path d="M21.7567 72.7392L21.7368 72.7383C21.6225 72.7274 21.5389 72.6263 21.5498 72.5123C21.7858 70.0489 23.0208 67.5167 25.0272 65.3821C27.2958 62.9686 30.5245 61.0669 34.364 59.8832C42.9194 57.2454 50.3828 53.8912 55.0727 39.5045C55.1082 39.3958 55.2254 39.3362 55.3347 39.3715C55.4437 39.4068 55.5035 39.5237 55.468 39.6324C53.3126 46.2445 50.3786 51.0583 46.4988 54.3493C43.0768 57.2518 39.2219 58.8189 34.4867 60.279C30.7162 61.4415 27.5498 63.3041 25.3304 65.6654C23.3864 67.7336 22.1907 70.179 21.9634 72.5517C21.953 72.6589 21.8626 72.7392 21.7567 72.7392Z" fill="#303C60"/>
<path d="M25.6172 62.8178C25.5552 62.8178 25.4937 62.7902 25.4528 62.7375C25.3824 62.6471 25.399 62.5171 25.4897 62.4471C25.5261 62.4189 29.1817 59.6282 34.4674 58.4671C44.6151 56.238 51.4279 50.1548 54.1695 40.8751C54.202 40.7654 54.3172 40.7029 54.4275 40.735C54.5376 40.7673 54.6006 40.8824 54.5682 40.9922C52.8746 46.725 49.6884 51.2492 45.0983 54.439C42.1425 56.4931 38.5958 57.9845 34.5567 58.8717C29.3664 60.0119 25.7797 62.747 25.7442 62.7745C25.7065 62.8037 25.6615 62.8178 25.6172 62.8178Z" fill="#303C60"/>
<path d="M155.72 59.7815H128.349C128.092 59.7815 127.96 59.5742 128.053 59.3184L133.605 44.1114C133.698 43.8557 133.982 43.6484 134.239 43.6484H161.61C161.866 43.6484 161.998 43.8557 161.904 44.1114L156.354 59.3184C156.26 59.5742 155.976 59.7815 155.72 59.7815Z" fill="#F2C94C"/>
<path d="M155.398 59.1397H129.207C128.967 59.1397 128.844 58.946 128.931 58.7073L133.986 44.8603C134.073 44.6214 134.338 44.4277 134.578 44.4277H160.769C161.008 44.4277 161.132 44.6214 161.044 44.8603L155.99 58.7073C155.902 58.946 155.637 59.1397 155.398 59.1397Z" fill="white"/>
<path d="M154.907 58.3109H130.319C130.05 58.3109 129.911 58.0933 130.009 57.8247L134.367 45.8886C134.465 45.6202 134.763 45.4023 135.032 45.4023H159.62C159.888 45.4023 160.029 45.6202 159.93 45.8886L155.572 57.8247C155.475 58.0933 155.176 58.3109 154.907 58.3109Z" fill="#F2C94C"/>
<path d="M149.465 51.8304C148.561 54.304 145.819 56.3092 143.338 56.3092C140.857 56.3092 139.577 54.304 140.479 51.8304C141.383 49.3567 144.127 47.3516 146.608 47.3516C149.089 47.3516 150.369 49.3567 149.465 51.8304Z" fill="white"/>
<path d="M148.861 51.7921C148.082 53.9221 145.72 55.6487 143.584 55.6487C141.447 55.6487 140.346 53.9221 141.124 51.7921C141.901 49.6623 144.264 47.9355 146.401 47.9355C148.536 47.9355 149.638 49.6623 148.861 51.7921Z" fill="#27AE60"/>
<path d="M146.985 51.5107L145.274 52.3247L143.562 53.1385L144.157 51.5107L144.751 49.8828L145.868 50.6968L146.985 51.5107Z" fill="white"/>
<path d="M113.804 38.2406C113.313 38.2406 112.723 38.6784 112.54 39.1774L111.756 41.3272C111.681 41.5307 111.685 41.7138 111.766 41.8291C111.854 41.9543 112.016 41.9805 112.137 41.9805H114.293C114.793 41.9805 115.372 41.5514 115.557 41.0438L116.342 38.8939C116.416 38.6903 116.412 38.5073 116.331 38.3918C116.243 38.2669 116.081 38.2406 115.961 38.2406H113.804ZM114.293 42.809H112.137C111.694 42.809 111.311 42.6252 111.085 42.3045C110.847 41.9644 110.806 41.505 110.975 41.0438L111.76 38.8939C112.063 38.063 112.961 37.4121 113.804 37.4121H115.961C116.404 37.4121 116.787 37.5959 117.012 37.9166C117.251 38.2567 117.291 38.7162 117.123 39.1774L116.338 41.3272C116.034 42.1581 115.136 42.809 114.293 42.809Z" fill="#27AE60"/>
<path d="M110.482 47.3988C109.99 47.3988 109.4 47.8366 109.218 48.3356L108.433 50.4854C108.359 50.6889 108.362 50.8719 108.444 50.9875C108.531 51.1125 108.693 51.1385 108.814 51.1385H110.97C111.47 51.1385 112.049 50.7098 112.234 50.202L113.019 48.0521C113.093 47.8485 113.089 47.6655 113.008 47.55C112.921 47.4251 112.759 47.3988 112.638 47.3988H110.482ZM110.97 51.9672H108.814C108.371 51.9672 107.988 51.7832 107.763 51.4627C107.524 51.1227 107.483 50.6632 107.652 50.202L108.437 48.0521C108.74 47.2212 109.638 46.5703 110.482 46.5703H112.638C113.081 46.5703 113.464 46.7543 113.689 47.0748C113.928 47.4149 113.968 47.8744 113.8 48.3356L113.015 50.4854C112.712 51.3163 111.814 51.9672 110.97 51.9672Z" fill="#27AE60"/>
<path d="M107.11 56.5572C106.61 56.5572 106.031 56.986 105.846 57.4938L105.061 59.6434C104.987 59.8471 104.991 60.0302 105.072 60.1457C105.16 60.2707 105.322 60.2969 105.442 60.2969H107.599C108.098 60.2969 108.677 59.868 108.863 59.3602L109.648 57.2105C109.722 57.0068 109.718 56.8237 109.637 56.7082C109.549 56.5833 109.387 56.5572 109.267 56.5572H107.11ZM107.599 61.1254H105.442C104.999 61.1254 104.616 60.9414 104.391 60.6209C104.152 60.2809 104.112 59.8214 104.28 59.3602L105.065 57.2105C105.369 56.3794 106.267 55.7285 107.11 55.7285H109.267C109.709 55.7285 110.092 55.9125 110.318 56.233C110.556 56.5731 110.597 57.0326 110.428 57.4938L109.644 59.6434C109.34 60.4745 108.442 61.1254 107.599 61.1254Z" fill="#F2C94C"/>
<path d="M132.055 40.9469H120.195C119.973 40.9469 119.857 40.7655 119.938 40.5437C120.019 40.322 120.267 40.1406 120.489 40.1406H132.349C132.572 40.1406 132.687 40.322 132.606 40.5437C132.525 40.7655 132.277 40.9469 132.055 40.9469Z" fill="#F2C94C"/>
<path d="M131.469 42.7006H119.608C119.386 42.7006 119.27 42.5194 119.351 42.2976C119.432 42.0759 119.68 41.8945 119.903 41.8945H131.763C131.985 41.8945 132.101 42.0759 132.02 42.2976C131.939 42.5194 131.691 42.7006 131.469 42.7006Z" fill="#F2C94C"/>
<path d="M128.928 49.5211H117.067C116.845 49.5211 116.729 49.3397 116.81 49.1179C116.891 48.8961 117.139 48.7148 117.362 48.7148H129.222C129.444 48.7148 129.56 48.8961 129.479 49.1179C129.398 49.3397 129.15 49.5211 128.928 49.5211Z" fill="#F2C94C"/>
<path d="M128.341 51.0795H116.481C116.259 51.0795 116.143 50.8983 116.224 50.6765C116.305 50.4548 116.553 50.2734 116.776 50.2734H128.636C128.858 50.2734 128.974 50.4548 128.893 50.6765C128.812 50.8983 128.564 51.0795 128.341 51.0795Z" fill="#F2C94C"/>
<path d="M125.507 58.8744H113.647C113.425 58.8744 113.309 58.6932 113.39 58.4714C113.471 58.2498 113.719 58.0684 113.941 58.0684H125.801C126.024 58.0684 126.14 58.2498 126.059 58.4714C125.978 58.6932 125.73 58.8744 125.507 58.8744Z" fill="#F2C94C"/>
<path d="M124.921 60.433H113.061C112.838 60.433 112.722 60.2516 112.803 60.03C112.884 59.8082 113.133 59.627 113.355 59.627H125.215C125.437 59.627 125.553 59.8082 125.472 60.03C125.391 60.2516 125.143 60.433 124.921 60.433Z" fill="#F2C94C"/>
<path d="M113.812 41.4922C113.775 41.4922 113.739 41.4873 113.703 41.4777C113.577 41.4435 113.475 41.3529 113.426 41.2326L112.613 39.2172C112.527 39.0049 112.63 38.7636 112.843 38.6782C113.055 38.5927 113.298 38.6956 113.383 38.9077L113.993 40.416L118.804 36.7189C118.985 36.5794 119.246 36.6129 119.386 36.7941C119.527 36.9754 119.493 37.2355 119.311 37.3751L114.066 41.406C113.992 41.4625 113.903 41.4922 113.812 41.4922Z" fill="#2D9CDB"/>
<path d="M110.441 50.6504C110.404 50.6504 110.367 50.6457 110.331 50.6359C110.206 50.6019 110.104 50.5111 110.055 50.3908L109.241 48.3754C109.155 48.1631 109.258 47.9218 109.471 47.8364C109.684 47.7509 109.926 47.8538 110.012 48.0659L110.621 49.5742L115.432 45.8771C115.614 45.7376 115.875 45.7711 116.015 45.9523C116.155 46.1334 116.121 46.3935 115.939 46.5333L110.694 50.5642C110.621 50.6207 110.531 50.6504 110.441 50.6504Z" fill="#2D9CDB"/>
<path d="M188.872 30.3086H143.318L144.495 27.084H190.049L188.872 30.3086Z" fill="#F2C94C"/>
<path d="M187.112 35.1817H141.558L142.736 31.957H188.29L187.112 35.1817Z" fill="#F2C94C"/>
<path d="M136.622 73.8755H103.17C102.733 73.8755 102.506 73.5191 102.665 73.0833C102.824 72.6475 103.312 72.291 103.749 72.291H137.2C137.638 72.291 137.865 72.6475 137.706 73.0833C137.546 73.5191 137.06 73.8755 136.622 73.8755Z" fill="#F2C94C"/>
<path d="M135.352 77.3834H101.9C101.463 77.3834 101.235 77.0269 101.394 76.5911C101.553 76.1554 102.041 75.7988 102.478 75.7988H135.93C136.367 75.7988 136.595 76.1554 136.436 76.5911C136.277 77.0269 135.788 77.3834 135.352 77.3834Z" fill="#F2C94C"/>
<path d="M166.639 107.131C166.639 106.571 173.399 87.9446 168.828 75.9538C165.628 67.5577 165.123 57.4824 165.123 57.4824C165.123 57.4824 158.891 66.3822 163.102 79.9838C165.694 88.3554 166.752 90.6748 166.975 93.1375C167.2 95.6004 165.966 107.915 165.966 107.915L166.639 107.131Z" fill="#27AE60"/>
<path d="M164.964 58.1526C164.451 59.0328 163.457 60.9592 162.735 63.7163C161.804 67.2677 161.148 72.9644 163.305 79.9346C164.181 82.763 164.875 84.8826 165.435 86.5859C166.536 89.9444 167.038 91.4772 167.188 93.1308C167.384 95.2854 166.496 104.688 166.241 107.293L166.447 107.054C166.472 106.931 166.544 106.685 166.728 106.069C170.632 93.0581 171.276 82.9545 168.639 76.0392C165.928 68.9263 165.14 60.5201 164.964 58.1526ZM165.971 108.134C165.944 108.134 165.916 108.128 165.888 108.117C165.805 108.081 165.755 107.996 165.764 107.906C165.776 107.783 166.995 95.5835 166.775 93.1682C166.627 91.5613 166.131 90.0425 165.04 86.7144C164.481 85.0099 163.785 82.8884 162.908 80.0568C160.718 72.9841 161.39 67.1993 162.337 63.5918C163.367 59.6761 164.894 57.4677 164.958 57.3757C165.009 57.3031 165.1 57.2708 165.185 57.2951C165.272 57.3196 165.331 57.3956 165.336 57.484C165.341 57.5844 165.876 67.6243 169.029 75.892C170.738 80.3761 171.081 86.2891 170.049 93.467C169.225 99.1979 167.755 104.096 167.126 106.188C166.984 106.665 166.859 107.076 166.853 107.152C166.853 107.202 166.835 107.24 166.802 107.278L166.129 108.061C166.087 108.108 166.03 108.134 165.971 108.134Z" fill="#219653"/>
<path d="M168.123 109.178C167.112 88.4676 172.053 77.1609 182.159 68.2052C192.265 59.2493 192.714 56.8984 192.714 56.8984C192.714 56.8984 191.141 74.3623 185.303 80.4073C179.463 86.4526 170.929 90.9305 169.695 94.0649C168.459 97.1994 168.909 107.722 168.909 107.722L168.123 109.626V109.178Z" fill="#27AE60"/>
<path d="M166.874 110.966C166.763 110.63 169.008 91.5994 177.205 90.48C185.403 89.3605 187.311 91.2637 192.926 90.368C196.932 89.729 200 88.4648 200 88.4648C200 88.4648 197.874 93.8607 190.567 96.0773C185.403 97.6446 178.664 95.0696 174.734 95.7414C170.804 96.4132 168.783 104.809 168.783 104.809L168.11 109.175L166.874 110.966Z" fill="#27AE60"/>
<path d="M168.013 107.99C167.908 107.99 167.816 107.909 167.807 107.802C167.793 107.668 166.632 94.2981 172.323 84.0617C175.264 78.7739 178.474 75.7096 181.579 72.7461C184.472 69.9854 187.204 67.3777 189.274 63.2472C189.326 63.1448 189.451 63.1037 189.553 63.1546C189.657 63.2057 189.699 63.3302 189.647 63.4324C187.543 67.6272 184.785 70.259 181.866 73.0452C178.784 75.9875 175.597 79.0297 172.686 84.2624C167.058 94.3853 168.207 107.631 168.219 107.764C168.231 107.878 168.147 107.979 168.032 107.989L168.013 107.99Z" fill="#219653"/>
<path d="M167.421 105.378C167.402 105.378 167.381 105.375 167.362 105.369C167.253 105.337 167.189 105.222 167.22 105.113C169.37 97.7264 171.837 93.417 174.983 91.5508C177.797 89.8821 180.705 90.3942 183.784 90.9365C184.537 91.0693 185.316 91.2065 186.088 91.3073C192.777 92.182 196.04 90.5614 196.071 90.5449C196.173 90.4929 196.298 90.5328 196.352 90.6343C196.404 90.7358 196.364 90.8606 196.262 90.913C196.127 90.9829 192.87 92.612 186.033 91.7181C185.254 91.6161 184.469 91.478 183.711 91.3444C180.711 90.8159 177.878 90.3167 175.196 91.9067C172.146 93.7162 169.737 97.949 167.62 105.228C167.594 105.318 167.511 105.378 167.421 105.378Z" fill="#219653"/>
<path d="M178.17 76.5981C178.108 76.5981 178.046 76.5703 178.006 76.5173C177.935 76.4268 177.952 76.2969 178.042 76.227C178.082 76.1964 182.076 73.1618 187.618 72.1013C187.731 72.0801 187.84 72.1534 187.862 72.2658C187.883 72.378 187.811 72.4866 187.698 72.5081C182.251 73.5503 178.335 76.5251 178.297 76.5549C178.259 76.5839 178.214 76.5981 178.17 76.5981Z" fill="#219653"/>
<path d="M171.817 85.7793C171.781 85.7793 171.744 85.7698 171.712 85.7503C171.613 85.6919 171.58 85.5647 171.639 85.4664C174.563 80.5505 177.988 79.3117 185.455 76.9784C185.564 76.9439 185.68 77.005 185.715 77.1141C185.75 77.2232 185.689 77.3395 185.58 77.3737C178.216 79.6742 174.842 80.8928 171.996 85.6778C171.957 85.743 171.888 85.7793 171.817 85.7793Z" fill="#219653"/>
<path d="M169.991 116.057H164.977C163.206 116.057 161.685 114.803 161.353 113.07L159.736 104.639H175.232L173.614 113.07C173.282 114.803 171.762 116.057 169.991 116.057Z" fill="#F18D8D"/>
<path d="M174.846 106.635H160.249C160.019 106.635 159.833 106.45 159.833 106.221C159.833 105.992 160.019 105.807 160.249 105.807H174.846C175.076 105.807 175.262 105.992 175.262 106.221C175.262 106.45 175.076 106.635 174.846 106.635Z" fill="#EB5757"/>
</svg>
