<svg width="16" height="16" viewBox="0 0 16 16" fill="none" xmlns="http://www.w3.org/2000/svg">
<path d="M3 13H4.59376V16H3V13Z" fill="#27AE60"/>
<path d="M7.125 2.0625H6.79688C6.79688 3.71672 5.45109 5.0625 3.79688 5.0625C2.14266 5.0625 0.796875 3.71672 0.796875 2.0625H0.46875C0.209875 2.0625 0 2.27237 0 2.53125V15.5313C0 15.7902 0.209875 16 0.46875 16H2.0625V12.5313C2.0625 12.2724 2.27238 12.0625 2.53125 12.0625H5.0625C5.32137 12.0625 5.53125 12.2724 5.53125 12.5313V16H7.125C7.38387 16 7.59375 15.7902 7.59375 15.5313V2.53125C7.59375 2.27237 7.38387 2.0625 7.125 2.0625Z" fill="#27AE60"/>
<path d="M3.79688 4.125C4.93288 4.125 5.85938 3.1985 5.85938 2.0625C5.85938 0.9265 4.93288 0 3.79688 0C2.66091 0 1.73438 0.9265 1.73438 2.0625C1.73438 3.1985 2.66091 4.125 3.79688 4.125ZM3.23438 1.59375H3.32812V1.5C3.32812 1.24112 3.538 1.03125 3.79688 1.03125C4.05575 1.03125 4.26563 1.24112 4.26563 1.5V1.59375H4.35938C4.61825 1.59375 4.82813 1.80362 4.82813 2.0625C4.82813 2.32137 4.61825 2.53125 4.35938 2.53125H4.26563V2.625C4.26563 2.88387 4.05575 3.09375 3.79688 3.09375C3.538 3.09375 3.32812 2.88387 3.32812 2.625V2.53125H3.23438C2.9755 2.53125 2.76562 2.32137 2.76562 2.0625C2.76562 1.80362 2.9755 1.59375 3.23438 1.59375Z" fill="#27AE60"/>
<path d="M15.5312 6.0625H8.53125V9.0625H16V6.53125C16 6.27237 15.7902 6.0625 15.5312 6.0625Z" fill="#27AE60"/>
<path d="M8.53125 10H16V12.0625H8.53125V10Z" fill="#27AE60"/>
<path d="M8.53119 15.5312C8.53119 15.6956 8.50259 15.8533 8.45056 16H15.5312C15.7901 16 16 15.7901 16 15.5312V13H8.53119V15.5312Z" fill="#27AE60"/>
</svg>
