<svg width="100" height="98" viewBox="0 0 100 98" fill="none" xmlns="http://www.w3.org/2000/svg">
<path d="M4.17223 17.5547L0.720215 34.218C2.2555 35.7765 3.88391 37.2496 6.51244 37.8052L19.1578 40.0275L22.1269 20.4404L4.17223 17.5547Z" fill="#FAFAFA"/>
<path d="M3.45196 16.5781L0 33.2415L5.79246 36.8287L18.4375 39.051L22.1703 20.2485L3.45196 16.5781Z" fill="#F5F5F5"/>
<path d="M2.35701 32.3984L0 33.2878C0 33.2878 0.851503 34.6753 2.09138 35.4269C3.33142 36.1782 4.52757 36.6525 5.79246 36.8747C5.79246 36.8747 3.03131 35.5016 2.35701 32.3984Z" fill="#E0E0E0"/>
<path d="M1.53011 20.102L10.1719 17.4211L9.62024 15.6016L0.836182 18.1552L1.53011 20.102Z" fill="#EBEBEB"/>
<path d="M23.6674 24.6602L18.0657 17.5547L16.5649 18.7222L22.099 26.0059L23.6674 24.6602Z" fill="#EBEBEB"/>
<path d="M18.9199 25.8081C18.9135 25.8417 15.7217 25.2454 11.7923 24.4768C7.8613 23.708 4.68087 23.0581 4.68751 23.0248C4.69415 22.9914 7.88496 23.5874 11.8158 24.356C15.7454 25.1246 18.9265 25.7748 18.9199 25.8081Z" fill="#E0E0E0"/>
<path d="M18.3523 28.3474C18.3459 28.3808 15.1544 27.7847 11.2248 27.0161C7.29373 26.2473 4.11353 25.5972 4.11988 25.5638C4.12652 25.5305 7.31733 26.1266 11.2484 26.8954C15.1777 27.6637 18.3589 28.3141 18.3523 28.3474Z" fill="#E0E0E0"/>
<path d="M17.9861 30.6909C17.9794 30.7243 14.7879 30.1282 10.8583 29.3597C6.92747 28.5908 3.74709 27.9409 3.75367 27.9076C3.76031 27.8742 6.95112 28.47 10.8819 29.2388C14.8115 30.0074 17.9924 30.6576 17.9861 30.6909Z" fill="#E0E0E0"/>
<path d="M17.5466 32.8397C17.5402 32.873 14.3485 32.2769 10.4191 31.5084C6.48807 30.7395 3.30764 30.0894 3.31422 30.056C3.32086 30.0227 6.51167 30.6187 10.4425 31.3876C14.3721 32.1561 17.5532 32.8063 17.5466 32.8397Z" fill="#E0E0E0"/>
<path d="M85.0843 9.95686L80.6162 20.8512C79.1323 21.1508 77.6282 21.3657 75.9053 20.6673L67.7917 17.049L73.6681 4.66406L85.0843 9.95686Z" fill="#FAFAFA"/>
<path d="M85.896 9.60681L81.428 20.5011L76.717 20.3175L68.6035 16.6989L73.7385 4.46875L85.896 9.60681Z" fill="#F5F5F5"/>
<path d="M80.418 19.1172L81.426 20.5395C81.426 20.5395 80.4003 21.0058 79.3985 20.9571C78.3961 20.9084 77.5269 20.7174 76.7151 20.3556C76.7151 20.3556 78.8303 20.6364 80.418 19.1172Z" fill="#E0E0E0"/>
<path d="M85.6094 12.3293L81.6895 7.44748L82.71 6.61719L86.7606 11.4811L85.6094 12.3293Z" fill="#EBEBEB"/>
<path d="M71.1365 6.57223L77.0993 4.66406L77.5085 5.91454L71.5156 7.95107L71.1365 6.57223Z" fill="#EBEBEB"/>
<path d="M73.4559 8.96177C73.4691 8.93057 75.5487 9.78066 78.1002 10.8603C80.6524 11.9406 82.7102 12.8413 82.6972 12.8725C82.6837 12.9039 80.6047 12.0538 78.0522 10.9737C75.5007 9.89387 73.4424 8.99297 73.4559 8.96177Z" fill="#E0E0E0"/>
<path d="M72.7967 10.5243C72.8099 10.4929 74.8892 11.343 77.4408 12.4228C79.9932 13.5031 82.051 14.4038 82.0378 14.435C82.0245 14.4664 79.9452 13.6163 77.393 12.5362C74.8415 11.4564 72.7832 10.5555 72.7967 10.5243Z" fill="#E0E0E0"/>
<path d="M72.1192 12.0868C72.1327 12.0553 74.212 12.9054 76.7636 13.9853C79.316 15.0656 81.3736 15.9663 81.3606 15.9974C81.3473 16.0289 79.268 15.1788 76.7156 14.0987C74.164 13.0189 72.106 12.118 72.1192 12.0868Z" fill="#E0E0E0"/>
<path d="M71.5272 13.454C71.5404 13.4228 73.6197 14.2729 76.1712 15.3527C78.7237 16.4328 80.7815 17.3335 80.7683 17.3647C80.7551 17.3961 78.6757 16.546 76.1235 15.4659C73.572 14.3861 71.5137 13.4852 71.5272 13.454Z" fill="#E0E0E0"/>
<path d="M80.2199 56.3666C76.6003 53.4165 76.101 48.4019 76.5822 43.963C76.6623 43.222 76.6389 42.4329 77.0404 41.8073C77.4422 41.182 78.2996 40.7977 78.9415 41.16C79.474 41.4604 79.6666 42.12 79.9361 42.6735C80.2941 43.4102 80.8627 44.0396 81.5547 44.4666C82.0095 44.7472 82.5838 44.9405 83.0699 44.7176C83.7366 44.4118 83.8779 43.5321 83.9278 42.7929C84.0214 41.4152 84.115 40.0376 84.2086 38.6602C84.2587 37.9212 84.3124 37.1668 84.5943 36.4826C84.8758 35.7984 85.4321 35.1846 86.1494 35.04C86.8669 34.8951 87.7059 35.3649 87.8005 36.099C87.84 36.4046 87.7556 36.7123 87.7535 37.0205C87.7511 37.3287 87.8688 37.6785 88.1538 37.7855C88.4421 37.894 88.7534 37.7066 88.9902 37.5067C89.8082 36.8173 90.3969 35.8946 90.9511 34.975C91.5058 34.0552 92.0477 33.1117 92.8 32.3493C93.5521 31.587 94.5569 31.0132 95.6193 31.0317C96.6819 31.0503 97.7608 31.787 97.951 32.8456C98.142 33.9069 97.4561 34.9185 96.7322 35.7126C95.6585 36.8907 94.4159 37.911 93.0562 38.7309C92.8109 38.8788 92.5452 39.0388 92.4358 39.3059C92.239 39.7866 92.6693 40.3104 93.1437 40.5081C93.6806 40.7327 94.2826 40.7197 94.8536 40.8303C95.4245 40.9406 96.0298 41.241 96.2073 41.8017C96.4538 42.5792 95.7637 43.3239 95.1038 43.7961C93.7827 44.742 92.3008 45.4566 90.7438 45.8995C90.1859 46.0581 89.6009 46.1902 89.1344 46.5396C88.6678 46.8891 88.354 47.5334 88.5802 48.0734C88.8066 48.6139 89.4738 48.8309 90.0509 48.7675C90.6278 48.7042 91.1603 48.4329 91.718 48.2684C92.7617 47.9604 94.0677 48.1275 94.6529 49.0532C95.0374 49.6619 95.0157 50.4678 94.7487 51.1392C94.4816 51.8106 93.9992 52.3703 93.493 52.8819C91.7244 54.6704 89.5272 56.053 87.1113 56.695C84.6957 57.337 82.497 57.3961 80.2199 56.3666Z" fill="#F5F5F5"/>
<path d="M79.9194 59.7211C80.2113 57.9702 80.7523 55.9169 81.5781 53.7218C82.3996 51.5246 83.4995 49.1907 84.7344 46.7892C85.045 46.1904 85.3522 45.5981 85.6549 45.0146C85.9586 44.433 86.2595 43.8561 86.5887 43.3099C87.2425 42.2144 87.9545 41.2114 88.6602 40.2802C89.3659 39.3484 90.0693 38.49 90.7332 37.6919C91.3987 36.8949 92.0333 36.1642 92.6397 35.5225C93.8495 34.2342 94.9461 33.3127 95.7249 32.7107C96.1136 32.4085 96.4231 32.1837 96.6348 32.0343C96.7364 31.9634 96.8163 31.9079 96.8766 31.8661C96.9314 31.8287 96.9603 31.8105 96.9614 31.8127C96.9631 31.8145 96.9371 31.8366 96.8846 31.8774C96.8265 31.9221 96.749 31.9812 96.6508 32.0568C96.4445 32.2135 96.1406 32.4447 95.7573 32.7531C94.9899 33.3671 93.9069 34.2966 92.7094 35.5896C92.1089 36.2334 91.4802 36.9663 90.8194 37.7654C90.16 38.5658 89.4609 39.4257 88.7598 40.3573C88.0585 41.2882 87.3514 42.2894 86.7029 43.3794C86.3763 43.9232 86.0787 44.4954 85.7745 45.0786C85.4722 45.6619 85.1655 46.2537 84.8552 46.8526C83.6217 49.2522 82.5208 51.5787 81.695 53.767C80.8658 55.9529 80.3174 57.9949 80.0142 59.7376" fill="#E0E0E0"/>
<path d="M86.6313 43.1453C86.6221 43.1461 86.6053 43.0321 86.5826 42.8249C86.5587 42.6178 86.5346 42.3174 86.5098 41.9455C86.4599 41.2022 86.4262 40.1731 86.3928 39.0389C86.36 37.9036 86.3115 36.8784 86.2506 36.1379C86.221 35.7675 86.1941 35.4679 86.1728 35.2613C86.1527 35.054 86.1458 34.9389 86.1553 34.9375C86.1645 34.9361 86.1891 35.0486 86.2253 35.254C86.2626 35.4589 86.3042 35.7579 86.346 36.1282C86.4321 36.8689 86.4961 37.8979 86.529 39.034C86.5587 40.1538 86.5857 41.1665 86.6063 41.9405C86.6174 42.29 86.6275 42.5845 86.6355 42.8211C86.6417 43.0288 86.6407 43.1447 86.6313 43.1453Z" fill="#E0E0E0"/>
<path d="M96.2573 42.2205C96.2569 42.2299 96.1205 42.2356 95.8752 42.2378C95.6298 42.2416 95.2749 42.2448 94.8362 42.2631C93.9594 42.2923 92.7493 42.3753 91.4185 42.5254C90.0877 42.6778 88.8888 42.8671 88.0259 43.029C87.5936 43.1068 87.2455 43.1793 87.0047 43.228C86.7638 43.2776 86.6298 43.3005 86.6272 43.2914C86.6251 43.2821 86.7551 43.2415 86.9929 43.1755C87.2306 43.111 87.5766 43.0238 88.0077 42.9333C88.8682 42.7464 90.0686 42.5412 91.4039 42.3881C92.7385 42.238 93.9542 42.1699 94.8343 42.1657C95.2746 42.1598 95.6306 42.1711 95.8763 42.1843C96.1222 42.1985 96.2576 42.2108 96.2573 42.2205Z" fill="#E0E0E0"/>
<path d="M81.7099 53.4783C81.7052 53.48 81.686 53.4383 81.6534 53.3575C81.6163 53.2613 81.5709 53.1441 81.5163 53.0018C81.3989 52.6927 81.2403 52.2406 81.0519 51.6793C80.6743 50.5574 80.2016 48.9909 79.7033 47.2552C79.2044 45.5191 78.7469 43.9502 78.3933 42.822C78.2196 42.2734 78.0769 41.822 77.9707 41.4867C77.9254 41.341 77.888 41.2213 77.8576 41.1224C77.8335 41.039 77.8226 40.9941 77.8268 40.9922C77.8315 40.9911 77.8507 41.0324 77.8836 41.1133C77.9206 41.2095 77.9658 41.3266 78.0206 41.4687C78.1381 41.7781 78.2964 42.2302 78.4848 42.7915C78.8625 43.9134 79.3352 45.4798 79.8338 47.2163C80.3323 48.9519 80.7898 50.5203 81.1436 51.649C81.3173 52.1973 81.4598 52.6487 81.5662 52.9839C81.6114 53.1295 81.6484 53.2497 81.6792 53.3481C81.7037 53.432 81.7144 53.4766 81.7099 53.4783Z" fill="#E0E0E0"/>
<path d="M94.6313 50.3688C94.6323 50.3738 94.5876 50.388 94.5023 50.4114C94.4011 50.4369 94.277 50.4686 94.1265 50.5068C93.7798 50.5915 93.3119 50.7059 92.7425 50.8448C91.5738 51.1303 89.9643 51.5432 88.1863 52.0015C86.4079 52.4607 84.793 52.8589 83.6179 53.1203C83.0306 53.251 82.5541 53.3522 82.2237 53.4155C82.0709 53.4436 81.9449 53.4666 81.8428 53.4857C81.7553 53.5003 81.7085 53.5055 81.7078 53.5011C81.7069 53.4963 81.7515 53.4819 81.8369 53.4583C81.9378 53.433 82.0618 53.4013 82.2127 53.3631C82.5593 53.2784 83.0271 53.1642 83.5966 53.025C84.7651 52.7398 86.3748 52.3269 88.1533 51.8682C89.9313 51.4092 91.5459 51.011 92.721 50.7496C93.3083 50.6189 93.7845 50.5177 94.1154 50.4547C94.2683 50.4265 94.3938 50.4031 94.4966 50.384C94.5841 50.3696 94.6301 50.3641 94.6313 50.3688Z" fill="#E0E0E0"/>
<path d="M99.9985 97.6942C99.9985 97.7285 77.6372 97.756 50.0597 97.756C22.4725 97.756 0.115967 97.7285 0.115967 97.6942C0.115967 97.6602 22.4725 97.6328 50.0597 97.6328C77.6372 97.6328 99.9985 97.6602 99.9985 97.6942Z" fill="#263238"/>
<path d="M30.2856 7.48298L35.9868 24.8665C38.2524 25.4975 40.5591 25.9995 43.3073 25.1104L56.2865 20.4136L48.5703 0.5625L30.2856 7.48298Z" fill="#E0E0E0"/>
<path d="M29.0649 6.96486L34.7662 24.3484L42.0868 24.5923L55.0659 19.8957L48.4814 0.367188L29.0649 6.96486Z" fill="#27AE60"/>
<path d="M36.4872 22.2422L34.7656 24.3328C34.7656 24.3328 36.3023 25.1709 37.8607 25.2078C39.4189 25.2446 40.7878 25.0466 42.086 24.5767C42.086 24.5767 38.7768 24.7743 36.4872 22.2422Z" fill="#219653"/>
<g opacity="0.3">
<path opacity="0.3" d="M36.4871 22.2422C35.9639 23.3 35.4359 24.5394 34.7656 24.3328C34.7656 24.3328 36.3023 25.1709 37.8607 25.2078C39.4189 25.2446 40.7878 25.0466 42.086 24.5767C42.086 24.5767 38.7768 24.7743 36.4872 22.2422" fill="black"/>
</g>
<path d="M29.1852 11.4325L35.8075 4.30727L34.3193 2.90625L27.4963 9.98889L29.1852 11.4325Z" fill="#E0E0E0"/>
<path d="M52.2808 3.79825L43.2545 0.171875L42.4805 2.06376L51.5389 5.89247L52.2808 3.79825Z" fill="#E0E0E0"/>
<path d="M48.4142 7.39913C48.4251 7.43129 45.1298 8.582 41.0546 9.96884C36.9782 11.3561 33.6659 12.4544 33.6548 12.4223C33.6439 12.3902 36.9385 11.2396 41.0151 9.85233C45.0901 8.46549 48.4034 7.36696 48.4142 7.39913Z" fill="#263238"/>
<path d="M49.2502 9.93819C49.261 9.97035 45.9658 11.1211 41.8908 12.508C37.8142 13.8952 34.5019 14.9935 34.491 14.9614C34.4799 14.9292 37.7747 13.7787 41.8511 12.3914C45.926 11.0046 49.2393 9.90608 49.2502 9.93819Z" fill="#263238"/>
<path d="M50.1352 12.2819C50.1463 12.314 46.8508 13.4648 42.7758 14.8516C38.6992 16.2389 35.3869 17.3372 35.376 17.3051C35.3649 17.2729 38.6597 16.1224 42.7361 14.7351C46.8113 13.3483 50.1243 12.2498 50.1352 12.2819Z" fill="#263238"/>
<path d="M50.8984 14.6257C50.9092 14.6578 47.614 15.8086 43.5388 17.1955C39.4624 18.5827 36.1498 19.681 36.1389 19.6489C36.1279 19.6167 39.4227 18.4662 43.4991 17.0789C47.5743 15.692 50.8873 14.5936 50.8984 14.6257Z" fill="#263238"/>
<path d="M59.647 64.4545L58.5036 75.1007C58.5036 75.1007 56.2754 71.7319 54.7675 73.2334C53.3306 74.6637 50.7935 85.109 50.7935 85.109C50.7935 85.109 50.7583 88.5151 52.5705 89.4146C58.3719 92.2949 64.8342 86.8641 64.8342 86.8641L63.9181 56.4219C61.5129 58.4494 59.9828 61.3269 59.647 64.4545Z" fill="#F2C94C"/>
<path d="M79.239 56.9423L69.1913 56.1397C69.1291 54.9668 69.2128 50.4283 69.2128 50.4283C69.2128 50.4283 65.0324 49.7784 64.9806 45.5985C64.9291 41.4188 65.6538 31.8211 65.6538 31.8211C70.4921 29.7418 76.077 30.4437 80.2501 33.656L80.8695 34.1327L79.239 56.9423Z" fill="#FFBE9D"/>
<path d="M69.2053 50.3535C69.2053 50.3535 71.8468 50.5683 74.6545 48.8047C74.6545 48.8047 73.3662 51.8131 69.1956 51.4363L69.2053 50.3535Z" fill="#EB996E"/>
<path d="M80.3509 38.5848C80.4222 38.5539 83.2228 37.7354 83.1316 40.593C83.0401 43.4503 80.1901 42.7695 80.188 42.6872C80.1856 42.6052 80.3509 38.5848 80.3509 38.5848Z" fill="#FFBE9D"/>
<path d="M81.0943 41.4783C81.107 41.4696 81.143 41.5147 81.2259 41.5561C81.3065 41.5962 81.4469 41.6265 81.5977 41.5754C81.903 41.4743 82.1725 41.0033 82.2027 40.4887C82.2185 40.2288 82.172 39.9794 82.0862 39.7714C82.0056 39.5597 81.8754 39.4094 81.7241 39.3775C81.5738 39.3375 81.4635 39.425 81.4258 39.5044C81.385 39.5831 81.4015 39.6408 81.3859 39.6452C81.3779 39.6521 81.3261 39.5954 81.3531 39.4781C81.3665 39.4217 81.4025 39.3553 81.4712 39.3026C81.5417 39.2489 81.6433 39.2239 81.7489 39.2385C81.9687 39.261 82.1606 39.4699 82.2547 39.6982C82.3608 39.9279 82.4192 40.2084 82.4017 40.5003C82.3651 41.0754 82.0531 41.605 81.6362 41.7111C81.4337 41.7572 81.2678 41.6912 81.1834 41.6211C81.0971 41.5476 81.0841 41.4832 81.0943 41.4783Z" fill="#AA6550"/>
<path d="M63.6171 29.293C63.5725 28.7749 63.7651 28.2188 64.1867 27.9144C64.6084 27.61 65.2623 27.6291 65.6048 28.0205C65.4086 27.3226 65.9791 26.5177 66.7028 26.4715C67.3842 26.4283 67.9656 26.9433 68.6245 27.1238C69.2673 27.3004 69.9574 27.1477 70.576 26.8986C71.1947 26.6495 71.7728 26.3059 72.3988 26.0771C73.7053 25.6002 75.1988 25.66 76.4627 26.2402C77.7262 26.8204 78.7453 27.9139 79.2349 29.2154C80.1488 28.9297 81.1878 29.3939 81.7512 30.1684C82.3149 30.9424 82.4598 31.9593 82.3475 32.9106C82.2719 33.5532 82.0859 34.1743 81.8694 34.7862C81.8697 34.8398 81.8751 34.8926 81.8739 34.9465C81.8306 37.2448 81.5709 39.9439 80.5904 39.9589C78.8814 39.9852 79.2886 36.7651 79.2886 36.7651C77.1913 35.9547 77.9724 32.8123 77.448 32.3356C76.9238 31.8589 75.8264 30.7512 71.4353 32.9957C69.7303 33.8671 67.4629 33.8397 66.2254 33.5591C66.189 33.5511 66.1524 33.5457 66.116 33.5369C66.1084 33.5348 66.0983 33.5336 66.0907 33.5317C66.0772 33.5281 66.0675 33.5208 66.0545 33.5171C65.6601 33.4143 65.2793 33.2616 64.9284 33.0392C64.5304 32.7875 64.1688 32.4469 64 32.0073C63.8315 31.568 63.8949 31.0194 64.2397 30.6989C63.9157 30.2922 63.6618 29.811 63.6171 29.293Z" fill="#263238"/>
<path d="M87.4571 83.3165L87.7731 89.2477L88.4792 97.7677H61.6251L62.7915 85.1795L60.5042 65.2916C60.703 58.264 63.4017 55.3417 68.923 54.6705C68.9689 54.665 68.4414 54.7305 68.488 54.7248C69.2483 54.6353 68.488 54.7248 68.923 54.6705C72.4939 55.7699 76.0652 55.7678 79.6361 54.6641C81.2919 54.7343 82.6634 55.244 84.0717 55.5137C88.5071 56.3638 92.1593 59.7912 93.046 62.7743C93.7765 65.2306 99.0585 86.5309 99.0585 86.5309H88.5506L87.4571 83.3165Z" fill="#F2C94C"/>
<path d="M60.4576 81.9766L54.1331 62.5589L53.5605 59.2986C53.5605 59.2986 51.8397 52.0307 51.7634 51.3113C51.675 50.4801 51.2534 50.323 50.9492 50.3766C50.4753 50.4598 50.2002 51.084 50.2539 51.7996C50.2726 52.0468 50.723 55.9372 50.723 55.9372C50.723 55.9372 50.5103 55.6342 49.8559 54.9675C49.2012 54.3006 47.8044 54.03 46.4216 54.2238C45.0388 54.418 44.6687 54.5943 44.7191 55.1351C44.7392 55.3522 44.8798 55.513 45.0475 55.6297C45.322 55.8197 45.6654 55.8883 45.9967 55.8465C48.2154 55.5661 48.9417 56.6897 48.9417 56.6897L49.0166 57.1163C49.0166 57.1163 47.5615 56.2972 46.5294 56.8204C46.3612 56.9055 46.2321 57.0133 46.1288 57.1312C45.5389 57.2007 44.9937 57.5859 44.741 58.1243C44.478 58.6844 44.5415 59.3842 44.901 59.8881C45.0728 60.1287 45.365 60.3381 45.6467 60.2487C45.7954 60.2017 45.9071 60.0809 46.0142 59.9677C46.0705 59.9082 46.1305 59.8486 46.1964 59.7999L46.5734 60.9656C46.5734 60.9656 47.5605 63.5383 47.8633 64.7068L50.9428 84.2601C51.3699 86.9712 53.937 88.8054 56.64 88.3306C59.5798 87.8142 61.3821 84.8151 60.4576 81.9766Z" fill="#FFBE9D"/>
<path d="M53.4637 62.4292C53.0676 62.5848 52.6169 62.3309 52.3579 61.9934C52.0988 61.6562 51.9615 61.2407 51.7273 60.8855C51.0268 59.8234 49.5686 59.4372 48.9198 58.3424C48.8295 58.19 48.7657 57.9733 48.8957 57.8525C49.0163 57.7405 49.2089 57.7982 49.3606 57.862C50.6553 58.4068 51.9504 58.9517 53.2451 59.4965" fill="#EB996E"/>
<path d="M53.2483 59.416C53.2547 59.4009 53.1115 59.3231 52.8466 59.1962C52.5816 59.0691 52.1952 58.8925 51.7156 58.6789C51.2153 58.4602 50.647 58.2116 50.0265 57.9403C49.8665 57.8717 49.7035 57.8013 49.5371 57.7299C49.3768 57.6751 49.192 57.5324 48.9143 57.6233C48.7782 57.6756 48.6974 57.8372 48.7068 57.9637C48.7101 58.0915 48.7522 58.197 48.804 58.2945C48.9124 58.4744 49.0323 58.641 49.1774 58.7914C49.7559 59.3961 50.4558 59.74 50.9809 60.1704C51.247 60.3812 51.4753 60.6076 51.6419 60.8527C51.809 61.0971 51.9255 61.3608 52.0584 61.5924C52.3037 62.0725 52.7017 62.366 53.0075 62.4151C53.3197 62.4733 53.4764 62.3532 53.4669 62.3488C53.462 62.3249 53.3018 62.4045 53.0304 62.3247C52.7584 62.2478 52.4263 61.9805 52.2079 61.5116C52.0888 61.2833 51.9818 61.0136 51.808 60.7424C51.6346 60.471 51.3938 60.2228 51.1206 59.9986C50.5796 59.5431 49.8857 59.1886 49.353 58.6273C49.2194 58.4898 49.1079 58.3329 49.0138 58.18C48.9271 58.0277 48.9188 57.8652 49.0094 57.8389C49.1036 57.7954 49.2823 57.8701 49.4482 57.9417C49.6155 58.0107 49.7798 58.0783 49.9408 58.1445C50.5685 58.3983 51.1437 58.6311 51.6497 58.8355C52.1378 59.0291 52.5341 59.182 52.8101 59.2825C53.0862 59.3829 53.242 59.4313 53.2483 59.416Z" fill="#AA6550"/>
<path d="M49.0704 57.1091C49.0404 57.1191 49.0558 56.7695 48.7346 56.3871C48.5765 56.2009 48.3224 56.0406 48.0047 55.9693C47.6874 55.8931 47.3215 55.8977 46.9367 55.9308C46.5512 55.9622 46.1731 55.9974 45.8274 55.953C45.4837 55.9083 45.1786 55.8015 44.9659 55.633C44.7473 55.4654 44.6766 55.2267 44.6844 55.0811C44.6905 54.9317 44.7291 54.858 44.7347 54.8594C44.7499 54.862 44.7324 54.9414 44.7447 55.0783C44.7572 55.2135 44.8314 55.4073 45.0321 55.5455C45.2285 55.685 45.5187 55.7769 45.8434 55.8112C46.1698 55.8454 46.5352 55.8081 46.9245 55.776C47.3135 55.7428 47.6996 55.741 48.039 55.8305C48.3796 55.9142 48.6592 56.1047 48.8192 56.3174C48.9834 56.5287 49.047 56.74 49.0702 56.8832C49.0924 57.0281 49.0794 57.1089 49.0704 57.1091Z" fill="#AA6550"/>
<path d="M50.2364 51.5391C50.2586 51.5384 50.287 51.8342 50.3309 52.3121C50.3824 52.8434 50.4437 53.4768 50.5115 54.1771C50.5898 54.8762 50.6604 55.5089 50.7199 56.0397C50.7755 56.5161 50.8088 56.8116 50.7869 56.8151C50.7665 56.8189 50.6949 56.5294 50.6115 56.0553C50.5271 55.5814 50.4338 54.9232 50.3572 54.1929C50.2811 53.4633 50.2369 52.7997 50.2215 52.3188C50.2055 51.8378 50.2156 51.5398 50.2364 51.5391Z" fill="#AA6550"/>
<path d="M48.2873 58.1657C48.2828 58.1768 48.1998 58.147 48.0516 58.1023C47.9098 58.0626 47.6697 57.9998 47.4504 58.1382C47.344 58.2044 47.2826 58.3299 47.2838 58.4833C47.2804 58.635 47.3301 58.7995 47.3745 58.9825C47.4183 59.1608 47.4572 59.3894 47.3478 59.6016C47.2386 59.8063 47.0224 59.9429 46.7882 59.9734C46.5478 60.0053 46.3167 59.9127 46.1506 59.7754C45.9832 59.6352 45.8617 59.4612 45.8048 59.2649C45.7084 58.8898 45.7027 58.5523 45.7128 58.2673C45.7277 57.983 45.7773 57.7532 45.8417 57.6053C45.9067 57.4566 45.9744 57.3935 45.9797 57.3987C45.991 57.407 45.9428 57.4791 45.8986 57.6254C45.8546 57.7721 45.8232 57.9941 45.8225 58.2699C45.8255 58.5435 45.8452 58.8813 45.9416 59.2238C46.0402 59.5383 46.3814 59.8673 46.7679 59.8195C46.9569 59.7957 47.1311 59.6832 47.2136 59.5305C47.2963 59.3769 47.2751 59.1897 47.2354 59.0141C47.1968 58.8373 47.146 58.6584 47.1552 58.4785C47.1557 58.3013 47.251 58.12 47.3922 58.0451C47.6752 57.8901 47.9335 57.9903 48.072 58.0454C48.2183 58.1094 48.2908 58.1569 48.2873 58.1657Z" fill="#AA6550"/>
<path d="M46.2037 59.606C46.211 59.6039 46.2412 59.6843 46.2058 59.8279C46.1711 59.9662 46.0524 60.1735 45.7969 60.2763C45.5469 60.3767 45.19 60.3316 44.9163 60.1047C44.6419 59.8806 44.4687 59.5139 44.4257 59.1213C44.3829 58.7266 44.4751 58.3428 44.6467 58.0464C44.8168 57.7467 45.0602 57.5414 45.2812 57.4147C45.5041 57.2868 45.7076 57.2351 45.8472 57.2147C45.9879 57.1956 46.0661 57.2039 46.0668 57.2129C46.0737 57.2424 45.7489 57.2464 45.3382 57.5083C45.1375 57.6392 44.9204 57.8382 44.7715 58.1159C44.6206 58.391 44.5408 58.7441 44.5798 59.1045C44.6188 59.4633 44.7745 59.7963 45.008 59.995C45.2389 60.1964 45.5445 60.246 45.7603 60.173C45.9789 60.1 46.1011 59.9284 46.1484 59.8093C46.1975 59.6859 46.1902 59.6063 46.2037 59.606Z" fill="#AA6550"/>
<path d="M49.1639 61.9519C49.1612 61.938 49.2983 61.8948 49.5361 61.9172C49.7698 61.9385 50.1113 62.0434 50.3994 62.3204L50.2725 62.3724C50.2718 62.2074 50.281 62.0283 50.3028 61.8444C50.4205 60.8177 50.9019 60.1064 50.9305 60.1336C50.9735 60.1532 50.5689 60.8745 50.4569 61.8626C50.4358 62.0406 50.4247 62.2134 50.4211 62.3733L50.4174 62.5499L50.2945 62.4256C50.0428 62.1703 49.7379 62.0543 49.5219 62.0094C49.3028 61.9631 49.1655 61.9725 49.1639 61.9519Z" fill="#AA6550"/>
<path d="M48.3789 55.447C48.4177 55.4612 48.2974 55.7567 47.971 55.9396C47.6463 56.1258 47.3312 56.0776 47.339 56.0369C47.3388 55.992 47.613 55.9684 47.8944 55.8049C48.1792 55.647 48.3401 55.4236 48.3789 55.447Z" fill="#AA6550"/>
<path d="M65.4656 55.4456C65.4715 55.4523 65.3794 55.54 65.2208 55.7217C65.0702 55.9049 64.8245 56.1795 64.6725 56.6021C64.6352 56.7072 64.615 56.8225 64.6103 56.9426C64.6115 57.0629 64.6399 57.1858 64.7004 57.3004C64.8292 57.5285 65.0844 57.697 65.382 57.8064C65.9814 58.0305 66.7291 58.0964 67.5436 58.1118C67.9512 58.1196 68.3894 58.135 68.8394 58.1614C69.0646 58.1879 69.2939 58.2148 69.5276 58.242C69.7618 58.2675 69.9949 58.3301 70.2352 58.3741C71.1839 58.589 72.1957 58.9541 73.0763 59.6362C73.5168 59.972 73.9228 60.3814 74.2499 60.8668C74.3289 60.9904 74.4055 61.1164 74.4726 61.2504C74.5413 61.3886 74.5893 61.5248 74.6468 61.6604C74.7517 61.9364 74.8375 62.2267 74.8925 62.5243C75.1287 63.7114 74.9469 65.0238 74.3362 66.1563C73.7196 67.2938 72.6721 68.1186 71.5434 68.5412C70.9771 68.7549 70.385 68.8657 69.8034 68.8868C69.2187 68.9052 68.6518 68.8009 68.1216 68.682C67.5896 68.5644 67.077 68.4401 66.5748 68.4058C66.075 68.3715 65.5862 68.4419 65.1709 68.6537C64.7538 68.8621 64.4137 69.1784 64.1195 69.5067C63.825 69.8375 63.5742 70.1852 63.3263 70.5151C62.8357 71.1735 62.3167 71.7543 61.7107 72.0589C61.4134 72.2097 61.0991 72.2988 60.8102 72.2943C60.5217 72.2964 60.261 72.239 60.0424 72.1513C59.8233 72.0632 59.647 71.9431 59.5151 71.8181C59.3851 71.6902 59.3026 71.5578 59.2511 71.4453C59.1545 71.2163 59.1681 71.0826 59.1681 71.0826C59.1835 71.079 59.189 71.2116 59.2958 71.4236C59.352 71.5278 59.4367 71.6488 59.565 71.7646C59.6952 71.8774 59.866 71.9847 60.0767 72.0617C60.4926 72.2158 61.0867 72.255 61.6471 71.937C62.2151 71.6375 62.7083 71.072 63.1864 70.4111C63.4284 70.0807 63.6782 69.7245 63.9769 69.3809C64.2764 69.0401 64.6292 68.7019 65.0788 68.4715C65.5276 68.2368 66.0629 68.1567 66.5885 68.1898C67.1168 68.2224 67.6402 68.3467 68.1698 68.4602C68.6997 68.5759 69.2398 68.6717 69.7963 68.6518C70.3518 68.6291 70.9171 68.5216 71.458 68.3157C72.5379 67.9078 73.5348 67.1189 74.1202 66.0384C74.7018 64.9602 74.8786 63.7031 74.6557 62.5699C74.6037 62.2848 74.5236 62.0102 74.4232 61.7436C74.3681 61.6115 74.3196 61.4747 74.2603 61.355C74.1989 61.2315 74.1272 61.1126 74.0533 60.9958C73.7458 60.5352 73.3594 60.1408 72.938 59.816C72.0957 59.155 71.1161 58.7915 70.1899 58.5731C69.9549 58.5282 69.7276 58.4642 69.4981 58.437C69.2686 58.4077 69.0434 58.3789 68.8227 58.3507C68.3771 58.3198 67.9536 58.2992 67.5393 58.286C66.7149 58.2581 65.957 58.1818 65.3314 57.9343C65.022 57.8133 64.7413 57.6254 64.5969 57.3557C64.5293 57.2208 64.5009 57.0761 64.5035 56.9407C64.5123 56.806 64.539 56.681 64.582 56.5701C64.7588 56.1275 65.0199 55.8642 65.1844 55.6879C65.3565 55.5151 65.4607 55.4397 65.4656 55.4456Z" fill="#FAFAFA"/>
<path d="M83.4457 71.0659C83.4339 71.069 83.3748 70.8832 83.3324 70.5344C83.2868 70.1865 83.2925 69.6691 83.4307 69.0523C83.5657 68.4354 83.8685 67.7319 84.348 67.0474C84.8306 66.3663 85.5023 65.7128 86.3332 65.2169C87.1664 64.7311 88.0441 64.4307 88.8564 64.264C89.6696 64.0941 90.417 64.0424 91.0413 64.0393C91.6662 64.0357 92.1701 64.0731 92.5161 64.1135C92.8624 64.1539 93.0517 64.191 93.05 64.2069C93.0464 64.2504 92.2798 64.1657 91.0459 64.2132C90.4299 64.2383 89.6966 64.3073 88.9044 64.4855C88.1129 64.6606 87.264 64.9594 86.458 65.4287C85.6599 65.9054 85.0076 66.5298 84.5323 67.18C84.0597 67.8332 83.751 68.5035 83.5995 69.0946C83.4447 69.685 83.4121 70.1853 83.4282 70.528C83.4404 70.8709 83.4672 71.0621 83.4457 71.0659Z" fill="#FAFAFA"/>
<path d="M96.3567 75.1731C96.3685 75.1819 96.2768 75.3347 96.079 75.5888C95.8819 75.8431 95.5666 76.1898 95.1272 76.5651C94.6888 76.9409 94.1157 77.3335 93.4232 77.6625C92.7324 77.9924 91.918 78.2479 91.0381 78.3583C90.157 78.4604 89.305 78.406 88.5551 78.25C87.8043 78.095 87.1541 77.8501 86.6391 77.5897C86.1229 77.3295 85.7342 77.0679 85.4822 76.8674C85.2298 76.6677 85.1046 76.5413 85.114 76.5299C85.1424 76.4904 85.6827 76.9617 86.7138 77.4323C87.7319 77.9045 89.2944 78.3195 91.0086 78.1136C92.722 77.9059 94.1407 77.1309 95.0174 76.4302C95.9069 75.728 96.3198 75.1417 96.3567 75.1731Z" fill="#FAFAFA"/>
<path d="M84.4885 74.3927C84.4908 74.4032 84.4126 74.4251 84.2727 74.4807C84.1333 74.5357 83.9335 74.6419 83.7322 74.8408C83.5311 75.0408 83.3399 75.3369 83.1876 75.7137C83.0364 76.0909 82.9133 76.5425 82.8081 77.0471C82.6998 77.5524 82.6157 78.1196 82.4233 78.7131C82.3248 79.008 82.1972 79.3101 82.0143 79.5937C81.8297 79.8754 81.5988 80.1392 81.3253 80.3637C80.7815 80.8193 80.0995 81.1365 79.3727 81.3506C78.6448 81.5664 77.8736 81.6848 77.0996 81.8363C75.5539 82.122 74.1373 82.6951 73.0593 83.5192C72.5191 83.9272 72.0677 84.3933 71.7127 84.8765C71.3652 85.3663 71.1136 85.8723 70.9443 86.3551C70.6106 87.3272 70.6097 88.1823 70.695 88.7471C70.7801 89.3167 70.9089 89.6156 70.8845 89.6239C70.8765 89.6272 70.8425 89.5542 70.7844 89.4117C70.7524 89.341 70.7243 89.2501 70.6926 89.1415C70.657 89.0342 70.6284 88.9071 70.6002 88.7629C70.484 88.1908 70.4565 87.3094 70.7791 86.3C70.9432 85.7985 71.1932 85.2708 71.5463 84.7584C71.9074 84.2515 72.368 83.7651 72.9216 83.3392C74.0243 82.4794 75.482 81.8845 77.0521 81.595C77.8337 81.442 78.5966 81.3258 79.3048 81.1192C80.0103 80.915 80.6647 80.6137 81.1807 80.1888C81.4406 79.9798 81.6579 79.7355 81.833 79.4755C82.0062 79.2132 82.131 78.93 82.2298 78.6478C82.4236 78.0802 82.5183 77.5177 82.638 77.0098C82.7559 76.5002 82.8925 76.0445 83.061 75.6598C83.2305 75.2757 83.4436 74.9711 83.6663 74.7714C83.8896 74.5719 84.1073 74.4755 84.2562 74.4341C84.4055 74.3918 84.4873 74.3866 84.4885 74.3927Z" fill="#FAFAFA"/>
<path d="M78.1556 73.5268C78.1651 73.5221 78.2528 73.6847 78.2788 74.0101C78.3057 74.3304 78.2353 74.8276 77.9013 75.3178C77.7338 75.5582 77.5026 75.8002 77.1895 75.9642C77.0363 76.0519 76.8603 76.1076 76.6768 76.1504C76.4916 76.1811 76.2968 76.1967 76.0997 76.174C75.7058 76.1334 75.3065 75.9774 74.9648 75.7148C74.6266 75.4518 74.3447 75.071 74.2329 74.6189C74.1622 74.3306 74.1563 74.0304 74.2215 73.7482C74.2832 73.4625 74.4401 73.2108 74.5983 73.0071C74.7585 72.7977 74.9291 72.6067 75.1173 72.4406C75.2106 72.3571 75.3092 72.2806 75.4176 72.2158C75.5261 72.1532 75.6426 72.0937 75.7882 72.0866L75.8199 72.2976C75.7795 72.3078 75.7412 72.3174 75.7029 72.3269L75.6443 72.1234C76.1203 71.9863 76.5864 72.0478 76.947 72.1938C77.314 72.3338 77.5837 72.5569 77.769 72.7625C77.954 72.9711 78.0531 73.1692 78.1053 73.3065C78.153 73.4465 78.1653 73.524 78.1556 73.5268C78.124 73.5415 78.0528 73.2219 77.6792 72.8476C77.4922 72.6666 77.2308 72.4718 76.8867 72.3567C76.5488 72.2343 76.1243 72.1953 75.7079 72.3255L75.6493 72.122C75.6873 72.1116 75.7253 72.101 75.7655 72.0901L75.7972 72.3009C75.6306 72.317 75.4358 72.4583 75.2692 72.6105C75.0983 72.766 74.9376 72.9506 74.789 73.1496C74.6372 73.3515 74.5113 73.5592 74.4593 73.8029C74.4047 74.0446 74.4097 74.3075 74.4718 74.5599C74.5687 74.9517 74.8128 75.2864 75.1135 75.5248C75.4167 75.7619 75.7743 75.9065 76.1245 75.9486C76.2999 75.972 76.4724 75.9607 76.6371 75.9375C76.7995 75.9027 76.9565 75.8583 77.0951 75.7831C77.3785 75.6449 77.5967 75.4317 77.76 75.2162C78.0857 74.7766 78.1802 74.3174 78.1828 74.0125C78.1876 73.7029 78.1332 73.5325 78.1556 73.5268Z" fill="#FAFAFA"/>
<path d="M62.9091 65.7969C62.9112 65.7971 62.912 65.8186 62.9112 65.8605C62.9096 65.9094 62.9077 65.9703 62.9051 66.0462C62.8966 66.2183 62.885 66.4567 62.8701 66.7588C62.8332 67.3773 62.7961 68.2735 62.7467 69.38C62.6543 71.5938 62.5638 74.6537 62.4919 78.0339C62.4196 81.4154 62.3754 84.4767 62.3436 86.6926C62.327 87.7933 62.3133 88.6873 62.3036 89.3167C62.2972 89.619 62.2922 89.8577 62.2885 90.0302C62.2856 90.1056 62.2835 90.1666 62.2816 90.2155C62.2795 90.2574 62.2771 90.2789 62.275 90.2789C62.2731 90.2789 62.2709 90.2574 62.2691 90.2155C62.2677 90.1666 62.2658 90.1056 62.2639 90.03C62.262 89.8575 62.2591 89.619 62.2559 89.3165C62.2561 88.6868 62.2563 87.7925 62.2565 86.6917C62.266 84.4753 62.2965 81.4133 62.3691 78.0313C62.4407 74.6504 62.5449 71.5898 62.6598 69.376C62.7202 68.2693 62.7706 67.3737 62.8223 66.7559C62.847 66.4542 62.8663 66.2162 62.8805 66.0444C62.8879 65.9692 62.894 65.9082 62.8985 65.8595C62.9035 65.8179 62.9067 65.7966 62.9091 65.7969Z" fill="#263238"/>
<g opacity="0.2">
<path opacity="0.2" d="M58.3923 87.6963C59.7107 88.3269 61.435 87.1154 62.1086 85.8186C62.1086 85.8186 62.4607 82.9598 62.4115 81.499C62.3205 78.7953 62.5182 76.118 62.4274 73.4141C62.2234 75.0226 61.5446 76.568 60.4979 77.8062C60.2086 78.1487 59.8808 78.4881 59.7728 78.9231C59.5795 79.7024 60.175 81.1055 60.5577 81.8115C61.7292 83.9711 59.1635 87.7109 58.4776 87.6412" fill="black"/>
</g>
<g opacity="0.2">
<path opacity="0.2" d="M83.0688 70.0938C83.5007 75.4825 83.9324 80.8715 84.364 86.2601C84.4049 86.7691 84.4481 87.2884 84.6483 87.7582C84.848 88.2278 85.2358 88.6483 85.7362 88.7499C86.5021 88.9061 87.245 88.2472 87.4612 87.4959C87.6775 86.7446 87.505 85.9422 87.3168 85.1833C86.9963 83.8905 86.6326 82.6091 86.2691 81.3279C85.2146 77.611 84.1598 73.8939 83.1053 70.1769" fill="black"/>
</g>
<path d="M68.2585 97.7732C68.2316 97.7583 68.4829 97.5028 68.618 96.9151C68.752 96.3323 68.6679 95.4294 68.216 94.4512C67.9929 93.9632 67.6788 93.4558 67.3621 92.8966C67.0487 92.3379 66.7164 91.7156 66.5619 90.987C66.4026 90.2576 66.4936 89.4569 66.7292 88.6999C66.9608 87.9382 67.3063 87.1985 67.5847 86.4235C68.176 84.8871 68.1458 83.2483 67.7026 81.9035C67.485 81.2285 67.1712 80.6247 66.8067 80.1102C66.4389 79.5975 66.0247 79.1728 65.612 78.8283C64.7775 78.1436 63.9631 77.7834 63.3928 77.5905C62.8185 77.3981 62.4836 77.3464 62.4878 77.3237C62.4893 77.3152 62.5734 77.3228 62.7332 77.345C62.8924 77.3684 63.1269 77.4131 63.4216 77.4991C64.0089 77.6667 64.8515 78.0084 65.7214 78.6931C66.152 79.0377 66.5855 79.4668 66.9724 79.9906C67.3557 80.5164 67.687 81.1373 67.9184 81.8329C68.1481 82.5279 68.2817 83.2953 68.2732 84.0939C68.2755 84.8918 68.1073 85.7192 67.8166 86.5065C67.5323 87.296 67.1874 88.0313 66.9598 88.7706C66.7282 89.5063 66.641 90.2548 66.7843 90.9414C66.9232 91.6296 67.2369 92.2393 67.5405 92.7973C67.8471 93.357 68.155 93.8722 68.375 94.3808C68.8194 95.3945 68.8804 96.3372 68.7114 96.9376C68.6317 97.2396 68.5058 97.4492 68.4199 97.5858C68.3209 97.7151 68.2647 97.7782 68.2585 97.7732Z" fill="#FAFAFA"/>
<path d="M90.4458 58.8753C90.4577 58.8803 90.4007 59.0606 90.2163 59.3456C90.0348 59.6299 89.703 60.0095 89.1904 60.3413C88.682 60.6755 87.9801 60.9411 87.1756 61.0078C86.3716 61.0796 85.4804 60.9593 84.6014 60.6795C83.7217 60.4011 82.9205 59.9629 82.3547 59.3752C82.0735 59.0835 81.8468 58.7616 81.6996 58.4291C81.5526 58.0973 81.4732 57.7657 81.4451 57.4601C81.3886 56.8451 81.5413 56.3486 81.7076 56.0537C81.7459 55.9771 81.7889 55.9149 81.8275 55.8617C81.8636 55.8071 81.8986 55.7646 81.9303 55.7324C81.991 55.667 82.0253 55.6358 82.0317 55.6412C82.0504 55.6556 81.927 55.7974 81.7939 56.0955C81.6606 56.3904 81.5434 56.8643 81.6181 57.4412C81.6554 57.7278 81.7398 58.0368 81.8847 58.3433C82.0295 58.6487 82.2467 58.9448 82.5162 59.2161C83.0572 59.7606 83.8236 60.1751 84.676 60.445C85.5297 60.7168 86.3874 60.8383 87.1576 60.7816C87.929 60.7296 88.5995 60.4952 89.0987 60.1934C89.6012 59.8944 89.9387 59.5491 90.1386 59.2898C90.3411 59.0301 90.4272 58.8656 90.4458 58.8753Z" fill="#FAFAFA"/>
<path d="M87.2105 84.2877C87.2083 84.2884 87.1998 84.2657 87.1854 84.2215C87.1693 84.1702 87.1492 84.105 87.124 84.0235C87.0701 83.8401 86.9949 83.5841 86.8992 83.2587C86.7068 82.5844 86.4324 81.6237 86.0945 80.4401C85.4247 78.0493 84.5032 74.7606 83.485 71.1281C82.9807 69.3083 82.5 67.5749 82.0628 65.9969C81.8462 65.2078 81.6572 64.4489 81.5593 63.7233C81.4601 62.9989 81.4544 62.3095 81.5532 61.6927C81.7579 60.4526 82.3669 59.5727 82.8899 59.1211C83.1523 58.8899 83.3924 58.7602 83.5536 58.6751C83.6323 58.6416 83.6956 58.6148 83.745 58.5938C83.7885 58.5763 83.8109 58.5685 83.8119 58.5707C83.8232 58.5888 83.4377 58.6961 82.9218 59.1565C82.4163 59.6126 81.8295 60.4855 81.6392 61.7064C81.5475 62.3131 81.5577 62.9932 81.6605 63.7093C81.7614 64.4266 81.9528 65.1794 82.1722 65.9666C82.6122 67.5437 83.096 69.2761 83.6036 71.0952C84.6081 74.7315 85.5175 78.0235 86.1786 80.4167C86.5005 81.6048 86.7621 82.5692 86.9453 83.2459C87.0316 83.574 87.0991 83.832 87.1478 84.0168C87.1681 84.0996 87.1847 84.166 87.1975 84.218C87.2078 84.2636 87.2123 84.2872 87.2105 84.2877Z" fill="#263238"/>
<path d="M77.5828 31.8838C77.5668 31.8822 77.6261 31.7016 77.585 31.378C77.5445 31.0597 77.3647 30.5944 76.9315 30.2042C76.5108 29.8029 75.8181 29.5637 75.0497 29.5828C74.2764 29.5892 73.4545 29.8432 72.6051 30.1295C72.1777 30.2701 71.7571 30.4043 71.3394 30.4965C70.9211 30.587 70.5096 30.6355 70.1171 30.6452C69.3301 30.6688 68.6263 30.5407 68.0581 30.3746C67.4902 30.2018 67.0565 29.991 66.7693 29.8281C66.6245 29.748 66.5171 29.6776 66.4456 29.6282C66.3735 29.5795 66.3371 29.5521 66.3392 29.5485C66.3461 29.5377 66.499 29.6379 66.792 29.7858C67.0839 29.9345 67.5186 30.1309 68.0822 30.2909C68.6461 30.4443 69.3405 30.5612 70.1136 30.532C70.4995 30.5194 70.9027 30.4693 71.3132 30.379C71.7233 30.2866 72.1399 30.1531 72.5663 30.0124C73.4145 29.727 74.2537 29.4696 75.0483 29.4693C75.8372 29.4547 76.5609 29.7137 76.9905 30.1404C77.4325 30.5537 77.606 31.0427 77.6327 31.3723C77.6596 31.7082 77.5828 31.8838 77.5828 31.8838Z" fill="#455A64"/>
<path d="M80.8372 38.9892C80.8334 38.9911 80.8145 38.9608 80.7823 38.9013C80.7488 38.8422 80.7051 38.7524 80.6524 38.6349C80.5477 38.3998 80.4172 38.0481 80.3196 37.596C80.2244 37.1445 80.1643 36.5915 80.2118 35.9803C80.2504 35.3659 80.4411 34.7176 80.5848 34.0386C80.7335 33.3615 80.7679 32.6872 80.5883 32.1174C80.5023 31.834 80.3621 31.5849 80.188 31.3895C80.0129 31.1983 79.7982 31.0676 79.5874 30.9957C79.162 30.8459 78.7784 30.9135 78.556 31.022C78.3313 31.1366 78.2452 31.2578 78.2349 31.2469C78.2349 31.2469 78.3055 31.1132 78.5338 30.9794C78.7598 30.8523 79.1629 30.766 79.6153 30.9132C79.8391 30.9839 80.071 31.1172 80.2633 31.321C80.4517 31.5249 80.6034 31.7872 80.6966 32.0833C80.8909 32.6773 80.8556 33.3788 80.7051 34.0634C80.5595 34.7514 80.3683 35.3898 80.3248 35.9896C80.2721 36.588 80.322 37.1321 80.4047 37.579C80.4902 38.0261 80.6065 38.378 80.6966 38.6168C80.7866 38.8559 80.8471 38.9845 80.8372 38.9892Z" fill="#455A64"/>
<path d="M77.9831 31.6303C77.9786 31.6299 77.9798 31.572 77.9848 31.4625C77.9892 31.3406 77.9954 31.1815 78.0027 30.9832C78.007 30.5704 78.0202 29.9568 77.8099 29.2473C77.7021 28.8963 77.5253 28.5253 77.2512 28.193C76.9798 27.8614 76.5987 27.5717 76.1307 27.4526C75.6651 27.3257 75.1418 27.3703 74.6349 27.5138C74.1246 27.6577 73.6328 27.9122 73.1391 28.1918C72.6447 28.4705 72.1613 28.7548 71.6561 28.9547C71.1484 29.1497 70.6261 29.252 70.1274 29.2617C69.6285 29.2729 69.1542 29.2088 68.7276 29.0899C68.301 28.9687 67.9212 28.8039 67.5917 28.622C66.9376 28.246 66.5041 27.8028 66.2472 27.4741C66.1146 27.3112 66.0295 27.1725 65.9744 27.0768C65.9177 26.9822 65.8901 26.9319 65.8939 26.9298C65.8974 26.9277 65.9324 26.9737 65.9953 27.0636C66.0567 27.1543 66.1477 27.2876 66.2843 27.444C66.5497 27.7598 66.9862 28.1861 67.6343 28.5459C67.9604 28.7198 68.3353 28.8767 68.7541 28.9914C69.1733 29.1039 69.6377 29.1625 70.1244 29.1485C70.6114 29.1355 71.1174 29.0341 71.6114 28.8427C72.1049 28.6459 72.5825 28.3644 73.0788 28.0845C73.5735 27.8045 74.0764 27.5443 74.6021 27.3977C75.1236 27.2519 75.6696 27.206 76.16 27.3429C76.6535 27.472 77.0527 27.7815 77.3301 28.1283C77.6116 28.4764 77.7879 28.8604 77.8931 29.2225C78.0975 29.9521 78.0692 30.5706 78.0505 30.9851C78.0382 31.1938 78.0221 31.3552 78.0096 31.4644C77.9966 31.5736 77.9874 31.6305 77.9831 31.6303Z" fill="#455A64"/>
<path d="M71.7451 90.7081L89.4192 88.0719L89.1337 86.5H98.6464L98.925 88.9183C99.7865 93.3987 96.3799 97.5657 91.8176 97.6117L71.2036 97.383L71.7451 90.7081Z" fill="#FFBE9D"/>
<path d="M73.0205 90.9418C72.9259 90.9733 71.7355 90.4396 70.6689 89.9462C69.5366 89.4222 68.2946 89.1811 67.0484 89.2442L62.1344 89.4943C62.1344 89.4943 62.4381 90.3051 62.9593 90.593C63.4804 90.8813 66.5353 90.943 66.5353 90.943L66.3786 91.1042C65.7348 91.7669 64.8568 92.1512 63.933 92.1743L63.4634 92.1864C63.115 92.1585 62.7709 92.0914 62.4379 91.9857L61.2259 91.4961C60.8591 91.3306 60.4715 91.3576 60.3123 91.7268C60.1676 92.0609 60.2735 92.5213 61.2741 93.0252C61.8336 93.3071 63.9072 94.024 63.9072 94.024C63.9072 94.024 63.9374 94.5975 64.028 94.8994C64.1187 95.2009 64.9334 95.503 64.9334 95.503C64.9334 95.503 65.4465 96.5594 65.658 96.8007C65.7525 96.9089 66.4904 97.1387 67.2755 97.3587C68.5435 97.7146 69.8859 97.7061 71.1475 97.3294L73.0205 96.7704V91.0662" fill="#FFBE9D"/>
<path d="M66.2983 94.7731C66.2957 94.8047 65.7131 94.7747 65.0207 94.5909C64.327 94.41 63.805 94.1493 63.8186 94.1207C63.8326 94.0875 64.3688 94.294 65.0519 94.472C65.7337 94.6527 66.3026 94.7372 66.2983 94.7731Z" fill="#AA6550"/>
<path d="M66.1207 95.8461C66.121 95.8784 65.8036 95.8986 65.4295 95.796C65.0549 95.695 64.7914 95.5168 64.8079 95.4894C64.8249 95.4578 65.1031 95.5812 65.4619 95.6771C65.8197 95.7757 66.1221 95.8104 66.1207 95.8461Z" fill="#AA6550"/>
<path d="M94.0886 92.0745C94.0659 92.0828 93.9487 91.7328 93.6653 91.215C93.5256 90.9553 93.334 90.6603 93.0995 90.3495C92.8594 90.0432 92.5732 89.7239 92.2407 89.4216C91.9046 89.1236 91.556 88.8731 91.2256 88.6672C90.8916 88.4675 90.5778 88.3087 90.3043 88.1979C89.7591 87.9717 89.3984 87.8928 89.4044 87.8694C89.4062 87.8611 89.4968 87.8765 89.6601 87.9119C89.7419 87.928 89.8414 87.9516 89.9543 87.9887C90.0673 88.0244 90.1985 88.0591 90.3365 88.1168C90.6177 88.2191 90.941 88.3723 91.2839 88.5701C91.6233 88.7741 91.9804 89.0265 92.3227 89.3302C92.6616 89.6377 92.9509 89.9657 93.1898 90.2812C93.4235 90.601 93.6107 90.9059 93.7424 91.1743C93.8147 91.3053 93.8634 91.4319 93.9111 91.5407C93.96 91.6487 93.994 91.7451 94.0191 91.8247C94.0716 91.9833 94.0967 92.0717 94.0886 92.0745Z" fill="#AA6550"/>
<path d="M67.0217 90.6025C67.0326 90.614 66.892 90.7728 66.6422 91.0077C66.3914 91.2408 66.0279 91.5523 65.5715 91.8186C65.1144 92.0845 64.6536 92.2339 64.3168 92.3027C63.9786 92.3712 63.7652 92.3764 63.7635 92.3625C63.752 92.3178 64.615 92.2386 65.5098 91.7118C65.9549 91.4523 66.3209 91.1571 66.5847 90.9423C66.8473 90.7255 67.0092 90.5892 67.0217 90.6025Z" fill="#AA6550"/>
<path d="M16.1793 84.808C16.6006 84.808 12.9601 94.5868 12.0234 97.0847C11.9197 97.3614 11.8469 97.6048 11.8469 97.6048L37.3297 97.649L37.0293 73.9387C37.0291 73.9229 37.0279 73.9075 37.0261 73.8919L34.8947 56.9317C34.8737 56.7634 34.7539 56.6245 34.5903 56.5801C33.5814 56.3064 29.9456 55.3683 27.1638 55.265C23.9026 55.1443 19.1869 55.7911 19.1869 55.7911C19.1869 55.7911 14.9553 56.2276 12.6266 57.0676C12.4397 57.135 12.3257 57.3231 12.3534 57.5199L16.1793 84.808Z" fill="#27AE60"/>
<path d="M27.9467 74.3909C27.9545 74.3947 27.9086 74.5036 27.8191 74.6988C27.7758 74.7974 27.7188 74.9158 27.6399 75.0465C27.5626 75.1781 27.483 75.3334 27.3695 75.4892C27.2627 75.6494 27.1433 75.8233 26.9973 75.9966C26.8612 76.1781 26.6924 76.3518 26.5196 76.539C26.16 76.8991 25.7322 77.2643 25.2418 77.59C24.7471 77.9095 24.2414 78.156 23.7672 78.3415C23.5267 78.4252 23.3 78.5105 23.0792 78.5627C22.8618 78.6275 22.6548 78.6672 22.4655 78.701C22.2774 78.7428 22.103 78.7539 21.9515 78.7721C21.8002 78.7922 21.6688 78.7972 21.5613 78.7974C21.3464 78.8015 21.2283 78.7995 21.228 78.7913C21.2266 78.7641 21.7033 78.7672 22.449 78.6157C22.635 78.5767 22.8384 78.5325 23.0514 78.4644C23.2681 78.4089 23.4903 78.321 23.7264 78.2359C24.1912 78.0471 24.6873 77.8015 25.1744 77.487C25.657 77.1665 26.0803 76.8096 26.4391 76.4591C26.6116 76.2766 26.7808 76.1083 26.9184 75.932C27.0659 75.7638 27.1878 75.5953 27.2979 75.44C27.7347 74.817 27.9224 74.3788 27.9467 74.3909Z" fill="#263238"/>
<g opacity="0.2">
<path opacity="0.2" d="M12.7075 95.3452C15.1194 96.3685 17.8983 95.9698 20.0187 94.4308C20.9376 93.7638 21.7085 92.8913 22.7002 92.338C24.0752 91.5706 25.7145 91.498 27.2852 91.386C29.3874 91.2359 31.5062 90.9778 33.4825 90.2459C33.8831 90.0975 34.2927 89.9186 34.5661 89.5905C34.8398 89.2627 34.9315 88.7452 34.6644 88.4119C34.3915 88.0716 33.889 88.0524 33.4527 88.0652C26.8627 88.2597 20.8412 88.7882 14.4267 90.3121" fill="black"/>
</g>
<path d="M19.812 30.8812C21.8488 28.8075 25.0632 27.5833 27.7261 28.7485C29.5166 29.5319 30.7309 31.2121 32.3023 32.3737C33.4467 33.2198 34.8607 33.8737 35.4605 35.1644C35.9892 36.3021 35.7342 37.6266 35.6066 38.8749C35.4789 40.123 35.5683 41.5628 36.5352 42.3626C37.0428 42.7826 37.7103 42.9487 38.282 43.276C39.4329 43.9354 40.1164 45.2188 40.3629 46.5219C40.6094 47.8251 40.4763 49.1663 40.3426 50.486L34.8576 51.5311L33.9567 50.0157L33.6426 52.3983L26.6427 53.03L19.812 30.8812Z" fill="#263238"/>
<path d="M18.9072 33.2199L18.8954 34.7459L18.4635 57.6248C18.426 60.2765 20.9633 62.5347 23.8032 62.5532C26.6714 62.5718 27.8413 60.4171 27.9233 57.7389C28.0095 54.9279 28.1519 51.9698 28.1519 51.9698C28.1519 51.9698 31.79 51.4684 32.6706 46.7638C33.1086 44.424 33.097 40.5679 32.9852 37.4128C32.885 34.5731 30.4429 32.3882 27.6099 32.6091L18.9072 33.2199Z" fill="#FFBE9D"/>
<path d="M28.1508 52.0345C28.1508 52.0345 24.9662 52.1517 21.8689 50.1719C21.8689 50.1719 23.3146 53.4601 28.0563 53.1483L28.1508 52.0345Z" fill="#EB996E"/>
<path d="M14.0322 56.8125C14.0322 56.8125 6.43173 58.5959 4.95771 65.8033C4.28057 69.1152 3.33144 88.1315 7.76139 91.0855C13.4789 94.8981 20.7471 91.4289 20.7471 91.4289L19.8138 82.2308H15.0948L14.4579 72.154C14.6356 72.9268 14.0322 56.8125 14.0322 56.8125Z" fill="#27AE60"/>
<path d="M41.0679 88.4494C42.5413 88.2981 43.947 87.566 44.9153 86.4455C45.8836 85.3247 46.4045 83.8275 46.3402 82.3481L43.2361 69.1551C43.2361 69.1551 41.223 57.8333 34.8572 56.8125L37.026 74.0728L36.819 77.7103C36.819 77.7103 36.9176 80.1165 37.1624 84.625L41.0679 88.4494Z" fill="#27AE60"/>
<path d="M41.8915 80.0861C41.892 80.1128 41.4432 80.0648 40.7455 80.2118C40.0551 80.3525 39.1093 80.7403 38.3478 81.516C37.588 82.2933 37.2198 83.2469 37.0933 83.9403C36.9608 84.6406 37.0179 85.0885 36.9912 85.0885C36.9844 85.0891 36.9655 84.9791 36.9551 84.7777C36.944 84.5763 36.9513 84.2826 37.0076 83.9249C37.1141 83.2155 37.4778 82.2295 38.2599 81.4297C39.0433 80.6318 40.0213 80.2477 40.7287 80.1265C41.0849 80.0627 41.3784 80.0495 41.58 80.0563C41.7816 80.0625 41.892 80.0792 41.8915 80.0861Z" fill="#263238"/>
<path d="M22.2813 30.3841C23.1373 31.5332 23.5441 32.4159 24.0572 34.4593C24.3084 35.4602 23.4947 36.1668 22.6864 36.778C22.3076 37.0645 21.7597 36.8643 21.6562 36.4008C21.6562 36.4008 21.937 39.5323 20.8047 40.9362C20.2741 41.5944 20.2516 42.4388 20.3776 43.1502C20.5062 43.8767 20.8803 44.5304 21.3889 45.065C22.7015 46.4452 23.0662 48.6966 22.1605 50.3893C21.9287 50.8227 21.6262 51.2195 21.4409 51.6747C21.335 51.9354 21.2734 52.2268 21.2901 52.5059C21.3111 52.8505 21.0739 53.1556 20.7319 53.205C16.8469 53.7689 12.8972 53.8878 8.98532 53.5583C8.70999 53.5352 8.47386 53.3402 8.41033 53.0715C8.10375 51.7738 8.61498 50.3588 9.2708 49.1638C10.003 47.8298 10.9356 46.5495 11.1878 45.0485C11.4248 43.6359 11.0394 42.1125 11.6066 40.7974C12.3033 39.1832 14.1966 38.4201 15.1446 36.9394C16.0386 35.5425 15.9671 33.7108 16.7682 32.2583C17.7968 30.3936 20.3294 29.5325 22.2813 30.3841" fill="#263238"/>
<path d="M22.5028 32.1027C23.9891 32.8668 24.6759 34.6844 26.1197 35.5261C27.4347 36.2925 29.0756 36.0902 30.5809 35.864C30.5249 35.5301 30.4691 35.1963 30.4131 34.8624C30.5655 35.1552 30.7234 35.4552 30.971 35.6733C31.2185 35.8915 31.5797 36.0131 31.8857 35.8898C32.3905 35.6865 32.4577 34.9917 32.3281 34.463C32.1204 33.6162 31.6259 32.8587 31.0141 32.2374C29.9023 31.1084 28.3763 30.3968 26.7968 30.2706C25.2174 30.1441 23.5975 30.6045 22.3206 31.5426" fill="#263238"/>
<path d="M36.4389 65.7969C36.4431 65.7969 36.4478 65.8609 36.4528 65.9826C36.4571 66.1159 36.4625 66.2932 36.4691 66.5151C36.4783 66.9774 36.5015 67.646 36.5369 68.472C36.6045 70.1243 36.7589 72.4031 36.9451 74.9203C37.1313 77.4378 37.2719 79.7204 37.3176 81.375C37.3416 82.2019 37.3519 82.8717 37.3462 83.3345C37.3433 83.5566 37.341 83.7339 37.3395 83.8672C37.3365 83.9891 37.3329 84.0529 37.3287 84.0529C37.3244 84.0529 37.3197 83.9891 37.3148 83.8674C37.3104 83.7341 37.3051 83.5568 37.2984 83.3349C37.2892 82.8727 37.266 82.204 37.2308 81.378C37.1627 79.726 37.0084 77.4467 36.8224 74.929C36.6362 72.412 36.4954 70.1297 36.4498 68.4753C36.4256 67.6481 36.4157 66.9783 36.4211 66.5156C36.4242 66.2934 36.4263 66.1162 36.4282 65.9826C36.431 65.8609 36.4346 65.7969 36.4389 65.7969Z" fill="#263238"/>
<path d="M15.0916 82.1357C15.0873 82.1357 15.0817 82.0903 15.0746 82.0033C15.0682 81.9031 15.0599 81.7774 15.05 81.624C15.0306 81.2773 15.0044 80.8047 14.9722 80.2286C14.9051 79.05 14.8016 77.4233 14.6789 75.6264C14.5546 73.8371 14.4419 72.2179 14.3589 71.0249C14.3211 70.449 14.2899 69.9765 14.2672 69.6298C14.2594 69.4764 14.2528 69.3507 14.2478 69.2502C14.2446 69.1632 14.2448 69.1174 14.2493 69.1172C14.2533 69.1167 14.2613 69.1618 14.2724 69.2481C14.2837 69.3483 14.2977 69.4731 14.3149 69.626C14.3476 69.9718 14.3918 70.4431 14.4457 71.018C14.5492 72.1943 14.6792 73.8201 14.8016 75.6182C14.9245 77.4153 15.0143 79.0441 15.0592 80.2242C15.08 80.8143 15.0956 81.2922 15.098 81.6223C15.0984 81.7762 15.0991 81.9022 15.0994 82.0029C15.0984 82.0899 15.0958 82.1355 15.0916 82.1357Z" fill="#263238"/>
<path d="M15.0953 82.2129C15.0974 82.2349 14.8487 82.2457 14.4765 82.3712C14.1073 82.4934 13.6146 82.7567 13.2299 83.2123C12.8458 83.6687 12.6694 84.1993 12.6118 84.5838C12.5511 84.9717 12.5825 85.2189 12.5605 85.2203C12.5529 85.2213 12.5371 85.161 12.5241 85.0492C12.5106 84.9374 12.5055 84.7736 12.5255 84.5722C12.5626 84.1731 12.7326 83.6122 13.1358 83.1332C13.5394 82.6546 14.0637 82.3923 14.4508 82.288C14.6457 82.2341 14.8081 82.2114 14.9204 82.2058C15.0326 82.1996 15.095 82.2051 15.0953 82.2129Z" fill="#263238"/>
<path d="M20.7439 91.2655C20.7397 91.2657 20.7305 91.2156 20.7167 91.1199C20.7026 91.0109 20.6846 90.872 20.6626 90.7002C20.6191 90.3194 20.5591 89.7952 20.486 89.1545C20.3473 87.8341 20.1585 86.0365 19.95 84.0505C19.8808 83.3602 19.8137 82.6927 19.7517 82.0733L19.8106 82.1265C18.2954 82.1177 16.9828 82.1101 16.0308 82.1045C15.5742 82.0974 15.2048 82.0917 14.9335 82.0874C14.8151 82.0835 14.7184 82.0801 14.64 82.0775C14.5733 82.0742 14.5386 82.0709 14.5386 82.0674C14.5386 82.0636 14.5733 82.0603 14.64 82.057C14.7184 82.0544 14.8151 82.0513 14.9335 82.0473C15.2048 82.043 15.5742 82.0371 16.0308 82.03C16.9828 82.0244 18.2954 82.0168 19.8106 82.008L19.864 82.0078L19.8694 82.0615C19.933 82.6807 20.0016 83.3479 20.0725 84.038C20.267 86.0256 20.4433 87.8244 20.5725 89.1458C20.6295 89.7884 20.6763 90.3138 20.7101 90.6954C20.7229 90.8679 20.7333 91.0079 20.7413 91.1173C20.7472 91.2139 20.7482 91.265 20.7439 91.2655Z" fill="#263238"/>
<path d="M20.7422 91.4017C20.7434 91.406 20.682 91.4284 20.5638 91.4676C20.4343 91.509 20.2617 91.5641 20.045 91.6331C19.5936 91.7727 18.9389 91.9727 18.1214 92.1908C17.3042 92.4076 16.3212 92.6418 15.2107 92.7954C14.0989 92.9672 12.8431 92.9001 11.5791 92.6233C10.9459 92.4872 10.3376 92.3114 9.76115 92.111C9.47351 92.0086 9.19303 91.9032 8.9219 91.7903C8.78673 91.7328 8.65202 91.6806 8.52298 91.6109L8.32916 91.5132L8.14907 91.397C7.67357 91.0852 7.30324 90.6835 7.00925 90.2793C6.71475 89.8733 6.49167 89.4628 6.30704 89.0811C5.94521 88.3127 5.73347 87.6588 5.59235 87.2078C5.52337 86.9817 5.47159 86.8053 5.43971 86.685C5.40732 86.5648 5.39195 86.5012 5.3962 86.5C5.40023 86.4988 5.42337 86.56 5.46359 86.6777C5.50704 86.8065 5.56518 86.9779 5.63801 87.193C5.7928 87.6385 6.01662 88.2858 6.38554 89.043C6.5734 89.4188 6.79841 89.8225 7.09149 90.2188C7.38384 90.6135 7.74873 91.003 8.21101 91.3022L8.38588 91.4137L8.57357 91.5069C8.69694 91.5733 8.83233 91.6253 8.96659 91.6815C9.23602 91.7924 9.51515 91.8963 9.80085 91.9973C10.3735 92.1944 10.9774 92.3679 11.6051 92.503C12.8593 92.7772 14.0949 92.8467 15.1956 92.6831C16.3002 92.5366 17.2812 92.3121 18.0997 92.1065C18.9182 91.8997 19.5759 91.7127 20.0315 91.587C20.2509 91.5272 20.4258 91.4797 20.5567 91.444C20.6772 91.4123 20.741 91.3977 20.7422 91.4017Z" fill="#263238"/>
<path d="M16.7346 36.0071C17.2205 34.9112 16.9081 33.5326 16.0438 32.7016C15.1795 31.871 13.8373 31.6053 12.6972 31.9768C12.1874 32.1432 11.7058 32.4358 11.3912 32.8704C10.8117 33.6707 10.9246 34.8479 11.5238 35.6335C12.1229 36.4191 13.121 36.8343 14.1075 36.8889C15.0942 36.9437 16.0733 36.6729 16.9856 36.2933" fill="#263238"/>
<path d="M24.5922 73.5994C26.2451 74.9633 30.1351 78.1915 30.1351 78.1915L32.3131 77.8036L25.7148 72.2527C25.3603 71.9545 24.8351 71.9835 24.5156 72.3189C24.1649 72.6873 24.1999 73.2756 24.5922 73.5994Z" fill="#455A64"/>
<path d="M24.42 72.7679L23.5633 71.9949C23.3959 71.8437 23.3784 71.5867 23.5238 71.4142C23.6772 71.2325 23.9511 71.215 24.1265 71.3754L24.9506 72.1306L24.42 72.7679Z" fill="#455A64"/>
<path d="M26.9708 73.2203C26.9954 73.2436 26.7579 73.5348 26.44 73.8704C26.1221 74.2062 25.8445 74.4594 25.8196 74.4362C25.7951 74.4128 26.0326 74.1214 26.3504 73.7858C26.6683 73.4502 26.9463 73.1968 26.9708 73.2203Z" fill="#263238"/>
<path d="M27.0373 75.9008C27.0278 75.9143 26.773 75.7547 26.3788 75.4707C25.9849 75.1868 25.4536 74.7754 24.8946 74.2883C24.6176 74.0484 24.3366 73.8019 24.1998 73.4883C24.0625 73.177 24.0858 72.853 24.1776 72.62C24.2697 72.3829 24.4184 72.2337 24.5268 72.1503C24.6382 72.0666 24.7117 72.0416 24.7148 72.0478C24.7197 72.0563 24.655 72.0955 24.558 72.1867C24.4633 72.2777 24.334 72.4276 24.2596 72.6495C24.1849 72.8676 24.174 73.164 24.3031 73.4417C24.4309 73.7218 24.6966 73.9548 24.9752 74.1951C25.5318 74.6804 26.052 75.1003 26.4316 75.4012C26.8109 75.702 27.0477 75.8864 27.0373 75.9008Z" fill="#263238"/>
<path d="M19.8853 82.9484C21.4525 82.4219 23.1177 82.7764 24.6849 82.25C25.2105 82.0735 25.7514 81.8882 26.1657 81.5198C26.6638 81.0776 26.9168 80.4279 27.3139 79.8933C28.5001 78.2956 30.7162 77.9647 32.6956 77.762C33.1579 77.7144 33.6313 77.6679 34.0815 77.7818C34.5319 77.8952 34.9623 78.2036 35.0888 78.6506C35.2152 79.0977 34.9267 79.6555 34.4644 79.7021C34.898 79.7212 35.2018 80.1615 35.2814 80.5883C35.3608 81.0149 35.2901 81.4569 35.3475 81.8873C35.4281 82.4918 35.7588 83.0576 35.7396 83.6671C35.7134 84.5014 35.0217 85.1887 34.2514 85.5097C33.4807 85.8308 32.6282 85.8724 31.8015 85.9887C27.7436 86.5597 24.6565 88.864 20.7439 90.6049" fill="#FFBE9D"/>
<path d="M35.3209 81.0436C35.4546 81.3225 35.8666 81.3847 36.1204 81.2081C36.3742 81.0314 36.4718 80.6882 36.4269 80.3821C36.3822 80.0761 36.218 79.8007 36.0355 79.5512C35.7028 79.095 35.3005 78.6949 34.8999 78.2969L33.6426 79.3493L35.3209 81.0436Z" fill="#FFBE9D"/>
<path d="M34.86 79.7376C34.8576 79.7764 34.0897 79.7132 33.16 79.8574C32.2288 79.9945 31.5139 80.2814 31.5004 80.245C31.4945 80.2308 31.6656 80.1408 31.9592 80.0335C32.252 79.9257 32.6694 79.8073 33.1416 79.7355C33.614 79.6646 34.0475 79.6544 34.3592 79.671C34.6711 79.6868 34.8614 79.7225 34.86 79.7376Z" fill="#EB996E"/>
<path d="M35.4119 82.2038C35.4046 82.2411 34.7655 82.1102 33.9693 82.1328C33.1728 82.1496 32.5411 82.3122 32.5319 82.2753C32.5208 82.2474 33.1511 82.0274 33.9663 82.0097C34.7811 81.987 35.4216 82.1754 35.4119 82.2038Z" fill="#EB996E"/>
<path d="M35.2801 81.5254C35.2605 81.5232 35.2797 81.3405 35.2456 81.0522C35.2108 80.766 35.1073 80.3699 34.8648 80.0024C34.8145 79.9237 34.7585 79.8513 34.7037 79.7833L34.668 79.7393L34.7074 79.7006C34.9691 79.4437 35.0423 79.0981 35.0341 78.8694C35.0284 78.6344 34.9634 78.4993 34.9816 78.4924C34.9899 78.486 35.0842 78.6127 35.1135 78.8639C35.1442 79.1076 35.084 79.4921 34.7923 79.7873L34.7961 79.7048C34.8551 79.776 34.915 79.8521 34.9679 79.935C35.2241 80.3236 35.3191 80.7459 35.3323 81.0447C35.3449 81.3467 35.2938 81.5282 35.2801 81.5254Z" fill="#EB996E"/>
<path d="M35.3243 81.0312L37.3864 82.9659L37.6496 84.1148L35.7431 83.6846C35.4701 82.7142 35.2685 81.7899 35.3243 81.0312" fill="#455A64"/>
<path d="M32.53 83.3184C32.488 83.394 21.405 88.8583 21.405 88.8583V90.0336L32.7148 84.1506L46.748 83.6209V82.7891L32.53 83.3184Z" fill="#F5F5F5"/>
<path d="M21.405 90.3474C21.4825 90.2945 33.6415 89.1984 33.6415 89.1984L46.7477 83.7656L32.7148 84.2955L21.405 90.1782V90.3474Z" fill="#263238"/>
<path d="M33.0489 87.3728C32.9503 86.7361 33.5603 86.1904 34.1816 86.0202C34.8032 85.8501 35.468 85.9174 36.0965 85.7744C36.4999 85.6827 36.8783 85.5067 37.2644 85.3585C39.2029 84.6145 41.3293 84.576 43.4051 84.5469C43.6622 85.1009 43.4492 85.8295 42.9343 86.1578C43.124 86.6543 43.0661 87.2203 42.8699 87.7143C42.6738 88.2083 42.3493 88.6403 42.0043 89.0444C41.7121 89.3864 41.3907 89.7218 40.9795 89.9033C40.5711 90.0836 40.1112 90.0957 39.6647 90.1054C38.2724 90.1347 36.7786 90.1356 35.6266 89.3528C34.7316 88.7445 34.1105 87.7006 33.0732 87.3917C33.1552 87.3953 33.2372 87.3983 33.3192 87.4016" fill="#FFBE9D"/>
<path d="M42.3379 86.6581C42.3379 86.6666 42.2431 86.6751 42.0713 86.6834C41.8732 86.6897 41.6303 86.6975 41.3441 86.7065C40.7301 86.7209 39.8819 86.7318 38.945 86.7365C38.4778 86.7368 38.0325 86.7368 37.6227 86.737C37.418 86.733 37.2169 86.7122 37.0387 86.6475C36.8602 86.5822 36.7118 86.4727 36.6161 86.3397C36.5192 86.2085 36.4826 86.0502 36.5057 85.9214C36.5266 85.7921 36.5882 85.6936 36.6525 85.6302C36.7889 85.5026 36.9066 85.5234 36.9016 85.5267C36.9064 85.5397 36.7979 85.539 36.6872 85.6633C36.5792 85.7779 36.4956 86.0544 36.6858 86.2879C36.7737 86.4014 36.9103 86.4964 37.0723 86.5512C37.236 86.6063 37.4242 86.6228 37.6246 86.6236C38.0334 86.6205 38.4778 86.6169 38.9443 86.6136C39.8811 86.6089 40.7296 86.6115 41.3439 86.6195C41.6301 86.6257 41.873 86.6311 42.0711 86.6354C42.2429 86.642 42.3379 86.6496 42.3379 86.6581Z" fill="#EB996E"/>
<path d="M41.6229 87.8089C41.6239 87.8174 41.5048 87.8408 41.2883 87.8744C41.0715 87.908 40.7572 87.9526 40.3663 87.9904C39.9754 88.0261 39.506 88.0554 38.9845 88.0233C38.4614 87.9959 37.8977 87.8754 37.3161 87.7427C36.1564 87.4594 35.078 87.3714 34.2973 87.3722C33.9072 87.3708 33.5912 87.3859 33.3728 87.3982C33.1544 87.4097 33.0334 87.4178 33.0322 87.4083C33.0315 87.4008 33.1507 87.3767 33.3688 87.3505C33.5867 87.3235 33.9034 87.2946 34.2967 87.2852C35.0808 87.2618 36.1772 87.3377 37.3433 87.6227C37.9257 87.7555 38.4794 87.877 38.9922 87.9103C39.5049 87.9479 39.9697 87.9283 40.3592 87.9035C40.749 87.8772 41.0642 87.8456 41.2826 87.8269C41.5007 87.8077 41.622 87.8006 41.6229 87.8089Z" fill="#EB996E"/>
<path d="M40.4627 88.9835C40.4634 88.992 40.3705 89.0088 40.2017 89.0322C40.033 89.0544 39.7884 89.0846 39.4847 89.1104C38.8797 89.1593 38.0263 89.2132 37.1021 89.0336C36.1691 88.8554 35.4435 88.3801 34.8872 88.1589C34.3311 87.919 33.951 87.894 33.9539 87.8722C33.9541 87.8663 34.0498 87.8606 34.2198 87.8862C34.3894 87.9105 34.6329 87.9689 34.9196 88.0781C35.4969 88.2849 36.2199 88.7412 37.1263 88.9128C38.0301 89.0887 38.8745 89.0504 39.4788 89.0237C39.7612 89.0081 40.0011 88.9953 40.1973 88.9845C40.3674 88.976 40.462 88.9752 40.4627 88.9835Z" fill="#EB996E"/>
<g opacity="0.2">
<path opacity="0.2" d="M37.323 82.6731C37.4405 81.8131 37.626 80.9516 38.0136 80.175C38.4014 79.3986 39.0084 78.7083 39.7987 78.3491C40.5887 77.9903 41.5708 78.0052 42.2824 78.5017C42.4967 78.6509 42.6882 78.8475 42.7777 79.0928C42.8673 79.3381 42.8375 79.6369 42.6584 79.8271C42.3973 80.1041 41.9562 80.0599 41.5755 80.0434C39.8396 79.9675 38.106 81.0121 37.362 82.5821" fill="black"/>
</g>
<g opacity="0.2">
<path opacity="0.2" d="M16.7992 81.9937C17.7382 80.3001 17.4052 78.1754 16.6846 76.3778C15.964 74.5804 14.8875 72.927 14.3373 71.0703C14.2337 74.8265 14.7839 78.5996 15.9557 82.1695" fill="black"/>
</g>
<path d="M18.4645 56.1004C18.4645 56.1004 19.6107 58.8024 23.7455 58.6304C27.8805 58.4588 28.0145 55.25 28.0145 55.25L30.7808 58.1912L28.153 63.6081L24.6227 66.2431L19.8131 64.2668L15.8508 61.1925L18.4645 56.1004Z" fill="#27AE60"/>
<g opacity="0.5">
<path opacity="0.5" d="M8.78007 67.5592C8.82261 67.6124 8.2816 68.117 7.5719 68.6865C6.86192 69.2561 6.25216 69.6744 6.20962 69.6217C6.16708 69.5686 6.70781 69.064 7.41779 68.4944C8.12755 67.9251 8.73753 67.5062 8.78007 67.5592Z" fill="#FAFAFA"/>
</g>
<path d="M10.7163 64.6044C10.695 64.6658 10.0421 64.4815 9.33559 64.0459C8.62708 63.6129 8.16713 63.114 8.21228 63.0672C8.25981 63.0143 8.7783 63.4175 9.46441 63.836C10.1479 64.2581 10.7418 64.5382 10.7163 64.6044Z" fill="#FAFAFA"/>
<path d="M14.2662 65.0173C14.322 65.0603 13.7996 65.8197 13.205 66.784C12.6073 67.7466 12.1611 68.5525 12.0975 68.5217C12.0382 68.4941 12.3903 67.6298 12.9958 66.6542C13.5983 65.6774 14.2149 64.9764 14.2662 65.0173Z" fill="#FAFAFA"/>
<path d="M11.2353 73.2241C11.1869 73.2671 10.6414 72.711 10.164 71.8845C9.68281 71.0599 9.47056 70.3105 9.53176 70.2897C9.5987 70.2649 9.90783 70.9578 10.3769 71.7612C10.8416 72.5664 11.2901 73.1787 11.2353 73.2241" fill="#FAFAFA"/>
<path d="M8.06072 77.1107C7.99334 77.1197 7.85579 76.5182 7.75369 75.7674C7.65136 75.0163 7.623 74.3999 7.69039 74.3907C7.75772 74.3815 7.89527 74.983 7.99759 75.7343C8.09992 76.4854 8.12805 77.1015 8.06072 77.1107Z" fill="#FAFAFA"/>
<g opacity="0.5">
<path opacity="0.5" d="M11.0486 78.2693C10.9897 78.235 11.2934 77.6019 11.7268 76.8548C12.1603 76.1077 12.5592 75.5297 12.6181 75.5639C12.6769 75.5978 12.3732 76.2311 11.9398 76.9784C11.5064 77.7253 11.1074 78.3036 11.0486 78.2693Z" fill="#FAFAFA"/>
</g>
<path d="M7.57966 82.3395C7.53049 82.3837 7.00349 81.8671 6.49203 81.1193C5.97825 80.3729 5.68613 79.6953 5.74472 79.6653C5.80689 79.6325 6.19044 80.2472 6.69504 80.9801C7.19702 81.7142 7.63259 82.2936 7.57966 82.3395Z" fill="#FAFAFA"/>
<path d="M12.2937 81.6201C12.3422 81.6679 11.7995 82.2939 11.0822 83.0176C10.3645 83.742 9.7438 84.29 9.69536 84.2423C9.64715 84.1944 10.1896 83.5685 10.9073 82.8446C11.6246 82.1205 12.2455 81.5721 12.2937 81.6201Z" fill="#FAFAFA"/>
<g opacity="0.5">
<path opacity="0.5" d="M9.61062 90.2908C9.56598 90.3381 9.04295 89.9013 8.56581 89.2171C8.08555 88.5348 7.85367 87.8941 7.91323 87.8683C7.97755 87.8381 8.30132 88.4145 8.7674 89.0758C9.22967 89.7394 9.66076 90.2407 9.61062 90.2908" fill="#FAFAFA"/>
</g>
<path d="M15.6947 88.4606C15.7284 88.5197 15.1473 88.9146 14.3972 89.3421C13.6465 89.7704 13.0113 90.0694 12.9775 90.0102C12.9439 89.9511 13.5246 89.5565 14.2752 89.1285C15.0254 88.7007 15.6609 88.4015 15.6947 88.4606Z" fill="#FAFAFA"/>
<path d="M18.0687 86.5803C18.0269 86.6295 17.4741 86.2088 16.9749 85.5218C16.4722 84.8369 16.2397 84.1822 16.2995 84.1574C16.364 84.1271 16.6878 84.7152 17.1737 85.3764C17.6553 86.0405 18.1172 86.5279 18.0687 86.5803Z" fill="#FAFAFA"/>
<path d="M22.25 72.8326C22.2906 72.8869 21.6648 73.4243 20.8525 74.0327C20.0397 74.6412 19.348 75.0903 19.3073 75.0357C19.2664 74.9816 19.892 74.4441 20.7048 73.8356C21.5173 73.2274 22.2093 72.7784 22.25 72.8326Z" fill="#FAFAFA"/>
<path d="M17.8422 72.5704C17.7746 72.5636 17.7855 71.9158 17.8668 71.1243C17.9479 70.3323 18.0686 69.6963 18.1362 69.7032C18.2038 69.71 18.1927 70.3576 18.1116 71.1494C18.0303 71.9411 17.9098 72.5773 17.8422 72.5704Z" fill="#FAFAFA"/>
<g opacity="0.5">
<path opacity="0.5" d="M21.9083 67.0956C21.8705 67.1497 21.1381 66.6987 20.334 66.0114C19.5284 65.3259 18.9678 64.6738 19.0153 64.6279C19.0651 64.579 19.6976 65.1467 20.494 65.8243C21.2881 66.5035 21.9487 67.0388 21.9083 67.0956Z" fill="#FAFAFA"/>
</g>
<path d="M18.8579 60.135C18.9097 60.179 18.3928 60.8736 17.7034 61.6861C17.0137 62.4991 16.4128 63.1224 16.361 63.0784C16.3093 63.0345 16.8261 62.3398 17.5158 61.5271C18.2049 60.7143 18.8062 60.0908 18.8579 60.135Z" fill="#FAFAFA"/>
<g opacity="0.5">
<path opacity="0.5" d="M15.3616 59.4596C15.3243 59.5203 14.7961 59.2485 14.11 59.0186C13.4251 58.7839 12.8407 58.6782 12.848 58.6073C12.8515 58.5428 13.4724 58.5402 14.1889 58.7853C14.9067 59.0266 15.3981 59.4061 15.3617 59.4596" fill="#FAFAFA"/>
</g>
<path d="M24.2435 62.6331C24.1782 62.614 24.29 62.0387 24.4928 61.3483C24.6958 60.6583 24.9133 60.1142 24.9785 60.1333C25.0437 60.1525 24.9322 60.7275 24.7292 61.4178C24.5262 62.1082 24.3087 62.6522 24.2435 62.6331Z" fill="#FAFAFA"/>
<path d="M26.3645 68.1016C26.2966 68.0976 26.2737 67.5348 26.3134 66.8445C26.3531 66.1542 26.4403 65.5976 26.5082 65.6016C26.5762 65.6054 26.5989 66.1681 26.5592 66.8586C26.5195 67.5488 26.4323 68.1054 26.3645 68.1016Z" fill="#FAFAFA"/>
<path d="M29.8574 72.2235C29.8148 72.2767 29.2975 71.9314 28.7019 71.4526C28.1061 70.9738 27.658 70.5429 27.7005 70.4898C27.7431 70.4366 28.2604 70.7819 28.8562 71.2609C29.4516 71.7395 29.8999 72.1706 29.8574 72.2235Z" fill="#FAFAFA"/>
<path d="M33.582 66.3872C33.6268 66.4383 33.1653 66.919 32.5508 67.4611C31.9363 68.0033 31.4017 68.4013 31.3568 68.3505C31.3119 68.2994 31.7734 67.8187 32.3879 67.2766C33.0022 66.7344 33.537 66.3362 33.5819 66.3872" fill="#FAFAFA"/>
<g opacity="0.5">
<path opacity="0.5" d="M31.8677 63.7648C31.8316 63.8203 31.2469 63.5001 30.6178 62.9769C29.987 62.4553 29.5639 61.94 29.6119 61.8944C29.6617 61.8455 30.1555 62.2754 30.7749 62.7873C31.3925 63.3011 31.9062 63.7069 31.8677 63.7648Z" fill="#FAFAFA"/>
</g>
<path d="M36.1656 58.9639C36.2195 59.0012 35.9331 59.4907 35.4274 59.9636C34.9234 60.4393 34.4177 60.6948 34.3835 60.6388C34.3454 60.5797 34.7741 60.2422 35.2588 59.7844C35.7457 59.3293 36.1092 58.922 36.1656 58.9639Z" fill="#FAFAFA"/>
<g opacity="0.5">
<path opacity="0.5" d="M33.2135 58.4236C33.2045 58.489 32.4498 58.4354 31.5492 58.2061C30.6473 57.9795 29.9579 57.6682 29.981 57.6063C30.0049 57.5406 30.7215 57.7443 31.6092 57.9674C32.4962 58.1931 33.2239 58.3545 33.2135 58.4236Z" fill="#FAFAFA"/>
</g>
<g opacity="0.5">
<path opacity="0.5" d="M38.6989 66.2428C38.6344 66.2288 38.7816 65.3055 39.1189 64.2058C39.4538 63.1051 39.8475 62.2572 39.909 62.2818C39.9742 62.3073 39.6861 63.1874 39.3543 64.2779C39.0201 65.3672 38.767 66.2579 38.6989 66.2428Z" fill="#FAFAFA"/>
</g>
<path d="M39.9186 71.3015C39.8692 71.3483 39.2857 70.8104 38.6154 70.1002C37.9449 69.3897 37.4415 68.7759 37.4912 68.7294C37.5403 68.6828 38.1238 69.2207 38.7943 69.9312C39.4646 70.6414 39.968 71.2549 39.9186 71.3015Z" fill="#FAFAFA"/>
<g opacity="0.5">
<path opacity="0.5" d="M41.8024 74.331C41.7344 74.3296 41.6925 73.5551 41.7089 72.601C41.7251 71.6466 41.7934 70.8738 41.8615 70.875C41.9293 70.8762 41.9711 71.6507 41.9551 72.605C41.9388 73.5593 41.8705 74.3322 41.8024 74.331Z" fill="#FAFAFA"/>
</g>
<path d="M39.8888 79.2464C39.8356 79.2849 39.3284 78.6652 38.8614 77.8C38.3918 76.9357 38.1501 76.1723 38.2113 76.1492C38.2765 76.1227 38.6159 76.8331 39.0779 77.6827C39.5369 78.5333 39.9465 79.206 39.8888 79.2464Z" fill="#FAFAFA"/>
<path d="M44.7684 80.0596C44.8159 80.1082 44.4881 80.5055 44.0362 80.9467C43.5844 81.388 43.1795 81.7064 43.132 81.6577C43.0845 81.6092 43.4123 81.2119 43.8642 80.7707C44.3161 80.3294 44.7209 80.0111 44.7684 80.0596Z" fill="#FAFAFA"/>
<g opacity="0.5">
<path opacity="0.5" d="M32.8833 74.4983C32.8229 74.4799 33.04 73.7047 33.6002 72.898C34.1555 72.0879 34.8034 71.6097 34.8422 71.6598C34.8906 71.714 34.337 72.2571 33.8027 73.0377C33.2625 73.8141 32.9512 74.5245 32.8833 74.4983Z" fill="#FAFAFA"/>
</g>
<path d="M19.1041 80.9887C19.0382 80.9726 19.1545 80.2692 19.3642 79.4182C19.5735 78.5669 19.7969 77.8903 19.8628 77.9065C19.929 77.9226 19.8127 78.6257 19.6031 79.477C19.3937 80.3281 19.1701 81.0047 19.1041 80.9887Z" fill="#FAFAFA"/>
<path d="M24.9081 81.492C24.871 81.5489 24.2825 81.231 23.5938 80.782C22.9048 80.333 22.3769 79.9229 22.414 79.866C22.451 79.809 23.0393 80.1269 23.7282 80.5759C24.417 81.0248 24.9451 81.435 24.9081 81.492Z" fill="#FAFAFA"/>
<path d="M24.619 77.3037C24.5625 77.3415 24.2858 77.0267 24.0012 76.6006C23.7164 76.1747 23.5314 75.7987 23.5881 75.7609C23.6444 75.7233 23.9211 76.0378 24.2059 76.4637C24.4904 76.8898 24.6755 77.2658 24.619 77.3037Z" fill="#FAFAFA"/>
<path d="M27.1776 78.3084C27.2168 78.3639 26.968 78.6059 26.6224 78.8486C26.2764 79.0913 25.9647 79.2431 25.9257 79.1875C25.8865 79.1317 26.1351 78.89 26.4808 78.6473C26.8266 78.4043 27.1386 78.2528 27.1776 78.3084Z" fill="#FAFAFA"/>
<g opacity="0.5">
<path opacity="0.5" d="M20.4918 95.3721C20.4249 95.3517 20.5341 94.8153 20.6312 94.1528C20.7314 93.4904 20.7834 92.9453 20.8534 92.9453C20.9193 92.9444 20.9777 93.5057 20.8747 94.1889C20.774 94.8724 20.5544 95.3926 20.4918 95.3721Z" fill="#FAFAFA"/>
</g>
<g opacity="0.5">
<path opacity="0.5" d="M26.3819 93.3585C26.3228 93.3923 25.8743 92.715 25.3796 91.8462C24.8852 90.9772 24.5324 90.2454 24.5914 90.2122C24.6505 90.1783 25.0991 90.8554 25.5937 91.7245C26.0882 92.5933 26.441 93.325 26.3819 93.3585Z" fill="#FAFAFA"/>
</g>
<g opacity="0.5">
<path opacity="0.5" d="M32.6293 90.7984C32.6835 90.8398 32.0912 91.7048 31.3068 92.73C30.5221 93.7559 29.8427 94.5536 29.7886 94.5123C29.7347 94.4708 30.3267 93.6064 31.1114 92.5804C31.8958 91.5551 32.5755 90.757 32.6293 90.7984Z" fill="#FAFAFA"/>
</g>
<g opacity="0.5">
<path opacity="0.5" d="M34.3892 95.9026C34.3991 95.9699 33.6166 96.1386 32.6422 96.2797C31.6673 96.4206 30.8692 96.4804 30.8595 96.413C30.8498 96.3459 31.6318 96.1769 32.6067 96.0361C33.5814 95.8952 34.3795 95.8354 34.3892 95.9026Z" fill="#FAFAFA"/>
</g>
<path d="M34.6626 93.2681C34.5941 93.2527 34.6558 92.7484 34.6811 92.1289C34.7097 91.5095 34.6922 91.0018 34.7617 90.9923C34.8265 90.9817 34.9564 91.4943 34.9271 92.1398C34.9002 92.7847 34.7262 93.2841 34.6626 93.2681Z" fill="#FAFAFA"/>
<path d="M26.2277 96.2024C26.2041 96.2627 25.5652 96.0502 24.899 95.5688C24.2299 95.0906 23.8253 94.553 23.8749 94.5114C23.9274 94.4632 24.3982 94.9087 25.0427 95.3691C25.6841 95.8332 26.2568 96.1374 26.2277 96.2024" fill="#FAFAFA"/>
<path d="M16.2037 95.8833C16.1378 95.8667 16.2167 95.3269 16.3803 94.6774C16.5436 94.0277 16.7295 93.5149 16.7955 93.5317C16.8614 93.548 16.7822 94.0877 16.6189 94.7375C16.4554 95.3867 16.2697 95.8998 16.2037 95.8833Z" fill="#FAFAFA"/>
<path d="M15.1187 36.1105C15.134 36.0911 15.4026 36.3223 15.8972 36.5938C16.1432 36.7318 16.4514 36.8672 16.8026 36.989C17.1567 37.1036 17.5554 37.2003 17.9817 37.2523C18.4088 37.2985 18.8191 37.295 19.1899 37.2638C19.5597 37.2251 19.8907 37.1632 20.1615 37.0847C20.7051 36.9327 21.0189 36.7687 21.0296 36.7909C21.0334 36.7987 20.957 36.8425 20.8147 36.9157C20.7441 36.9535 20.6562 36.9967 20.5495 37.0362C20.4435 37.0771 20.3248 37.1308 20.1863 37.1681C19.914 37.2586 19.5785 37.3309 19.2015 37.3765C18.8235 37.4148 18.404 37.4217 17.9676 37.3744C17.5317 37.3215 17.125 37.2191 16.7658 37.0963C16.4091 36.966 16.0988 36.8195 15.8542 36.6694C15.7277 36.6016 15.6245 36.5224 15.5304 36.4584C15.4354 36.3958 15.3598 36.3338 15.2995 36.2809C15.1775 36.1771 15.1133 36.1171 15.1187 36.1105" fill="#455A64"/>
<path d="M21.2186 38.7176C21.2203 38.7257 21.129 38.7547 20.961 38.7972C20.7932 38.8401 20.5486 38.8954 20.243 38.9487C19.6356 39.0523 18.7628 39.1553 17.8219 38.9629C16.8797 38.7677 16.1264 38.2541 15.7301 37.7706C15.529 37.53 15.4018 37.3079 15.334 37.1472C15.265 36.9869 15.2413 36.8931 15.2475 36.8909C15.2728 36.878 15.3846 37.258 15.7956 37.7132C16.1969 38.1681 16.9324 38.6529 17.847 38.8424C18.7633 39.0301 19.6229 38.9438 20.2295 38.8628C20.5347 38.8207 20.7809 38.7786 20.9513 38.7504C21.1217 38.7224 21.2167 38.7091 21.2186 38.7176Z" fill="#455A64"/>
<path d="M12.8069 53.2846C12.8053 53.286 12.7949 53.2749 12.7757 53.252C12.7577 53.2286 12.7273 53.1955 12.6954 53.1466C12.6327 53.049 12.551 52.8928 12.507 52.6734C12.4139 52.2426 12.5108 51.5395 13.0265 50.9177C13.2829 50.6116 13.6265 50.3368 14.0151 50.0839C14.4024 49.828 14.8385 49.593 15.2653 49.3052C15.6879 49.0161 16.1145 48.6654 16.404 48.1934C16.5475 47.9585 16.6496 47.6933 16.6869 47.4123C16.7266 47.1315 16.7047 46.8396 16.6415 46.5527C16.5125 45.9763 16.2537 45.4479 16.0429 44.9227C15.8259 44.4014 15.6565 43.8618 15.6435 43.3316C15.6002 42.2686 15.9965 41.35 16.4541 40.7121C16.9166 40.0628 17.4579 39.6845 17.848 39.4834C17.9461 39.4363 18.0343 39.3943 18.1128 39.3564C18.1898 39.3295 18.2574 39.3058 18.3158 39.2855C18.4256 39.2482 18.4838 39.231 18.485 39.2349C18.4862 39.239 18.4306 39.2643 18.3243 39.3087C18.2676 39.3321 18.2023 39.359 18.1276 39.39C18.0513 39.4302 17.966 39.4753 17.8707 39.5254C17.4926 39.7369 16.9693 40.1196 16.525 40.7624C16.0854 41.3939 15.7082 42.2958 15.7567 43.3267C15.7728 43.8405 15.9375 44.3583 16.1547 44.8771C16.365 45.398 16.6276 45.9293 16.7616 46.5265C16.8271 46.8238 16.8507 47.1313 16.8084 47.4293C16.7682 47.7271 16.6583 48.0103 16.507 48.256C16.2007 48.7512 15.7597 49.1078 15.3286 49.3992C14.8926 49.6892 14.4563 49.9198 14.0706 50.1694C13.684 50.4159 13.3458 50.6807 13.0927 50.9746C12.5869 51.5665 12.4777 52.2457 12.5543 52.6649C12.6304 53.0958 12.8258 53.2763 12.8069 53.2846Z" fill="#455A64"/>
<path d="M19.1032 53.3714C19.1011 53.3752 19.0545 53.3487 18.9664 53.2944C18.8853 53.2324 18.7622 53.1341 18.6615 52.9626C18.5577 52.7945 18.4748 52.5605 18.4488 52.2814C18.423 52.0021 18.4544 51.6799 18.5518 51.3417C18.7437 50.6479 19.3237 50.0165 19.759 49.2239C19.9753 48.8273 20.1298 48.3681 20.1142 47.8775C20.106 47.3885 19.9576 46.8905 19.7347 46.4185C19.2856 45.4682 18.5955 44.7129 18.1188 43.9221C17.8775 43.5286 17.6802 43.1306 17.5613 42.734C17.4351 42.3382 17.4122 41.9439 17.4453 41.5946C17.5117 40.888 17.8378 40.3718 18.1335 40.1168C18.2847 39.9903 18.418 39.9138 18.5124 39.8733C18.608 39.8348 18.6586 39.8169 18.6601 39.8209C18.6688 39.8367 18.4506 39.8939 18.1656 40.152C17.8884 40.4108 17.5856 40.9156 17.532 41.6024C17.5055 41.9427 17.5325 42.3218 17.6587 42.7037C17.7787 43.0883 17.9749 43.4759 18.2153 43.8623C18.4568 44.2487 18.7432 44.6346 19.0344 45.0409C19.3263 45.4458 19.6181 45.8813 19.846 46.3661C20.0738 46.8487 20.2277 47.3637 20.2348 47.8756C20.2499 48.3894 20.083 48.8746 19.8588 49.278C19.4064 50.0846 18.8278 50.7034 18.6352 51.367C18.5355 51.6934 18.4986 52.0058 18.5173 52.2758C18.5362 52.5463 18.6092 52.773 18.7028 52.938C18.8935 53.2745 19.1195 53.3546 19.1032 53.3714Z" fill="#455A64"/>
<path d="M28.4272 35.5213C28.425 35.5251 28.3945 35.512 28.3378 35.4837C28.2816 35.4544 28.201 35.4064 28.1038 35.3346C27.91 35.1913 27.6562 34.9413 27.4242 34.5764C27.1866 34.2145 26.9846 33.74 26.7697 33.2194C26.661 32.9594 26.545 32.6881 26.4022 32.4196C26.2531 32.1556 26.0888 31.8864 25.8804 31.6404C25.0624 30.6319 23.9613 30.0904 23.1488 29.8796C22.3253 29.6648 21.7879 29.7137 21.7896 29.6851C21.7893 29.6771 21.9212 29.6674 22.1615 29.6641C22.4007 29.674 22.751 29.6924 23.1703 29.7953C23.5879 29.898 24.078 30.0706 24.5696 30.3622C25.0591 30.6534 25.5632 31.0457 25.9758 31.5626C26.1893 31.8148 26.3575 32.0917 26.5086 32.3633C26.6532 32.6384 26.7683 32.9142 26.8746 33.1761C27.0843 33.701 27.2748 34.1701 27.4979 34.5303C27.7158 34.8933 27.9528 35.1453 28.1336 35.2972C28.3151 35.4492 28.4328 35.5114 28.4272 35.5213Z" fill="#455A64"/>
<path d="M31.7233 35.567C31.7226 35.5713 31.6791 35.5666 31.5962 35.5536C31.5129 35.5429 31.3922 35.5134 31.2411 35.4616C30.9398 35.3591 30.522 35.1326 30.1145 34.7295C29.7026 34.3326 29.3053 33.7716 28.9453 33.114C28.5752 32.4646 28.216 31.7173 27.6604 31.0671C27.1102 30.4094 26.3631 30.0176 25.6548 29.8162C24.9413 29.6134 24.2654 29.5721 23.7036 29.5557C23.1399 29.5434 22.6826 29.5671 22.3666 29.5794C22.2201 29.5848 22.0998 29.5895 22.0026 29.5931C21.9192 29.5952 21.8753 29.5945 21.875 29.59C21.8748 29.5857 21.9181 29.5786 22.0008 29.5685C22.0835 29.5586 22.2057 29.5446 22.3635 29.5314C22.6788 29.5045 23.1366 29.4676 23.7046 29.4688C24.2708 29.4742 24.9548 29.5059 25.6858 29.7072C26.4102 29.9053 27.1875 30.3092 27.7535 30.9868C28.3238 31.6549 28.6809 32.4096 29.0444 33.0587C29.397 33.7158 29.7794 34.2702 30.176 34.6678C30.5676 35.0705 30.9675 35.3021 31.2582 35.4167C31.55 35.5318 31.7261 35.5533 31.7233 35.567Z" fill="#455A64"/>
<path d="M37.3054 50.9533C37.2917 50.948 37.3659 50.7855 37.4443 50.4758C37.5226 50.1683 37.6117 49.7101 37.5864 49.1412C37.5663 48.5757 37.4313 47.8962 37.0839 47.2311C36.9123 46.8986 36.6831 46.5779 36.4085 46.2752C36.1348 45.971 35.8216 45.6822 35.505 45.3796C35.1882 45.0774 34.8822 44.772 34.6291 44.4395C34.3741 44.1096 34.1656 43.7636 33.9987 43.4192C33.8305 43.0753 33.7057 42.7322 33.6178 42.4039C33.5268 42.0763 33.4698 41.7639 33.44 41.4767C33.3765 40.9022 33.4091 40.4326 33.4535 40.1142C33.472 39.9542 33.5003 39.8323 33.5185 39.7498C33.537 39.6671 33.5485 39.6241 33.5528 39.625C33.5653 39.6274 33.5289 39.8016 33.501 40.1197C33.4717 40.4371 33.4528 40.9012 33.5265 41.4664C33.5611 41.7488 33.6223 42.0555 33.7159 42.3762C33.8066 42.6979 33.9328 43.0335 34.1006 43.3696C34.2672 43.7057 34.4733 44.0436 34.7243 44.3655C34.9727 44.6896 35.2741 44.9892 35.5901 45.2908C35.9055 45.5923 36.2206 45.8838 36.4981 46.1943C36.7764 46.5035 37.0116 46.8365 37.1848 47.1791C37.5358 47.865 37.6639 48.562 37.6734 49.1386C37.6878 49.7186 37.5838 50.1818 37.4904 50.4891C37.4429 50.6432 37.3985 50.7604 37.3623 50.8372C37.3288 50.915 37.3094 50.9549 37.3054 50.9533Z" fill="#455A64"/>
<path d="M11.4163 35.3342C11.4095 35.3333 11.414 35.2499 11.4463 35.1026C11.478 34.9554 11.5482 34.746 11.6784 34.508C11.9292 34.0372 12.4933 33.4456 13.317 33.2446C14.1427 33.051 14.9134 33.3235 15.3502 33.63C15.574 33.7831 15.7314 33.938 15.8262 34.0549C15.9214 34.1717 15.9632 34.244 15.9578 34.248C15.9385 34.266 15.7503 33.9822 15.3029 33.703C14.8681 33.4247 14.1276 33.1808 13.3455 33.3644C12.5654 33.5546 12.0154 34.107 11.7538 34.5517C11.4811 35.0034 11.4416 35.3416 11.4163 35.3342Z" fill="#455A64"/>
<path d="M13.7015 36.4466C13.6866 36.4437 13.7022 36.2383 13.7674 35.9101C13.8367 35.5896 13.9562 35.1117 14.3261 34.7253C14.7116 34.3382 15.2569 34.2905 15.5788 34.4082C15.7427 34.4679 15.8567 34.5601 15.9136 34.6374C15.973 34.7133 15.9911 34.7636 15.9857 34.7666C15.9666 34.786 15.8635 34.5804 15.5525 34.4911C15.2552 34.4036 14.7572 34.4646 14.414 34.8113C14.0727 35.1658 13.9414 35.6182 13.852 35.9304C13.766 36.249 13.7199 36.4504 13.7015 36.4466Z" fill="#455A64"/>
<path d="M16.703 32.9851C16.7349 33.0073 16.3405 33.5258 16.0824 34.2724C15.8167 35.0169 15.8004 35.668 15.7614 35.6654C15.7326 35.6701 15.6929 34.9994 15.9661 34.2315C16.2329 33.462 16.6834 32.9631 16.703 32.9851Z" fill="#27AE60"/>
<path d="M54.5166 38.6027C54.5166 39.0089 54.8461 39.3381 55.2521 39.3381C55.6584 39.3381 55.9878 39.0089 55.9878 38.6027C55.9878 38.1964 55.6584 37.8672 55.2521 37.8672C54.8461 37.8672 54.5167 38.1964 54.5167 38.6027" fill="#455A64"/>
<path d="M51.5747 38.6027C51.5747 39.0089 51.9042 39.3381 52.3102 39.3381C52.7167 39.3381 53.0459 39.0089 53.0459 38.6027C53.0459 38.1964 52.7167 37.8672 52.3102 37.8672C51.9042 37.8672 51.5747 38.1964 51.5747 38.6027Z" fill="#455A64"/>
<path d="M48.6338 38.2352C48.4308 38.5871 48.5511 39.0368 48.903 39.2398C49.2549 39.4431 49.7047 39.3225 49.9079 38.9706C50.1109 38.619 49.9904 38.169 49.6387 37.966C49.2868 37.7627 48.8368 37.8832 48.6338 38.2351" fill="#455A64"/>
<path d="M52.2612 30.0581C52.2612 30.0548 52.2109 30.0539 52.1123 30.0557C52.0045 30.0586 51.8599 30.0628 51.6753 30.0681C51.5794 30.0725 51.4713 30.0725 51.3532 30.0825C51.2348 30.099 51.1062 30.1169 50.9675 30.1366C50.8278 30.1567 50.6777 30.1782 50.5177 30.2011C50.3599 30.2403 50.1923 30.2817 50.015 30.3256C49.3088 30.5074 48.4531 30.8177 47.5786 31.388C46.7044 31.9491 45.7959 32.7517 45.0585 33.8421C44.3351 34.934 43.7771 36.3079 43.6291 37.8507C43.6147 38.2369 43.5682 38.6297 43.6055 39.0289C43.6192 39.2281 43.6152 39.4306 43.6445 39.6315C43.6745 39.8322 43.705 40.0345 43.7357 40.2384C43.9002 41.0432 44.1399 41.868 44.5547 42.6359C44.9597 43.4059 45.4823 44.1383 46.1206 44.7908C46.7713 45.4299 47.5311 45.9843 48.3767 46.4116C49.22 46.8425 50.1543 47.1398 51.1268 47.2556C51.3678 47.3033 51.6143 47.3031 51.8604 47.318C52.1066 47.3343 52.3536 47.3433 52.6018 47.3315C53.0978 47.3114 53.5956 47.2492 54.0872 47.1438C55.1552 46.9167 56.1608 46.4816 57.0438 45.8997L56.954 45.9087C57.9787 46.3202 58.9844 46.7236 59.9659 47.1176L60.1441 47.1892L60.0933 47.0039C59.7895 45.8987 59.4939 44.8239 59.2079 43.7842L59.1926 43.8636C60.0377 42.7405 60.5768 41.458 60.7999 40.1846C60.9119 39.5483 60.9592 38.9133 60.9169 38.2995C60.9037 37.992 60.889 37.6888 60.8316 37.3943C60.8084 37.2464 60.7855 37.0994 60.7631 36.9535C60.7361 36.8087 60.6922 36.6685 60.6577 36.5272C60.0758 34.2609 58.68 32.5869 57.2976 31.6288C56.6056 31.1412 55.9231 30.7917 55.2979 30.5738C55.142 30.518 54.9921 30.4644 54.8475 30.4126C54.6991 30.3748 54.5565 30.3386 54.4199 30.3041C54.2836 30.2701 54.1531 30.2379 54.0288 30.207C53.903 30.1829 53.7821 30.1702 53.6686 30.1526C53.4408 30.1238 53.241 30.0843 53.0655 30.0758C52.8929 30.0699 52.7457 30.0649 52.6228 30.061C52.511 30.0584 52.4219 30.0564 52.3527 30.0548C52.2919 30.0543 52.2612 30.0555 52.2612 30.0581C52.2612 30.0607 52.2919 30.0649 52.3527 30.0706C52.4214 30.0761 52.5101 30.0829 52.6216 30.0919C52.7436 30.1002 52.8899 30.1099 53.0615 30.1217C53.2351 30.1352 53.4334 30.1791 53.6587 30.2124C54.5452 30.3748 55.8739 30.7283 57.2314 31.721C58.587 32.6793 59.9472 34.3373 60.5071 36.5652C60.54 36.7042 60.5827 36.842 60.6083 36.9845C60.6298 37.1277 60.6515 37.2719 60.6735 37.4172C60.7288 37.7065 60.7418 38.0043 60.7531 38.3061C60.7924 38.9083 60.743 39.5311 60.631 40.154C60.4078 41.4012 59.8763 42.6552 59.0458 43.753L59.0189 43.7892L59.0307 43.8327C59.3145 44.873 59.6078 45.9484 59.9094 47.0542L60.0368 46.9408C59.056 46.5459 58.0508 46.141 57.0265 45.7286L56.9793 45.7097L56.9365 45.7376C56.0726 46.306 55.0897 46.7307 54.046 46.9529C53.5655 47.0556 53.0792 47.1166 52.5942 47.1365C52.3515 47.148 52.1097 47.1391 51.8693 47.1235C51.6287 47.1091 51.3874 47.1097 51.1521 47.063C50.2011 46.9505 49.2876 46.6607 48.4625 46.2405C47.6351 45.8239 46.8906 45.2826 46.2525 44.6587C45.6267 44.0215 45.1136 43.3057 44.7144 42.5531C44.3058 41.8023 44.0692 40.9955 43.9047 40.207C43.874 40.0075 43.8433 39.8092 43.8128 39.6126C43.7835 39.4158 43.787 39.2169 43.7724 39.0218C43.7338 38.6302 43.7783 38.2447 43.7906 37.8656C43.9288 36.3509 44.4691 34.9986 45.1736 33.9189C45.8916 32.841 46.7802 32.0424 47.6379 31.4799C48.4956 30.908 49.3379 30.5903 50.0349 30.3991C50.2098 30.3526 50.3755 30.3084 50.5312 30.267C50.6895 30.2408 50.838 30.2167 50.9762 30.194C51.1138 30.1713 51.2412 30.1503 51.3584 30.1309C51.4756 30.1179 51.5827 30.1148 51.6779 30.1072C51.8616 30.0938 52.0055 30.0834 52.1128 30.0756C52.2109 30.0673 52.2612 30.0616 52.2612 30.0581Z" fill="#455A64"/>
</svg>
