<?xml version="1.0" encoding="UTF-8"?>
<svg viewBox="0 0 100 100" xmlns="http://www.w3.org/2000/svg">
<path d="m99.999 50.201c-0.0189 6.43-1.281 12.796-3.7168 18.747-0.1399 0.3416-0.3783 0.6338-0.6848 0.8396s-0.6673 0.3158-1.0364 0.316h-7.3074c-0.5638-0.0029-1.1061 0.2164-1.5096 0.6103-0.4034 0.3939-0.6356 0.9307-0.6462 1.4945 5e-3 0.5119 0.1984 1.004 0.5432 1.3824s0.8169 0.6166 1.3261 0.669h0.17c0.2738-3e-4 0.545 0.0534 0.798 0.1581s0.4829 0.2584 0.6764 0.4521c0.1935 0.1938 0.3469 0.4238 0.4513 0.6769 0.1045 0.2532 0.1579 0.5245 0.1572 0.7983 6e-4 0.2737-0.0528 0.5448-0.1573 0.7978-0.1044 0.253-0.2578 0.4829-0.4514 0.6764-0.1935 0.1936-0.4234 0.347-0.6764 0.4514-0.253 0.1045-0.5241 0.158-0.7978 0.1574h-3.4304c-0.4969-0.0084-0.9793 0.1676-1.354 0.494-0.3748 0.3264-0.6155 0.78-0.6755 1.2733-0.0049 0.0631-0.0073 0.1263-0.0073 0.1918-3e-4 0.2739 0.0534 0.5451 0.1581 0.7981s0.2584 0.4829 0.4521 0.6764c0.1938 0.1935 0.4238 0.3469 0.6769 0.4513 0.2532 0.1044 0.5244 0.1578 0.7983 0.1572 0.2453-2e-4 0.4882 0.0481 0.7147 0.1422 0.2265 0.0942 0.4322 0.2322 0.605 0.4062 0.1729 0.1741 0.3096 0.3806 0.4023 0.6077s0.1394 0.4704 0.1376 0.7156c-1e-4 0.244-0.0493 0.4853-0.1448 0.7098-0.0956 0.2244-0.2354 0.4272-0.4111 0.5964-9.342 9.2112-21.939 14.367-35.058 14.35-19.582 0-36.578-11.323-44.777-27.763-0.17206-0.3508-0.25187-0.7397-0.23188-1.13 0.01999-0.3902 0.13912-0.7689 0.34613-1.1003s0.49507-0.6046 0.83699-0.7938c0.34192-0.1891 0.72641-0.288 1.1172-0.2873h7.657c0.274 5e-4 0.5455-0.053 0.7987-0.1576 0.2533-0.1046 0.4835-0.2581 0.6774-0.4517 0.1049-0.1074 0.1985-0.2254 0.2791-0.3521 0.1923-0.299 0.3047-0.6424 0.3263-0.9973 0.0217-0.3549-0.0479-0.7094-0.2024-1.0297-0.1544-0.3202-0.3883-0.5955-0.6795-0.7996-0.2912-0.204-0.6298-0.33-0.9835-0.3658-0.0243-0.0048-0.0486-0.0073-0.0729-0.0097h-6.9748c-0.04855 0-0.09468-0.0024-0.1408-0.0049-0.39969-0.027-0.78312-0.1687-1.1044-0.4079s-0.56697-0.5659-0.70755-0.941c-0.14058-0.3752-0.17014-0.7829-0.08517-1.1743 0.08498-0.3915 0.28091-0.7503 0.56436-1.0333 0.32771-0.3294 0.75724-0.5382 1.2187-0.5924 0.08445-0.0118 0.16964-0.0175 0.2549-0.017h4.0398c0.4624-0.0557 0.893-0.2642 1.2235-0.5924 0.0358-0.0348 0.069-0.0721 0.0996-0.1116 0.2611-0.3022 0.43-0.6731 0.4864-1.0686 0.0564-0.3954-2e-3 -0.7987-0.1683-1.1619-0.1662-0.3632-0.4333-0.671-0.7695-0.8867s-0.7272-0.3303-1.1267-0.3302h-9.4219c-0.57779-4e-4 -1.1344-0.2176-1.5597-0.6087-0.42529-0.3911-0.68827-0.9276-0.73693-1.5034-0.12139-1.4299-0.18289-2.876-0.18451-4.3383-0.0090629-7.5316 1.6901-14.967 4.9695-21.747 0.11666-0.2356 0.29702-0.4337 0.52059-0.5718 0.22358-0.1382 0.48142-0.2109 0.74425-0.21h11.471c0.5367-6e-4 1.0524-0.2084 1.4397-0.5799 0.3873-0.3716 0.6162-0.8783 0.6391-1.4146 0.0228-0.5362-0.1622-1.0606-0.5164-1.4637-0.3543-0.4032-0.8505-0.6541-1.3852-0.7004h-1.612c-0.0607 0-0.119-0.0024-0.1772-0.0073-0.5265-0.0447-1.0163-0.2878-1.3704-0.6799s-0.5462-0.904-0.5372-1.4323c0.0089-0.5283 0.2182-1.0335 0.5854-1.4134 0.3671-0.3799 0.8649-0.6061 1.3926-0.633 0.0364-0.0025 0.0704-0.0025 0.1068-0.0025h10.398c0.5302-0.026 1.0303-0.2537 1.3982-0.6364 0.3678-0.3827 0.5754-0.8915 0.5804-1.4223-0.0116-0.5638-0.2444-1.1005-0.6481-1.4943-0.4038-0.3938-0.9461-0.613-1.5101-0.6105h-8.73c-0.278-2e-4 -0.5494-0.0849-0.7781-0.2428-0.2288-0.1579-0.4042-0.3817-0.5029-0.6415-0.0987-0.2599-0.1162-0.5436-0.05-0.8136s0.2129-0.5135 0.4206-0.6982c6.6257-5.8725 14.693-9.8789 23.376-11.609 8.6829-1.7302 17.67-1.122 26.04 1.7623 0.1486 0.05264 0.2739 0.15614 0.3536 0.2922s0.1088 0.29592 0.0821 0.45134c-0.0267 0.15541-0.1075 0.29638-0.2281 0.39799s-0.2733 0.15732-0.431 0.15729h-1.0342c-0.5706-0.00206-1.1191 0.22073-1.5267 0.62013-0.4076 0.39939-0.6414 0.94325-0.6509 1.5138 0.0072 0.55353 0.2321 1.082 0.626 1.4709 0.394 0.38893 0.9252 0.60708 1.4788 0.60722h9.854c1.7687-0.00799 3.4931 0.5529 4.9186 1.5999 5.2371 3.8888 9.6723 8.7544 13.061 14.328 0.1049 0.1724 0.162 0.3696 0.1657 0.5713 0.0036 0.2017-0.0464 0.4008-0.1449 0.5769s-0.2421 0.3228-0.4159 0.4252c-0.1739 0.1024-0.3718 0.1568-0.5735 0.1576h-4.9477c-0.565-0.0018-1.1079 0.2191-1.511 0.615-0.4031 0.3958-0.6339 0.9346-0.6424 1.4995 0.0073 0.5296 0.2159 1.0366 0.5834 1.418 0.3674 0.3815 0.8663 0.6088 1.3952 0.6359h5.3458c0.034 0 0.0704 0 0.1044 0.0024 0.5336 0.027 1.0363 0.258 1.4044 0.6453 0.3681 0.3872 0.5734 0.901 0.5734 1.4352 0 0.5343-0.2053 1.0481-0.5734 1.4353s-0.8708 0.6182-1.4044 0.6453c-0.0346 4e-3 -0.0695 0.0056-0.1044 0.0048h-0.9055c-0.5339 0.0264-1.0371 0.2572-1.4055 0.6445s-0.5736 0.9016-0.5731 1.4361v0.0024c-1e-4 0.2736 0.0538 0.5445 0.1584 0.7972 0.1047 0.2527 0.2581 0.4824 0.4515 0.6758 0.1935 0.1935 0.4231 0.3469 0.6759 0.4515 0.2527 0.1047 0.5236 0.1585 0.7972 0.1585h6.5038c0.2603 4e-4 0.5126 0.0896 0.7152 0.253 0.2027 0.1633 0.3435 0.391 0.3991 0.6452 0.7864 3.5814 1.176 7.2386 1.1604 10.905z" fill="#6FCF97"/>
<path d="m84.611 91.732 0.4018 0.7348c0.0418 0.0763 0.1045 0.1391 0.1808 0.1809l0.7349 0.4018c0.0716 0.0392 0.1314 0.0969 0.173 0.1671s0.0636 0.1504 0.0636 0.232-0.022 0.1618-0.0636 0.232-0.1014 0.1279-0.173 0.1671l-0.7349 0.4013c-0.0763 0.0418-0.1391 0.1045-0.1808 0.1809l-0.4018 0.7349c-0.0392 0.0716-0.0969 0.1313-0.1671 0.1729-0.0703 0.0417-0.1504 0.0636-0.232 0.0636s-0.1618-0.0219-0.232-0.0636c-0.0702-0.0416-0.1279-0.1013-0.1671-0.1729l-0.4021-0.7349c-0.0416-0.0764-0.1044-0.1392-0.1808-0.1809l-0.7349-0.402c-0.0716-0.0392-0.1313-0.0969-0.173-0.1671-0.0416-0.0703-0.0636-0.1504-0.0636-0.232 0-0.0817 0.022-0.1618 0.0636-0.232 0.0417-0.0702 0.1014-0.128 0.173-0.1671l0.8046-0.4399c0.0307-0.0169 0.0559-0.0422 0.0728-0.0729l0.4401-0.8045c0.0392-0.0717 0.097-0.1314 0.1673-0.1731 0.0703-0.0416 0.1504-0.0635 0.2321-0.0635 0.0817 1e-4 0.1618 0.0221 0.2321 0.0638 0.0702 0.0417 0.1279 0.1016 0.167 0.1733z" fill="#F2C94C"/>
<path d="m8.3755 84.899 0.40203 0.7351c0.04166 0.0762 0.10436 0.1389 0.18062 0.1806l0.73486 0.402c0.07161 0.0392 0.13137 0.0969 0.17299 0.1672 0.04162 0.0702 0.06359 0.1503 0.06359 0.232 0 0.0816-0.02197 0.1617-0.06359 0.2319-0.04162 0.0703-0.10138 0.128-0.17299 0.1672l-0.73486 0.4018c-0.07628 0.0417-0.13897 0.1045-0.18062 0.1808l-0.40203 0.7351c-0.03919 0.0716-0.09691 0.1314-0.16713 0.173-0.07023 0.0416-0.15035 0.0636-0.23199 0.0636-0.08163 0-0.16175-0.022-0.23198-0.0636-0.07022-0.0416-0.12795-0.1014-0.16713-0.173l-0.40203-0.7351c-0.04175-0.0763-0.10452-0.1391-0.18086-0.1808l-0.73487-0.4018c-0.07161-0.0392-0.13136-0.0969-0.17298-0.1672-0.04163-0.0702-0.06359-0.1503-0.06359-0.2319 0-0.0817 0.02196-0.1618 0.06359-0.232 0.04162-0.0703 0.10137-0.128 0.17298-0.1672l0.80454-0.4399c0.03062-0.0169 0.05586-0.0422 0.07283-0.0728l0.43991-0.8045c0.0391-0.0718 0.0968-0.1317 0.16705-0.1734 0.07025-0.0418 0.15044-0.0638 0.23216-0.0639 0.08171 0 0.16194 0.0219 0.23223 0.0636 0.0703 0.0416 0.12808 0.1015 0.16727 0.1732z" fill="#F2C94C"/>
<path d="m2.3534 63.458 0.40178 0.7348c0.04182 0.0763 0.10457 0.1391 0.18086 0.1809l0.73487 0.4018c0.07161 0.0392 0.13136 0.0969 0.17299 0.1671 0.04162 0.0702 0.06358 0.1504 0.06358 0.232s-0.02196 0.1617-0.06358 0.232c-0.04163 0.0702-0.10138 0.1279-0.17299 0.1671l-0.73487 0.402c-0.07634 0.0418-0.13911 0.1046-0.18086 0.1809l-0.40178 0.7349c-0.03919 0.0716-0.09692 0.1313-0.16714 0.173-0.07022 0.0416-0.15035 0.0635-0.23198 0.0635s-0.16176-0.0219-0.23198-0.0635c-0.07022-0.0417-0.12795-0.1014-0.16713-0.173l-0.40203-0.7349c-0.04169-0.0764-0.10447-0.1392-0.18086-0.1809l-0.73487-0.402c-0.071612-0.0392-0.13136-0.0969-0.17299-0.1671-0.041624-0.0703-0.063588-0.1504-0.063588-0.232s0.021964-0.1618 0.063588-0.232c0.041624-0.0702 0.10138-0.1279 0.17299-0.1671l0.80454-0.4399c0.03071-0.0169 0.05598-0.0421 0.07283-0.0729l0.44014-0.8045c0.03915-0.0717 0.09686-0.1315 0.1671-0.1732 0.07023-0.0417 0.15039-0.0637 0.23207-0.0637 0.08167 0 0.16185 0.0219 0.23211 0.0636 0.07026 0.0416 0.12801 0.1014 0.1672 0.1731z" fill="#F2C94C"/>
<path d="m72.71 3.5822 0.2823 0.51638c0.0293 0.05366 0.0734 0.09781 0.127 0.12721l0.5164 0.28234c0.0503 0.0275 0.0923 0.06804 0.1216 0.11738s0.0447 0.10565 0.0447 0.16302-0.0154 0.11368-0.0447 0.16302-0.0713 0.08988-0.1216 0.11738l-0.5164 0.28234c-0.0536 0.0294-0.0977 0.07355-0.127 0.12721l-0.2823 0.51638c-0.0276 0.05034-0.0681 0.09235-0.1175 0.12161-0.0493 0.02926-0.1057 0.04471-0.1631 0.04471-0.0573 0-0.1137-0.01545-0.163-0.04471-0.0494-0.02926-0.0899-0.07127-0.1175-0.12161l-0.2823-0.51638c-0.0293-0.05366-0.0734-0.09781-0.127-0.12721l-0.5164-0.28234c-0.0503-0.0275-0.0923-0.06804-0.1216-0.11738s-0.0447-0.10565-0.0447-0.16302 0.0154-0.11368 0.0447-0.16302 0.0713-0.08988 0.1216-0.11738l0.5652-0.30905c0.0217-0.01189 0.0396-0.02975 0.0515-0.05146l0.309-0.56542c0.0276-0.05034 0.0681-0.09235 0.1175-0.12161 0.0493-0.02926 0.1057-0.04471 0.163-0.04471 0.0574 0 0.1138 0.01545 0.1631 0.04471 0.0494 0.02926 0.0899 0.07127 0.1175 0.12161z" fill="#F2C94C"/>
<path d="m8.2566 19.532 0.28234 0.5163c0.02941 0.0537 0.07355 0.0977 0.12722 0.127l0.51637 0.2824c0.05035 0.0275 0.09237 0.068 0.12164 0.1173 0.02927 0.0494 0.04472 0.1057 0.04472 0.1631 0 0.0573-0.01545 0.1136-0.04472 0.163-0.02927 0.0493-0.07129 0.0899-0.12164 0.1174l-0.51637 0.2825c-0.05367 0.0293-0.09781 0.0734-0.12722 0.127l-0.28234 0.5164c-0.0275 0.0503-0.06804 0.0923-0.11738 0.1216s-0.10565 0.0447-0.16302 0.0447-0.11368-0.0154-0.16302-0.0447-0.08988-0.0713-0.11738-0.1216l-0.28234-0.5164c-0.0294-0.0536-0.07355-0.0977-0.12721-0.127l-0.51637-0.2825c-0.05035-0.0275-0.09237-0.0681-0.12165-0.1174-0.02927-0.0494-0.04471-0.1057-0.04471-0.163 0-0.0574 0.01544-0.1137 0.04471-0.1631 0.02928-0.0493 0.0713-0.0898 0.12165-0.1173l0.56541-0.3091c0.0217-0.0118 0.0395-0.0297 0.05122-0.0515l0.30929-0.5651c0.0275-0.0504 0.06804-0.0924 0.11738-0.1217 0.04934-0.0292 0.10565-0.0447 0.16302-0.0447s0.11368 0.0155 0.16302 0.0447c0.04934 0.0293 0.08988 0.0713 0.11738 0.1217z" fill="#F2C94C"/>
<path d="m93.405 35.819 0.2184 0.3991c0.0227 0.0408 0.0563 0.0745 0.0972 0.0971l0.3991 0.2185c0.0389 0.0213 0.0713 0.0526 0.0939 0.0908 0.0226 0.0381 0.0346 0.0816 0.0346 0.126 0 0.0443-0.012 0.0878-0.0346 0.126-0.0226 0.0381-0.055 0.0695-0.0939 0.0908l-0.3991 0.2185c-0.0409 0.0225-0.0746 0.0562-0.0972 0.0971l-0.2184 0.3991c-0.0213 0.0389-0.0526 0.0714-0.0907 0.094-0.0382 0.0226-0.0817 0.0345-0.126 0.0345s-0.0879-0.0119-0.126-0.0345-0.0694-0.0551-0.0907-0.094l-0.2185-0.3991c-0.0225-0.0409-0.0562-0.0746-0.0971-0.0971l-0.3991-0.2185c-0.0389-0.0213-0.0713-0.0527-0.094-0.0908-0.0226-0.0382-0.0345-0.0817-0.0345-0.126 0-0.0444 0.0119-0.0879 0.0345-0.126 0.0227-0.0382 0.0551-0.0695 0.094-0.0908l0.437-0.2389c0.0167-0.0092 0.0305-0.023 0.0396-0.0398l0.2391-0.437c0.0215-0.0385 0.0529-0.0706 0.0909-0.093 0.0381-0.0223 0.0814-0.034 0.1256-0.0339 0.0441 1e-4 0.0874 0.012 0.1253 0.0345 0.038 0.0225 0.0693 0.0547 0.0906 0.0934z" fill="#F2C94C"/>
<path d="m87.825 50c-0.0014 8.4199-2.8117 16.599-7.9859 23.241-5.1742 6.6425-12.417 11.369-20.58 13.431-8.1636 2.0618-16.782 1.3412-24.49-2.0476-7.7078-3.3889-14.065-9.2523-18.064-16.662 0.1923-0.2991 0.3046-0.6425 0.3263-0.9973 0.0217-0.3549-0.048-0.7094-0.2024-1.0297s-0.3884-0.5956-0.6795-0.7996c-0.2912-0.204-0.6298-0.33-0.9836-0.3658-0.6732-1.5876-1.2361-3.2196-1.6848-4.8846 0.2136-0.2459 0.3665-0.5386 0.4463-0.8544s0.0844-0.646 0.0133-0.9639-0.2158-0.6147-0.4226-0.8664c-0.2067-0.2518-0.4697-0.4514-0.7677-0.583-0.9179-5.1667-0.7507-10.468 0.4909-15.566 1.2415-5.0987 3.5303-9.8832 6.7208-14.05 3.1906-4.1663 7.213-7.6232 11.812-10.151s9.673-4.0712 14.9-4.532c5.2273-0.4608 10.493 0.1711 15.463 1.8554s9.5352 4.3842 13.405 7.9281 6.9607 7.8543 9.0751 12.657 3.2064 9.993 3.2066 15.241z" fill="#27AE60"/>
<path d="m50 75.109c13.868 0 25.11-11.242 25.11-25.11 0-13.868-11.242-25.11-25.11-25.11-13.868 0-25.11 11.242-25.11 25.11 0 13.868 11.242 25.11 25.11 25.11z" fill="#219653"/>
<path d="m84.656 63.704-0.2743 0.5013c-0.0284 0.0521-0.0712 0.0949-0.1233 0.1233l-0.5016 0.2743c-0.0489 0.0268-0.0896 0.0662-0.118 0.1141s-0.0434 0.1026-0.0434 0.1583 0.015 0.1104 0.0434 0.1583c0.0284 0.048 0.0691 0.0874 0.118 0.1141l0.5016 0.2741c0.052 0.0285 0.0948 0.0713 0.1233 0.1233l0.2743 0.5016c0.0267 0.0489 0.0661 0.0897 0.114 0.1181s0.1026 0.0434 0.1583 0.0434 0.1104-0.015 0.1583-0.0434 0.0873-0.0692 0.114-0.1181l0.2743-0.5016c0.0285-0.052 0.0713-0.0948 0.1233-0.1233l0.5016-0.2741c0.0489-0.0267 0.0896-0.0661 0.118-0.1141 0.0284-0.0479 0.0434-0.1026 0.0434-0.1583s-0.015-0.1104-0.0434-0.1583-0.0691-0.0873-0.118-0.1141l-0.5489-0.3003c-0.021-0.011-0.0384-0.0279-0.05-0.0485l-0.3003-0.5489c-0.0266-0.049-0.0659-0.0898-0.1138-0.1183-0.0478-0.0286-0.1024-0.0437-0.1581-0.0438s-0.1104 0.0147-0.1584 0.043c-0.048 0.0284-0.0875 0.0691-0.1143 0.1179z" fill="#fff"/>
<path d="m44.809 7.577-0.3693 0.67539c-0.0384 0.07012-0.0961 0.12775-0.1663 0.16605l-0.6753 0.3695c-0.0658 0.03605-0.1207 0.08912-0.1589 0.15365-0.0383 0.06454-0.0584 0.13817-0.0584 0.21318 0 0.075 0.0201 0.14863 0.0584 0.21317 0.0382 0.06454 0.0931 0.11761 0.1589 0.15365l0.6753 0.36926c0.0702 0.03838 0.1279 0.0961 0.1663 0.16633l0.3693 0.6754c0.036 0.0657 0.0891 0.1206 0.1536 0.1588 0.0646 0.0383 0.1382 0.0584 0.2132 0.0584s0.1487-0.0201 0.2132-0.0584c0.0645-0.0382 0.1176-0.0931 0.1536-0.1588l0.3695-0.6754c0.0383-0.07021 0.096-0.12793 0.1661-0.16633l0.6754-0.36829c0.0658-0.03599 0.1208-0.08904 0.159-0.15358 0.0383-0.06455 0.0585-0.1382 0.0585-0.21324s-0.0202-0.1487-0.0585-0.21324c-0.0382-0.06455-0.0932-0.1176-0.159-0.15359l-0.7393-0.40446c-0.0283-0.01555-0.0516-0.03888-0.0672-0.06724l-0.4045-0.73924c-0.0359-0.06582-0.0889-0.12077-0.1534-0.15908s-0.1381-0.05858-0.2131-0.05868-0.1487 0.01997-0.2132 0.05811c-0.0646 0.03814-0.1178 0.09295-0.1539 0.15868z" fill="#fff"/>
<path d="m60.695 13.861-0.2595 0.4744c-0.027 0.0493-0.0675 0.0898-0.1168 0.1167l-0.4746 0.2596c-0.0462 0.0253-0.0848 0.0626-0.1117 0.108-0.0268 0.0453-0.041 0.0971-0.041 0.1498s0.0142 0.1045 0.041 0.1498c0.0269 0.0454 0.0655 0.0827 0.1117 0.108l0.4746 0.2595c0.0493 0.027 0.0898 0.0675 0.1168 0.1168l0.2595 0.4741c0.0253 0.0463 0.0625 0.085 0.1079 0.1119 0.0453 0.0269 0.0971 0.0411 0.1498 0.0411 0.0528 0 0.1045-0.0142 0.1499-0.0411 0.0453-0.0269 0.0826-0.0656 0.1078-0.1119l0.2595-0.4743c0.027-0.0493 0.0675-0.0899 0.1168-0.1168l0.4746-0.2595c0.0463-0.0254 0.0848-0.0627 0.1117-0.108 0.0269-0.0454 0.041-0.0971 0.041-0.1499 0-0.0527-0.0141-0.1044-0.041-0.1498-0.0269-0.0453-0.0654-0.0826-0.1117-0.108l-0.5195-0.284c-0.0204-0.0107-0.0373-0.0272-0.0485-0.0474l-0.2841-0.5193c-0.0254-0.0459-0.0626-0.0843-0.1078-0.111-0.0453-0.0267-0.0968-0.0408-0.1494-0.0407-0.0525 0-0.104 0.0141-0.1492 0.0408-0.0453 0.0268-0.0825 0.0652-0.1078 0.1112z" fill="#fff"/>
<path d="m22.622 21.886-0.1855 0.3399c-0.0194 0.0352-0.0483 0.0641-0.0835 0.0835l-0.3399 0.1855c-0.0331 0.0181-0.0607 0.0447-0.0799 0.0772-0.0192 0.0324-0.0294 0.0694-0.0294 0.1071s0.0102 0.0747 0.0294 0.1071 0.0468 0.0591 0.0799 0.0771l0.3399 0.1855c0.0352 0.0192 0.0642 0.0481 0.0835 0.0833l0.1855 0.3399c0.018 0.033 0.0446 0.0607 0.077 0.0799s0.0694 0.0294 0.1071 0.0294 0.0747-0.0102 0.1071-0.0294 0.059-0.0469 0.0771-0.0799l0.1857-0.3399c0.0191-0.0352 0.0481-0.0641 0.0832-0.0833l0.3399-0.1855c0.033-0.0181 0.0606-0.0448 0.0797-0.0772 0.0192-0.0324 0.0293-0.0694 0.0293-0.107 0-0.0377-0.0101-0.0747-0.0293-0.1071-0.0191-0.0324-0.0467-0.0591-0.0797-0.0772l-0.3714-0.2032c-0.0143-0.0077-0.026-0.0195-0.0338-0.0337l-0.2032-0.3712c-0.0179-0.0333-0.0445-0.061-0.0769-0.0804s-0.0695-0.0297-0.1072-0.0298c-0.0378 0-0.0749 0.0101-0.1074 0.0294-0.0325 0.0192-0.0592 0.0469-0.0772 0.08z" fill="#fff"/>
<path d="m31.454 44.365-0.1855 0.3399c-0.0192 0.0352-0.0482 0.0642-0.0835 0.0835l-0.3399 0.1855c-0.033 0.018-0.0606 0.0447-0.0799 0.0771-0.0192 0.0324-0.0293 0.0694-0.0293 0.1071s0.0101 0.0747 0.0293 0.1071c0.0193 0.0325 0.0469 0.0591 0.0799 0.0772l0.3399 0.1855c0.0353 0.019 0.0643 0.048 0.0835 0.0832l0.1855 0.3399c0.0181 0.0331 0.0447 0.0607 0.0772 0.0799 0.0324 0.0192 0.0694 0.0294 0.1071 0.0294s0.0747-0.0102 0.1071-0.0294 0.0591-0.0468 0.0771-0.0799l0.1855-0.3399c0.0193-0.0351 0.0483-0.064 0.0835-0.0832l0.3399-0.1855c0.0331-0.0181 0.0607-0.0447 0.0799-0.0772 0.0192-0.0324 0.0294-0.0694 0.0294-0.1071s-0.0102-0.0747-0.0294-0.1071-0.0468-0.0591-0.0799-0.0771l-0.3712-0.203c-0.0142-0.0079-0.0259-0.0197-0.0337-0.034l-0.2032-0.3712c-0.018-0.0333-0.0446-0.0611-0.0771-0.0805-0.0324-0.0194-0.0695-0.0297-0.1073-0.0298-0.0379-1e-4 -0.075 0.0101-0.1075 0.0294-0.0326 0.0193-0.0593 0.047-0.0774 0.0802z" fill="#fff"/>
<path d="m65.18 25.934-0.1855 0.3399c-0.0192 0.0352-0.0482 0.0641-0.0835 0.0833l-0.3399 0.1855c-0.033 0.0181-0.0606 0.0447-0.0799 0.0771-0.0192 0.0324-0.0293 0.0694-0.0293 0.1071s0.0101 0.0747 0.0293 0.1071c0.0193 0.0325 0.0469 0.0591 0.0799 0.0772l0.3399 0.1855c0.0352 0.0193 0.0642 0.0483 0.0835 0.0835l0.1855 0.3399c0.0181 0.033 0.0447 0.0606 0.0772 0.0799 0.0324 0.0192 0.0694 0.0293 0.1071 0.0293s0.0747-0.0101 0.1071-0.0293c0.0324-0.0193 0.0591-0.0469 0.0771-0.0799l0.1855-0.3399c0.0193-0.0352 0.0483-0.0642 0.0835-0.0835l0.3399-0.1855c0.0331-0.0181 0.0607-0.0447 0.0799-0.0772 0.0192-0.0324 0.0294-0.0694 0.0294-0.1071s-0.0102-0.0747-0.0294-0.1071-0.0468-0.059-0.0799-0.0771l-0.3714-0.203c-0.0143-0.0078-0.026-0.0195-0.0338-0.0337l-0.2029-0.3715c-0.0181-0.0332-0.0447-0.0609-0.0772-0.0803-0.0324-0.0193-0.0695-0.0295-0.1073-0.0296-0.0378 0-0.0749 0.0101-0.1074 0.0294-0.0325 0.0192-0.0593 0.0469-0.0774 0.08z" fill="#fff"/>
<path d="m79.924 41.561-0.2595 0.4744c-0.027 0.0493-0.0675 0.0898-0.1168 0.1168l-0.4744 0.2595c-0.0463 0.0253-0.0849 0.0626-0.1118 0.1079-0.027 0.0454-0.0412 0.0972-0.0412 0.1499 0 0.0528 0.0142 0.1045 0.0412 0.1499 0.0269 0.0454 0.0655 0.0827 0.1118 0.1079l0.4744 0.2593c0.0493 0.0271 0.0898 0.0677 0.1168 0.117l0.2595 0.4744c0.0253 0.0462 0.0625 0.0848 0.1079 0.1117 0.0453 0.0269 0.0971 0.0411 0.1498 0.0411s0.1044-0.0142 0.1498-0.0411c0.0453-0.0269 0.0826-0.0655 0.1079-0.1117l0.2597-0.4744c0.027-0.0493 0.0675-0.0899 0.1168-0.117l0.4744-0.2593c0.0462-0.0253 0.0848-0.0626 0.1117-0.108 0.0268-0.0453 0.041-0.0971 0.041-0.1498s-0.0142-0.1045-0.041-0.1498c-0.0269-0.0454-0.0655-0.0827-0.1117-0.108l-0.5195-0.2841c-0.02-0.0109-0.0363-0.0273-0.0471-0.0473l-0.2843-0.5193c-0.0253-0.0463-0.0625-0.0849-0.1079-0.1119-0.0453-0.0269-0.0971-0.0411-0.1498-0.0411-0.0528 0-0.1045 0.0142-0.1499 0.0411-0.0453 0.027-0.0826 0.0656-0.1078 0.1119z" fill="#fff"/>
<path d="m80.978 20.746-0.2597 0.4746c-0.0269 0.0494-0.0674 0.0899-0.1168 0.1168l-0.4744 0.2595c-0.0462 0.0253-0.0848 0.0626-0.1117 0.1079s-0.041 0.0971-0.041 0.1498 0.0141 0.1044 0.041 0.1498c0.0269 0.0453 0.0655 0.0826 0.1117 0.1079l0.4744 0.2595c0.0494 0.0269 0.0899 0.0674 0.1168 0.1168l0.2597 0.4746c0.0253 0.0462 0.0626 0.0848 0.1079 0.1117 0.0454 0.0269 0.0971 0.0411 0.1498 0.0411s0.1045-0.0142 0.1498-0.0411c0.0454-0.0269 0.0826-0.0655 0.1079-0.1117l0.2595-0.4746c0.027-0.0493 0.0675-0.0898 0.1168-0.1168l0.4744-0.2595c0.0463-0.0253 0.0849-0.0625 0.1119-0.1079 0.0269-0.0453 0.0411-0.0971 0.0411-0.1498 0-0.0528-0.0142-0.1045-0.0411-0.1499-0.027-0.0453-0.0656-0.0826-0.1119-0.1078l-0.5193-0.2843c-0.0204-0.0106-0.0373-0.027-0.0485-0.0471l-0.2841-0.5195c-0.0254-0.046-0.0626-0.0843-0.1078-0.1109-0.0453-0.0267-0.0968-0.0408-0.1493-0.0408s-0.104 0.0141-0.1492 0.0408c-0.0452 0.0266-0.0825 0.0649-0.1079 0.1109z" fill="#fff"/>
<path d="m92.507 49.41-0.2248 0.4127c-0.0235 0.0426-0.0586 0.0777-0.1013 0.101l-0.411 0.2248c-0.0401 0.0219-0.0735 0.0542-0.0968 0.0935s-0.0355 0.0841-0.0355 0.1298c0 0.0456 0.0122 0.0904 0.0355 0.1297s0.0567 0.0716 0.0968 0.0935l0.411 0.2248c0.0427 0.0234 0.0778 0.0585 0.1013 0.1012l0.2248 0.411c0.0219 0.0401 0.0541 0.0735 0.0934 0.0968s0.0841 0.0356 0.1298 0.0356c0.0456 0 0.0905-0.0123 0.1297-0.0356 0.0393-0.0233 0.0716-0.0567 0.0935-0.0968l0.2248-0.411c0.0233-0.0427 0.0583-0.0779 0.101-0.1012l0.411-0.2248c0.0401-0.0219 0.0735-0.0542 0.0968-0.0935s0.0356-0.0841 0.0356-0.1297c0-0.0457-0.0123-0.0905-0.0356-0.1298s-0.0567-0.0716-0.0968-0.0935l-0.4498-0.2459c-0.0173-0.0095-0.0315-0.0237-0.0411-0.041l-0.2459-0.4499c-0.0217-0.0401-0.0539-0.0737-0.0931-0.0971s-0.084-0.0359-0.1296-0.0361c-0.0457-2e-4 -0.0905 0.012-0.1299 0.0351s-0.0718 0.0565-0.0938 0.0964z" fill="#fff"/>
<path d="m35.394 19.407-0.2595 0.4746c-0.027 0.0492-0.0675 0.0897-0.1167 0.1168l-0.4747 0.2595c-0.0462 0.0253-0.0848 0.0626-0.1117 0.1079-0.0268 0.0453-0.041 0.0971-0.041 0.1498s0.0142 0.1044 0.041 0.1498c0.0269 0.0453 0.0655 0.0826 0.1117 0.1079l0.4747 0.2595c0.0492 0.027 0.0898 0.0675 0.1167 0.1168l0.2595 0.4744c0.0253 0.0463 0.0625 0.0849 0.1079 0.1118 0.0453 0.027 0.0971 0.0412 0.1498 0.0412 0.0528 0 0.1046-0.0142 0.1499-0.0412 0.0453-0.0269 0.0826-0.0655 0.1078-0.1118l0.2596-0.4744c0.0269-0.0493 0.0674-0.0898 0.1167-0.1168l0.4747-0.2595c0.0462-0.0253 0.0848-0.0626 0.1117-0.1079 0.0268-0.0454 0.041-0.0971 0.041-0.1498s-0.0142-0.1045-0.041-0.1498c-0.0269-0.0453-0.0655-0.0826-0.1117-0.1079l-0.5196-0.2843c-0.0199-0.0109-0.0363-0.0272-0.0473-0.0471l-0.2841-0.5195c-0.0253-0.0463-0.0625-0.0848-0.1079-0.1117-0.0453-0.0269-0.097-0.0411-0.1498-0.0411-0.0527 0-0.1044 0.0142-0.1497 0.0411-0.0454 0.0269-0.0827 0.0654-0.108 0.1117z" fill="#fff"/>
<path d="m10.233 36.142-0.25953 0.4744c-0.02696 0.0493-0.06748 0.0898-0.11677 0.1168l-0.47462 0.2595c-0.04624 0.0253-0.08482 0.0626-0.1117 0.1079-0.02687 0.0453-0.04105 0.0971-0.04105 0.1498s0.01418 0.1044 0.04105 0.1498c0.02688 0.0453 0.06546 0.0826 0.1117 0.1079l0.47462 0.2595c0.04929 0.027 0.08981 0.0675 0.11677 0.1168l0.25953 0.4746c0.0253 0.0462 0.0626 0.0848 0.1079 0.1117s0.0971 0.0411 0.1498 0.0411 0.1044-0.0142 0.1498-0.0411c0.0453-0.0269 0.0826-0.0655 0.1079-0.1117l0.2595-0.4746c0.027-0.0493 0.0675-0.0898 0.1168-0.1168l0.4746-0.2595c0.0462-0.0253 0.0848-0.0626 0.1117-0.1079 0.0269-0.0454 0.0411-0.0971 0.0411-0.1498s-0.0142-0.1045-0.0411-0.1498-0.0655-0.0826-0.1117-0.1079l-0.5195-0.2841c-0.0201-0.0112-0.0366-0.0281-0.0474-0.0485l-0.284-0.5195c-0.0254-0.0462-0.0628-0.0847-0.1082-0.1114-0.0455-0.0268-0.0972-0.0408-0.1499-0.0407-0.0527 2e-4 -0.1044 0.0145-0.1497 0.0415s-0.0824 0.0657-0.1076 0.112z" fill="#fff"/>
<path d="m32.932 62.864 0.2823 0.5163c0.0294 0.0536 0.0734 0.0978 0.127 0.1272l0.5164 0.2824c0.0503 0.0275 0.0923 0.068 0.1216 0.1174 0.0293 0.0493 0.0447 0.1056 0.0447 0.163s-0.0154 0.1137-0.0447 0.163-0.0713 0.0899-0.1216 0.1174l-0.5164 0.2823c-0.0536 0.0295-0.0976 0.0736-0.127 0.1272l-0.2823 0.5162c-0.0275 0.0503-0.0681 0.0923-0.1174 0.1216-0.0494 0.0293-0.1057 0.0447-0.163 0.0447-0.0574 0-0.1137-0.0154-0.163-0.0447-0.0494-0.0293-0.0899-0.0713-0.1174-0.1216l-0.2826-0.5162c-0.0292-0.0537-0.0733-0.0978-0.127-0.1272l-0.5164-0.2823c-0.0503-0.0275-0.0923-0.0681-0.1216-0.1174s-0.0447-0.1056-0.0447-0.163 0.0154-0.1137 0.0447-0.163c0.0293-0.0494 0.0713-0.0899 0.1216-0.1174l0.5655-0.3093c0.0215-0.0119 0.0393-0.0297 0.0512-0.0512l0.3093-0.5654c0.0275-0.0504 0.068-0.0924 0.1174-0.1217 0.0493-0.0293 0.1056-0.0447 0.163-0.0447 0.0573 0 0.1136 0.0154 0.163 0.0447 0.0493 0.0293 0.0899 0.0713 0.1174 0.1217z" fill="#fff"/>
<path d="m72.826 83.842 0.2826 0.5163c0.0292 0.0538 0.0733 0.0979 0.127 0.1273l0.5163 0.2823c0.0504 0.0275 0.0924 0.068 0.1217 0.1174 0.0292 0.0493 0.0447 0.1056 0.0447 0.163s-0.0155 0.1137-0.0447 0.163c-0.0293 0.0494-0.0713 0.0899-0.1217 0.1174l-0.5163 0.2823c-0.0537 0.0294-0.0978 0.0735-0.127 0.1273l-0.2826 0.5161c-0.0275 0.0503-0.068 0.0924-0.1174 0.1216-0.0493 0.0293-0.1056 0.0447-0.163 0.0447s-0.1137-0.0154-0.163-0.0447c-0.0494-0.0292-0.0899-0.0713-0.1174-0.1216l-0.2823-0.5161c-0.0293-0.0537-0.0734-0.0979-0.127-0.1273l-0.5164-0.2823c-0.0503-0.0275-0.0924-0.068-0.1216-0.1174-0.0293-0.0493-0.0447-0.1056-0.0447-0.163s0.0154-0.1137 0.0447-0.163c0.0292-0.0494 0.0713-0.0899 0.1216-0.1174l0.5652-0.309c0.0217-0.012 0.0395-0.0298 0.0514-0.0515l0.3091-0.5654c0.0275-0.0504 0.068-0.0924 0.1174-0.1217 0.0493-0.0292 0.1056-0.0447 0.163-0.0447s0.1137 0.0155 0.163 0.0447c0.0494 0.0293 0.0899 0.0713 0.1174 0.1217z" fill="#fff"/>
<path d="m75.971 69.084c-0.6506-0.2425-1.3585-0.2863-2.034-0.1259-0.6756 0.1605-1.2882 0.518-1.7602 1.0271-0.472 0.5092-0.7822 1.1472-0.891 1.8329-0.1089 0.6857-0.0117 1.3883 0.2794 2.0187 0.1503 0.3217 0.2127 0.6776 0.1809 1.0313l-0.1022 0.5035c-0.0527 0.0199-0.1005 0.0508-0.1404 0.0906-0.0398 0.0398-0.0708 0.0876-0.0907 0.1402l-0.0229 0.0612c-0.0208 0.0582-0.0278 0.1204-0.0202 0.1818 0.0075 0.0613 0.0293 0.1201 0.0637 0.1714l-0.4205 1.1282c-0.0843 0.2269-0.0752 0.4779 0.0254 0.6981 0.1005 0.2202 0.2842 0.3915 0.5109 0.4764l0.1304 0.0486c0.0151 0.0982 0.052 0.1917 0.108 0.2738 0.1188 0.17 0.2878 0.2985 0.4833 0.3676 0.1196 0.0451 0.2463 0.0687 0.3742 0.0694 0.0784 3e-4 0.1566-0.01 0.2323-0.0306 0.096-0.0255 0.1851-0.0721 0.2607-0.1364l0.1301 0.0485c0.227 0.0844 0.4781 0.0752 0.6983-0.0254 0.2202-0.1007 0.3915-0.2845 0.4763-0.5113l0.4187-1.1224c0.019-0.0049 0.0376-0.0111 0.0556-0.0187 0.0483-0.0218 0.0917-0.0531 0.1278-0.0919s0.0641-0.0844 0.0825-0.1341l0.0228-0.0609c0.0187-0.0496 0.0273-0.1024 0.0254-0.1554s-0.0144-0.105-0.0366-0.1532c-0.0029-0.0065-0.0087-0.0106-0.0121-0.0167l0.253-0.4482c0.2075-0.2882 0.4877-0.5164 0.812-0.6613 0.6322-0.2865 1.1651-0.7543 1.5312-1.344s0.5489-1.2748 0.5253-1.9684c-0.0237-0.6937-0.2528-1.3648-0.6582-1.9282s-0.9689-0.9937-1.6192-1.2365v2e-4zm-2.5183 9.3817-1.719-0.6409c-0.0956-0.0359-0.173-0.1081-0.2154-0.201-0.0423-0.0928-0.0462-0.1986-0.0106-0.2943l0.3901-1.0463 2.4406 0.9099-0.3904 1.0463c-0.0358 0.0956-0.108 0.1731-0.2009 0.2155-0.0928 0.0424-0.1987 0.0463-0.2944 0.0108zm0.1532-6.6301c0.102-0.0192 0.2003-0.0542 0.2914-0.1039 0.1214-0.06 0.1743-0.0833 0.2651-0.0485 0.0908 0.0347 0.1158 0.0859 0.1684 0.2112 0.03 0.1041 0.084 0.1997 0.1577 0.2791 0.0736 0.0794 0.1648 0.1405 0.2664 0.1783 0.1015 0.0378 0.2105 0.0512 0.3181 0.0392 0.1077-0.012 0.211-0.049 0.3018-0.1082 0.1214-0.06 0.1748-0.083 0.2653-0.0486 0.0906 0.0345 0.1151 0.0857 0.168 0.2117 0.0369 0.0965 0.0886 0.1865 0.1532 0.2671-0.9161 0.984-1.6767 2.102-2.2556 3.3155l-0.5654-0.211c0.3559-1.296 0.5129-2.6387 0.4656-3.9819zm1.0733 4.5541-0.4321-0.1612c0.6316-1.287 1.4652-2.4646 2.4692-3.4881 0.0524-0.0555 0.0806-0.1295 0.0784-0.2058s-0.0347-0.1486-0.0902-0.201c-0.0555-0.0523-0.1295-0.0805-0.2058-0.0783s-0.1485 0.0346-0.2009 0.0901c-0.0105 0.011-0.0194 0.0214-0.0296 0.0323-0.0182-0.0339-0.0344-0.0689-0.0486-0.1046-0.03-0.1039-0.0839-0.1994-0.1574-0.2787-0.0735-0.0794-0.1646-0.1404-0.266-0.1781-0.1013-0.0378-0.2101-0.0513-0.3176-0.0394s-0.2108 0.0488-0.3014 0.1077c-0.1214 0.0603-0.1739 0.0836-0.2654 0.0501s-0.1156-0.0865-0.1699-0.2129c-0.0302-0.104-0.0843-0.1995-0.1579-0.2788-0.0737-0.0793-0.1649-0.1403-0.2664-0.1781-0.1014-0.0377-0.2103-0.0512-0.3179-0.0393s-0.211 0.0488-0.3018 0.1077c-0.0345 0.0175-0.0699 0.0332-0.106 0.0469 0-0.0151 0-0.0289-0.0015-0.044-0.0032-0.0763-0.0366-0.1482-0.0928-0.1998-0.0563-0.0517-0.1307-0.0789-0.207-0.0757s-0.1482 0.0366-0.1999 0.0928c-0.0517 0.0563-0.0789 0.1307-0.0757 0.207 0.0872 1.4311-0.0539 2.867-0.418 4.2538l-0.4319-0.1609 0.0971-0.4802c0.0576-0.464-0.0181-0.9347-0.2185-1.3571-0.2472-0.5355-0.3297-1.1323-0.2372-1.7148s0.3559-1.1243 0.7569-1.5569c0.4009-0.4325 0.9213-0.7362 1.4951-0.8725 0.5738-0.1364 1.1752-0.0992 1.7278 0.1068 0.5527 0.2059 1.0317 0.5714 1.3763 1.05 0.3447 0.4786 0.5394 1.0487 0.5595 1.6382 0.0201 0.5894-0.1354 1.1715-0.4466 1.6725s-0.7642 0.8982-1.3016 1.1413c-0.4286 0.1874-0.7945 0.4937-1.0546 0.8825l-0.2401 0.4265z" fill="#fff"/>
<path d="m76.152 68.6c0.0404 0.0151 0.0834 0.0221 0.1265 0.0206s0.0855-0.0115 0.1247-0.0294c0.0393-0.0179 0.0746-0.0434 0.104-0.0749 0.0294-0.0316 0.0522-0.0687 0.0673-0.1091l0.4942-1.326c0.0156-0.0405 0.023-0.0836 0.0217-0.127-0.0012-0.0433-0.011-0.086-0.0288-0.1255s-0.0433-0.0751-0.075-0.1048c-0.0316-0.0296-0.0688-0.0527-0.1094-0.0678-0.0407-0.0152-0.0839-0.0222-0.1272-0.0205-0.0433 0.0016-0.0859 0.0118-0.1253 0.0299-0.0393 0.0182-0.0747 0.044-0.104 0.0759-0.0294 0.032-0.0521 0.0694-0.0669 0.1101l-0.4943 1.326c-0.0152 0.0404-0.0222 0.0834-0.0208 0.1265 0.0015 0.0431 0.0114 0.0855 0.0293 0.1248 0.0179 0.0392 0.0434 0.0745 0.0749 0.1039 0.0316 0.0294 0.0687 0.0523 0.1091 0.0673z" fill="#fff"/>
<path d="m72.405 68.392c0.0175 0.0406 0.043 0.0773 0.0751 0.1078s0.0701 0.0541 0.1116 0.0694c0.0367 0.0135 0.0755 0.0205 0.1146 0.0206 0.0545-1e-4 0.1081-0.0137 0.1559-0.0397 0.0479-0.0259 0.0886-0.0634 0.1184-0.109 0.0298-0.0455 0.0478-0.0978 0.0524-0.1521 0.0046-0.0542-0.0044-0.1088-0.0261-0.1587l-0.5492-1.2624c-0.0358-0.0782-0.1009-0.1392-0.1812-0.1699-0.0803-0.0308-0.1695-0.0288-0.2484 0.0055-0.0788 0.0343-0.1411 0.0982-0.1734 0.1779s-0.032 0.1689 7e-4 0.2484l0.5496 1.2622z" fill="#fff"/>
<path d="m70.486 71.157c0.047-2e-4 0.0935-0.0104 0.1362-0.0301 0.0593-0.0269 0.1093-0.0707 0.1436-0.1261 0.0343-0.0553 0.0514-0.1196 0.0491-0.1846-0.0024-0.0651-0.024-0.128-0.0621-0.1807-0.0382-0.0528-0.0912-0.093-0.1522-0.1155l-1.436-0.5356c-0.0404-0.0151-0.0834-0.0221-0.1265-0.0205-0.0431 0.0015-0.0854 0.0115-0.1247 0.0294-0.0392 0.0179-0.0745 0.0433-0.1039 0.0749-0.0294 0.0315-0.0523 0.0686-0.0673 0.109-0.0151 0.0404-0.0221 0.0833-0.0206 0.1264 0.0016 0.0431 0.0116 0.0855 0.0295 0.1247s0.0433 0.0745 0.0749 0.1039c0.0315 0.0294 0.0685 0.0523 0.1089 0.0674l1.4362 0.5355c0.0367 0.0142 0.0756 0.0216 0.1149 0.0219z" fill="#fff"/>
<path d="m70.414 73.888-1.2653 0.5897c-0.0586 0.0274-0.1077 0.0715-0.1413 0.1268-0.0335 0.0552-0.0501 0.1191-0.0475 0.1837s0.0242 0.127 0.0621 0.1794 0.0904 0.0924 0.1509 0.1151h0.0015c0.0366 0.0134 0.0753 0.0203 0.1143 0.0203 0.0479 1e-4 0.0952-0.0105 0.1384-0.031l1.2651-0.5895c0.077-0.038 0.136-0.1046 0.1645-0.1856 0.0284-0.081 0.0241-0.1699-0.0122-0.2477s-0.1016-0.1383-0.1819-0.1686c-0.0803-0.0302-0.1693-0.0279-0.2479 0.0067l-7e-4 7e-4z" fill="#fff"/>
<path d="m78.863 70.908c0.0367 0.0137 0.0756 0.0206 0.1148 0.0206 0.049-1e-4 0.0975-0.011 0.1418-0.0321l1.2422-0.5947c0.077-0.0386 0.1358-0.1059 0.1637-0.1873 0.0279-0.0815 0.0227-0.1707-0.0145-0.2483-0.0373-0.0777-0.1035-0.1376-0.1844-0.167-0.081-0.0293-0.1702-0.0256-0.2486 0.0102l-1.242 0.5948c-0.0582 0.0277-0.107 0.072-0.1402 0.1272-0.0333 0.0553-0.0495 0.1192-0.0466 0.1836 0.0029 0.0645 0.0247 0.1266 0.0627 0.1787s0.0906 0.0919 0.1511 0.1143z" fill="#fff"/>
<path d="m80.71 74.392c-0.018-0.0391-0.0435-0.0742-0.0751-0.1033-0.0315-0.0292-0.0686-0.0518-0.1089-0.0667l-1.4362-0.5355c-0.0404-0.0154-0.0834-0.0225-0.1265-0.0209s-0.0855 0.0118-0.1246 0.0301c-0.0593 0.0269-0.1092 0.0708-0.1435 0.1262-0.0343 0.0553-0.0513 0.1196-0.0489 0.1847 0.0023 0.065 0.024 0.1279 0.0622 0.1807 0.0382 0.0527 0.0912 0.0928 0.1523 0.1153l1.4358 0.5354c0.0368 0.0139 0.0759 0.0211 0.1153 0.0211 0.0469-2e-4 0.0933-0.0104 0.1359-0.0299 0.0793-0.0362 0.1409-0.1024 0.1713-0.184 0.0304-0.0817 0.0271-0.1721-0.0091-0.2513v-0.0019z" fill="#fff"/>
<path d="m77.028 76.354c-0.0376-0.0761-0.1032-0.1346-0.183-0.1635-0.0798-0.0288-0.1677-0.0256-0.2452 0.0089s-0.1386 0.0977-0.1706 0.1763-0.0323 0.1666-9e-4 0.2454l0.5698 1.2738c0.0177 0.0398 0.0432 0.0757 0.075 0.1056 0.0317 0.0298 0.0691 0.053 0.11 0.0682 0.0367 0.0132 0.0754 0.0201 0.1143 0.0202 0.0546-2e-4 0.1084-0.0139 0.1563-0.04 0.048-0.0261 0.0886-0.0638 0.1184-0.1096 0.0297-0.0458 0.0475-0.0983 0.0518-0.1527s-5e-3 -0.1091-0.0271-0.159l-0.5688-1.2736z" fill="#fff"/>
<path d="m82.772 55.328c-0.5061-1e-4 -1.0051-0.1187-1.4572-0.3463-0.452-0.2276-0.8445-0.5578-1.146-0.9643s-0.5036-0.8779-0.5903-1.3765c-0.0866-0.4986-0.0553-1.0106 0.0915-1.4949 0.1467-0.4844 0.4048-0.9276 0.7536-1.2943s0.7786-0.6467 1.255-0.8175 0.9862-0.2276 1.4885-0.1661c0.5023 0.0616 0.9833 0.2399 1.4043 0.5207 0.0374 0.0306 0.062 0.074 0.0691 0.1217 0.0071 0.0478-0.0038 0.0964-0.0306 0.1366-0.0269 0.0401-0.0677 0.0688-0.1145 0.0805s-0.0963 0.0055-0.1388-0.0173c-0.5904-0.3938-1.3061-0.5536-2.0078-0.4483-0.7017 0.1052-1.3391 0.4679-1.788 1.0175-0.4488 0.5496-0.6769 1.2466-0.6399 1.9552 0.0371 0.7086 0.3366 1.378 0.8403 1.8777 0.5037 0.4998 1.1754 0.7941 1.8843 0.8256s1.4041-0.2021 1.9501-0.6552 0.9038-1.0933 1.0035-1.7958c0.0998-0.7026-0.0657-1.417-0.464-2.0043-0.0168-0.0208-0.0291-0.0449-0.0361-0.0708-7e-3 -0.0258-0.0086-0.0528-0.0047-0.0793s0.0133-0.0519 0.0275-0.0746 0.033-0.0422 0.0551-0.0573 0.0471-0.0255 0.0734-0.0305 0.0534-0.0045 0.0795 0.0015 0.0506 0.0173 0.0722 0.0332c0.0215 0.0159 0.0395 0.0361 0.0528 0.0594 0.3308 0.4874 0.5225 1.0558 0.5546 1.644s-0.0967 1.1741-0.3726 1.6946c-0.2758 0.5206-0.6883 0.9561-1.193 1.2598-0.5047 0.3038-1.0827 0.4643-1.6718 0.4643v1e-3z" fill="#fff"/>
<path d="m82.772 53.287c-0.1742-1e-4 -0.3462-0.0381-0.5042-0.1114-0.158-0.0732-0.2982-0.1799-0.4109-0.3127-0.1126-0.1328-0.1951-0.2885-0.2416-0.4564-0.0465-0.1678-0.0559-0.3437-0.0277-0.5155 0.0283-0.1719 0.0935-0.3355 0.1913-0.4796s0.2257-0.2653 0.375-0.355c0.1492-0.0898 0.3162-0.146 0.4893-0.1648s0.3483 2e-4 0.5133 0.0558c0.0219 0.01 0.0393 0.0277 0.0489 0.0498s0.0106 0.0469 0.0029 0.0697-0.0236 0.042-0.0446 0.0537-0.0456 0.0153-0.0691 0.0099c-0.2022-0.0683-0.4208-0.0707-0.6245-0.0068-0.2036 0.0639-0.3817 0.1907-0.5086 0.3623-0.127 0.1715-0.1962 0.3789-0.1978 0.5924-0.0015 0.2134 0.0647 0.4218 0.1891 0.5951 0.1245 0.1734 0.3007 0.3028 0.5034 0.3697 0.2026 0.0668 0.4213 0.0676 0.6245 0.0023 0.2031-0.0654 0.3803-0.1935 0.506-0.3659 0.1257-0.1725 0.1935-0.3804 0.1935-0.5938 0-0.0944-0.0132-0.1882-0.0391-0.279-0.0043-0.0237 3e-4 -0.0481 0.013-0.0686 0.0127-0.0204 0.0326-0.0354 0.0557-0.0421 0.0231-0.0066 0.0479-0.0045 0.0695 0.0061 0.0217 0.0106 0.0386 0.0289 0.0475 0.0512 0.0514 0.1789 0.0605 0.3673 0.0266 0.5503-0.0339 0.1831-0.1098 0.3557-0.2217 0.5044-0.112 0.1487-0.257 0.2693-0.4235 0.3524-0.1666 0.0831-0.3501 0.1264-0.5362 0.1265z" fill="#fff"/>
<path d="m90.244 46.005c-0.0185-0.0437-0.0494-0.0811-0.0889-0.1074-0.0396-0.0263-0.0859-0.0405-0.1334-0.0407l-0.9891-0.0017v-1.1551c-6e-4 -0.0475-0.0152-0.0938-0.042-0.1331-0.0267-0.0393-0.0643-0.0699-0.1083-0.088-0.0439-0.018-0.0922-0.0228-0.1389-0.0138-0.0466 0.0091-0.0896 0.0317-0.1235 0.065l-2.6044 2.6462c-0.0448 0.0452-0.0697 0.1063-0.0695 0.1699l-0.0017 1.2413-3.3441 3.3272c-0.0378 0.0464-0.057 0.1052-0.054 0.165s0.0279 0.1164 0.0701 0.1589c0.0421 0.0425 0.0985 0.068 0.1583 0.0714 0.0597 0.0035 0.1187-0.0152 0.1655-0.0525l3.3444-3.3279h1.1976c0.0321-1e-4 0.0639-0.0066 0.0936-0.0191 0.0296-0.0125 0.0565-0.0308 0.079-0.0538l2.5367-2.5889c0.0338-0.0337 0.0568-0.0766 0.0662-0.1234s0.0047-0.0954-0.0136-0.1395zm-3.8139 1.4401 2.1194-2.1538v0.704l-2.1201 2.1092 7e-4 -0.6594zm0.9529 1.0007h-0.6103l2.1179-2.1075h0.5567l-2.0643 2.1075z" fill="#fff"/>
<path d="m86.514 55.73c0.784-0.8029 1.2884-1.837 1.4384-2.9491s-0.0624-2.243-0.6057-3.2248c-0.0179-0.0344-0.0424-0.0648-0.0723-0.0896-0.0298-0.0247-0.0642-0.0432-0.1013-0.0544-0.0371-0.0111-0.076-0.0148-0.1145-0.0107-0.0385 0.0042-0.0758 0.0159-0.1097 0.0347-0.0338 0.0188-0.0636 0.0442-0.0875 0.0746-0.0239 0.0305-0.0415 0.0654-0.0517 0.1028-0.0101 0.0374-0.0127 0.0764-0.0076 0.1148 0.0052 0.0383 0.018 0.0753 0.0377 0.1086 0.5405 0.9777 0.7105 2.1174 0.479 3.2102-0.2316 1.0928-0.8493 2.0656-1.7398 2.74-0.8906 0.6744-1.9944 1.0052-3.109 0.9319-1.1147-0.0734-2.1656-0.546-2.9601-1.3313s-1.2794-1.8307-1.3657-2.9444c-0.0864-1.1138 0.2316-2.2213 0.8956-3.1197 0.6639-0.8983 1.6294-1.5273 2.7195-1.7716s2.2316-0.0875 3.2155 0.4416c0.0336 0.0196 0.0708 0.0323 0.1093 0.0373 0.0386 0.0049 0.0778 0.0021 0.1152-0.0084 0.0375-0.0105 0.0725-0.0285 0.1028-0.0527 0.0304-0.0243 0.0556-0.0545 0.0741-0.0887s0.0299-0.0718 0.0335-0.1106c0.0037-0.0387-5e-4 -0.0777-0.0123-0.1148s-0.0309-0.0714-0.0562-0.1009c-0.0253-0.0296-0.0563-0.0537-0.0911-0.071-1.1084-0.5974-2.3953-0.7744-3.6238-0.4985-1.2286 0.276-2.3161 0.9864-3.0625 2.0005s-1.1015 2.2636-0.9998 3.5187c0.1016 1.255 0.6531 2.4311 1.553 3.3119l-1.1102 1.3563c-0.0475 0.0597-0.0696 0.1356-0.0615 0.2115 0.0081 0.0758 0.0457 0.1454 0.1047 0.1937s0.1346 0.0714 0.2106 0.0644c0.0759-0.0071 0.146-0.0437 0.1951-0.102l1.0978-1.3416c0.9343 0.7342 2.0915 1.1271 3.2797 1.1136 1.1882-0.0136 2.3361-0.4328 3.2535-1.1881l1.1587 1.4161c0.0509 0.052 0.1195 0.0831 0.1922 0.0871 0.0726 4e-3 0.1442-0.0193 0.2005-0.0654 0.0564-0.0461 0.0934-0.1116 0.1038-0.1837 0.0105-0.072-0.0064-0.1454-0.0474-0.2056l-1.1805-1.4427z" fill="#fff"/>
<path d="m52.408 14.507c-0.1837 0.0514-0.3461 0.1603-0.4635 0.3107-0.1173 0.1505-0.1834 0.3345-0.1886 0.5252-0.0051 0.1908 0.0509 0.3781 0.16 0.5347 0.109 0.1565 0.2653 0.2741 0.446 0.3353l-0.3156 2.0213c-0.0432 0.0044-0.086 0.0119-0.1282 0.0224-0.1547 0.0439-0.2947 0.1289-0.4051 0.246s-0.187 0.2618-0.2217 0.4189l-1.7324-0.1058c-0.0442-0.128-0.117-0.2442-0.2128-0.3398s-0.2122-0.1681-0.3402-0.2121c-0.128-0.0439-0.2644-0.0581-0.3987-0.0415-0.1344 0.0166-0.2632 0.0636-0.3766 0.1374-0.1135 0.0738-0.2087 0.1725-0.2783 0.2886s-0.1119 0.2465-0.1236 0.3813c-0.0117 0.1349 0.0074 0.2707 0.056 0.397s0.1253 0.24 0.2244 0.3322l-0.4577 0.924c-0.1358-0.028-0.2764-0.0236-0.4102 0.0129-0.1926 0.0531-0.3619 0.169-0.4812 0.3293-0.1192 0.1603-0.1815 0.3558-0.177 0.5555 0.0046 0.1997 0.0757 0.3922 0.202 0.5469 0.1264 0.1548 0.3008 0.2629 0.4956 0.3072 0.1948 0.0444 0.3988 0.0224 0.5796-0.0624 0.1809-0.0848 0.3283-0.2275 0.4188-0.4056 0.0906-0.1781 0.119-0.3813 0.081-0.5774-0.0381-0.1961-0.1406-0.3739-0.2912-0.5051l0.4486-0.9065c0.1459 0.0362 0.2986 0.0343 0.4435-0.0054 0.1592-0.0451 0.3026-0.1335 0.4143-0.2555 0.1117-0.1219 0.1873-0.2725 0.2184-0.4349l1.7161 0.1051c0.0447 0.1433 0.1247 0.2729 0.2328 0.377 0.108 0.1041 0.2406 0.1793 0.3854 0.2186s0.2972 0.0414 0.443 0.0062c0.1459-0.0352 0.2805-0.1066 0.3914-0.2077 0.1109-0.101 0.1946-0.2284 0.2432-0.3703 0.0487-0.142 0.0607-0.2939 0.0351-0.4417-0.0257-0.1478-0.0882-0.2868-0.1817-0.4041-0.0936-0.1173-0.2153-0.209-0.3537-0.2668l0.3202-2.0592c0.0211-0.0041 0.0422-0.0051 0.0633-0.0109 0.2262-0.0657 0.4174-0.218 0.5318-0.4238 0.1145-0.2059 0.1431-0.4486 0.0796-0.6754s-0.214-0.4194-0.4187-0.5358c-0.2047-0.1165-0.4472-0.1474-0.6746-0.086h0.0012zm-4.8088 7.4637c-0.0819 0.023-0.1689 0.0211-0.2498-0.0053-0.0809-0.0265-0.1522-0.0763-0.2048-0.1433-0.0526-0.0669-0.0841-0.148-0.0907-0.2329-0.0065-0.0848 0.0123-0.1698 0.054-0.244 0.0418-0.0742 0.1046-0.1343 0.1805-0.1728 0.076-0.0385 0.1616-0.0537 0.2461-0.0435 0.0846 0.0102 0.1642 0.0452 0.2288 0.1006s0.1114 0.1288 0.1343 0.2108c0.0306 0.1099 0.0164 0.2274-0.0395 0.3269-0.0559 0.0994-0.149 0.1726-0.2589 0.2035zm1.2382-2.4444c-0.082 0.0229-0.169 0.0211-0.2499-0.0054-0.0809-0.0264-0.1522-0.0763-0.2048-0.1432-0.0526-0.067-0.0841-0.148-0.0906-0.2329-0.0066-0.0849 0.0122-0.1698 0.054-0.244 0.0417-0.0742 0.1045-0.1344 0.1805-0.1729 0.0759-0.0385 0.1615-0.0536 0.2461-0.0435 0.0845 0.0102 0.1641 0.0452 0.2287 0.1007 0.0647 0.0554 0.1114 0.1287 0.1343 0.2107 0.0304 0.1098 0.016 0.2271-0.0399 0.3263s-0.1488 0.1723-0.2584 0.2032v1e-3zm3.4388 0.0053c-0.082 0.023-0.1689 0.0212-0.2499-0.0052-0.0809-0.0264-0.1522-0.0762-0.2048-0.1432-0.0527-0.0669-0.0842-0.1479-0.0908-0.2328s0.0122-0.1699 0.0539-0.2441 0.1045-0.1344 0.1805-0.1729c0.0759-0.0386 0.1615-0.0537 0.2461-0.0436 0.0845 0.0102 0.1641 0.0452 0.2288 0.1006 0.0646 0.0554 0.1114 0.1288 0.1343 0.2107 0.0307 0.1099 0.0165 0.2275-0.0394 0.3269s-0.1489 0.1726-0.2587 0.2036zm0.4887-3.7496c-0.082 0.023-0.1689 0.0211-0.2498-0.0053-0.081-0.0265-0.1522-0.0763-0.2048-0.1433-0.0526-0.0669-0.0842-0.148-0.0907-0.2329-0.0065-0.0848 0.0123-0.1698 0.054-0.244 0.0418-0.0742 0.1046-0.1343 0.1805-0.1728 0.0759-0.0386 0.1616-0.0537 0.2461-0.0435s0.1641 0.0452 0.2288 0.1006c0.0646 0.0554 0.1113 0.1288 0.1343 0.2108 0.0306 0.1099 0.0164 0.2274-0.0395 0.3269-0.056 0.0994-0.1491 0.1726-0.2589 0.2035z" fill="#fff"/>
<path d="m54.131 12.498-5.0139 1.4037-0.229-0.8179c-0.0266-0.0866-0.0861-0.1594-0.1657-0.2028s-0.1729-0.054-0.2602-0.0296-0.1616 0.082-0.2071 0.1604c-0.0454 0.0785-0.0585 0.1715-0.0363 0.2594l0.229 0.8177-5.014 1.4037c-0.2964 0.0837-0.5476 0.2814-0.6986 0.5498-0.1511 0.2684-0.1898 0.5857-0.1076 0.8825l1.8081 6.4592c0.0838 0.2964 0.2814 0.5476 0.5499 0.6987 0.2684 0.151 0.5856 0.1897 0.8825 0.1075l2.7261-0.763-0.9604 3.348c-0.0139 0.0442-0.0187 0.0907-0.0143 0.1368s0.018 0.0909 0.04 0.1316c0.0219 0.0408 0.0518 0.0768 0.0879 0.1058 0.036 0.0291 0.0775 0.0506 0.122 0.0634s0.0911 0.0166 0.1371 0.0111 0.0904-0.0201 0.1306-0.043c0.0403-0.0229 0.0755-0.0537 0.1037-0.0904s0.0488-0.0787 0.0606-0.1235l1.0803-3.759 1.5018-0.4203 0.7441 2.6581c0.0248 0.0888 0.0839 0.164 0.1642 0.2091 0.0803 0.0452 0.1753 0.0566 0.264 0.0318 0.0887-0.0249 0.164-0.084 0.2091-0.1643 0.0452-0.0803 0.0566-0.1753 0.0317-0.264l-0.744-2.6581 1.5163-0.4243 2.8749 2.6517c0.0436 0.0403 0.0967 0.0686 0.1544 0.0825 0.0577 0.0138 0.1179 0.0127 0.175-0.0033 0.0621-0.0172 0.118-0.0515 0.1615-0.0991 0.0624-0.0677 0.0955-0.1574 0.0918-0.2495-0.0037-0.092-0.0438-0.1789-0.1115-0.2414l-2.5598-2.3611 2.7113-0.7589c0.2964-0.0837 0.5477-0.2814 0.6988-0.5498s0.1898-0.5857 0.1077-0.8826l-1.8082-6.4591c-0.0834-0.297-0.2812-0.5487-0.55-0.7001-0.2688-0.1513-0.5866-0.19-0.8838-0.1074zm2.5734 7.4531c0.0333 0.1195 0.0179 0.2473-0.043 0.3554-0.0608 0.1082-0.1621 0.1877-0.2816 0.2211l-10.697 2.9946c-0.1196 0.0334-0.2475 0.0179-0.3556-0.0429-0.1082-0.0609-0.1878-0.1622-0.2213-0.2817l-1.8081-6.4589c-0.0333-0.1195-0.0179-0.2474 0.043-0.3556 0.0608-0.1082 0.1621-0.1878 0.2816-0.2214l10.696-2.9944c0.1195-0.0333 0.2474-0.0179 0.3556 0.043 0.1081 0.0608 0.1877 0.1621 0.2212 0.2816l1.8094 6.4592z" fill="#fff"/>
<path d="m28.571 73.194h-4.3155c-0.0719 0-0.1409-0.0286-0.1917-0.0794-0.0508-0.0509-0.0794-0.1198-0.0795-0.1917v-4.3157c0-0.072 0.0286-0.141 0.0794-0.1919 0.0509-0.0509 0.1198-0.0795 0.1918-0.0796 1.2166 0.0011 2.383 0.4849 3.2432 1.3451 0.8603 0.8603 1.344 2.0267 1.3451 3.2433-1e-4 0.0356-0.0073 0.0709-0.0211 0.1038s-0.034 0.0627-0.0593 0.0878c-0.0254 0.025-0.0554 0.0449-0.0884 0.0583-0.033 0.0135-0.0684 0.0203-0.104 0.02zm-4.0446-0.5425h3.7642c-0.0672-0.9761-0.4854-1.8948-1.1773-2.5865s-1.6108-1.1096-2.5869-1.1765v3.763z" fill="#fff"/>
<path d="m27.638 76.949c-0.0362 0-0.0721-0.0074-0.1054-0.0215-0.0334-0.0141-0.0636-0.0348-0.0888-0.0608l-2.8938-2.9843c-0.0371-0.0383-0.0621-0.0865-0.072-0.1389-0.0098-0.0523-4e-3 -0.1064 0.0167-0.1555s0.0554-0.0909 0.0998-0.1204 0.0964-0.0452 0.1497-0.0453h4.2805c0.0716 0 0.1403 0.0283 0.1911 0.0787 0.0508 0.0505 0.0796 0.119 0.0801 0.1905 0 0.085 0 2.0949-1.4964 3.2046-0.0468 0.0346-0.1034 0.0531-0.1615 0.0529zm-2.2529-2.9841 2.2745 2.3457c0.8254-0.7354 1.0277-1.8405 1.0774-2.3457h-3.3519z" fill="#fff"/>
<path d="m23.456 78.292c-1.2213 0-2.3925-0.4851-3.2561-1.3487s-1.3488-2.0348-1.3488-3.2561 0.4852-2.3926 1.3488-3.2562c0.8636-0.8635 2.0348-1.3487 3.2561-1.3487h0.0525c0.0719 1e-4 0.1409 0.0287 0.1918 0.0796s0.0795 0.1199 0.0796 0.1918v4.2196l3.1213 3.0701c0.0504 0.0495 0.0795 0.1167 0.0811 0.1874 0.0016 0.0706-0.0245 0.1391-0.0726 0.1908-0.0479 0.0517-1.2064 1.2704-3.4537 1.2704zm-0.2185-8.6613c-1.0571 0.0567-2.0503 0.5238-2.7682 1.3019-0.7178 0.778-1.1036 1.8056-1.0751 2.8639 0.0285 1.0582 0.4689 2.0635 1.2276 2.8019 0.7587 0.7383 1.7756 1.1513 2.8342 1.1511 1.0298 0.0243 2.0374-0.3009 2.8586-0.9226l-2.9962-2.9453c-0.0259-0.0253-0.0463-0.0555-0.0603-0.0889-0.0139-0.0333-0.021-0.0691-0.0208-0.1053l2e-4 -4.0567z" fill="#fff"/>
<path d="m22.816 69.673-3.3478 3.2448c0.0771-0.4036 0.2164-0.7928 0.4127-1.1539l1.7688-1.7146c0.3675-0.1837 0.7607-0.3106 1.1663-0.3763z" fill="#fff"/>
<path d="m23.238 69.986v0.7563l-3.7782 3.6588c-0.042-0.2286-0.0638-0.4605-0.0651-0.6929l3.8433-3.7222z" fill="#fff"/>
<path d="m23.238 71.46v0.756l-3.4056 3.299c-0.0893-0.173-0.165-0.3526-0.2263-0.5373l3.6319-3.5177z" fill="#fff"/>
<path d="m23.238 72.935v0.756l-2.798 2.711c-0.1223-0.1351-0.2353-0.2783-0.3382-0.4288l3.1362-3.0382z" fill="#fff"/>
<path d="m23.937 74.488-2.6911 2.6044c-0.1532-0.0993-0.2992-0.2093-0.437-0.3292l2.7399-2.6569 0.3882 0.3817z" fill="#fff"/>
<path d="m24.692 75.229-2.4182 2.344c-0.1905-0.0577-0.3762-0.1303-0.5552-0.2171l2.585-2.5068 0.3884 0.3799z" fill="#fff"/>
<path d="m25.448 75.972-1.8305 1.7722c-0.0525 0.0036-0.1066 0.0036-0.161 0.0036-0.1937 0-0.3871-0.0139-0.5788-0.0415l2.183-2.1143 0.3873 0.38z" fill="#fff"/>
<path d="m26.202 76.714-0.5462 0.5317h-0.0017c-0.3791 0.1921-0.7834 0.3297-1.201 0.4088l1.3636-1.3204 0.3853 0.3799z" fill="#fff"/>
<path d="m30.821 32.722 0.2126-1.1879c2.0418-1.1661 3.5973-3.0262 4.3837-5.2421 0.0451-0.1275 0.0598-0.2637 0.0431-0.3978-0.0168-0.1341-0.0646-0.2625-0.1396-0.375s-0.1752-0.2059-0.2926-0.2729-0.2489-0.1057-0.3838-0.113c-2.348-0.1258-4.6632 0.5953-6.5245 2.0322l-1.1781-0.26c-0.0932-0.0204-0.1895-0.0219-0.2832-0.0043s-0.1829 0.0538-0.2624 0.1065l-2.5862 1.7237c-0.1312 0.0857-0.2298 0.213-0.28 0.3614s-0.0492 0.3094 3e-3 0.4572c0.0202 0.0593 0.048 0.1158 0.0828 0.168 0.0691 0.1037 0.1647 0.187 0.2769 0.2413s0.2369 0.0776 0.3611 0.0675l1.4928-0.1081c-0.1154 0.0904-0.1926 0.221-0.216 0.3657-0.0235 0.1447 0.0085 0.2929 0.0895 0.4151l0.0335 0.0502-2.2315 1.0573c-0.1209-0.2299-0.2943-0.428-0.5061-0.5784s-0.4561-0.2488-0.713-0.2871c-0.2569-0.0384-0.5192-0.0157-0.7657 0.0663-0.2465 0.0819-0.4702 0.2208-0.653 0.4053-0.1828 0.1846-0.3196 0.4096-0.3992 0.6568-0.0796 0.2473-0.0998 0.5098-0.059 0.7664 0.0408 0.2565 0.1415 0.4998 0.2938 0.7102 0.1524 0.2103 0.3522 0.3818 0.5832 0.5006 0.0119 0.265 0.0974 0.5216 0.2469 0.7408 0.1496 0.2192 0.3572 0.3924 0.5997 0.5002 0.0168 0.2905 0.1109 0.5713 0.2726 0.8133 0.2451 0.3621 0.6235 0.6126 1.0526 0.6969 0.4291 0.0842 0.8741-0.0047 1.2379-0.2473s0.6169-0.6193 0.7041-1.0478c0.0871-0.4285 0.0012-0.8741-0.2389-1.2396-0.0419-0.0617-0.0881-0.1204-0.1384-0.1755l1.8359-1.656 0.0335 0.0503c0.0816 0.1217 0.2062 0.2082 0.3488 0.2422 0.1426 0.0339 0.2927 0.0129 0.4205-0.0589l-0.6732 1.3364c-0.0571 0.1108-0.0835 0.2348-0.0765 0.3593 0.0069 0.1244 0.047 0.2447 0.1161 0.3484 0.0348 0.0522 0.0764 0.0996 0.1235 0.1411 0.1164 0.1049 0.2647 0.1678 0.421 0.1785s0.3118-0.0314 0.4414-0.1195l2.5859-1.7237c0.0793-0.0531 0.147-0.1215 0.1993-0.2012 0.0523-0.0798 0.0881-0.1692 0.1052-0.263zm3.794-7.0328c0.0477 0.0045 0.0938 0.0196 0.1349 0.0442 0.0412 0.0246 0.0763 0.0581 0.1029 0.098 0.0266 0.0398 0.0439 0.0851 0.0508 0.1326 0.0069 0.0474 0.0031 0.0958-0.0111 0.1415-0.1241 0.3464-0.2685 0.6852-0.4324 1.0146l-0.9483-1.4214c0.3673-0.0249 0.7356-0.0281 1.1032-0.0095zm-1.7305 0.0728 1.2763 1.9138c-0.8364 1.4516-2.057 2.6445-3.5275 3.4473l-0.0019 0.0012c-0.1942 0.107-0.3944 0.2074-0.6004 0.3013-0.0672 0.0309-0.1379 0.0576-0.2061 0.0869-0.1401 0.0605-0.2804 0.1214-0.4251 0.176-0.084 0.0318-0.1714 0.0593-0.2571 0.0891-0.1328 0.0462-0.2656 0.0928-0.402 0.1343-0.0942 0.0286-0.1911 0.0532-0.287 0.0794-0.1 0.0274-0.2005 0.0541-0.3022 0.0789l-1.6344-2.4505c0.0624-0.0848 0.1258-0.1676 0.1896-0.2496 0.061-0.0782 0.1214-0.1578 0.1833-0.2338 0.0906-0.1097 0.1845-0.2144 0.2785-0.3192 0.0605-0.0678 0.1197-0.1379 0.1816-0.2037 0.1049-0.1115 0.2139-0.2166 0.3226-0.3217 0.0549-0.0529 0.1076-0.1093 0.1634-0.1605 0.1609-0.1487 0.3255-0.2906 0.4938-0.4256 0.0051-0.0043 0.0102-0.0092 0.0153-0.0133 1.3067-1.0489 2.8774-1.717 4.5393-1.9308v5e-4zm-8.6708 3.7105c-0.0332 0.0023-0.0663-0.0064-0.094-0.0248-0.0278-0.0184-0.0487-0.0455-0.0595-0.0771-0.0108-0.0315-0.0109-0.0657-2e-4 -0.0973 0.0106-0.0316 0.0314-0.0587 0.0591-0.0773l2.5862-1.7237c0.017-0.0112 0.036-0.0189 0.0561-0.0226 0.02-0.0038 0.0405-0.0035 0.0604 8e-4l0.7526 0.1661c-0.0264 0.0242-0.0515 0.0485-0.0777 0.0728-0.0502 0.0459-0.0993 0.0939-0.149 0.141-0.1164 0.1107-0.2307 0.2247-0.3431 0.3419-0.0502 0.0524-0.1007 0.1046-0.1502 0.1585-0.1277 0.1388-0.2525 0.282-0.3744 0.4294-0.0257 0.0306-0.0524 0.0598-0.0777 0.0911-0.1289 0.159-0.2551 0.3221-0.3772 0.4906l-1.8114 0.1306zm0.0971 6.6255c-0.1701 0.1142-0.3689 0.1785-0.5737 0.1854-0.2049 7e-3 -0.4076-0.0437-0.5851-0.1462-0.1775-0.1024-0.3227-0.2527-0.4191-0.4335-0.0964-0.1809-0.1402-0.3852-0.1263-0.5897l0.0136-0.2185-0.2105-0.0641c-0.2016-0.0554-0.3772-0.1803-0.4956-0.3526-0.1185-0.1723-0.1723-0.381-0.1519-0.5891l0.0156-0.209-0.1962-0.0728c-0.1757-0.0651-0.3319-0.174-0.4536-0.3165-0.1218-0.1425-0.205-0.3138-0.2418-0.4975s-0.026-0.3739 0.0314-0.5522c0.0574-0.1784 0.1595-0.3392 0.2966-0.4669 0.1371-0.1278 0.3047-0.2183 0.4867-0.263 0.1819-0.0447 0.3723-0.0421 0.553 0.0076s0.3457 0.1448 0.4793 0.2762c0.1335 0.1315 0.2312 0.295 0.2837 0.4749l0.0646 0.2199 0.2282-0.0206c0.017-0.0017 0.0361-0.0029 0.056-0.0034 0.0486-0.0015 0.0972-5e-4 0.1457 0.0031 0.1515 0.0045 0.2999 0.0439 0.4336 0.1152s0.2491 0.1725 0.3372 0.2958c0.0907 0.1504 0.1412 0.3216 0.1467 0.4971 0.0055 0.1756-0.0342 0.3496-0.1154 0.5053l-0.1456 0.2802 0.1905 0.1437c0.1412 0.1048 0.2551 0.2421 0.332 0.4003 0.0769 0.1581 0.1145 0.3325 0.1098 0.5083-0.0048 0.1758-0.0518 0.3478-0.1372 0.5016-0.0853 0.1538-0.2065 0.2847-0.3531 0.3817l9e-4 -7e-4zm0.6754-2.8001c0-0.0073-0.0021-0.0141-0.0024-0.0212-0.0024-0.0371-0.0078-0.0728-0.0129-0.1099-0.0036-0.0258-0.0063-0.052-0.0111-0.0775-0.0073-0.0376-0.018-0.0743-0.0282-0.1112-0.0065-0.0242-0.0114-0.0468-0.0192-0.0699-0.0133-0.04-0.0303-0.0786-0.0485-0.1175-8e-3 -0.0184-0.0143-0.0376-0.0243-0.0558-0.0275-0.0568-0.0589-0.1116-0.0939-0.1641-0.035-0.0522-0.0734-0.1021-0.1149-0.1493-0.0136-0.0153-0.0289-0.0287-0.0429-0.0433-0.0289-0.0303-0.0581-0.0606-0.0896-0.0883-0.0182-0.0158-0.0381-0.0296-0.0571-0.0447-0.0298-0.0243-0.0597-0.0473-0.0915-0.0685-0.0211-0.014-0.0437-0.0262-0.0656-0.0393-0.0322-0.0192-0.0643-0.0381-0.0983-0.0548-0.0068-0.0037-0.0128-0.0081-0.0199-0.0112l1.7985-0.8521 0.4974 0.7458-1.4756 1.3328zm2.3243-1.1168c-0.0029 2e-3 -0.0062 0.0034-0.0097 0.0041s-0.0071 7e-4 -0.0106 0c-0.0034-7e-4 -0.0067-0.0021-0.0097-0.0041-0.0029-2e-3 -0.0054-0.0045-0.0074-0.0075l-0.0789-0.118-1.031-1.5464-0.0789-0.1183c-2e-3 -0.0029-0.0034-0.0062-0.0041-0.0097s-7e-4 -0.0071 0-0.0105c7e-4 -0.0035 0.0021-0.0068 0.0041-0.0098 2e-3 -0.0029 0.0045-0.0054 0.0075-0.0074l0.17-0.1136 1.2187 1.8276-0.17 0.1136zm0.3115 2.2658c-0.0278 0.0184-0.0609 0.0271-0.0942 0.0247-0.0332-0.0024-0.0648-0.0157-0.0897-0.0378-0.0249-0.0222-0.0418-0.0519-0.0481-0.0847-0.0062-0.0327-0.0015-0.0666 0.0135-0.0964l0.8172-1.622c0.2012-0.0485 0.3991-0.1012 0.5945-0.1587 0.0359-0.0107 0.0707-0.0243 0.1063-0.0343 0.1839-0.0563 0.3651-0.1169 0.5436-0.1818 0.0694-0.0243 0.1379-0.0522 0.2066-0.0787 0.1484-0.0574 0.295-0.1182 0.4399-0.1823 0.0665-0.0291 0.1333-0.058 0.1991-0.0886 0.0327-0.0153 0.0665-0.0286 0.099-0.0442l-0.1362 0.7604c-0.0036 0.0201-0.0112 0.0392-0.0224 0.0563-0.0111 0.017-0.0257 0.0317-0.0426 0.043l-2.5865 1.7251z" fill="#fff"/>
<path d="m30.99 28.408c0.146 0.219 0.3537 0.3898 0.5967 0.4907 0.2431 0.101 0.5106 0.1276 0.7688 0.0765s0.4954-0.1776 0.6817-0.3635 0.3132-0.4229 0.3648-0.681 0.0255-0.5257-0.075-0.7689-0.2709-0.4512-0.4896-0.5976-0.4759-0.2247-0.7391-0.2249-0.5206 0.0776-0.7395 0.2237c-0.2932 0.196-0.4967 0.5004-0.5658 0.8462-0.0692 0.3459 0.0017 0.7051 0.197 0.9988zm1.7507-1.1675c0.0848 0.1273 0.13 0.2769 0.1299 0.4298-2e-4 0.153-0.0457 0.3025-0.1308 0.4296s-0.206 0.2261-0.3474 0.2845c-0.1413 0.0585-0.2969 0.0736-0.4469 0.0437-0.15-0.03-0.2877-0.1038-0.3958-0.212-0.1081-0.1083-0.1816-0.2462-0.2113-0.3962-0.0298-0.1501-0.0143-0.3056 0.0443-0.4469 0.0587-0.1412 0.1579-0.2619 0.2851-0.3468 0.1708-0.1136 0.3797-0.1549 0.5808-0.1147s0.3781 0.1585 0.4921 0.329z" fill="#fff"/>
<path d="m73.812 33.871-0.1024-0.0199-0.2236-0.0439-0.1025-0.0202c-3.1689-0.6222-4.2409-0.8543-4.3383-2.9348-0.1027-2.1981 2.0322-3.8654 4.1939-4.5425l0.1685-0.0527 0.0915 0.1512c0.0137 0.0225 0.0319 0.0418 0.0535 0.0569 0.0217 0.015 0.0462 0.0253 0.072 0.0303l2.7212 0.5341c0.0256 5e-3 0.052 0.0047 0.0774-0.0011 0.0255-0.0057 0.0495-0.0167 0.0705-0.0322l0.1415-0.1056 0.1359 0.1127c1.748 1.443 3.0939 3.7933 2.167 5.791-0.8769 1.8893-1.9574 1.6989-5.1261 1.0767zm-0.1274-0.4831 0.1116 0.0218c3.3573 0.6526 4.0189 0.7364 4.7341-0.8045 0.8011-1.7278-0.4225-3.8601-1.9325-5.1601-0.1084 0.039-0.2254 0.0479-0.3384 0.0257l-2.7215-0.5341c-0.1133-0.0223-0.2186-0.0748-0.3047-0.1519-1.8892 0.6343-3.8277 2.1453-3.7386 4.0465 0.0791 1.6931 0.7123 1.8739 4.0557 2.5304l0.0226 0.0046 0.1117 0.0216z" fill="#fff"/>
<path d="m76.555 26.682-2.9924-0.5875-0.041-0.1255c-0.1114-0.3414-0.3445-1.1697-0.099-1.4848 0.2585-0.336 0.6872-0.1022 0.8934 0.0102 0.033 0.0177 0.0742 0.0403 0.1029 0.0541 0.0286-0.0136 0.0728-0.0379 0.1066-0.0573 0.1347-0.0985 0.2884-0.168 0.4513-0.2042s0.3316-0.0383 0.4953-0.0061c0.1638 0.0322 0.3191 0.0979 0.4562 0.193 0.1371 0.0952 0.2531 0.2177 0.3405 0.3599 0.0243 0.0308 0.0556 0.0701 0.0772 0.0934 0.0301-0.0019 0.0787-0.0075 0.1168-0.0116 0.233-0.0243 0.7186-0.0799 0.8307 0.3299 0.1061 0.3833-0.4214 1.0619-0.6533 1.3352l-0.0852 0.1013zm-2.6447-0.9774 2.4699 0.4855c0.2719-0.3416 0.4919-0.7179 0.479-0.8286-0.1149-0.0198-0.2324-0.0193-0.3471 0.0015-0.0912 0.0159-0.1842 0.0181-0.2761 0.0066-0.1342-0.0431-0.2479-0.134-0.3195-0.2554-0.0541-0.1005-0.1298-0.1876-0.2217-0.2553s-0.1976-0.1142-0.3095-0.1362c-0.112-0.022-0.2274-0.0189-0.3381 9e-3 -0.1106 0.028-0.2137 0.0801-0.3018 0.1526-0.1123 0.0852-0.2519 0.1264-0.3925 0.1158-0.089-0.0243-0.1739-0.0614-0.252-0.1103-0.0729-0.0395-0.2671-0.1456-0.3256-0.1294-0.0498 0.0945 0.0121 0.5254 0.135 0.9442z" fill="#fff"/>
<path d="m76.26 27.471-2.7215-0.5341c-0.1669-0.0315-0.3145-0.128-0.4102-0.2683-0.0958-0.1404-0.1318-0.313-0.1003-0.4799s0.128-0.3145 0.2684-0.4102c0.1403-0.0958 0.3129-0.1318 0.4798-0.1003l2.7365 0.5372c0.165 0.0348 0.3097 0.1329 0.403 0.2733 0.0934 0.1404 0.1279 0.3118 0.0961 0.4774-0.0334 0.1664-0.1313 0.3129-0.2722 0.4075-0.141 0.0947-0.3136 0.1298-0.4803 0.0977l7e-4 -3e-4zm0.1629-0.8152-2.7302-0.536c-0.0247-0.0045-0.05-4e-3 -0.0745 0.0014-0.0245 0.0053-0.0477 0.0154-0.0683 0.0297-0.0415 0.029-0.0699 0.0732-0.0789 0.123-0.0089 0.0499 0.0023 0.1012 0.0312 0.1428 0.0289 0.0415 0.0732 0.0699 0.123 0.0789l2.7212 0.5341c0.0256 5e-3 0.052 0.0047 0.0774-0.0011 0.0255-0.0057 0.0495-0.0167 0.0705-0.0322 0.0398-0.0275 0.0672-0.0696 0.0762-0.1172 0.0095-0.0492-6e-4 -0.1001-0.0282-0.1418-0.0276-0.0418-0.0705-0.0711-0.1194-0.0816z" fill="#fff"/>
<path d="m73.704 32.888 0.1081-0.5494c-0.3313-0.0692-0.6416-0.2157-0.9056-0.4275-0.0245-0.0226-0.0404-0.053-0.0448-0.0861-0.0044-0.033 0.0028-0.0665 0.0205-0.0948l0.1052-0.176c0.0103-0.0178 0.0244-0.0332 0.0413-0.0451 0.0168-0.0119 0.036-0.02 0.0563-0.0239 0.0202-0.0038 0.0411-0.0032 0.0611 0.0017 0.02 5e-3 0.0388 0.0142 0.0549 0.027 0.2347 0.189 0.5114 0.3187 0.8067 0.3783 0.487 0.0956 0.8713-0.1214 0.9468-0.512 0.0729-0.3773-0.1476-0.6631-0.6149-0.9687-0.6455-0.4115-1.016-0.8121-0.8983-1.4081 0.1117-0.5693 0.6011-0.9225 1.2525-0.9011l0.1078-0.5494c0.0036-0.0189 0.011-0.0369 0.0216-0.0529s0.0242-0.0298 0.0402-0.0405 0.0339-0.0182 0.0527-0.022c0.0189-0.0037 0.0383-0.0037 0.0571 1e-4l0.1389 0.0274c0.0188 0.0036 0.0368 0.011 0.0528 0.0215 0.016 0.0106 0.0298 0.0243 0.0405 0.0402s0.0182 0.0338 0.0219 0.0527c0.0038 0.0188 0.0038 0.0382 1e-4 0.057l-0.1024 0.5219c0.2669 0.0562 0.5188 0.1685 0.739 0.3295 0.0298 0.0218 0.0502 0.0541 0.0571 0.0904s-3e-4 0.0738-0.02 0.105l-0.1049 0.17c-0.0104 0.0169-0.0242 0.0316-0.0406 0.043-0.0163 0.0114-0.0348 0.0194-0.0543 0.0233-0.0195 4e-3 -0.0397 4e-3 -0.0592-2e-4 -0.0195-0.0041-0.0379-0.0121-0.0542-0.0237-0.2061-0.1535-0.4447-0.2579-0.6975-0.3049-0.5285-0.1036-0.7892 0.1729-0.8431 0.4472-0.0699 0.3566 0.1486 0.5848 0.6972 0.949 0.6502 0.427 0.9364 0.8538 0.8167 1.4644-0.0631 0.2927-0.2319 0.5518-0.4742 0.7277-0.2422 0.176-0.5408 0.2564-0.8387 0.2259l-0.1119 0.57c-0.0037 0.0188-0.011 0.0368-0.0216 0.0528-0.0106 0.0159-0.0243 0.0297-0.0402 0.0404s-0.0338 0.0181-0.0526 0.0219c-0.0188 0.0037-0.0382 0.0037-0.057 0l-0.1457-0.0284c-0.019-0.0036-0.0372-0.011-0.0534-0.0218-0.0162-0.0107-0.03-0.0246-0.0408-0.0407-0.0107-0.0162-0.0181-0.0344-0.0217-0.0534-0.0037-0.0191-0.0034-0.0387 6e-4 -0.0577z" fill="#fff"/>
<path d="m17.205 45.12c-0.2513-0.2077-0.5684-0.319-0.8944-0.3141-0.1832-0.0056-0.3657 0.0251-0.537 0.0901s-0.3282 0.1632-0.4615 0.2889c-0.1941 0.1833-0.3256 0.4229-0.3761 0.6851-0.0073 0.0346-0.0068 0.0705 0.0015 0.105 0.0083 0.0344 0.0241 0.0666 0.0464 0.0942 0.0222 0.0276 0.0504 0.0498 0.0823 0.0652 0.032 0.0153 0.0669 0.0234 0.1024 0.0235h0.0218c0.0532-0.0011 0.1044-0.0207 0.1446-0.0555s0.067-0.0826 0.0756-0.1351c0.0301-0.1702 0.1155-0.3259 0.2428-0.4428 0.1818-0.1596 0.4182-0.2429 0.6599-0.2328 0.1863-3e-3 0.3682 0.0568 0.5163 0.1699 0.0776 0.0533 0.141 0.1246 0.1848 0.2079 0.0437 0.0833 0.0665 0.1761 0.0663 0.2701 0.0085 0.202-0.0595 0.3997-0.1906 0.5536-0.1457 0.1328-0.3033 0.2517-0.471 0.3554-0.1704 0.1033-0.3179 0.2402-0.4336 0.4025-0.1411 0.237-0.2095 0.5103-0.1966 0.7858v0.1583c2e-4 0.0627 0.0254 0.1227 0.0698 0.1669 0.0445 0.0441 0.1047 0.0688 0.1674 0.0686h0.0194c0.0627-2e-4 0.1227-0.0252 0.1669-0.0697 0.0442-0.0444 0.0689-0.1046 0.0688-0.1672v-0.1583c-0.0056-0.215 0.0668-0.4247 0.2037-0.5904 0.1441-0.1546 0.3054-0.292 0.4809-0.4096 0.1707-0.1159 0.3236-0.256 0.454-0.4159 0.1357-0.1995 0.2046-0.437 0.1966-0.6783 2e-4 -0.1594-0.037-0.3167-0.1084-0.4593-0.0715-0.1426-0.1752-0.2666-0.303-0.362z" fill="#fff"/>
<path d="m16.052 48.903h-0.0354c-0.0825 3e-4 -0.1616 0.0334-0.2197 0.0919-0.0582 0.0586-0.0908 0.1378-0.0906 0.2203 1e-4 0.0409 0.0083 0.0813 0.0241 0.119 0.0157 0.0377 0.0388 0.072 0.0678 0.1008s0.0633 0.0516 0.1011 0.0671c0.0379 0.0156 0.0784 0.0235 0.1192 0.0234h0.0355c0.0408-2e-4 0.0813-0.0083 0.119-0.0241s0.072-0.0388 0.1008-0.0678 0.0516-0.0634 0.0671-0.1012 0.0235-0.0783 0.0233-0.1191c-1e-4 -0.0409-0.0083-0.0814-0.024-0.1191-0.0158-0.0377-0.0388-0.0719-0.0678-0.1007s-0.0634-0.0517-0.1012-0.0672-0.0783-0.0234-0.1192-0.0233z" fill="#fff"/>
<path d="m16.365 51.472c-1.0239 2e-4 -2.0187-0.3404-2.8277-0.9679s-1.3862-1.5063-1.6407-2.498c-0.2546-0.9917-0.1719-2.0399 0.2349-2.9795 0.4068-0.9395 1.1147-1.717 2.012-2.21 0.8974-0.493 1.9333-0.6733 2.9444-0.5127 1.0112 0.1606 1.9402 0.653 2.6407 1.3997 0.7004 0.7468 1.1326 1.7053 1.2282 2.7247 0.0957 1.0194-0.1505 2.0416-0.6997 2.9056 0.4372 0.4396 0.9298 0.8204 1.4653 1.1328 0.0427 0.0243 0.0763 0.0619 0.0957 0.107 0.0194 0.0452 0.0236 0.0954 0.0119 0.1431s-0.0386 0.0903-0.0767 0.1214c-0.0381 0.031-0.0852 0.0488-0.1343 0.0507-0.8196 0.0391-1.6379-0.1001-2.3986-0.4079-0.8136 0.6414-1.8194 0.9904-2.8554 0.991zm0-8.7735c-0.669-2e-4 -1.3282 0.1609-1.9217 0.4696s-1.1038 0.756-1.4877 1.3039c-0.3838 0.548-0.6299 1.1804-0.7173 1.8436-0.0875 0.6633-0.0137 1.3379 0.2151 1.9665 0.2288 0.6287 0.6057 1.193 1.099 1.6449 0.4932 0.452 1.0881 0.7784 1.7344 0.9515 0.6462 0.1731 1.3246 0.1879 1.9777 0.043 0.6532-0.1449 1.2617-0.4451 1.7741-0.8753 0.0324-0.0274 0.072-0.045 0.1141-0.0509 0.042-0.0058 0.0849 4e-4 0.1236 0.0179 0.4887 0.2148 1.0087 0.3499 1.5401 0.4003-0.3745-0.2635-0.7159-0.5712-1.0169-0.9164-0.0316-0.0379-0.0499-0.0852-0.052-0.1344-0.0022-0.0493 0.0119-0.098 0.0401-0.1385 0.4315-0.6243 0.6841-1.3549 0.7303-2.1125 0.0461-0.7576-0.1158-1.5134-0.4684-2.1855-0.3526-0.6722-0.8823-1.235-1.5319-1.6277-0.6495-0.3927-1.3941-0.6001-2.1531-0.6h5e-4z" fill="#fff"/>
<path d="m55.354 59.982s7.0889 18.98 9.3523 37.976c0 0-13.852 4.6594-30.283-0.1874 0 0 2.2308-19.843 7.8414-37.789h13.09z" fill="#2F80ED"/>
<path d="m39.618 87.205s-3.7018-1.2104-5.6701-0.6936c-1.9684 0.5169-4.6998 7.0127-4.5522 7.6769s2.4697 2.4762 3.8387 1.8208c1.3689-0.6555 2.7066-3.5185 2.7066-3.5185s1.0196 0.8135 3.4872 0.3452c2.4675-0.4683 0.1898-5.6308 0.1898-5.6308z" fill="#FFBE92"/>
<path d="m55.82 92.072c-3.8319 1.3595-10.056 1.6265-14.117 1.6394-2.3636 8e-3 -3.9945-0.0728-3.9945-0.0728-0.5056-1.1663-0.7137-2.4399-0.6058-3.7065 0.108-1.2665 0.5287-2.4865 1.2244-3.5504 1.4063 0.2107 2.7222 0.3724 3.9506 0.4928 14.449 1.4173 16.664-3.088 17.018-5.4866 0.3884-2.6003-2.6928-11.634-3.645-14.184-0.9521-2.5506-0.4952-2.9977 0.2552-2.9912 1.9404 0.0172 6.0605 10.799 7.5943 16.56s-1.6195 9.149-7.6803 11.3z" fill="#1059BC"/>
<path d="m41.703 93.712c-2.3636 0.0081-3.9945-0.0728-3.9945-0.0728-0.5056-1.1663-0.7137-2.4399-0.6058-3.7064 0.108-1.2666 0.5287-2.4866 1.2244-3.5505 1.4063 0.2108 2.7222 0.3724 3.9506 0.4929l0.0077 0.0026s-1.7297 2.9118-0.5824 6.8342z" fill="#438CEF"/>
<path d="m36.946 45.362s-1.7887 0.2648-2.662 2.7433c-0.8732 2.4784 0.4285 4.0882 0.4285 4.0882s-0.15-2.2488 0.4152-3.5945c0.4771-1.0649 1.3551-1.8987 2.4432-2.3203 0.6844-0.2234-0.6249-0.9167-0.6249-0.9167z" fill="#333"/>
<path d="m59.472 35.77s4.0625-2.2796 7.5587-0.874c2.224 0.8944 5.7155 5.8304 5.3295 7.5968s-1.7237 1.9717-1.8191 3.5393 1.8693 3.3223 0.3379 6.0506c-1.5314 2.7282-3.4655 2.6219-3.9666 4.7117-0.5011 2.0897 1.2954 4.1246 0.5671 6.3503-0.7283 2.2258-4.0785 2.6256-4.9003 3.9591-0.8218 1.3336-0.7191 3.4501-0.1923 3.906 0 0-6.4557-2.6754-5.0078-8.4795 0 0-1.3173 2.14-1.2797 3.7571 0 0-2.1038-4.1055-1.3804-6.9432 0.7235-2.8378 2.639-3.5391 3.101-5.3504 0.4619-1.8113-0.5497-3.645-0.0338-5.6678 0.5159-2.0227 1.6904-2.719 2.3199-4.81 0.6295-2.0909-3.4675-4.5781-0.6341-7.746z" fill="#333"/>
<path d="m35.905 44.342c-0.1073 0.48-0.1884 0.9654-0.2428 1.4542-0.3569 3.1052 0.3226 6.2413 1.9327 8.9204 1.6102 2.679 4.0607 4.7507 6.9702 5.8928 2.9096 1.1421 6.115 1.2904 9.1176 0.422s5.634-2.705 7.4847-5.2238c0.1699-0.2231 0.3287-0.4564 0.4785-0.6958 0.325-0.5005 0.6176-1.0214 0.8759-1.5593 0.8648-1.8018 1.339-3.766 1.3915-5.7638 0.0524-1.9978-0.318-3.9842-1.087-5.8289-0.769-1.8446-1.9192-3.5059-3.3752-4.8749s-3.185-2.4147-5.0735-3.0687c-0.1911-0.0679-0.3841-0.1286-0.5742-0.1849-1.7805-0.5344-3.6489-0.7128-5.4983-0.525-1.8495 0.1879-3.6439 0.7382-5.2807 1.6196v0.0036h-0.0036c-0.6235 0.3358-1.2204 0.7189-1.7853 1.1459-2.2652 1.6944-3.9687 4.0306-4.8894 6.7053-0.1773 0.5114-0.3246 1.0327-0.4411 1.5613z" fill="#FFBF93"/>
<path d="m63.106 42.674c0.2325-0.2712 0.4001-0.5919 0.49-0.9377 0.09-0.3457 0.1-0.7074 0.0293-1.0576-0.2814-1.5853-2.6948-4.2264-3.4614-4.6872-0.5341-0.3204-1.133-0.3058-1.9179 0.0729l4.86 6.6096z" fill="#FFCC29"/>
<path d="m35.018 45.96c0.209-0.0744 0.4246-0.1293 0.6438-0.1639 1.3576-0.2248 3.5522-0.1165 3.5522-0.1165 1.0143-2.7676 2.6838-4.154 2.8013-4.2514-0.9613 1.3947-1.4959 4.3682-1.4959 4.3682 1.7266-0.2042 5.5822 0.9412 5.5822 0.9412 1.495-4.1679 3.6316-6.7058 3.7739-6.8704-1.3012 2.4695-2.0065 7.2477-2.0065 7.2477 1.9482 0.4261 3.8467 1.0537 5.6651 1.8727 0.5678-2.3631 2.8297-4.1669 2.8297-4.1669-1.9883 5.9214 3.2635 7.2598 3.2635 7.2598l1.5385 3.7258 0.0386 0.091 0.4399-0.7868 0.8759-1.5593c0.8648-1.8018 1.339-3.7659 1.3914-5.7638 0.0525-1.9978-0.3179-3.9842-1.0869-5.8289-0.769-1.8446-1.9192-3.5059-3.3752-4.8749-1.4561-1.3689-3.185-2.4147-5.0735-3.0686-0.1911-0.068-0.3841-0.1287-0.5742-0.185-1.7805-0.5344-3.6489-0.7128-5.4984-0.5249-1.8494 0.1878-3.6438 0.7381-5.2806 1.6195v0.0037h-0.0036c-0.6236 0.3357-1.2204 0.7188-1.7854 1.1458-5.8279 1.2532-6.2158 9.8859-6.2158 9.8859z" fill="#333"/>
<path d="m58.473 50.851s-1.7888 0.2651-2.6618 2.7433 0.4285 4.0883 0.4285 4.0883-0.15-2.249 0.4152-3.5947c0.4774-1.0645 1.3553-1.8977 2.4432-2.319 0.6844-0.2245-0.6251-0.9179-0.6251-0.9179z" fill="#333"/>
<path d="m57.219 55.878c-0.0185 0.9618 1.7668 1.61 3.1936 0.4729 1.5686-1.25 1.5948-3.9166 0.6681-4.9251-0.9633-1.0481-2.4313-0.1687-2.4313-0.1687s-1.3632 1.1138-1.4304 4.6209z" fill="#FFBE92"/>
<path d="m58.159 53.267c0.0275-0.1521 0.0643-0.3023 0.1102-0.4499l0.0415 0.0083c-0.0109 0.1504-0.0124 0.3014-0.0046 0.452 0.01 0.223 0.0374 0.445 0.082 0.6637 0.0159-0.0253 0.0333-0.0496 0.0522-0.0728 0.0968-0.0822 0.2027-0.1531 0.3156-0.2112 0.282-0.1643 0.5889-0.2813 0.9087-0.3464l0.0158 0.039s-0.1008 0.0624-0.2411 0.1683c-0.1682 0.1249-0.328 0.2608-0.4782 0.4069-0.0794 0.0784-0.1377 0.1726-0.2003 0.2454-0.0615 0.0626-0.1276 0.1204-0.1979 0.1729l-0.0308 0.0242c0.0485 0.1003 0.1051 0.1943 0.1568 0.2778 0.078 0.1199 0.1491 0.2292 0.2251 0.3236 0.0415 0.0415 0.0779 0.0862 0.1124 0.1272 0.0393 0.0367 0.0728 0.0687 0.1017 0.0954 0.059 0.0544 0.0947 0.0947 0.0947 0.0947l-0.0117 0.0405c-0.0458 0.0047-0.0919 0.0055-0.1379 0.0025-0.0546 6e-4 -0.1091-0.0047-0.1626-0.0156-0.068-0.0215-0.1348-0.0467-0.2001-0.0755-0.0759-0.0399-0.1468-0.0888-0.2112-0.1456-0.0709-0.0645-0.1331-0.138-0.185-0.2185-0.09-0.178-0.1489-0.3701-0.1743-0.5679-0.0545-0.3448-0.048-0.6965 0.019-1.039z" fill="#F09354"/>
<path d="m58.665 51.285c0.149-0.0766 0.3055-0.1377 0.4671-0.1823 0.4106-0.1375 0.8551-0.1363 1.265 0.0034 0.256 0.1031 0.4771 0.2776 0.6368 0.5027 0.0896 0.122 0.1638 0.2546 0.2209 0.3948 0.0613 0.1482 0.11 0.3013 0.1457 0.4576 0.14 0.6775 0.1039 1.3797-0.1049 2.0393-0.1034 0.3268-0.255 0.6364-0.4496 0.9186-0.1831 0.2588-0.403 0.4894-0.6528 0.6846l-0.209 0.1515c-0.069 0.0486-0.1246 0.0728-0.185 0.1127-0.0603 0.0375-0.1237 0.07-0.1894 0.0971-0.0621 0.0336-0.1271 0.0616-0.1942 0.0835-0.2447 0.0925-0.5049 0.1373-0.7664 0.132-0.4064-0.0102-0.7967-0.1605-1.1049-0.4255-0.0882-0.0799-0.1651-0.1714-0.2284-0.2722l-0.067-0.1124-0.0609 0.0173 0.0257 0.1374c0.0316 0.1313 0.085 0.2565 0.158 0.3702 0.1123 0.1838 0.2624 0.3416 0.4404 0.4629 0.2335 0.1625 0.4989 0.2733 0.7786 0.3251 0.3349 0.0599 0.679 0.0427 1.0063-0.0505 0.1799-0.045 0.3537-0.1121 0.5173-0.1995 0.0862-0.0443 0.1702-0.093 0.2515-0.1457l0.211-0.1495c0.3099-0.2515 0.571-0.5578 0.77-0.9036 0.1962-0.3444 0.3433-0.7145 0.437-1.0995 0.1856-0.7459 0.1762-1.5269-0.0274-2.268-0.0518-0.1736-0.1181-0.3426-0.1981-0.5052-0.0768-0.1577-0.1741-0.3047-0.2894-0.437-0.2103-0.2492-0.4879-0.4327-0.7997-0.5285-0.4561-0.117-0.938-0.08-1.3709 0.1054-0.1623 0.0599-0.3179 0.1365-0.4644 0.2287l0.0311 0.0546z" fill="#F09354"/>
<path d="m44.819 65.401c-0.5785 2.1832-2.0332 3.1516-4.677 2.3563s-2.3995-3.4762-1.6851-4.7027c0.7145-1.2265 3.7402-5.9979 4.191-6.8129s0.9094-0.8385 1.1534 0.262-1.2736 4.4072-1.2736 4.4072 0.01 0.0039 0.0296 0.0139c1.6319 0.7892 2.3267 1.4585 2.4959 2.3386 0.1144 0.5865-0.0038 1.2675-0.2342 2.1376z" fill="#FFBE92"/>
<path d="m45.054 63.263c-0.8031-1.3957-3.2323-1.1811-3.2323-1.1811l0.7067-1.1714s0.01 0.0039 0.0296 0.0139c1.6319 0.7892 2.3267 1.4585 2.496 2.3386z" fill="#F09354"/>
<path d="m43.58 60.179c-0.2049-0.0986-0.4076-0.2008-0.6069-0.3091 0.4273-1.0681 0.9864-2.6653 0.8308-3.366-0.0283-0.133-0.0657-0.264-0.1122-0.3918 0.2736-0.1279 0.5156 0.118 0.6713 0.8189 0.151 0.6751-0.3647 2.1849-0.783 3.248z" fill="#F09354"/>
<path d="m44.824 66.822c-0.7067 1.3268-1.3405 2.7047-1.9135 4.0982v2e-3c-3.8207 9.2755-5.053 19.189-8.486 18.39-2.1791-0.506-3.1711-4.937-2.2362-10.154 0.5533-3.0905 1.4824-6.7459 2.7992-9.1455 0.6261-1.141 1.1575-2.0137 1.4272-2.4466 0.1083-0.1733 0.1751-0.2777 0.1889-0.2974 0.0011-1e-3 0.0018-0.0024 0.0019-0.0039 0.689-2.4114 0.9803-3.0511 0.9803-3.0511 5.2618 0.0983 7.2382 2.6083 7.2382 2.6083z" fill="#1059BC"/>
<path d="m36.603 67.269c-0.0097 0.0316-0.0648 0.2107-0.1553 0.5159-0.4883 1.6593-1.9844 6.9979-2.4746 11.931-0.2853 2.8603-0.7873 3.8761-1.7853 3.1378 0 0 0.5001-0.0255 0.6457-0.2952 0.6713-1.242-0.0728-5.9964 1.3222-10.752 0.6593-1.6994 1.7938-3.4699 2.2604-4.2317 0.0728-0.1214 0.1299-0.2127 0.1595-0.2617 0.0136-0.0238 0.0235-0.0374 0.0274-0.0435z" fill="#0C438D"/>
<path d="m44.824 66.822c-0.7067 1.3268-1.3406 2.7047-1.9135 4.0982-1.5052-2.6238-6.4623-3.1356-6.4623-3.1356 0.0905-0.3052 0.1456-0.4855 0.1553-0.5159 0.0011-1e-3 0.0018-0.0024 2e-3 -0.0039 0.6889-2.4114 0.9803-3.0511 0.9803-3.0511 5.2618 0.0983 7.2382 2.6083 7.2382 2.6083z" fill="#438CEF"/>
</svg>
