<svg width="200" height="120" viewBox="0 0 200 120" fill="none" xmlns="http://www.w3.org/2000/svg">
<path d="M73.3314 116.659C22.3866 113.703 -18.4693 59.9702 8.63973 28.7863C29.6644 4.60094 57.6977 39.804 83.844 22.0681C124.069 -5.21781 189.238 -10.1789 197.864 24.2179C206.489 58.6147 177.917 112.359 156.623 115.584C135.328 118.809 73.3314 116.659 73.3314 116.659Z" fill="#D9F2E3"/>
<path d="M79.9123 43.7655C80.4514 56.6644 80.3166 63.6512 75.5994 69.0257C70.8825 74.4001 57.6746 73.0564 57.6746 73.0564C57.6746 73.0564 56.3717 92.0464 37.9077 92.8525C19.4436 93.6586 16.793 69.2048 31.2588 62.9345C45.0292 56.9658 49.4083 55.2311 54.1703 40.4513C58.5207 26.9492 72.0955 29.5232 75.33 35.1664C78.5646 40.8096 79.9123 43.7655 79.9123 43.7655Z" fill="#333333"/>
<path d="M73.8821 109.685C73.8821 109.685 82.5974 111.387 83.0467 111.298C83.496 111.208 93.0201 106.998 94.0084 107.625C94.9968 108.252 100.747 110.671 102.005 111.208C103.263 111.746 101.286 111.925 100.298 111.925C99.3095 111.925 93.6491 109.596 93.0201 110.044C92.3911 110.492 97.9618 111.387 97.9618 111.746C97.9618 112.104 83.0467 115.508 82.1483 115.508C81.2497 115.508 74.3314 114.881 74.3314 114.881L73.8821 109.685Z" fill="#F5B88A"/>
<path d="M66.6501 62.1597C71.3449 63.0779 74.1078 68.0309 75.0062 72.3692C75.9047 76.7073 66.6501 62.1597 66.6501 62.1597Z" fill="#EEBA1B"/>
<path d="M58.7788 58.8253C58.7788 58.8253 49.749 64.8718 44.8971 67.8277C40.0452 70.7836 46.6492 102.627 48.2665 114.451C49.8837 126.275 77.9169 115.526 77.9169 115.526C77.9169 115.526 76.03 105.583 78.4558 89.5944C80.1936 78.1413 73.8286 70.9627 70.1898 65.9913C61.0055 53.4443 58.7788 58.8253 58.7788 58.8253Z" fill="#F2C94C"/>
<path d="M49.8769 68.0059C60.2546 80.6359 63.7625 82.9971 61.198 91.5193C59.1765 98.2373 58.5025 100.656 58.0982 102.94C57.6939 105.224 77.3709 101.462 77.3709 101.462L77.2362 108.852C77.2362 108.852 61.7372 116.242 54.1896 117.72C46.6424 119.198 41.9253 117.451 41.9253 117.451L49.8769 68.0059Z" fill="#EEBA1B"/>
<path d="M179.85 118.556H57.0654C56.1791 118.556 55.4604 117.84 55.4604 116.956C55.4604 116.072 56.1791 115.356 57.0654 115.356H179.85C180.737 115.356 181.455 116.072 181.455 116.956C181.455 117.84 180.737 118.556 179.85 118.556Z" fill="#333333"/>
<path d="M62.0871 46.1816L57.415 59.976C57.415 59.976 62.5364 73.8155 66.8493 70.7252C68.3216 69.67 66.3101 61.3198 66.3101 61.3198L69.4548 50.1229L62.0871 46.1816Z" fill="#F7C6A1"/>
<path d="M47.1788 67.4305C40.7271 68.1451 40.1706 76.8357 37.2056 91.347C34.2405 105.858 35.1316 115.436 36.5318 117.279C39.901 121.713 77.7726 106.261 82.4899 106.395C85.7454 106.488 83.0289 101.021 83.0289 101.021L46.9093 106.53C46.9093 106.53 52.0308 89.7345 52.0308 81.1355C52.0308 72.5363 49.6048 67.1616 47.1788 67.4305Z" fill="#F7C6A1"/>
<path d="M80.7249 101.37C84.4986 100.43 90.0243 98.2797 91.1024 99.2202C92.1807 100.161 96.6282 106.879 98.1108 108.76C99.5932 110.641 97.4369 109.163 95.8197 107.685C94.2024 106.207 92.8545 105.401 92.8545 105.401C92.8545 105.401 90.833 107.282 88.9461 108.357C87.0593 109.432 86.3854 107.282 83.1509 106.745C79.9162 106.207 71.8298 109.029 71.8298 109.029L80.7249 101.37Z" fill="#F7C6A1"/>
<path d="M47.8985 66.3726C43.9451 66.5518 40.8903 69.866 39.8122 74.9717C38.7339 80.0774 35.589 96.2905 35.589 96.2905C35.589 96.2905 34.9602 96.7385 41.5191 97.9029C48.0783 99.0674 53.4692 97.7237 53.4692 97.7237C53.4692 97.7237 54.8169 88.4975 54.4575 82.1378C54.0982 75.7779 52.6603 69.7764 50.3245 67.7162C47.9884 65.6559 47.8985 66.3726 47.8985 66.3726Z" fill="#F2C94C"/>
<path d="M66.345 61.3198L69.4897 50.1229L62.1221 46.1816L60.9967 49.5043C60.7519 60.6282 63.61 64.3485 65.5363 65.7088C66.138 66.1336 66.6553 65.8053 67.089 65.1116C66.7725 63.0949 66.345 61.3198 66.345 61.3198Z" fill="#F5B88A"/>
<path d="M81.267 47.4294C81.267 53.4221 77.2126 62.1731 72 62C63.9135 61.7313 62.1548 54.0615 62.1548 48.0687C62.1548 42.076 66.3828 37.2178 71.5984 37.2178C76.8138 37.2178 81.267 41.4366 81.267 47.4294Z" fill="#F7C6A1"/>
<path d="M141.626 115.37H111.312L123.781 88.0219C124.145 87.2237 124.943 86.7114 125.822 86.7114H153.333C153.97 86.7114 154.393 87.3675 154.13 87.9454L141.626 115.37Z" fill="#BDBDBD"/>
<path d="M141.582 115.365H85.6582C85.6582 113.423 87.2377 111.848 89.186 111.848H141.582V115.365Z" fill="#BDBDBD"/>
<path d="M153.34 86.7114H129.096C128.217 86.7114 127.419 87.2237 127.055 88.0219L114.586 115.37H141.633L154.137 87.9454C154.4 87.3675 153.978 86.7114 153.34 86.7114Z" fill="#828282"/>
<path d="M72.4097 35.0962C78.1378 34.693 81.5295 39.9107 82.5179 44.4791C83.2309 47.7752 82.8772 48.4204 82.8772 48.4204C82.8772 48.4204 82.2482 49.3161 77.7558 49.5848C73.2633 49.8536 72.7243 49.764 72.7243 49.764L72.4547 44.5687L71.1068 49.5848C71.1068 49.5848 70.3882 50.5703 67.6029 49.2265C64.8175 47.8829 61 44 61 44C61 44 62.9306 40.4482 65.087 38.4776C67.2433 36.5071 72.4097 35.0962 72.4097 35.0962Z" fill="#333333"/>
<path d="M63.9676 48.3748C63.7706 50.0185 62.73 51.1832 61.6433 50.9762C60.5566 50.7691 59.8354 49.2688 60.0324 47.6251C60.2295 45.9814 61.2701 44.8168 62.3567 45.0238C63.4434 45.2308 64.1646 46.7312 63.9676 48.3748Z" fill="#F5B88A"/>
<path d="M21.7567 72.7396L21.7368 72.7388C21.6225 72.7279 21.5389 72.6268 21.5498 72.5128C21.7858 70.0494 23.0208 67.5172 25.0272 65.3826C27.2958 62.969 30.5245 61.0674 34.364 59.8837C42.9194 57.2459 50.3828 53.8916 55.0727 39.505C55.1082 39.3963 55.2254 39.3367 55.3347 39.3719C55.4437 39.4073 55.5035 39.5242 55.468 39.6329C53.3126 46.245 50.3786 51.0588 46.4988 54.3497C43.0768 57.2523 39.2219 58.8194 34.4867 60.2795C30.7162 61.442 27.5498 63.3046 25.3304 65.6659C23.3864 67.734 22.1907 70.1795 21.9634 72.5522C21.953 72.6594 21.8626 72.7396 21.7567 72.7396Z" fill="#303C60"/>
<path d="M25.6172 62.8168C25.5552 62.8168 25.4937 62.7892 25.4528 62.7366C25.3824 62.6461 25.399 62.5162 25.4897 62.4461C25.5261 62.4179 29.1817 59.6272 34.4674 58.4661C44.6151 56.2371 51.4279 50.1539 54.1695 40.8742C54.202 40.7644 54.3172 40.7019 54.4275 40.734C54.5376 40.7663 54.6006 40.8814 54.5682 40.9912C52.8746 46.724 49.6884 51.2482 45.0983 54.438C42.1425 56.4922 38.5958 57.9835 34.5567 58.8707C29.3664 60.0109 25.7797 62.7461 25.7442 62.7735C25.7065 62.8027 25.6615 62.8168 25.6172 62.8168Z" fill="#303C60"/>
<path d="M155.72 59.7815H128.349C128.092 59.7815 127.96 59.5742 128.053 59.3184L133.605 44.1114C133.698 43.8557 133.982 43.6484 134.239 43.6484H161.61C161.866 43.6484 161.998 43.8557 161.904 44.1114L156.354 59.3184C156.26 59.5742 155.976 59.7815 155.72 59.7815Z" fill="#F2C94C"/>
<path d="M155.398 59.1392H129.207C128.967 59.1392 128.844 58.9456 128.931 58.7068L133.986 44.8598C134.073 44.6209 134.338 44.4272 134.578 44.4272H160.769C161.008 44.4272 161.132 44.6209 161.044 44.8598L155.99 58.7068C155.902 58.9456 155.637 59.1392 155.398 59.1392Z" fill="white"/>
<path d="M154.907 58.3104H130.319C130.05 58.3104 129.911 58.0928 130.009 57.8242L134.367 45.8881C134.465 45.6197 134.763 45.4019 135.032 45.4019H159.62C159.888 45.4019 160.029 45.6197 159.93 45.8881L155.572 57.8242C155.475 58.0928 155.176 58.3104 154.907 58.3104Z" fill="#F2C94C"/>
<path d="M149.465 51.8294C148.561 54.303 145.819 56.3082 143.338 56.3082C140.857 56.3082 139.577 54.303 140.479 51.8294C141.383 49.3558 144.127 47.3506 146.608 47.3506C149.089 47.3506 150.369 49.3558 149.465 51.8294Z" fill="white"/>
<path d="M148.861 51.7916C148.082 53.9216 145.72 55.6482 143.584 55.6482C141.447 55.6482 140.346 53.9216 141.124 51.7916C141.901 49.6618 144.264 47.9351 146.401 47.9351C148.536 47.9351 149.638 49.6618 148.861 51.7916Z" fill="#27AE60"/>
<path d="M146.985 51.5107L145.274 52.3247L143.562 53.1385L144.157 51.5107L144.751 49.8828L145.868 50.6968L146.985 51.5107Z" fill="white"/>
<path d="M113.804 38.2411C113.313 38.2411 112.723 38.6788 112.54 39.1778L111.756 41.3277C111.681 41.5312 111.685 41.7143 111.766 41.8296C111.854 41.9548 112.016 41.981 112.137 41.981H114.293C114.793 41.981 115.372 41.5519 115.557 41.0443L116.342 38.8944C116.416 38.6908 116.412 38.5078 116.331 38.3923C116.243 38.2673 116.081 38.2411 115.961 38.2411H113.804ZM114.293 42.8095H112.137C111.694 42.8095 111.311 42.6257 111.085 42.305C110.847 41.9649 110.806 41.5055 110.975 41.0443L111.76 38.8944C112.063 38.0635 112.961 37.4126 113.804 37.4126H115.961C116.404 37.4126 116.787 37.5964 117.012 37.9171C117.251 38.2572 117.291 38.7166 117.123 39.1778L116.338 41.3277C116.034 42.1586 115.136 42.8095 114.293 42.8095Z" fill="#27AE60"/>
<path d="M110.482 47.3993C109.99 47.3993 109.4 47.837 109.218 48.3361L108.433 50.4859C108.359 50.6894 108.362 50.8723 108.444 50.988C108.531 51.113 108.693 51.139 108.814 51.139H110.97C111.47 51.139 112.049 50.7103 112.234 50.2025L113.019 48.0526C113.093 47.849 113.089 47.666 113.008 47.5505C112.921 47.4256 112.759 47.3993 112.638 47.3993H110.482ZM110.97 51.9677H108.814C108.371 51.9677 107.988 51.7837 107.763 51.4632C107.524 51.1231 107.483 50.6637 107.652 50.2025L108.437 48.0526C108.74 47.2217 109.638 46.5708 110.482 46.5708H112.638C113.081 46.5708 113.464 46.7548 113.689 47.0753C113.928 47.4154 113.968 47.8749 113.8 48.3361L113.015 50.4859C112.712 51.3168 111.814 51.9677 110.97 51.9677Z" fill="#27AE60"/>
<path d="M107.11 56.5582C106.61 56.5582 106.031 56.9869 105.846 57.4947L105.061 59.6444C104.987 59.8481 104.991 60.0312 105.072 60.1467C105.16 60.2716 105.322 60.2979 105.442 60.2979H107.599C108.098 60.2979 108.677 59.869 108.863 59.3611L109.648 57.2115C109.722 57.0078 109.718 56.8247 109.637 56.7092C109.549 56.5842 109.387 56.5582 109.267 56.5582H107.11ZM107.599 61.1264H105.442C104.999 61.1264 104.616 60.9424 104.391 60.6219C104.152 60.2818 104.112 59.8224 104.28 59.3611L105.065 57.2115C105.369 56.3804 106.267 55.7295 107.11 55.7295H109.267C109.709 55.7295 110.092 55.9135 110.318 56.234C110.556 56.5741 110.597 57.0335 110.428 57.4947L109.644 59.6444C109.34 60.4755 108.442 61.1264 107.599 61.1264Z" fill="#F2C94C"/>
<path d="M132.055 40.9469H120.195C119.973 40.9469 119.857 40.7655 119.938 40.5437C120.019 40.322 120.267 40.1406 120.489 40.1406H132.349C132.572 40.1406 132.687 40.322 132.606 40.5437C132.525 40.7655 132.277 40.9469 132.055 40.9469Z" fill="#F2C94C"/>
<path d="M131.469 42.7001H119.608C119.386 42.7001 119.27 42.5189 119.351 42.2971C119.432 42.0755 119.68 41.894 119.903 41.894H131.763C131.985 41.894 132.101 42.0755 132.02 42.2971C131.939 42.5189 131.691 42.7001 131.469 42.7001Z" fill="#F2C94C"/>
<path d="M128.928 49.5211H117.067C116.845 49.5211 116.729 49.3397 116.81 49.1179C116.891 48.8961 117.139 48.7148 117.362 48.7148H129.222C129.444 48.7148 129.56 48.8961 129.479 49.1179C129.398 49.3397 129.15 49.5211 128.928 49.5211Z" fill="#F2C94C"/>
<path d="M128.341 51.0795H116.481C116.259 51.0795 116.143 50.8983 116.224 50.6765C116.305 50.4548 116.553 50.2734 116.776 50.2734H128.636C128.858 50.2734 128.974 50.4548 128.893 50.6765C128.812 50.8983 128.564 51.0795 128.341 51.0795Z" fill="#F2C94C"/>
<path d="M125.507 58.8739H113.647C113.425 58.8739 113.309 58.6927 113.39 58.4709C113.471 58.2493 113.719 58.0679 113.941 58.0679H125.801C126.024 58.0679 126.14 58.2493 126.059 58.4709C125.978 58.6927 125.73 58.8739 125.507 58.8739Z" fill="#F2C94C"/>
<path d="M124.921 60.4325H113.061C112.838 60.4325 112.722 60.2511 112.803 60.0295C112.884 59.8077 113.133 59.6265 113.355 59.6265H125.215C125.437 59.6265 125.553 59.8077 125.472 60.0295C125.391 60.2511 125.143 60.4325 124.921 60.4325Z" fill="#F2C94C"/>
<path d="M113.812 41.4922C113.775 41.4922 113.739 41.4873 113.703 41.4777C113.577 41.4435 113.475 41.3529 113.426 41.2326L112.613 39.2172C112.527 39.0049 112.63 38.7636 112.843 38.6782C113.055 38.5927 113.298 38.6956 113.383 38.9077L113.993 40.416L118.804 36.7189C118.985 36.5794 119.246 36.6129 119.386 36.7941C119.527 36.9754 119.493 37.2355 119.311 37.3751L114.066 41.406C113.992 41.4625 113.903 41.4922 113.812 41.4922Z" fill="#2D9CDB"/>
<path d="M110.441 50.6504C110.404 50.6504 110.367 50.6457 110.331 50.6359C110.206 50.6019 110.104 50.5111 110.055 50.3908L109.241 48.3754C109.155 48.1631 109.258 47.9218 109.471 47.8364C109.684 47.7509 109.926 47.8538 110.012 48.0659L110.621 49.5742L115.432 45.8771C115.614 45.7376 115.875 45.7711 116.015 45.9523C116.155 46.1334 116.121 46.3935 115.939 46.5333L110.694 50.5642C110.621 50.6207 110.531 50.6504 110.441 50.6504Z" fill="#2D9CDB"/>
<path d="M188.872 30.3096H143.318L144.495 27.085H190.049L188.872 30.3096Z" fill="#F2C94C"/>
<path d="M187.112 35.1812H141.558L142.736 31.9565H188.29L187.112 35.1812Z" fill="#F2C94C"/>
<path d="M136.622 73.8765H103.17C102.733 73.8765 102.506 73.5201 102.665 73.0843C102.824 72.6484 103.312 72.292 103.749 72.292H137.2C137.638 72.292 137.865 72.6484 137.706 73.0843C137.546 73.5201 137.06 73.8765 136.622 73.8765Z" fill="#F2C94C"/>
<path d="M135.352 77.3843H101.9C101.463 77.3843 101.235 77.0279 101.394 76.5921C101.553 76.1564 102.041 75.7998 102.478 75.7998H135.93C136.367 75.7998 136.595 76.1564 136.436 76.5921C136.277 77.0279 135.788 77.3843 135.352 77.3843Z" fill="#F2C94C"/>
<path d="M166.639 107.131C166.639 106.572 173.399 87.9451 168.828 75.9543C165.628 67.5582 165.123 57.4829 165.123 57.4829C165.123 57.4829 158.891 66.3827 163.102 79.9843C165.694 88.3559 166.752 90.6752 166.975 93.138C167.2 95.6009 165.966 107.915 165.966 107.915L166.639 107.131Z" fill="#27AE60"/>
<path d="M164.964 58.1536C164.451 59.0337 163.457 60.9602 162.735 63.7173C161.804 67.2686 161.148 72.9654 163.305 79.9356C164.181 82.7639 164.875 84.8835 165.435 86.5868C166.536 89.9454 167.038 91.4782 167.188 93.1317C167.384 95.2864 166.496 104.689 166.241 107.294L166.447 107.055C166.472 106.932 166.544 106.686 166.728 106.07C170.632 93.0591 171.276 82.9555 168.639 76.0402C165.928 68.9272 165.14 60.5211 164.964 58.1536ZM165.971 108.135C165.944 108.135 165.916 108.129 165.888 108.118C165.805 108.082 165.755 107.997 165.764 107.907C165.776 107.784 166.995 95.5845 166.775 93.1692C166.627 91.5622 166.131 90.0435 165.04 86.7154C164.481 85.0109 163.785 82.8894 162.908 80.0578C160.718 72.9851 161.39 67.2003 162.337 63.5928C163.367 59.677 164.894 57.4687 164.958 57.3767C165.009 57.304 165.1 57.2718 165.185 57.2961C165.272 57.3206 165.331 57.3966 165.336 57.4849C165.341 57.5854 165.876 67.6253 169.029 75.893C170.738 80.3771 171.081 86.2901 170.049 93.468C169.225 99.1989 167.755 104.097 167.126 106.189C166.984 106.666 166.859 107.077 166.853 107.153C166.853 107.203 166.835 107.241 166.802 107.279L166.129 108.062C166.087 108.109 166.03 108.135 165.971 108.135Z" fill="#219653"/>
<path d="M168.123 109.178C167.112 88.4676 172.053 77.1609 182.159 68.2052C192.265 59.2493 192.714 56.8984 192.714 56.8984C192.714 56.8984 191.141 74.3623 185.303 80.4073C179.463 86.4526 170.929 90.9305 169.695 94.0649C168.459 97.1994 168.909 107.722 168.909 107.722L168.123 109.626V109.178Z" fill="#27AE60"/>
<path d="M166.874 110.966C166.763 110.63 169.008 91.5994 177.205 90.48C185.403 89.3605 187.311 91.2637 192.926 90.368C196.932 89.729 200 88.4648 200 88.4648C200 88.4648 197.874 93.8607 190.567 96.0773C185.403 97.6446 178.664 95.0696 174.734 95.7414C170.804 96.4132 168.783 104.809 168.783 104.809L168.11 109.175L166.874 110.966Z" fill="#27AE60"/>
<path d="M168.013 107.991C167.908 107.991 167.816 107.91 167.807 107.802C167.793 107.669 166.632 94.2986 172.323 84.0622C175.264 78.7743 178.474 75.7101 181.579 72.7466C184.472 69.9859 187.204 67.3781 189.274 63.2477C189.326 63.1453 189.451 63.1042 189.553 63.1551C189.657 63.2062 189.699 63.3307 189.647 63.4329C187.543 67.6277 184.785 70.2595 181.866 73.0457C178.784 75.988 175.597 79.0302 172.686 84.2629C167.058 94.3858 168.207 107.632 168.219 107.764C168.231 107.878 168.147 107.979 168.032 107.99L168.013 107.991Z" fill="#219653"/>
<path d="M167.421 105.378C167.402 105.378 167.381 105.375 167.362 105.369C167.253 105.337 167.189 105.222 167.22 105.113C169.37 97.7264 171.837 93.417 174.983 91.5508C177.797 89.8821 180.705 90.3942 183.784 90.9365C184.537 91.0693 185.316 91.2065 186.088 91.3073C192.777 92.182 196.04 90.5614 196.071 90.5449C196.173 90.4929 196.298 90.5328 196.352 90.6343C196.404 90.7358 196.364 90.8606 196.262 90.913C196.127 90.9829 192.87 92.612 186.033 91.7181C185.254 91.6161 184.469 91.478 183.711 91.3444C180.711 90.8159 177.878 90.3167 175.196 91.9067C172.146 93.7162 169.737 97.949 167.62 105.228C167.594 105.318 167.511 105.378 167.421 105.378Z" fill="#219653"/>
<path d="M178.17 76.5976C178.108 76.5976 178.046 76.5698 178.006 76.5168C177.935 76.4263 177.952 76.2964 178.042 76.2265C178.082 76.1959 182.076 73.1613 187.618 72.1008C187.731 72.0796 187.84 72.153 187.862 72.2653C187.883 72.3775 187.811 72.4861 187.698 72.5077C182.251 73.5499 178.335 76.5246 178.297 76.5544C178.259 76.5834 178.214 76.5976 178.17 76.5976Z" fill="#219653"/>
<path d="M171.817 85.7793C171.781 85.7793 171.744 85.7698 171.712 85.7503C171.613 85.6919 171.58 85.5647 171.639 85.4664C174.563 80.5505 177.988 79.3117 185.455 76.9784C185.564 76.9439 185.68 77.005 185.715 77.1141C185.75 77.2232 185.689 77.3395 185.58 77.3737C178.216 79.6742 174.842 80.8928 171.996 85.6778C171.957 85.743 171.888 85.7793 171.817 85.7793Z" fill="#219653"/>
<path d="M169.991 116.056H164.977C163.206 116.056 161.685 114.802 161.353 113.069L159.736 104.638H175.232L173.614 113.069C173.282 114.802 171.762 116.056 169.991 116.056Z" fill="#F18D8D"/>
<path d="M174.846 106.636H160.249C160.019 106.636 159.833 106.45 159.833 106.221C159.833 105.993 160.019 105.807 160.249 105.807H174.846C175.076 105.807 175.262 105.993 175.262 106.221C175.262 106.45 175.076 106.636 174.846 106.636Z" fill="#EB5757"/>
</svg>
