<svg width="24" height="24" viewBox="0 0 24 24" fill="none" xmlns="http://www.w3.org/2000/svg">
<path d="M17.2266 0C16.0635 0 15.1172 0.946266 15.1172 2.10938V6.32812C15.1172 7.49123 16.0635 8.4375 17.2266 8.4375C18.3897 8.4375 19.3359 7.49123 19.3359 6.32812V2.10938C19.3359 0.946266 18.3897 0 17.2266 0Z" fill="white"/>
<path d="M16.5234 9.77307V23.2969C16.5234 23.6852 16.8382 24.0001 17.2266 24.0001C17.6149 24.0001 17.9297 23.6852 17.9297 23.2969V9.77307C17.7024 9.81938 17.4673 9.84381 17.2266 9.84381C16.9858 9.84381 16.7507 9.81938 16.5234 9.77307Z" fill="white"/>
<path d="M4.99219 18.1875H12.0234V10.7344H4.99219V18.1875ZM7.80469 12.6094C7.80469 12.2211 8.1195 11.9062 8.50781 11.9062C8.89613 11.9062 9.21094 12.2211 9.21094 12.6094V13.125C9.21094 13.5133 8.89613 13.8281 8.50781 13.8281C8.1195 13.8281 7.80469 13.5133 7.80469 13.125V12.6094ZM7.80469 15.5625C7.80469 15.1742 8.1195 14.8594 8.50781 14.8594C8.89613 14.8594 9.21094 15.1742 9.21094 15.5625V16.0781C9.21094 16.4664 8.89613 16.7812 8.50781 16.7812C8.1195 16.7812 7.80469 16.4664 7.80469 16.0781V15.5625Z" fill="white"/>
<path d="M4.99219 7.45312H12.0234V9.32812H4.99219V7.45312Z" fill="white"/>
<path d="M10.2422 0H6.77344C5.61033 0 4.66406 0.946266 4.66406 2.10938V6.04688H12.3516V2.10938C12.3516 0.946266 11.4053 0 10.2422 0Z" fill="white"/>
<path d="M4.99219 20.4844C4.99219 22.4229 6.5693 24 8.50781 24C10.4463 24 12.0234 22.4229 12.0234 20.4844V19.5938H4.99219V20.4844Z" fill="white"/>
</svg>
