<svg width="24" height="24" viewBox="0 0 24 24" fill="none" xmlns="http://www.w3.org/2000/svg">
<path d="M18.3281 5.625H21.8906C23.0538 5.625 24 4.67878 24 3.51562C24 2.35247 23.0538 1.40625 21.8906 1.40625H18.3281V0H16.9219V7.03125H18.3281V5.625Z" fill="white"/>
<path d="M1.40625 21.8906C1.40625 23.0538 2.35247 24 3.51562 24C4.67878 24 5.625 23.0538 5.625 21.8906V16.9219H1.40625V21.8906Z" fill="white"/>
<path d="M0 12.7031H0.703125C1.09106 12.7031 1.40625 13.0183 1.40625 13.4062V15.5156H5.625V13.4062C5.625 13.0183 5.94019 12.7031 6.32812 12.7031H7.03125V11.2969H0V12.7031Z" fill="white"/>
<path d="M9.89062 21.8906C9.89062 23.0538 10.8368 24 12 24C13.1632 24 14.1094 23.0538 14.1094 21.8906V16.9219H9.89062V21.8906Z" fill="white"/>
<path d="M8.48438 12.7031H9.1875C9.57544 12.7031 9.89062 13.0183 9.89062 13.4062V15.5156H14.1094V13.4062C14.1094 13.0183 14.4246 12.7031 14.8125 12.7031H15.5156V11.2969H8.48438V12.7031Z" fill="white"/>
<path d="M18.375 21.8906C18.375 23.0538 19.3212 24 20.4844 24C21.6475 24 22.5938 23.0538 22.5938 21.8906V16.9219H18.375V21.8906Z" fill="white"/>
<path d="M16.9688 12.7031H17.6719C18.0598 12.7031 18.375 13.0183 18.375 13.4062V15.5156H22.5938V13.4062C22.5938 13.0183 22.9089 12.7031 23.2969 12.7031H24V11.2969H16.9688V12.7031Z" fill="white"/>
<path d="M8.61389 2.8125H3.5625V3.68456L2.98364 4.52227C2.52361 5.18897 1.45312 6.83555 1.45312 7.73438C1.45312 8.89753 2.39934 9.84375 3.5625 9.84375C4.72566 9.84375 5.67188 8.89753 5.67188 7.73438C5.67188 6.83555 4.60139 5.18897 4.14136 4.52227L3.93164 4.21875H8.61389C8.90513 5.03541 9.67828 5.625 10.5938 5.625H15.5156V1.40625H10.5938C9.67828 1.40625 8.90513 1.99584 8.61389 2.8125Z" fill="white"/>
</svg>
