<svg width="200" height="146" viewBox="0 0 200 146" fill="none" xmlns="http://www.w3.org/2000/svg">
<g clip-path="url(#clip0)">
<path d="M15.8547 87.4706L75.9308 27.601C76.954 26.5755 77.5284 25.188 77.5284 23.7418C77.5284 22.2956 76.954 20.9081 75.9308 19.8826C74.9017 18.8629 73.5095 18.2905 72.0583 18.2905C70.6071 18.2905 69.2149 18.8629 68.1858 19.8826L8.10964 79.7522C7.60109 80.259 7.19769 80.8606 6.92247 81.5228C6.64724 82.185 6.50558 82.8947 6.50558 83.6114C6.50558 84.3281 6.64724 85.0378 6.92247 85.7C7.19769 86.3621 7.60109 86.9638 8.10964 87.4706C8.61819 87.9774 9.22193 88.3794 9.88638 88.6537C10.5508 88.928 11.263 89.0692 11.9822 89.0692C12.7014 89.0692 13.4135 88.928 14.078 88.6537C14.7424 88.3794 15.3462 87.9774 15.8547 87.4706Z" fill="#6FCF97"/>
<path d="M69.4184 49.3838C68.3893 48.3641 66.9971 47.7917 65.5459 47.7917C64.0947 47.7917 62.7024 48.3641 61.6733 49.3838L1.59722 109.253C0.57016 110.277 -0.00683595 111.665 -0.00683594 113.113C-0.00683593 114.56 0.57016 115.948 1.59722 116.972C2.62428 117.995 4.01728 118.57 5.46976 118.57C6.92224 118.57 8.31524 117.995 9.3423 116.972L69.4184 57.1023C70.4414 56.0766 71.0156 54.6892 71.0156 53.243C71.0156 51.7969 70.4414 50.4095 69.4184 49.3838Z" fill="#6FCF97"/>
<path d="M28.2879 121.692L68.801 81.3182C69.9382 81.142 70.9898 80.6105 71.8046 79.8004L131.881 19.9304C132.904 18.9048 133.478 17.5175 133.478 16.0714C133.478 14.6253 132.904 13.238 131.881 12.2124C130.852 11.1927 129.459 10.6204 128.008 10.6204C126.557 10.6204 125.165 11.1927 124.136 12.2124L83.6226 52.5862C82.4855 52.7624 81.4339 53.2939 80.6194 54.104L20.5433 113.974C19.5276 114.999 18.9602 116.384 18.965 117.825C18.9698 119.266 19.5464 120.647 20.5689 121.666C21.5914 122.685 22.9769 123.26 24.423 123.265C25.8691 123.27 27.2585 122.704 28.2879 121.692Z" fill="#6FCF97"/>
<path d="M90.7325 76.8198C89.7033 75.8004 88.3111 75.2281 86.86 75.2281C85.4089 75.2281 84.0167 75.8004 82.9875 76.8198L22.9113 136.69C21.8881 137.715 21.3138 139.103 21.3138 140.549C21.3138 141.995 21.8881 143.383 22.9113 144.408C23.9404 145.428 25.3327 146 26.7839 146C28.2351 146 29.6273 145.428 30.6564 144.408L90.7325 84.5387C91.7557 83.513 92.3299 82.1255 92.3299 80.6793C92.3299 79.233 91.7557 77.8455 90.7325 76.8198Z" fill="#6FCF97"/>
<path d="M98.3989 69.1798C99.4281 70.1993 100.82 70.7715 102.271 70.7715C103.723 70.7715 105.115 70.1993 106.144 69.1798L166.22 9.31025C167.243 8.28458 167.817 6.89718 167.817 5.45103C167.817 4.00489 167.243 2.61749 166.22 1.59181C165.191 0.572336 163.799 0.00012207 162.348 0.00012207C160.896 0.00012207 159.504 0.572336 158.475 1.59181L98.3989 61.4614C97.3757 62.487 96.8013 63.8744 96.8013 65.3206C96.8013 66.7668 97.3757 68.1543 98.3989 69.1798Z" fill="#6FCF97"/>
<path d="M116.801 81.5703L176.877 21.7007C177.391 21.1952 177.8 20.5933 178.08 19.9297C178.359 19.2661 178.505 18.5539 178.507 17.8341C178.51 17.1143 178.369 16.4011 178.094 15.7356C177.819 15.0702 177.414 14.4655 176.903 13.9566C176.392 13.4476 175.786 13.0443 175.118 12.7699C174.45 12.4956 173.735 12.3556 173.012 12.3579C172.29 12.3603 171.575 12.5051 170.91 12.7838C170.244 13.0626 169.64 13.4699 169.132 13.9822L122.224 60.7293C121.381 60.9885 120.614 61.4488 119.99 62.0704L59.9151 121.939C58.8919 122.965 58.3176 124.352 58.3176 125.798C58.3176 127.244 58.8919 128.632 59.9151 129.657C60.9442 130.677 62.3364 131.249 63.7876 131.249C65.2388 131.249 66.631 130.677 67.6601 129.657L114.567 82.9105C115.41 82.6512 116.177 82.1912 116.801 81.5703Z" fill="#6FCF97"/>
<path d="M197.599 16.0473C196.57 15.0278 195.178 14.4556 193.727 14.4556C192.276 14.4556 190.884 15.0278 189.854 16.0473L129.778 75.9168C129.426 76.2699 129.124 76.67 128.882 77.1056L87.4467 118.398C86.4196 119.422 85.8427 120.81 85.8427 122.257C85.8427 123.705 86.4196 125.093 87.4467 126.117C88.4738 127.14 89.8668 127.715 91.3192 127.715C92.7717 127.715 94.1647 127.14 95.1918 126.117L155.268 66.2469C155.62 65.8939 155.922 65.494 156.164 65.0586L197.599 23.7661C198.623 22.7405 199.197 21.353 199.197 19.9067C199.197 18.4604 198.623 17.073 197.599 16.0473Z" fill="#6FCF97"/>
<path d="M180.972 47.0235L120.897 106.893C119.874 107.918 119.3 109.305 119.3 110.752C119.3 112.198 119.874 113.585 120.897 114.611C121.926 115.63 123.319 116.202 124.77 116.202C126.221 116.202 127.613 115.63 128.642 114.611L188.718 54.7405C189.745 53.7168 190.322 52.3284 190.322 50.8809C190.321 49.4334 189.744 48.0452 188.717 47.0219C187.69 45.9985 186.296 45.4238 184.844 45.4241C183.391 45.4244 181.998 45.9997 180.972 47.0235Z" fill="#6FCF97"/>
<path d="M139.677 9.77994C141.064 8.39746 141.064 6.15601 139.677 4.77353C138.29 3.39105 136.04 3.39105 134.653 4.77353C133.266 6.15601 133.266 8.39746 134.653 9.77994C136.04 11.1624 138.29 11.1624 139.677 9.77994Z" fill="#6FCF97"/>
<path d="M182.435 11.1119C185.163 11.0731 187.343 8.83785 187.304 6.11942C187.265 3.401 185.022 1.22879 182.294 1.26765C179.566 1.30651 177.387 3.54173 177.426 6.26015C177.465 8.97857 179.708 11.1508 182.435 11.1119Z" fill="#6FCF97"/>
<path d="M54.4797 140.623C57.2077 140.623 59.4193 138.419 59.4193 135.7C59.4193 132.981 57.2077 130.777 54.4797 130.777C51.7516 130.777 49.54 132.981 49.54 135.7C49.54 138.419 51.7516 140.623 54.4797 140.623Z" fill="#6FCF97"/>
<path d="M114.886 124.986C116.805 124.986 118.361 123.436 118.361 121.523C118.361 119.61 116.805 118.06 114.886 118.06C112.967 118.06 111.411 119.61 111.411 121.523C111.411 123.436 112.967 124.986 114.886 124.986Z" fill="#6FCF97"/>
<path d="M15.9281 132.856C17.7956 132.414 18.9502 130.547 18.5068 128.686C18.0634 126.825 16.19 125.674 14.3224 126.116C12.4549 126.558 11.3003 128.425 11.7437 130.286C12.1871 132.147 14.0605 133.298 15.9281 132.856Z" fill="#6FCF97"/>
<path d="M11.2756 68.6394C11.963 68.6394 12.6349 68.4363 13.2064 68.0557C13.7779 67.6752 14.2234 67.1343 14.4864 66.5015C14.7495 65.8686 14.8183 65.1723 14.6843 64.5004C14.5502 63.8286 14.2193 63.2115 13.7333 62.7271C13.2473 62.2427 12.6281 61.9128 11.9539 61.7791C11.2798 61.6454 10.581 61.714 9.94598 61.976C9.31093 62.2381 8.76812 62.682 8.38619 63.2515C8.00425 63.821 7.80035 64.4905 7.80026 65.1755C7.8002 65.6304 7.89005 66.0808 8.06468 66.501C8.23931 66.9213 8.49529 67.3032 8.81802 67.6248C9.14074 67.9465 9.52388 68.2016 9.94557 68.3757C10.3672 68.5498 10.8192 68.6394 11.2756 68.6394Z" fill="#6FCF97"/>
<path d="M111.593 15.7876C113.488 15.4819 114.775 13.7034 114.468 11.8152C114.161 9.927 112.377 8.64408 110.482 8.94973C108.587 9.25539 107.3 11.0339 107.607 12.9221C107.913 14.8103 109.698 16.0932 111.593 15.7876Z" fill="#6FCF97"/>
<path opacity="0.1" d="M190.281 81.9589L175.088 79.2992V39.1838C175.088 37.5635 174.768 35.9592 174.146 34.4623C173.524 32.9654 172.612 31.6052 171.462 30.4596C170.313 29.3139 168.948 28.4051 167.446 27.7851C165.944 27.1651 164.334 26.846 162.708 26.8461H25.8955C24.2695 26.8458 22.6594 27.1647 21.1571 27.7846C19.6547 28.4045 18.2897 29.3132 17.1398 30.4589C15.99 31.6046 15.0779 32.9648 14.4555 34.4618C13.8332 35.9588 13.5129 37.5634 13.5129 39.1838V104.17C13.5129 107.442 14.8173 110.58 17.139 112.894C19.4607 115.208 22.6097 116.508 25.8932 116.508H138.256C138.552 118.039 139.307 119.445 140.421 120.541C141.534 121.636 142.955 122.37 144.495 122.645L181.945 129.207C183.963 129.554 186.036 129.092 187.712 127.921C189.388 126.75 190.531 124.966 190.892 122.957L196.551 90.8746C196.9 88.8644 196.436 86.7984 195.262 85.1278C194.087 83.4572 192.296 82.318 190.281 81.9589Z" fill="#606060"/>
<path d="M18.0183 31.004H28.4223V53.0928H18.0183C15.079 53.0928 12.2602 51.9292 10.1818 49.858C8.10344 47.7868 6.93582 44.9776 6.93582 42.0484C6.93582 39.1193 8.10344 36.3101 10.1818 34.2389C12.2602 32.1676 15.079 31.004 18.0183 31.004Z" fill="#219653"/>
<path d="M25.9665 22.2642H171.232C173.394 22.2642 175.468 23.1203 176.997 24.6442C178.527 26.1681 179.386 28.235 179.386 30.3901V111.927H25.9665C24.8955 111.927 23.8351 111.716 22.8457 111.308C21.8563 110.899 20.9573 110.301 20.2001 109.546C19.4429 108.791 18.8423 107.895 18.4327 106.909C18.023 105.923 17.8123 104.866 17.8125 103.799V30.3901C17.8125 28.235 18.6716 26.1681 20.2008 24.6442C21.7299 23.1203 23.8039 22.2642 25.9665 22.2642V22.2642Z" fill="white"/>
<path opacity="0.1" d="M19.6156 35.2866H94.677C96.1045 35.2866 97.5181 35.0064 98.8369 34.462C100.156 33.9176 101.354 33.1196 102.364 32.1137C103.373 31.1078 104.174 29.9136 104.72 28.5992C105.266 27.2849 105.547 25.8763 105.547 24.4537V22.2642H25.9665C24.8955 22.2639 23.835 22.4739 22.8455 22.8822C21.856 23.2904 20.9568 23.8889 20.1994 24.6435C19.442 25.3981 18.8412 26.294 18.4313 27.28C18.0213 28.266 17.8103 29.3228 17.8102 30.3901V35.1347C18.4068 35.2351 19.0106 35.2859 19.6156 35.2866Z" fill="#606060"/>
<path d="M95.8219 30.8891H21.7665C18.5404 30.8892 15.3913 31.8713 12.7408 33.7042C10.0903 35.537 8.06495 38.133 6.93582 41.1446V27.7165C6.93552 26.0613 7.26241 24.4222 7.89781 22.8929C8.53321 21.3636 9.46468 19.974 10.639 18.8035C11.8134 17.633 13.2076 16.7045 14.742 16.071C16.2765 15.4375 17.9212 15.1115 19.5821 15.1115H95.8219C97.9214 15.1115 99.9349 15.9426 101.419 17.422C102.904 18.9015 103.738 20.908 103.738 23.0003C103.738 25.0925 102.904 27.0991 101.419 28.5785C99.9349 30.058 97.9214 30.8891 95.8219 30.8891Z" fill="#27AE60"/>
<path d="M30.295 18.1165L31.8081 20.6111L34.6579 21.2738L32.744 23.4786L32.9919 26.3835L30.295 25.2507L27.5995 26.3835L27.8473 23.4786L25.9335 21.2738L28.7833 20.6111L30.295 18.1165Z" fill="#F2C94C"/>
<path d="M44.6633 18.1165L46.176 20.6111L49.0258 21.2738L47.1119 23.4786L47.3602 26.3835L44.6647 25.2507L41.9692 26.3835L42.217 23.4786L40.3032 21.2738L43.1529 20.6111L44.6633 18.1165Z" fill="#F2C94C"/>
<path d="M59.0312 18.1165L60.5434 20.6111L63.3932 21.2738L61.4793 23.4786L61.7272 26.3835L59.0317 25.2507L56.3361 26.3835L56.5845 23.4786L54.6706 21.2738L57.5204 20.6111L59.0312 18.1165Z" fill="#F2C94C"/>
<path d="M73.3986 18.1165L74.9113 20.6111L77.7611 21.2738L75.8472 23.4786L76.0951 26.3835L73.3995 25.2507L70.704 26.3835L70.9519 23.4786L69.038 21.2738L71.8878 20.6111L73.3986 18.1165Z" fill="#F2C94C"/>
<path d="M87.7665 18.1165L89.2809 20.6111L92.1307 21.2738L90.2169 23.4786L90.4652 26.3835L87.7697 25.2507L85.0741 26.3835L85.322 23.4786L83.4081 21.2738L86.2579 20.6111L87.7665 18.1165Z" fill="#F2C94C"/>
<path d="M32.9457 91.4101C32.5861 91.409 32.2416 91.2662 31.9873 91.0128C31.7331 90.7594 31.5898 90.416 31.5887 90.0577V48.1341C31.5898 47.7758 31.7331 47.4324 31.9873 47.179C32.2416 46.9256 32.5861 46.7828 32.9457 46.7817C33.3053 46.7828 33.6498 46.9256 33.9041 47.179C34.1584 47.4324 34.3017 47.7758 34.3028 48.1341V90.0577C34.3017 90.416 34.1584 90.7594 33.9041 91.0128C33.6498 91.2662 33.3053 91.409 32.9457 91.4101Z" fill="#F2C94C"/>
<g opacity="0.56">
<path opacity="0.2" d="M112.13 56.4739H44.8832C44.4769 56.4727 44.0877 56.3114 43.8003 56.0251C43.513 55.7389 43.351 55.351 43.3497 54.9461C43.3509 54.5412 43.5129 54.1532 43.8002 53.8669C44.0875 53.5805 44.4769 53.4192 44.8832 53.418H112.13C112.536 53.4193 112.925 53.5807 113.213 53.867C113.5 54.1534 113.662 54.5413 113.663 54.9461C113.662 55.3509 113.5 55.7387 113.212 56.025C112.925 56.3112 112.536 56.4726 112.13 56.4739Z" fill="#474747"/>
<path opacity="0.2" d="M112.13 63.912H44.8832C44.4769 63.9108 44.0877 63.7495 43.8003 63.4632C43.513 63.177 43.351 62.7891 43.3497 62.3843C43.3509 61.9793 43.5129 61.5913 43.8002 61.305C44.0875 61.0187 44.4769 60.8573 44.8832 60.8561H112.13C112.536 60.8574 112.925 61.0188 113.213 61.3051C113.5 61.5915 113.662 61.9794 113.663 62.3843C113.662 62.789 113.5 63.1769 113.212 63.4631C112.925 63.7493 112.536 63.9107 112.13 63.912Z" fill="#474747"/>
<path opacity="0.2" d="M112.13 71.35H44.8832C44.4769 71.3488 44.0877 71.1875 43.8003 70.9012C43.513 70.615 43.351 70.2271 43.3497 69.8222C43.3509 69.4173 43.5129 69.0293 43.8002 68.743C44.0875 68.4566 44.4769 68.2953 44.8832 68.2941H112.13C112.536 68.2954 112.925 68.4568 113.213 68.7431C113.5 69.0295 113.662 69.4174 113.663 69.8222C113.662 70.227 113.5 70.6148 113.212 70.9011C112.925 71.1873 112.536 71.3487 112.13 71.35Z" fill="#474747"/>
<path opacity="0.2" d="M112.13 78.7881H44.8832C44.4769 78.7869 44.0877 78.6256 43.8003 78.3393C43.513 78.0531 43.351 77.6652 43.3497 77.2604C43.3509 76.8554 43.5129 76.4674 43.8002 76.1811C44.0875 75.8948 44.4769 75.7334 44.8832 75.7322H112.13C112.536 75.7335 112.925 75.8949 113.213 76.1812C113.5 76.4676 113.662 76.8555 113.663 77.2604C113.662 77.6651 113.5 78.053 113.212 78.3392C112.925 78.6254 112.536 78.7868 112.13 78.7881Z" fill="#474747"/>
<path opacity="0.2" d="M99.7809 82.9994H44.7791C43.9897 82.9994 43.3497 83.6372 43.3497 84.4239V84.8017C43.3497 85.5884 43.9897 86.2262 44.7791 86.2262H99.7809C100.57 86.2262 101.21 85.5884 101.21 84.8017V84.4239C101.21 83.6372 100.57 82.9994 99.7809 82.9994Z" fill="#474747"/>
</g>
<g opacity="0.1">
<path opacity="0.1" d="M160.464 102.215C160.464 102.215 161.776 90.0294 171.829 87.2363L174.356 93.6105L166.185 104.164L160.464 102.215Z" fill="#606060"/>
<path opacity="0.1" d="M194.361 122.99L204.219 101.267C204.219 101.267 199.959 100.417 180.624 94.6884C169.771 91.4729 165.344 89.0896 163.304 87.2165C164.028 82.5148 162.699 77.3505 158.764 72.6041C153.834 66.6591 155.29 59.3508 157.463 54.9885C158.626 52.6534 159.532 49.3284 157.13 48.2961C154.93 47.3494 151.165 48.8348 148.594 54.0405C144.774 61.7739 145.074 67.1721 145.074 67.1721L132.663 64.4421L140.753 99.405C140.753 99.405 150.178 102.79 155.846 98.8086C156.082 98.6427 156.312 98.4719 156.538 98.2974C164.853 99.1562 194.361 122.99 194.361 122.99Z" fill="#606060"/>
<g opacity="0.1">
<path opacity="0.1" d="M196.442 118.404C193.869 116.339 166.733 94.6874 158.815 93.8701C158.589 94.0441 158.358 94.2154 158.122 94.3813C152.455 98.3623 143.03 94.9777 143.03 94.9777L138.681 76.1824L138.232 77.1467L135.286 75.7812L140.752 99.4027C140.752 99.4027 150.176 102.788 155.844 98.8063C156.08 98.6404 156.31 98.4696 156.536 98.2951C164.851 99.1516 194.361 122.988 194.361 122.988L196.442 118.404Z" fill="#606060"/>
</g>
<g opacity="0.1">
<path opacity="0.1" d="M155.135 74.8612L132.231 64.2414C130.438 63.4099 128.308 64.1845 127.473 65.9716L127.094 66.7849C126.259 68.5719 127.037 70.6947 128.83 71.5261L151.734 82.146C153.527 82.9774 155.657 82.2028 156.491 80.4157L156.871 79.6024C157.705 77.8154 156.928 75.6926 155.135 74.8612Z" fill="#606060"/>
<path opacity="0.1" d="M152.59 80.287L129.694 69.6731C128.926 69.3136 128.31 68.6945 127.957 67.9257C127.603 67.157 127.534 66.2881 127.762 65.4735C127.653 65.6308 127.557 65.7967 127.474 65.9694L127.095 66.7808C126.697 67.6391 126.657 68.6194 126.982 69.5075C127.307 70.3956 127.972 71.1193 128.831 71.5204L151.727 82.1339C152.588 82.5301 153.572 82.5706 154.463 82.2464C155.354 81.9223 156.08 81.2598 156.483 80.4037L156.862 79.5923C156.942 79.4176 157.008 79.2367 157.058 79.0513C156.58 79.7504 155.869 80.2581 155.051 80.4843C154.233 80.7105 153.361 80.6406 152.59 80.287Z" fill="#606060"/>
<path opacity="0.1" d="M127.861 71.0727L152.697 82.586C153.558 82.9851 154.225 83.7086 154.55 84.5974C154.876 85.4862 154.834 86.4675 154.433 87.3254L154.054 88.1372C153.856 88.562 153.576 88.9438 153.229 89.2606C152.883 89.5775 152.478 89.8233 152.036 89.984C151.594 90.1447 151.125 90.2171 150.655 90.1971C150.186 90.1771 149.724 90.0651 149.298 89.8674L124.462 78.3543C124.035 78.1567 123.652 77.8773 123.334 77.5322C123.017 77.187 122.77 76.7828 122.609 76.3427C122.448 75.9025 122.375 75.4351 122.395 74.967C122.415 74.4988 122.528 74.0393 122.726 73.6145L123.105 72.8027C123.505 71.9448 124.231 71.2806 125.123 70.9561C126.015 70.6317 127 70.6736 127.861 71.0727V71.0727Z" fill="#606060"/>
<path opacity="0.1" d="M150.189 87.9595L125.352 76.4463C124.588 76.0891 123.976 75.4756 123.621 74.7134C123.266 73.9511 123.191 73.0888 123.411 72.2773C123.294 72.443 123.192 72.6182 123.105 72.8012L122.725 73.6126C122.328 74.471 122.287 75.4511 122.613 76.3392C122.938 77.2272 123.602 77.9509 124.461 78.3522L149.298 89.8654C150.16 90.2616 151.143 90.302 152.034 89.9778C152.925 89.6537 153.652 88.9913 154.054 88.1353L154.433 87.3239C154.518 87.1398 154.587 86.9489 154.639 86.7532C154.157 87.4429 153.447 87.9417 152.634 88.1623C151.82 88.3828 150.954 88.311 150.189 87.9595Z" fill="#606060"/>
<path opacity="0.1" d="M147.534 88.8113L126.41 79.0192C124.617 78.1882 122.488 78.9628 121.654 80.7493L121.275 81.5622C120.441 83.3487 121.218 85.4706 123.011 86.3016L144.134 96.0938C145.927 96.9248 148.056 96.1502 148.89 94.3637L149.27 93.5507C150.103 91.7642 149.326 89.6423 147.534 88.8113Z" fill="#606060"/>
<path opacity="0.1" d="M145.065 94.0992L123.941 84.3076C123.185 83.954 122.576 83.349 122.219 82.5966C121.863 81.8443 121.78 80.9915 121.986 80.1851C121.858 80.3625 121.746 80.5514 121.653 80.7495L121.274 81.5609C120.876 82.4192 120.836 83.3995 121.161 84.2875C121.486 85.1756 122.151 85.8992 123.01 86.3005L144.134 96.0926C144.996 96.4888 145.979 96.5292 146.87 96.205C147.761 95.8808 148.488 95.2184 148.89 94.3625L149.27 93.551C149.362 93.3524 149.435 93.1459 149.488 92.9339C149.002 93.6103 148.294 94.0966 147.487 94.3093C146.68 94.522 145.823 94.4477 145.065 94.0992Z" fill="#606060"/>
<path opacity="0.1" d="M142.807 95.0563L124.662 86.6446C123.103 85.922 121.251 86.5956 120.526 88.1491L120.169 88.9151C119.443 90.4686 120.119 92.3138 121.678 93.0364L139.824 101.448C141.383 102.171 143.234 101.497 143.959 99.9436L144.317 99.1776C145.042 97.6241 144.366 95.7789 142.807 95.0563Z" fill="#606060"/>
<path opacity="0.1" d="M140.471 100.061L122.326 91.6496C121.633 91.3256 121.084 90.7594 120.782 90.0585C120.48 89.3576 120.447 88.5707 120.689 87.8472C120.629 87.9449 120.575 88.0457 120.526 88.1492L120.169 88.9155C119.823 89.6619 119.787 90.5145 120.07 91.2869C120.353 92.0592 120.931 92.6885 121.678 93.0371L139.824 101.448C140.573 101.793 141.428 101.829 142.203 101.547C142.978 101.265 143.61 100.689 143.96 99.9441L144.317 99.1778C144.365 99.0738 144.407 98.9673 144.444 98.8586C144.045 99.5096 143.42 99.9918 142.687 100.213C141.955 100.435 141.166 100.381 140.471 100.061Z" fill="#606060"/>
</g>
<path opacity="0.1" d="M171.529 88.7848C171.529 88.7848 168.794 98.2726 161.705 102.579C161.705 102.579 201.086 132.012 206.653 134.593C212.221 137.174 224.534 111.246 223.025 109.492C221.515 107.738 171.529 88.7848 171.529 88.7848Z" fill="#606060"/>
<path opacity="0.1" d="M168.635 101.602C172.537 98.4664 174.617 93.6678 175.653 90.3549C173.087 89.3753 171.529 88.7848 171.529 88.7848C171.529 88.7848 168.794 98.2726 161.705 102.579C161.705 102.579 201.086 132.012 206.653 134.593C208.973 135.668 212.463 131.795 215.636 126.783C205.718 122.389 168.635 101.602 168.635 101.602Z" fill="#606060"/>
<path opacity="0.1" d="M171.829 87.2382C171.829 87.2382 185.41 91.1019 185.214 93.0209C184.183 103.088 175.548 113.427 173.576 112.513C171.604 111.599 160.464 102.217 160.464 102.217C160.464 102.217 167.054 100.491 171.829 87.2382Z" fill="#606060"/>
</g>
<path d="M192.396 79.6979L154.944 73.1425C150.741 72.407 146.736 75.2058 145.998 79.3938L140.343 111.48C139.605 115.668 142.413 119.659 146.616 120.395L184.068 126.95C188.271 127.686 192.276 124.887 193.014 120.699L198.669 88.6129C199.407 84.4248 196.599 80.4334 192.396 79.6979Z" fill="#46386C"/>
<path d="M192.396 79.6979L154.944 73.1425C150.741 72.407 146.736 75.2058 145.998 79.3938L140.343 111.48C139.605 115.668 142.413 119.659 146.616 120.395L184.068 126.95C188.271 127.686 192.276 124.887 193.014 120.699L198.669 88.6129C199.407 84.4248 196.599 80.4334 192.396 79.6979Z" fill="#F2C94C"/>
<path d="M161.973 105.971C161.973 105.971 163.285 93.7858 173.336 90.9932L175.864 97.3669L167.693 107.92L161.973 105.971Z" fill="#27AE60"/>
<path d="M189.533 119.234L193.378 105.485C193.378 105.485 201.468 104.174 182.133 98.4452C171.28 95.2293 166.853 92.8459 164.813 90.9729C165.537 86.2716 164.208 81.1069 160.273 76.3605C155.343 70.4159 156.799 63.1073 158.972 58.7449C160.135 56.4099 161.041 53.0848 158.639 52.0525C156.439 51.1058 152.674 52.5935 150.103 57.7969C146.284 65.5303 146.584 70.9289 146.584 70.9289L132.843 68.0123L128.646 97.6293C128.646 97.6293 151.686 106.545 157.354 102.564C157.59 102.398 157.82 102.227 158.046 102.053C166.361 102.913 189.533 119.234 189.533 119.234Z" fill="#FFAAAB"/>
<path d="M144.091 90.6078C147.578 90.4779 151.294 91.2862 154.388 92.1598C154.847 92.2892 155.315 92.442 155.786 92.6106C154.405 91.6399 153.171 90.4759 152.122 89.1544C150.063 86.5597 148.055 83.0642 147.224 79.4912C147.072 79.2262 146.922 78.9602 146.777 78.6902C146.575 78.3475 146.244 78.0985 145.858 77.9977C145.472 77.8969 145.062 77.9523 144.717 78.152C141.856 80.0092 141.271 84.5243 142.107 87.5987C142.455 88.7752 143.145 89.8224 144.091 90.6078Z" fill="#FF9A9B"/>
<path d="M189.759 116.079C187.187 114.014 168.243 98.4444 160.324 97.6266C160.098 97.8006 159.868 97.9719 159.632 98.1378C153.964 102.119 144.54 98.7342 144.54 98.7342L140.191 79.9389L139.741 80.9032L136.796 79.5377L128.646 97.6307C128.646 97.6307 151.686 106.546 157.354 102.565C157.59 102.4 157.82 102.228 158.046 102.054C166.361 102.911 189.759 119.46 189.759 119.46V116.079Z" fill="#FF9A9B"/>
<path d="M146.492 87.9594L128.346 82.6369C127.528 82.3572 126.854 81.7662 126.472 80.9932C126.09 80.2201 126.03 79.3277 126.306 78.5109L126.682 77.3627C126.944 76.5411 127.521 75.856 128.287 75.4569C129.054 75.0578 129.947 74.9772 130.773 75.2327L148.919 80.5547C149.737 80.8347 150.41 81.4257 150.793 82.1988C151.175 82.9719 151.235 83.8643 150.959 84.6813L150.583 85.8294C150.322 86.6509 149.745 87.336 148.978 87.7351C148.212 88.1341 147.318 88.2148 146.492 87.9594Z" fill="#FFC6BF"/>
<path d="M147.282 86.0697L128.826 80.6462C127.394 80.1801 126.586 78.6037 126.856 76.9808C126.768 77.1553 126.692 77.3362 126.63 77.5218L126.359 78.3481C125.766 80.1571 126.591 82.0635 128.192 82.5855L146.648 88.0085C148.248 88.5297 150.043 87.4762 150.636 85.6671L150.908 84.8408C150.968 84.6542 151.013 84.4632 151.043 84.2697C150.302 85.7388 148.715 86.5363 147.282 86.0697Z" fill="#FFB5B6"/>
<path d="M144.479 95.4962L126.817 90.198C125.949 89.8938 125.237 89.2598 124.836 88.4342C124.436 87.6087 124.379 86.6588 124.679 85.792L124.966 84.9716C125.271 84.1067 125.908 83.3972 126.736 82.9982C127.564 82.5991 128.517 82.5428 129.387 82.8416L147.05 88.1397C147.918 88.444 148.63 89.078 149.03 89.9034C149.43 90.7289 149.487 91.6786 149.187 92.5453L148.9 93.3662C148.595 94.2311 147.959 94.9405 147.131 95.3396C146.302 95.7386 145.349 95.7949 144.479 95.4962Z" fill="#FFC6BF"/>
<path d="M145.183 93.482L127.521 88.1847C126.757 87.9167 126.11 87.3918 125.693 86.7002C125.275 86.0086 125.112 85.1936 125.233 84.3954C125.126 84.579 125.037 84.7722 124.966 84.9724L124.679 85.7928C124.379 86.6597 124.436 87.6096 124.836 88.4351C125.237 89.2606 125.949 89.8947 126.817 90.1989L144.479 95.497C145.349 95.7958 146.302 95.7395 147.131 95.3404C147.959 94.9413 148.595 94.2319 148.9 93.367L149.187 92.5462C149.256 92.3457 149.307 92.1392 149.338 91.9295C148.935 92.6292 148.299 93.167 147.541 93.4504C146.783 93.7337 145.949 93.7449 145.183 93.482Z" fill="#FFB5B6"/>
<path d="M145.983 79.8646L130.933 75.2881C130.094 74.9942 129.405 74.381 129.018 73.5825C128.63 72.784 128.576 71.8652 128.866 71.0268L129.144 70.2325C129.439 69.3958 130.054 68.7095 130.855 68.3235C131.657 67.9375 132.579 67.8832 133.42 68.1724L148.47 72.7488C149.309 73.0429 149.998 73.6562 150.385 74.4548C150.773 75.2533 150.827 76.1722 150.537 77.0106L150.26 77.8045C149.964 78.6412 149.349 79.3275 148.548 79.7135C147.746 80.0995 146.824 80.1538 145.983 79.8646Z" fill="#FFC6BF"/>
<path d="M146.664 77.9162L131.614 73.3397C130.875 73.0805 130.25 72.5728 129.846 71.9039C129.442 71.2351 129.285 70.4468 129.401 69.6748C129.298 69.8524 129.212 70.0391 129.144 70.2324L128.866 71.0267C128.576 71.8651 128.63 72.7839 129.018 73.5824C129.405 74.3809 130.094 74.9941 130.933 75.2881L145.983 79.8645C146.824 80.1537 147.746 80.0994 148.548 79.7134C149.349 79.3274 149.964 78.6411 150.26 77.8044L150.537 77.0105C150.604 76.8166 150.653 76.6167 150.683 76.4137C150.293 77.0906 149.678 77.6108 148.944 77.885C148.211 78.1592 147.405 78.1702 146.664 77.9162Z" fill="#FFB5B6"/>
<path d="M141.337 101.804L126.053 96.78C125.334 96.5279 124.744 96.0024 124.412 95.3183C124.08 94.6342 124.033 93.847 124.282 93.1286L124.644 92.0891C124.896 91.3722 125.424 90.7842 126.11 90.4534C126.797 90.1226 127.587 90.076 128.308 90.3238L143.591 95.3474C144.31 95.5994 144.9 96.1249 145.232 96.809C145.564 97.4932 145.611 98.2804 145.362 98.9988L145.001 100.039C144.748 100.756 144.22 101.344 143.534 101.674C142.847 102.005 142.057 102.052 141.337 101.804Z" fill="#FFC6BF"/>
<path d="M141.961 100.45L126.408 95.3322C125.754 95.0696 125.22 94.5753 124.91 93.9443C124.599 93.3133 124.533 92.5902 124.725 91.9138C124.678 92.0143 124.636 92.117 124.599 92.2217L124.327 92.9953C123.781 94.5582 124.497 96.241 125.917 96.7332L141.47 101.851C142.891 102.344 144.501 101.468 145.047 99.9059L145.318 99.1319C145.355 99.0259 145.385 98.9191 145.409 98.8123C145.137 99.4606 144.636 99.9863 143.999 100.289C143.363 100.591 142.637 100.648 141.961 100.45Z" fill="#FFB5B6"/>
<path fill-rule="evenodd" clip-rule="evenodd" d="M196.393 101.524C184.362 96.8349 173.037 92.5411 173.037 92.5411C173.037 92.5411 170.302 102.029 163.212 106.335C163.212 106.335 177.198 116.788 189.678 125.781C191.38 124.655 192.633 122.862 193.014 120.699L196.393 101.524Z" fill="#219653"/>
<path fill-rule="evenodd" clip-rule="evenodd" d="M193.45 118.225C181.58 111.771 170.142 105.36 170.142 105.36C174.045 102.224 176.125 97.426 177.161 94.1132C174.595 93.1336 173.037 92.5426 173.037 92.5426C173.037 92.5426 170.302 102.031 163.212 106.337C163.212 106.337 177.197 116.789 189.677 125.782C191.379 124.656 192.633 122.863 193.014 120.699L193.45 118.225Z" fill="#1C7D45"/>
<path d="M173.336 90.9932C173.336 90.9932 186.918 94.8564 186.721 96.7759C185.69 106.843 177.056 117.181 175.084 116.268C173.112 115.354 161.973 105.971 161.973 105.971C161.973 105.971 168.561 104.246 173.336 90.9932Z" fill="#6FCF97"/>
</g>
<defs>
<clipPath id="clip0">
<rect width="200" height="146" fill="white"/>
</clipPath>
</defs>
</svg>
