<svg width="66" height="66" viewBox="0 0 66 66" fill="none" xmlns="http://www.w3.org/2000/svg">
<path fill-rule="evenodd" clip-rule="evenodd" d="M16 66C43.6142 66 66 43.6142 66 16C66 10.4044 65.0808 5.02348 63.3852 0H8C3.58172 0 0 3.58172 0 8V63.3852C5.02348 65.0808 10.4044 66 16 66Z" fill="#219653"/>
<path d="M16.0231 32C14.9133 32 13.9576 31.6307 13.1561 30.892C12.3854 30.1237 12 29.2078 12 28.144C12 27.0803 12.3854 26.1791 13.1561 25.4404C13.9576 24.7018 14.9133 24.3324 16.0231 24.3324C17.1329 24.3324 18.0732 24.7018 18.8439 25.4404C19.6146 26.1791 20 27.0803 20 28.144C20 29.2078 19.6146 30.1237 18.8439 30.892C18.0732 31.6307 17.1329 32 16.0231 32ZM12.8786 9.13019V0H19.1214V9.13019L18.474 20.831H13.526L12.8786 9.13019Z" fill="#27AE60"/>
</svg>
